<?xml version="1.0" encoding="utf-8"?>
<!-- Generator: Adobe Illustrator 16.0.3, SVG Export Plug-In . SVG Version: 6.00 Build 0)  -->
<!DOCTYPE svg PUBLIC "-//W3C//DTD SVG 1.1//EN" "http://www.w3.org/Graphics/SVG/1.1/DTD/svg11.dtd">
<svg version="1.1" xmlns="http://www.w3.org/2000/svg" xmlns:xlink="http://www.w3.org/1999/xlink" x="0px" y="0px" width="240px"
	 height="240px" viewBox="0 0 240 240" enable-background="new 0 0 240 240" xml:space="preserve">
<pattern  x="-379.5" y="620.5" width="64.82" height="68.564" patternUnits="userSpaceOnUse" id="paritnies2" viewBox="0 -68.564 64.82 68.564" overflow="visible">
	<g>
		<polygon fill="none" points="0,-68.564 64.82,-68.564 64.82,0 0,0 		"/>
		<path d="M53.998-67.193c0.006,0.372-0.134,0.723-0.393,0.988c-0.263,0.271-0.615,0.42-0.993,0.42
			c-0.032,0-0.063-0.002-0.095-0.004l-3.353,2.769c-0.016-0.016-0.035-0.031-0.058-0.048c-0.315,0.208-0.54,0.32-0.674,0.337
			c-0.034,0.008-0.067,0.006-0.097-0.011c-0.003-0.002-0.005-0.003-0.008-0.005c-0.005-0.003-0.01-0.007-0.015-0.011
			c0-0.001,0-0.001,0-0.001c-0.005-0.005-0.009-0.01-0.012-0.015c-0.002-0.002-0.004-0.004-0.005-0.007
			c-0.019-0.029-0.021-0.063-0.014-0.097c0.013-0.135,0.119-0.362,0.318-0.683c-0.018-0.022-0.034-0.042-0.049-0.058l2.025-2.598
			l-0.122-0.182l0.329-0.401l0.187,0.077l0.253-0.324c-0.003-0.037-0.005-0.074-0.006-0.111c-0.006-0.372,0.134-0.723,0.392-0.988
			c0.264-0.271,0.616-0.42,0.994-0.42c0.365,0,0.709,0.141,0.971,0.395C53.843-67.91,53.992-67.563,53.998-67.193z"/>
		<g>
			<path fill="#FFFFFF" d="M52.148-68.304c0,0.061,0.049,0.108,0.108,0.108s0.108-0.048,0.108-0.108
				c0-0.059-0.049-0.107-0.108-0.107S52.148-68.362,52.148-68.304z"/>
			<path fill="#FFFFFF" d="M53.309-67.629c0,0.06,0.049,0.108,0.108,0.108s0.107-0.049,0.107-0.108s-0.048-0.107-0.107-0.107
				S53.309-67.688,53.309-67.629z"/>
			<path fill="#FFFFFF" d="M53.448-67.368l0.017,0.021c-0.012,0.01-0.03,0.015-0.056,0.015c-0.163,0-0.598-0.202-0.772-0.297l0,0
				c-0.004-0.002-0.008-0.005-0.012-0.007s-0.008-0.004-0.012-0.006h0.001c-0.177-0.104-0.685-0.441-0.669-0.563l0.026,0.003
				c-0.011,0.088,0.422,0.396,0.667,0.543c0.203,0.108,0.624,0.3,0.772,0.3C53.434-67.359,53.443-67.364,53.448-67.368z"/>
		</g>
		<path d="M36.354-39.169c-0.03,0.129-0.03,0.228-0.001,0.303l-0.176,0.633c0.532,0.989-0.37,3.053-1.597,2.153
			c-0.133,0.046-0.241,0.003-0.324-0.13c-0.122-0.104,0.526-2.671,0.812-2.655c0.139-0.075,0.257,0.018,0.365,0.147
			c0.016,0.001,0.03,0.004,0.045,0.005l0.118-0.345c0.098-0.077,0.107-0.172,0.117-0.27c0.128-0.888-0.936-2.037-2.04-2.049
			c-1.11,0.008-2.175,1.16-2.047,2.049c0.01,0.098,0.02,0.192,0.117,0.27l0.118,0.345c0.014-0.002,0.026-0.004,0.04-0.005
			c0.109-0.13,0.227-0.223,0.366-0.148c0.284-0.015,0.933,2.551,0.812,2.656c-0.084,0.133-0.192,0.176-0.325,0.13
			c-1.228,0.901-2.131-1.172-1.593-2.158l-0.175-0.628c0.03-0.075,0.029-0.174-0.001-0.303c-0.156-1.303,1.025-2.665,2.484-2.783
			l0.001-0.002c0.056-0.004,0.111-0.006,0.167-0.007c0.011,0,0.021,0,0.032,0c0.01,0,0.021,0,0.031,0
			c0.056,0.001,0.111,0.003,0.168,0.007v0.002C35.328-41.834,36.51-40.472,36.354-39.169z"/>
		<g>
			<path fill="#FFFFFF" d="M31.092-37.37c0,0.066,0.056,0.121,0.124,0.121s0.124-0.055,0.124-0.121s-0.056-0.12-0.124-0.12
				S31.092-37.437,31.092-37.37z"/>
			<path fill="#FFFFFF" d="M31.969-37.811c0,0.066,0.056,0.12,0.124,0.12s0.124-0.054,0.124-0.12s-0.056-0.12-0.124-0.12
				S31.969-37.877,31.969-37.811z"/>
			<path fill="#FFFFFF" d="M31.215-37.146c0.207-0.038,0.803-0.31,0.992-0.463C32.162-37.379,31.45-37.08,31.215-37.146z"/>
			<path fill="#FFFFFF" d="M35.61-36.42c-0.06-0.034-0.134-0.015-0.167,0.043c-0.033,0.059-0.011,0.132,0.049,0.166
				c0.06,0.033,0.134,0.014,0.166-0.044C35.691-36.313,35.67-36.387,35.61-36.42z"/>
			<path fill="#FFFFFF" d="M36.117-36.644c-0.286-0.079-0.397-0.03-0.638,0.01C35.692-36.795,36.069-36.727,36.117-36.644z"/>
		</g>
		<path id="shape0_12_" d="M16.859-2.941C16.859-1.316,18.176,0,19.801,0c1.624,0,2.94-1.316,2.94-2.941
			c0-1.624-1.316-2.94-2.94-2.94C18.176-5.882,16.859-4.565,16.859-2.941z"/>
		<g>
			<path fill="#FFFFFF" d="M18.069-4.678c-0.466,0.465-0.723,1.082-0.723,1.74l-0.128-0.001c0-0.691,0.27-1.342,0.76-1.83
				c0.487-0.486,1.135-0.754,1.822-0.754c0.001,0,0.002,0,0.003,0v0.128C19.148-5.395,18.532-5.14,18.069-4.678z"/>
			<path fill="#FFFFFF" d="M22.389-2.938c0,0.702-0.276,1.358-0.778,1.85h-0.001c-0.485,0.474-1.126,0.735-1.804,0.735h-0.002V-0.48
				c0.646,0,1.255-0.248,1.717-0.699l0,0c0.477-0.467,0.739-1.091,0.74-1.758H22.389z"/>
			<path fill="#FFFFFF" d="M19.804-2.435c-0.277,0-0.503-0.226-0.503-0.503s0.226-0.503,0.503-0.503
				c0.276,0,0.503,0.226,0.503,0.503S20.08-2.435,19.804-2.435z M19.804-2.563c0.206,0,0.375-0.167,0.375-0.374
				c0-0.206-0.169-0.375-0.375-0.375c-0.207,0-0.375,0.169-0.375,0.375C19.429-2.73,19.597-2.563,19.804-2.563z"/>
			<path fill="#FFFFFF" d="M17.971-3.393c0,0.095,0.076,0.171,0.17,0.171s0.17-0.076,0.17-0.171c0-0.094-0.076-0.17-0.17-0.17
				S17.971-3.486,17.971-3.393z"/>
			<path fill="#FFFFFF" d="M21.296-3.393c0,0.095,0.077,0.171,0.171,0.171s0.17-0.076,0.17-0.171c0-0.094-0.076-0.17-0.17-0.17
				S21.296-3.486,21.296-3.393z"/>
		</g>
		<polygon id="shape0_11_" points="5.316,-56.322 2.719,-57.822 0,-53.113 2.598,-51.612 		"/>
		<g>
			<polygon fill="#FFFFFF" points="4.271,-55.064 2.153,-56.286 1.211,-54.654 3.328,-53.432 			"/>
			<path fill="#FFFFFF" d="M2.156-56.442c0,0.063,0.05,0.112,0.111,0.112c0.063,0,0.112-0.05,0.112-0.112
				c0-0.062-0.05-0.111-0.112-0.111C2.206-56.554,2.156-56.504,2.156-56.442z"/>
			<path fill="#FFFFFF" d="M4.234-55.242c0,0.062,0.05,0.112,0.112,0.112c0.062,0,0.112-0.051,0.112-0.112s-0.051-0.111-0.112-0.111
				C4.284-55.354,4.234-55.304,4.234-55.242z"/>
			<polygon fill="#FFFFFF" points="3.166,-53.173 2.316,-53.663 2.277,-53.595 3.127,-53.104 			"/>
			<polygon fill="#FFFFFF" points="1.024,-54.319 1.875,-53.828 1.914,-53.896 1.064,-54.388 			"/>
			<polygon fill="#FFFFFF" points="2.1,-54.063 2.229,-53.662 1.817,-53.575 			"/>
		</g>
		<g>
			<path d="M64.066-17.55c0,0.208,0.169,0.377,0.377,0.377s0.377-0.169,0.377-0.377s-0.169-0.377-0.377-0.377
				S64.066-17.758,64.066-17.55z"/>
			<path d="M62.76-21.462c0.974,1.416,1.26,3.119,0.903,4.234c-0.003-0.011,0.003,0.011,0,0c-0.196,0.469-0.679,0.789-1.24,0.789
				c-0.736,0-1.332-0.568-1.332-1.27s0.596-1.27,1.332-1.27c0.294,0,0.566,0.092,0.787,0.245c-0.011-0.939-0.298-1.79-0.861-2.55
				l-0.301,0.139c-0.284-0.144-0.401-0.239-0.354-0.286c2.857-1.478,3.271,0.821,2.533,1.298
				C64.569-20.58,64.581-21.914,62.76-21.462z"/>
		</g>
		<g>
			<path fill="#FFFFFF" d="M62.542-17.981c0,0.066,0.054,0.12,0.12,0.12c0.065,0,0.119-0.054,0.119-0.12s-0.054-0.119-0.119-0.119
				C62.596-18.101,62.542-18.048,62.542-17.981z"/>
			<path fill="#FFFFFF" d="M61.225-17.981c0,0.066,0.054,0.12,0.119,0.12c0.066,0,0.12-0.054,0.12-0.12s-0.054-0.119-0.12-0.119
				C61.278-18.101,61.225-18.048,61.225-17.981z"/>
			<path fill="#FFFFFF" d="M62.54-17.828c-0.372,0.239-0.749,0.248-1.133,0.023C61.706-17.721,61.938-17.623,62.54-17.828z"/>
			<path fill="#FFFFFF" d="M64.625-17.691c0,0.015,0.012,0.026,0.025,0.026c0.015,0,0.026-0.012,0.026-0.026
				s-0.012-0.026-0.026-0.026C64.637-17.718,64.625-17.706,64.625-17.691z"/>
			<path fill="#FFFFFF" d="M64.259-17.691c0,0.015,0.012,0.026,0.026,0.026c0.014,0,0.025-0.012,0.025-0.026
				s-0.012-0.026-0.025-0.026C64.271-17.718,64.259-17.706,64.259-17.691z"/>
			<path fill="#FFFFFF" d="M64.352-17.653c0.12,0,0.133,0,0.246-0.005C64.52-17.599,64.438-17.597,64.352-17.653z"/>
		</g>
	</g>
</pattern>
<g id="Calque_1" xmlns:krita="http://krita.org/namespaces/svg/krita" xmlns:sodipodi="http://sodipodi.sourceforge.net/DTD/sodipodi-0.dtd">
	<path fill="#DF5A26" d="M165.083,151.107c6.108-8.838,9.696-19.551,9.696-31.107c0-30.254-24.525-54.78-54.779-54.78
		S65.22,89.746,65.22,120c0,11.557,3.587,22.271,9.697,31.107c-26.111,17.92-43.86,50.924-44.648,88.893h179.463
		C208.943,202.031,191.193,169.027,165.083,151.107z"/>
	<g opacity="0.5">
		<path fill="url(#paritnies2)" d="M165.083,151.107c6.108-8.838,9.696-19.551,9.696-31.107c0-30.254-24.525-54.78-54.779-54.78
			S65.22,89.746,65.22,120c0,11.557,3.587,22.271,9.697,31.107c-26.111,17.92-43.86,50.924-44.648,88.893h179.463
			C208.943,202.031,191.193,169.027,165.083,151.107z"/>
	</g>
	<path fill="#070707" d="M120,174.779c-18.731,0-35.258-9.406-45.137-23.748c8.423,17.66,25.467,29.748,45.137,29.748
		c19.669,0,36.712-12.086,45.135-29.746C155.257,165.373,138.73,174.779,120,174.779z"/>
</g>
<g id="Calque_2" display="none">
	<path display="inline" d="M6.931-5.778c4.047-6.793,5.617-12.779,3.484-14.311c-2.055-1.475-6.922,1.623-11.87,7.214
		c-6.127-4.264-11.586-6.128-13.234-4.21c-1.712,1.993,1.227,7.438,6.762,13.084c-4.046,6.794-5.618,12.779-3.483,14.311
		c2.054,1.476,6.92-1.623,11.869-7.214c6.127,4.265,11.586,6.128,13.234,4.21C15.405,5.313,12.466-0.132,6.931-5.778z"/>
	<path display="inline" d="M41.431,4.722c4.047-6.793,5.617-12.779,3.484-14.311c-2.055-1.475-6.922,1.623-11.869,7.214
		c-6.127-4.264-11.586-6.128-13.234-4.21c-1.713,1.993,1.227,7.438,6.762,13.084c-4.047,6.794-5.618,12.779-3.484,14.311
		c2.055,1.476,6.921-1.623,11.869-7.214c6.127,4.265,11.586,6.128,13.234,4.21C49.905,15.813,46.966,10.368,41.431,4.722z"/>
	<path display="inline" d="M75.931,15.222c4.047-6.793,5.617-12.779,3.484-14.311c-2.055-1.475-6.922,1.623-11.869,7.214
		c-6.127-4.264-11.586-6.128-13.234-4.21c-1.713,1.993,1.227,7.438,6.762,13.084c-4.047,6.794-5.618,12.779-3.484,14.311
		c2.055,1.476,6.921-1.623,11.869-7.214c6.127,4.265,11.586,6.128,13.234,4.21C84.405,26.313,81.466,20.868,75.931,15.222z"/>
	<path display="inline" d="M110.431,25.722c4.047-6.793,5.617-12.779,3.484-14.311c-2.055-1.475-6.922,1.623-11.869,7.214
		c-6.127-4.264-11.586-6.128-13.234-4.21c-1.713,1.993,1.227,7.438,6.762,13.084c-4.047,6.794-5.618,12.779-3.484,14.31
		c2.055,1.477,6.921-1.623,11.869-7.213c6.127,4.264,11.586,6.127,13.234,4.209C118.905,36.813,115.966,31.368,110.431,25.722z"/>
	<path display="inline" d="M144.932,36.221c4.046-6.793,5.616-12.778,3.483-14.31c-2.054-1.475-6.921,1.623-11.868,7.214
		c-6.127-4.264-11.586-6.128-13.234-4.21c-1.713,1.993,1.227,7.438,6.762,13.084c-4.047,6.795-5.619,12.779-3.484,14.311
		c2.055,1.477,6.92-1.623,11.869-7.213c6.127,4.264,11.585,6.127,13.233,4.209C153.405,47.313,150.466,41.868,144.932,36.221z"/>
	<path display="inline" d="M179.431,46.721c4.047-6.793,5.617-12.778,3.484-14.31c-2.055-1.475-6.922,1.623-11.869,7.214
		c-6.127-4.265-11.586-6.128-13.234-4.211c-1.713,1.992,1.227,7.438,6.762,13.084c-4.047,6.795-5.617,12.78-3.484,14.311
		c2.055,1.477,6.922-1.623,11.869-7.213c6.127,4.264,11.586,6.127,13.234,4.209C187.905,57.813,184.966,52.368,179.431,46.721z"/>
	<path display="inline" d="M213.931,57.221c4.047-6.793,5.617-12.778,3.484-14.311c-2.055-1.475-6.922,1.623-11.869,7.215
		c-6.127-4.265-11.586-6.129-13.234-4.211c-1.713,1.992,1.227,7.438,6.762,13.084c-4.047,6.795-5.617,12.78-3.484,14.311
		c2.055,1.477,6.922-1.623,11.869-7.213c6.127,4.264,11.586,6.127,13.234,4.209C222.405,68.313,219.466,62.868,213.931,57.221z"/>
	<path display="inline" d="M12.055,25.722c4.047-6.793,5.617-12.779,3.484-14.311c-2.055-1.475-6.922,1.623-11.87,7.214
		c-6.127-4.264-11.586-6.128-13.234-4.21c-1.712,1.993,1.227,7.438,6.762,13.084C-6.849,34.293-8.42,40.278-6.286,41.81
		c2.054,1.476,6.92-1.623,11.869-7.214c6.127,4.265,11.586,6.128,13.234,4.21C20.529,36.813,17.59,31.368,12.055,25.722z"/>
	<path display="inline" d="M46.555,36.222c4.047-6.793,5.617-12.779,3.484-14.311c-2.055-1.475-6.922,1.623-11.869,7.214
		c-6.127-4.264-11.586-6.128-13.234-4.21c-1.713,1.993,1.227,7.438,6.762,13.084c-4.047,6.794-5.618,12.779-3.484,14.311
		c2.055,1.476,6.921-1.623,11.869-7.214c6.127,4.265,11.586,6.128,13.234,4.21C55.029,47.313,52.09,41.868,46.555,36.222z"/>
	<path display="inline" d="M81.055,46.722c4.047-6.793,5.617-12.779,3.484-14.311c-2.055-1.475-6.922,1.623-11.869,7.214
		c-6.127-4.264-11.586-6.128-13.234-4.21c-1.713,1.993,1.227,7.438,6.762,13.084c-4.047,6.794-5.618,12.779-3.484,14.311
		c2.055,1.476,6.921-1.623,11.869-7.214c6.127,4.265,11.586,6.128,13.234,4.21C89.529,57.813,86.59,52.368,81.055,46.722z"/>
	<path display="inline" d="M115.555,57.222c4.047-6.793,5.617-12.779,3.484-14.311c-2.055-1.475-6.922,1.623-11.869,7.214
		c-6.127-4.264-11.586-6.128-13.234-4.21c-1.713,1.993,1.227,7.438,6.762,13.084c-4.047,6.794-5.618,12.779-3.484,14.311
		c2.055,1.477,6.921-1.623,11.869-7.214c6.127,4.264,11.585,6.128,13.234,4.209C124.029,68.313,121.09,62.868,115.555,57.222z"/>
	<path display="inline" d="M150.056,67.721c4.047-6.793,5.617-12.778,3.484-14.31c-2.055-1.475-6.923,1.623-11.87,7.214
		c-6.127-4.264-11.586-6.128-13.234-4.21c-1.713,1.993,1.227,7.438,6.762,13.084c-4.047,6.795-5.617,12.78-3.484,14.311
		c2.055,1.477,6.922-1.623,11.869-7.213c6.128,4.264,11.587,6.127,13.235,4.209C158.528,78.813,155.591,73.368,150.056,67.721z"/>
	<path display="inline" d="M184.556,78.222c4.047-6.793,5.617-12.779,3.484-14.311c-2.055-1.475-6.922,1.623-11.869,7.214
		c-6.127-4.265-11.586-6.128-13.234-4.211c-1.713,1.992,1.227,7.438,6.762,13.084c-4.047,6.795-5.619,12.779-3.484,14.311
		c2.055,1.477,6.92-1.623,11.869-7.213c6.127,4.264,11.586,6.127,13.234,4.209C193.028,89.313,190.091,83.868,184.556,78.222z"/>
	<path display="inline" d="M219.056,88.722c4.047-6.793,5.617-12.779,3.484-14.311c-2.055-1.475-6.922,1.623-11.869,7.215
		c-6.127-4.266-11.586-6.129-13.234-4.211c-1.713,1.992,1.227,7.438,6.762,13.084c-4.047,6.795-5.619,12.779-3.484,14.311
		c2.055,1.477,6.92-1.623,11.869-7.213c6.127,4.264,11.586,6.127,13.234,4.209C227.528,99.813,224.591,94.368,219.056,88.722z"/>
	<path display="inline" d="M17.179,57.222c4.047-6.793,5.617-12.779,3.484-14.311c-2.055-1.475-6.922,1.623-11.87,7.214
		c-6.127-4.264-11.586-6.128-13.234-4.21c-1.712,1.993,1.227,7.438,6.762,13.084c-4.046,6.794-5.618,12.779-3.483,14.311
		c2.054,1.476,6.92-1.623,11.869-7.214c6.127,4.265,11.586,6.128,13.234,4.21C25.653,68.313,22.714,62.868,17.179,57.222z"/>
	<path display="inline" d="M51.679,67.722c4.047-6.793,5.617-12.779,3.484-14.311c-2.055-1.475-6.922,1.623-11.869,7.214
		c-6.127-4.264-11.586-6.128-13.234-4.21c-1.713,1.993,1.227,7.438,6.762,13.084c-4.047,6.794-5.618,12.779-3.484,14.311
		c2.055,1.476,6.921-1.623,11.869-7.214c6.127,4.265,11.586,6.128,13.234,4.21C60.153,78.813,57.214,73.368,51.679,67.722z"/>
	<path display="inline" d="M86.179,78.222c4.047-6.793,5.617-12.779,3.484-14.311c-2.055-1.475-6.922,1.623-11.869,7.214
		c-6.127-4.264-11.586-6.128-13.234-4.21c-1.713,1.993,1.227,7.438,6.762,13.084c-4.047,6.794-5.618,12.779-3.484,14.311
		c2.055,1.476,6.921-1.623,11.869-7.214c6.127,4.265,11.586,6.128,13.234,4.21C94.653,89.313,91.714,83.868,86.179,78.222z"/>
	<path display="inline" d="M120.68,88.722c4.047-6.793,5.617-12.779,3.484-14.311c-2.055-1.475-6.922,1.623-11.87,7.214
		c-6.127-4.265-11.586-6.128-13.234-4.21c-1.713,1.992,1.227,7.438,6.762,13.084c-4.047,6.794-5.618,12.779-3.484,14.311
		c2.055,1.477,6.921-1.623,11.869-7.214c6.127,4.265,11.586,6.128,13.235,4.21C129.152,99.813,126.215,94.368,120.68,88.722z"/>
	<path display="inline" d="M155.179,99.222c4.047-6.793,5.617-12.779,3.484-14.311c-2.055-1.475-6.922,1.623-11.868,7.214
		c-6.127-4.265-11.586-6.128-13.234-4.21c-1.713,1.992,1.227,7.438,6.762,13.084c-4.047,6.795-5.619,12.779-3.484,14.311
		c2.055,1.477,6.92-1.623,11.868-7.213c6.127,4.264,11.586,6.127,13.234,4.209C163.653,110.313,160.714,104.868,155.179,99.222z"/>
	<path display="inline" d="M189.679,109.722c4.047-6.793,5.617-12.779,3.484-14.311c-2.055-1.475-6.922,1.623-11.869,7.215
		c-6.127-4.266-11.586-6.129-13.234-4.211c-1.713,1.992,1.227,7.438,6.762,13.084c-4.047,6.795-5.617,12.779-3.484,14.311
		c2.055,1.477,6.922-1.623,11.869-7.213c6.127,4.264,11.586,6.127,13.234,4.209C198.153,120.813,195.214,115.368,189.679,109.722z"
		/>
	<path display="inline" d="M224.179,120.222c4.047-6.793,5.617-12.779,3.484-14.311c-2.055-1.475-6.922,1.623-11.869,7.215
		c-6.127-4.266-11.586-6.129-13.234-4.211c-1.713,1.992,1.227,7.438,6.762,13.084c-4.047,6.795-5.617,12.779-3.484,14.311
		c2.055,1.477,6.922-1.623,11.869-7.213c6.127,4.264,11.586,6.127,13.234,4.209C232.653,131.313,229.714,125.868,224.179,120.222z"
		/>
	<path display="inline" d="M22.303,88.722c4.047-6.793,5.617-12.779,3.484-14.311c-2.055-1.475-6.922,1.623-11.87,7.214
		c-6.127-4.265-11.586-6.128-13.234-4.21c-1.712,1.992,1.227,7.438,6.762,13.084c-4.046,6.794-5.618,12.779-3.483,14.311
		c2.054,1.476,6.92-1.623,11.869-7.214c6.127,4.265,11.586,6.128,13.234,4.21C30.777,99.813,27.838,94.368,22.303,88.722z"/>
	<path display="inline" d="M56.803,99.222c4.047-6.793,5.617-12.779,3.484-14.311c-2.055-1.475-6.922,1.623-11.869,7.214
		c-6.127-4.265-11.586-6.128-13.234-4.21c-1.713,1.992,1.227,7.438,6.762,13.084c-4.047,6.794-5.618,12.779-3.484,14.311
		c2.055,1.476,6.921-1.623,11.869-7.214c6.127,4.265,11.586,6.128,13.234,4.21C65.277,110.313,62.338,104.868,56.803,99.222z"/>
	<path display="inline" d="M91.303,109.722c4.047-6.793,5.617-12.779,3.484-14.311c-2.055-1.475-6.922,1.623-11.869,7.214
		c-6.127-4.265-11.586-6.128-13.234-4.21c-1.713,1.992,1.227,7.438,6.762,13.084c-4.047,6.794-5.618,12.779-3.484,14.311
		c2.055,1.476,6.921-1.623,11.869-7.214c6.127,4.265,11.586,6.128,13.234,4.21C99.777,120.813,96.838,115.368,91.303,109.722z"/>
	<path display="inline" d="M125.803,120.222c4.047-6.793,5.617-12.779,3.484-14.311c-2.055-1.475-6.922,1.623-11.869,7.214
		c-6.127-4.265-11.586-6.128-13.234-4.21c-1.713,1.992,1.227,7.438,6.762,13.084c-4.047,6.794-5.618,12.779-3.484,14.311
		c2.055,1.477,6.921-1.623,11.869-7.214c6.126,4.265,11.585,6.128,13.234,4.21C134.277,131.313,131.338,125.868,125.803,120.222z"/>
	<path display="inline" d="M160.304,130.722c4.047-6.793,5.617-12.779,3.484-14.311c-2.055-1.475-6.922,1.623-11.869,7.214
		c-6.128-4.265-11.587-6.128-13.235-4.21c-1.713,1.992,1.227,7.438,6.762,13.084c-4.047,6.795-5.617,12.779-3.484,14.311
		c2.055,1.477,6.921-1.623,11.87-7.213c6.127,4.264,11.586,6.127,13.234,4.209C168.776,141.813,165.839,136.368,160.304,130.722z"/>
	<path display="inline" d="M194.804,141.222c4.047-6.793,5.617-12.779,3.484-14.311c-2.055-1.475-6.922,1.623-11.869,7.215
		c-6.127-4.266-11.586-6.129-13.234-4.211c-1.713,1.992,1.227,7.438,6.762,13.084c-4.047,6.795-5.619,12.779-3.484,14.311
		c2.055,1.477,6.92-1.623,11.869-7.213c6.127,4.264,11.586,6.127,13.234,4.209C203.276,152.313,200.339,146.868,194.804,141.222z"/>
	<path display="inline" d="M229.304,151.722c4.047-6.793,5.617-12.779,3.484-14.311c-2.055-1.475-6.922,1.623-11.869,7.215
		c-6.127-4.266-11.586-6.129-13.234-4.211c-1.713,1.992,1.227,7.438,6.762,13.084c-4.047,6.795-5.619,12.779-3.484,14.311
		c2.055,1.477,6.92-1.623,11.869-7.213c6.127,4.264,11.586,6.127,13.234,4.209C237.776,162.813,234.839,157.368,229.304,151.722z"/>
	<path display="inline" d="M27.427,120.222c4.047-6.793,5.617-12.779,3.484-14.311c-2.055-1.475-6.922,1.623-11.87,7.214
		c-6.127-4.265-11.586-6.128-13.234-4.21c-1.712,1.992,1.227,7.438,6.762,13.084c-4.046,6.794-5.618,12.779-3.483,14.311
		c2.054,1.476,6.92-1.623,11.869-7.214c6.127,4.265,11.586,6.128,13.234,4.21C35.901,131.313,32.962,125.868,27.427,120.222z"/>
	<path display="inline" d="M61.927,130.722c4.047-6.793,5.617-12.779,3.484-14.311c-2.055-1.475-6.922,1.623-11.869,7.214
		c-6.127-4.265-11.586-6.128-13.234-4.21c-1.713,1.992,1.227,7.438,6.762,13.084c-4.047,6.794-5.618,12.779-3.484,14.311
		c2.055,1.476,6.921-1.623,11.869-7.214c6.127,4.265,11.586,6.128,13.234,4.21C70.401,141.813,67.462,136.368,61.927,130.722z"/>
	<path display="inline" d="M96.427,141.222c4.047-6.793,5.617-12.779,3.484-14.311c-2.055-1.475-6.922,1.623-11.869,7.214
		c-6.127-4.265-11.586-6.128-13.234-4.21c-1.713,1.992,1.227,7.438,6.762,13.084c-4.047,6.794-5.618,12.779-3.484,14.311
		c2.055,1.476,6.921-1.623,11.869-7.214c6.127,4.265,11.586,6.128,13.234,4.21C104.901,152.313,101.962,146.868,96.427,141.222z"/>
	<path display="inline" d="M130.928,151.722c4.047-6.793,5.617-12.779,3.484-14.311c-2.055-1.475-6.922,1.623-11.869,7.214
		c-6.127-4.265-11.586-6.128-13.235-4.21c-1.713,1.992,1.227,7.438,6.762,13.084c-4.047,6.794-5.618,12.779-3.484,14.311
		c2.055,1.477,6.921-1.623,11.87-7.214c6.127,4.265,11.586,6.128,13.234,4.21C139.4,162.813,136.463,157.368,130.928,151.722z"/>
	<path display="inline" d="M165.427,162.222c4.047-6.793,5.617-12.779,3.484-14.311c-2.055-1.475-6.922,1.623-11.869,7.214
		c-6.127-4.265-11.585-6.128-13.233-4.21c-1.713,1.992,1.227,7.438,6.761,13.084c-4.046,6.795-5.618,12.779-3.483,14.311
		c2.054,1.477,6.921-1.623,11.868-7.213c6.127,4.264,11.586,6.127,13.234,4.209C173.901,173.313,170.962,167.868,165.427,162.222z"
		/>
	<path display="inline" d="M199.927,172.722c4.047-6.793,5.617-12.779,3.484-14.311c-2.055-1.475-6.922,1.623-11.869,7.215
		c-6.127-4.266-11.586-6.129-13.234-4.211c-1.713,1.992,1.227,7.438,6.762,13.084c-4.047,6.795-5.617,12.779-3.484,14.311
		c2.055,1.477,6.922-1.623,11.869-7.213c6.127,4.264,11.586,6.127,13.234,4.209C208.401,183.813,205.462,178.368,199.927,172.722z"
		/>
	<path display="inline" d="M234.427,183.222c4.047-6.793,5.617-12.779,3.484-14.311c-2.055-1.475-6.922,1.623-11.869,7.215
		c-6.127-4.266-11.586-6.129-13.234-4.211c-1.713,1.992,1.227,7.438,6.762,13.084c-4.047,6.795-5.617,12.779-3.484,14.311
		c2.055,1.477,6.922-1.623,11.869-7.213c6.127,4.264,11.586,6.127,13.234,4.209C242.901,194.313,239.962,188.868,234.427,183.222z"
		/>
	<path display="inline" d="M32.551,151.722c4.047-6.793,5.617-12.779,3.484-14.311c-2.055-1.475-6.922,1.623-11.87,7.214
		c-6.127-4.265-11.586-6.128-13.234-4.21c-1.712,1.992,1.227,7.438,6.762,13.084c-4.046,6.794-5.618,12.779-3.483,14.311
		c2.054,1.476,6.92-1.623,11.869-7.214c6.127,4.265,11.586,6.128,13.234,4.21C41.025,162.813,38.086,157.368,32.551,151.722z"/>
	<path display="inline" d="M67.051,162.222c4.047-6.793,5.617-12.779,3.484-14.311c-2.055-1.475-6.922,1.623-11.869,7.214
		c-6.127-4.265-11.586-6.128-13.234-4.21c-1.713,1.992,1.227,7.438,6.762,13.084c-4.047,6.794-5.618,12.779-3.484,14.311
		c2.055,1.476,6.921-1.623,11.869-7.214c6.127,4.265,11.586,6.128,13.234,4.21C75.525,173.313,72.586,167.868,67.051,162.222z"/>
	<path display="inline" d="M101.551,172.722c4.047-6.793,5.617-12.779,3.484-14.311c-2.055-1.475-6.922,1.623-11.869,7.214
		c-6.127-4.265-11.586-6.128-13.234-4.21c-1.713,1.992,1.227,7.438,6.762,13.084c-4.047,6.794-5.618,12.779-3.484,14.311
		c2.055,1.476,6.921-1.623,11.869-7.214c6.127,4.265,11.586,6.128,13.234,4.21C110.025,183.813,107.086,178.368,101.551,172.722z"/>
	<path display="inline" d="M136.051,183.222c4.047-6.793,5.617-12.779,3.484-14.311c-2.055-1.475-6.922,1.623-11.869,7.214
		c-6.127-4.265-11.585-6.128-13.234-4.21c-1.713,1.992,1.227,7.438,6.761,13.084c-4.046,6.794-5.618,12.779-3.484,14.311
		c2.055,1.477,6.921-1.623,11.869-7.214c6.127,4.265,11.586,6.128,13.234,4.21C144.525,194.313,141.586,188.868,136.051,183.222z"/>
	<path display="inline" d="M170.552,193.722c4.047-6.793,5.617-12.779,3.484-14.311c-2.055-1.475-6.922,1.623-11.869,7.214
		c-6.127-4.265-11.586-6.128-13.234-4.21c-1.714,1.992,1.227,7.438,6.762,13.084c-4.047,6.795-5.619,12.779-3.484,14.311
		c2.055,1.477,6.92-1.623,11.869-7.213c6.127,4.264,11.586,6.127,13.234,4.209C179.024,204.813,176.087,199.368,170.552,193.722z"/>
	<path display="inline" d="M205.052,204.222c4.047-6.793,5.617-12.779,3.484-14.311c-2.055-1.475-6.922,1.623-11.869,7.215
		c-6.127-4.266-11.586-6.129-13.234-4.211c-1.713,1.992,1.227,7.438,6.762,13.084c-4.047,6.795-5.619,12.779-3.484,14.311
		c2.055,1.477,6.92-1.623,11.869-7.213c6.127,4.264,11.586,6.127,13.234,4.209C213.524,215.313,210.587,209.868,205.052,204.222z"/>
	<path display="inline" d="M239.552,214.722c4.047-6.793,5.617-12.779,3.484-14.311c-2.055-1.475-6.922,1.623-11.869,7.215
		c-6.127-4.266-11.586-6.129-13.234-4.211c-1.713,1.992,1.227,7.438,6.762,13.084c-4.047,6.795-5.619,12.779-3.484,14.311
		c2.055,1.477,6.92-1.623,11.869-7.213c6.127,4.264,11.586,6.127,13.234,4.209C248.024,225.813,245.087,220.368,239.552,214.722z"/>
	<path display="inline" d="M37.675,183.222c4.047-6.793,5.617-12.779,3.484-14.311c-2.055-1.475-6.922,1.623-11.87,7.214
		c-6.127-4.265-11.586-6.128-13.234-4.21c-1.712,1.992,1.227,7.438,6.762,13.084c-4.046,6.794-5.618,12.779-3.483,14.311
		c2.054,1.476,6.92-1.623,11.869-7.214c6.127,4.265,11.586,6.128,13.234,4.21C46.149,194.313,43.21,188.868,37.675,183.222z"/>
	<path display="inline" d="M72.175,193.722c4.047-6.793,5.617-12.779,3.484-14.311c-2.055-1.475-6.922,1.623-11.869,7.214
		c-6.127-4.265-11.586-6.128-13.234-4.21c-1.713,1.992,1.227,7.438,6.762,13.084c-4.047,6.794-5.618,12.779-3.484,14.311
		c2.055,1.476,6.921-1.623,11.869-7.214c6.127,4.265,11.586,6.128,13.234,4.21C80.649,204.813,77.71,199.368,72.175,193.722z"/>
	<path display="inline" d="M106.675,204.222c4.047-6.793,5.617-12.779,3.484-14.311c-2.055-1.475-6.922,1.623-11.869,7.214
		c-6.127-4.265-11.586-6.128-13.234-4.21c-1.713,1.992,1.227,7.438,6.762,13.084c-4.047,6.794-5.618,12.779-3.484,14.311
		c2.055,1.476,6.921-1.623,11.869-7.214c6.127,4.265,11.586,6.128,13.234,4.21C115.149,215.313,112.21,209.868,106.675,204.222z"/>
	<path display="inline" d="M141.176,214.722c4.047-6.793,5.617-12.779,3.484-14.311c-2.055-1.475-6.922,1.623-11.869,7.214
		c-6.127-4.265-11.586-6.128-13.235-4.21c-1.713,1.992,1.227,7.438,6.762,13.084c-4.047,6.794-5.619,12.779-3.484,14.311
		c2.055,1.477,6.92-1.623,11.869-7.214c6.127,4.265,11.586,6.128,13.233,4.21C149.649,225.813,146.711,220.368,141.176,214.722z"/>
	<path display="inline" d="M175.675,225.222c4.047-6.793,5.617-12.779,3.484-14.311c-2.055-1.475-6.922,1.623-11.869,7.214
		c-6.127-4.265-11.586-6.128-13.234-4.21c-1.713,1.992,1.227,7.438,6.762,13.084c-4.047,6.795-5.617,12.779-3.484,14.311
		c2.055,1.477,6.922-1.623,11.869-7.213c6.127,4.264,11.586,6.127,13.234,4.209C184.149,236.313,181.21,230.868,175.675,225.222z"/>
	<path display="inline" d="M210.175,235.722c4.047-6.793,5.617-12.779,3.484-14.311c-2.055-1.475-6.922,1.623-11.869,7.215
		c-6.127-4.266-11.586-6.129-13.234-4.211c-1.713,1.992,1.227,7.438,6.762,13.084c-4.047,6.795-5.617,12.779-3.484,14.311
		c2.055,1.477,6.922-1.623,11.869-7.213c6.127,4.264,11.586,6.127,13.234,4.209C218.649,246.813,215.71,241.368,210.175,235.722z"/>
	<path display="inline" d="M244.675,246.222c4.047-6.793,5.617-12.779,3.484-14.311c-2.055-1.475-6.922,1.623-11.869,7.215
		c-6.127-4.266-11.586-6.129-13.234-4.211c-1.713,1.992,1.227,7.438,6.762,13.084c-4.047,6.795-5.617,12.779-3.484,14.311
		c2.055,1.477,6.922-1.623,11.869-7.213c6.127,4.264,11.586,6.127,13.234,4.209C253.149,257.313,250.21,251.868,244.675,246.222z"/>
	<path display="inline" d="M42.799,214.722c4.047-6.793,5.617-12.779,3.484-14.311c-2.055-1.475-6.922,1.623-11.87,7.214
		c-6.127-4.265-11.586-6.128-13.234-4.21c-1.712,1.992,1.227,7.438,6.762,13.084c-4.046,6.794-5.618,12.779-3.483,14.311
		c2.054,1.476,6.92-1.623,11.869-7.214c6.127,4.265,11.586,6.128,13.234,4.21C51.273,225.813,48.334,220.368,42.799,214.722z"/>
	<path display="inline" d="M77.299,225.222c4.047-6.793,5.617-12.779,3.484-14.311c-2.055-1.475-6.922,1.623-11.869,7.214
		c-6.127-4.265-11.586-6.128-13.234-4.21c-1.713,1.992,1.227,7.438,6.762,13.084c-4.047,6.794-5.618,12.779-3.484,14.311
		c2.055,1.476,6.921-1.623,11.869-7.214c6.127,4.265,11.586,6.128,13.234,4.21C85.773,236.313,82.834,230.868,77.299,225.222z"/>
	<path display="inline" d="M111.799,235.722c4.047-6.793,5.617-12.779,3.484-14.311c-2.055-1.475-6.922,1.623-11.869,7.214
		c-6.127-4.265-11.586-6.128-13.234-4.21c-1.713,1.992,1.227,7.438,6.762,13.084c-4.047,6.794-5.618,12.779-3.484,14.311
		c2.055,1.476,6.921-1.623,11.869-7.214c6.127,4.265,11.586,6.128,13.234,4.21C120.273,246.813,117.334,241.368,111.799,235.722z"/>
	<path display="inline" d="M146.299,246.222c4.048-6.793,5.618-12.779,3.485-14.311c-2.055-1.475-6.923,1.623-11.87,7.214
		c-6.127-4.265-11.586-6.128-13.234-4.21c-1.713,1.992,1.227,7.438,6.762,13.084c-4.047,6.794-5.617,12.779-3.484,14.311
		c2.055,1.477,6.922-1.623,11.869-7.214c6.127,4.265,11.587,6.128,13.235,4.21C154.772,257.313,151.835,251.868,146.299,246.222z"/>
	<path display="inline" d="M180.8,256.722c4.047-6.793,5.617-12.779,3.484-14.311c-2.055-1.475-6.922,1.623-11.869,7.214
		c-6.127-4.265-11.586-6.128-13.234-4.21c-1.713,1.992,1.227,7.438,6.762,13.084c-4.047,6.795-5.619,12.779-3.484,14.311
		c2.055,1.477,6.92-1.623,11.869-7.213c6.127,4.264,11.586,6.127,13.234,4.209C189.272,267.813,186.335,262.368,180.8,256.722z"/>
	<path display="inline" d="M215.3,267.222c4.047-6.793,5.617-12.779,3.484-14.311c-2.055-1.475-6.922,1.623-11.869,7.215
		c-6.127-4.266-11.586-6.129-13.234-4.211c-1.713,1.992,1.227,7.438,6.762,13.084c-4.047,6.795-5.619,12.779-3.484,14.311
		c2.055,1.477,6.92-1.623,11.869-7.213c6.127,4.264,11.586,6.127,13.234,4.209C223.772,278.313,220.835,272.868,215.3,267.222z"/>
	<path display="inline" d="M249.8,277.722c4.047-6.793,5.617-12.779,3.484-14.311c-2.055-1.475-6.922,1.623-11.869,7.215
		c-6.127-4.266-11.586-6.129-13.234-4.211c-1.713,1.992,1.227,7.438,6.762,13.084c-4.047,6.795-5.619,12.779-3.484,14.311
		c2.055,1.477,6.92-1.623,11.869-7.213c6.127,4.264,11.586,6.127,13.234,4.209C258.272,288.813,255.335,283.368,249.8,277.722z"/>
</g>
<g id="Calque_3" display="none">
	<path display="inline" d="M166.097,129.964c-0.262-0.254-0.605-0.395-0.971-0.395c-0.378,0-0.73,0.149-0.994,0.42
		c-0.258,0.266-0.397,0.616-0.392,0.988c0.001,0.037,0.003,0.074,0.006,0.111l-0.253,0.324l-0.187-0.077l-0.329,0.401l0.122,0.182
		l-2.025,2.598c0.015,0.016,0.031,0.035,0.049,0.058c-0.199,0.32-0.306,0.548-0.318,0.683c-0.008,0.034-0.005,0.067,0.014,0.097
		c0.001,0.003,0.003,0.005,0.005,0.007c0.003,0.005,0.007,0.01,0.012,0.015c0,0,0,0,0,0.001c0.005,0.004,0.01,0.008,0.015,0.011
		c0.003,0.002,0.005,0.003,0.008,0.005c0.029,0.017,0.063,0.019,0.097,0.011c0.134-0.017,0.358-0.129,0.674-0.337
		c0.022,0.017,0.042,0.032,0.058,0.048l3.353-2.769c0.031,0.002,0.063,0.004,0.095,0.004c0.378,0,0.73-0.149,0.993-0.42
		c0.259-0.266,0.398-0.616,0.393-0.988C166.513,130.57,166.363,130.224,166.097,129.964z"/>
	<g display="inline">
		<circle fill="#FFFFFF" cx="164.777" cy="129.831" r="0.108"/>
		<circle fill="#FFFFFF" cx="165.938" cy="130.505" r="0.108"/>
		<path fill="#FFFFFF" d="M165.932,130.774c-0.148,0-0.569-0.191-0.772-0.3c-0.245-0.147-0.678-0.455-0.667-0.543l-0.026-0.003
			c-0.016,0.122,0.492,0.459,0.669,0.563h-0.001c0.004,0.002,0.008,0.004,0.012,0.006s0.008,0.005,0.012,0.007l0,0
			c0.175,0.095,0.609,0.297,0.772,0.297c0.025,0,0.044-0.005,0.056-0.015l-0.017-0.021
			C165.964,130.77,165.954,130.774,165.932,130.774z"/>
	</g>
	<path display="inline" d="M146.39,156.182v-0.002c-0.057-0.004-0.112-0.006-0.168-0.007c-0.01,0-0.021,0-0.031,0
		c-0.011,0-0.021,0-0.032,0c-0.056,0.001-0.111,0.003-0.167,0.007l-0.001,0.002c-1.459,0.118-2.641,1.48-2.484,2.783
		c0.03,0.129,0.031,0.228,0.001,0.303l0.175,0.628c-0.538,0.986,0.365,3.06,1.593,2.158c0.133,0.046,0.241,0.003,0.325-0.13
		c0.121-0.105-0.527-2.671-0.812-2.656c-0.14-0.074-0.257,0.019-0.366,0.148c-0.014,0.001-0.026,0.003-0.04,0.005l-0.118-0.345
		c-0.098-0.077-0.107-0.172-0.117-0.27c-0.128-0.889,0.937-2.041,2.047-2.049c1.104,0.012,2.168,1.161,2.04,2.049
		c-0.01,0.098-0.02,0.192-0.117,0.27l-0.118,0.345c-0.015-0.001-0.029-0.004-0.045-0.005c-0.108-0.13-0.227-0.223-0.365-0.147
		c-0.285-0.016-0.934,2.551-0.812,2.655c0.083,0.133,0.191,0.176,0.324,0.13c1.227,0.899,2.129-1.164,1.597-2.153l0.176-0.633
		c-0.029-0.075-0.029-0.174,0.001-0.303C149.03,157.662,147.849,156.3,146.39,156.182z"/>
	<g display="inline">
		<ellipse fill="#FFFFFF" cx="143.736" cy="160.764" rx="0.121" ry="0.121"/>
		<ellipse fill="#FFFFFF" cx="144.613" cy="160.323" rx="0.12" ry="0.12"/>
		<path fill="#FFFFFF" d="M144.728,160.525c-0.189,0.153-0.785,0.425-0.992,0.463C143.971,161.054,144.683,160.755,144.728,160.525z
			"/>
		<ellipse fill="#FFFFFF" cx="148.071" cy="161.818" rx="0.124" ry="0.124"/>
		<path fill="#FFFFFF" d="M148,161.5c0.24-0.04,0.352-0.089,0.638-0.01C148.59,161.407,148.213,161.339,148,161.5z"/>
	</g>
	<ellipse id="shape0_1_" display="inline" cx="132.321" cy="195.193" rx="2.941" ry="2.941"/>
	<g display="inline">
		<path fill="#FFFFFF" d="M132.324,192.739v-0.128c-0.001,0-0.002,0-0.003,0c-0.688,0-1.335,0.268-1.822,0.754
			c-0.49,0.488-0.76,1.139-0.76,1.83l0.128,0.001c0-0.658,0.257-1.275,0.723-1.74C131.053,192.994,131.669,192.739,132.324,192.739z
			"/>
		<path fill="#FFFFFF" d="M134.781,195.196c-0.001,0.667-0.264,1.291-0.74,1.758l0,0c-0.462,0.451-1.071,0.699-1.717,0.699v0.128
			h0.002c0.678,0,1.318-0.262,1.804-0.735h0.001c0.502-0.491,0.778-1.147,0.778-1.85H134.781z"/>
		<path fill="#FFFFFF" d="M132.827,195.196c0-0.277-0.227-0.503-0.503-0.503c-0.277,0-0.503,0.226-0.503,0.503
			s0.226,0.503,0.503,0.503C132.601,195.699,132.827,195.474,132.827,195.196z M131.949,195.196c0-0.206,0.168-0.375,0.375-0.375
			c0.206,0,0.375,0.169,0.375,0.375c0,0.207-0.169,0.374-0.375,0.374C132.117,195.57,131.949,195.403,131.949,195.196z"/>
		<circle fill="#FFFFFF" cx="130.661" cy="194.742" r="0.17"/>
		<circle fill="#FFFFFF" cx="133.987" cy="194.742" r="0.17"/>
	</g>
	
		<rect id="shape0_2_" x="113.679" y="140.698" transform="matrix(0.8658 0.5003 -0.5003 0.8658 87.2032 -38.385)" display="inline" width="3" height="5.437"/>
	<g display="inline">
		
			<rect x="114.039" y="142.333" transform="matrix(0.866 0.5001 -0.5001 0.866 87.0987 -38.4384)" fill="#FFFFFF" width="2.445" height="1.884"/>
		<circle fill="#FFFFFF" cx="114.788" cy="141.692" r="0.112"/>
		<circle fill="#FFFFFF" cx="116.867" cy="142.892" r="0.112"/>
		
			<rect x="114.752" y="144.711" transform="matrix(0.8662 0.4998 -0.4998 0.8662 87.768 -38.2213)" fill="#FFFFFF" width="0.981" height="0.079"/>
		
			<rect x="113.5" y="143.987" transform="matrix(-0.8657 -0.5005 0.5005 -0.8657 140.5853 325.7673)" fill="#FFFFFF" width="0.981" height="0.079"/>
		<polygon fill="#FFFFFF" points="114.338,144.559 114.75,144.472 114.62,144.07 		"/>
	</g>
	<g display="inline">
		<circle cx="176.964" cy="180.584" r="0.377"/>
		<path d="M176.748,178.002c0.737-0.477,0.324-2.775-2.533-1.298c-0.048,0.047,0.069,0.143,0.354,0.286l0.301-0.139
			c0.563,0.76,0.851,1.61,0.861,2.55c-0.221-0.153-0.493-0.245-0.787-0.245c-0.736,0-1.332,0.568-1.332,1.27s0.596,1.27,1.332,1.27
			c0.562,0,1.044-0.32,1.24-0.789c0.003,0.011-0.003-0.011,0,0c0.356-1.115,0.07-2.818-0.903-4.234
			C177.102,176.22,177.09,177.554,176.748,178.002z"/>
	</g>
	<g display="inline">
		<circle fill="#FFFFFF" cx="175.183" cy="180.153" r="0.12"/>
		<circle fill="#FFFFFF" cx="173.864" cy="180.153" r="0.12"/>
		<path fill="#FFFFFF" d="M173.928,180.329c0.384,0.225,0.761,0.216,1.133-0.023C174.458,180.511,174.227,180.413,173.928,180.329z"
			/>
		<circle fill="#FFFFFF" cx="177.171" cy="180.442" r="0.026"/>
		<circle fill="#FFFFFF" cx="176.806" cy="180.442" r="0.026"/>
		<path fill="#FFFFFF" d="M177.118,180.476c-0.113,0.005-0.126,0.005-0.246,0.005C176.959,180.537,177.04,180.535,177.118,180.476z"
			/>
	</g>
</g>
</svg>
