<?xml version="1.0" encoding="utf-8"?>
<!-- Generator: Adobe Illustrator 16.0.3, SVG Export Plug-In . SVG Version: 6.00 Build 0)  -->
<!DOCTYPE svg PUBLIC "-//W3C//DTD SVG 1.1//EN" "http://www.w3.org/Graphics/SVG/1.1/DTD/svg11.dtd">
<svg version="1.1"
	 id="Calque_1" xmlns:krita="http://krita.org/namespaces/svg/krita" xmlns:sodipodi="http://sodipodi.sourceforge.net/DTD/sodipodi-0.dtd"
	 xmlns="http://www.w3.org/2000/svg" xmlns:xlink="http://www.w3.org/1999/xlink" x="0px" y="0px" width="240px" height="240px"
	 viewBox="0 0 240 240" enable-background="new 0 0 240 240" xml:space="preserve">
<pattern  x="45.5" y="195.5" width="750" height="750" patternUnits="userSpaceOnUse" id="MotifCroix2" viewBox="110.918 -750 750 750" overflow="visible">
	<g>
		<polygon fill="none" points="110.918,-750 860.918,-750 860.918,0 110.918,0 		"/>
		<g>
			<defs>
				<rect id="SVGID_1_" x="110.918" y="-750" width="750" height="750"/>
			</defs>
			<clipPath id="SVGID_2_">
				<use xlink:href="#SVGID_1_"  overflow="visible"/>
			</clipPath>
			<path clip-path="url(#SVGID_2_)" fill="#0DB57B" d="M939.653-729.775c-7.402-8.613-31.92-0.24-59.438,18.911
				c-22.225-25.11-44.08-39.026-53.309-32.401c-9.586,6.883-2.527,33.763,15.645,64.273c-24.857,25.361-38.059,49.818-30.367,58.768
				c7.4,8.613,31.92,0.24,59.438-18.91c22.225,25.111,44.08,39.025,53.309,32.4c9.584-6.881,2.525-33.763-15.645-64.272
				C934.143-696.369,947.342-720.825,939.653-729.775z"/>
			<path clip-path="url(#SVGID_2_)" fill="#0DB57B" d="M789.653-729.775c-7.402-8.613-31.92-0.24-59.438,18.911
				c-22.225-25.11-44.08-39.026-53.309-32.401c-9.586,6.883-2.527,33.763,15.645,64.273c-24.857,25.361-38.059,49.818-30.367,58.768
				c7.4,8.613,31.92,0.24,59.438-18.91c22.225,25.111,44.08,39.025,53.309,32.4c9.584-6.881,2.525-33.763-15.645-64.272
				C784.143-696.369,797.342-720.825,789.653-729.775z"/>
			<path clip-path="url(#SVGID_2_)" fill="#0DB57B" d="M639.653-729.775c-7.402-8.613-31.92-0.24-59.438,18.911
				c-22.225-25.11-44.08-39.026-53.309-32.401c-9.586,6.883-2.527,33.763,15.645,64.273c-24.857,25.361-38.059,49.818-30.367,58.768
				c7.4,8.613,31.92,0.24,59.438-18.91c22.225,25.111,44.08,39.025,53.309,32.4c9.584-6.881,2.525-33.763-15.645-64.272
				C634.143-696.369,647.342-720.825,639.653-729.775z"/>
			<path clip-path="url(#SVGID_2_)" fill="#0DB57B" d="M489.653-729.775c-7.402-8.613-31.919-0.24-59.438,18.911
				c-22.225-25.112-44.08-39.026-53.308-32.401c-9.585,6.882-2.527,33.762,15.646,64.272
				c-24.857,25.361-38.059,49.818-30.368,58.767c7.402,8.613,31.921,0.242,59.438-18.909c22.225,25.11,44.081,39.026,53.309,32.401
				c9.584-6.882,2.525-33.764-15.646-64.273C484.143-696.369,497.342-720.825,489.653-729.775z"/>
			<path clip-path="url(#SVGID_2_)" fill="#0DB57B" d="M339.653-729.775c-7.402-8.613-31.92-0.24-59.438,18.911
				c-22.225-25.112-44.08-39.026-53.308-32.401c-9.585,6.882-2.527,33.762,15.646,64.272
				c-24.858,25.361-38.059,49.818-30.368,58.767c7.402,8.613,31.92,0.242,59.438-18.909c22.225,25.11,44.081,39.026,53.309,32.401
				c9.584-6.882,2.525-33.764-15.646-64.273C334.143-696.369,347.342-720.825,339.653-729.775z"/>
			<path clip-path="url(#SVGID_2_)" fill="#0DB57B" d="M189.653-729.775c-7.402-8.613-31.92-0.24-59.438,18.911
				c-22.225-25.112-44.08-39.026-53.308-32.401c-9.585,6.882-2.527,33.762,15.646,64.272
				c-24.858,25.361-38.059,49.818-30.368,58.767c7.402,8.613,31.92,0.242,59.438-18.909c22.225,25.11,44.081,39.026,53.309,32.401
				c9.584-6.882,2.525-33.764-15.646-64.273C184.143-696.369,197.342-720.825,189.653-729.775z"/>
			<path clip-path="url(#SVGID_2_)" fill="#0DB57B" d="M969.653-579.775c-7.402-8.613-31.92-0.24-59.438,18.911
				c-22.225-25.11-44.08-39.026-53.309-32.401c-9.586,6.883-2.527,33.763,15.645,64.273c-24.857,25.361-38.059,49.818-30.367,58.768
				c7.4,8.613,31.92,0.24,59.438-18.91c22.225,25.111,44.08,39.025,53.309,32.4c9.584-6.881,2.525-33.763-15.645-64.272
				C964.143-546.369,977.342-570.825,969.653-579.775z"/>
			<path clip-path="url(#SVGID_2_)" fill="#0DB57B" d="M819.653-579.775c-7.402-8.613-31.92-0.24-59.438,18.911
				c-22.225-25.11-44.08-39.026-53.309-32.401c-9.586,6.883-2.527,33.763,15.645,64.273c-24.857,25.361-38.059,49.818-30.367,58.768
				c7.4,8.613,31.92,0.24,59.438-18.91c22.225,25.111,44.08,39.025,53.309,32.4c9.584-6.881,2.525-33.763-15.645-64.272
				C814.143-546.369,827.342-570.825,819.653-579.775z"/>
			<path clip-path="url(#SVGID_2_)" fill="#58BB6C" d="M669.653-579.775c-7.402-8.613-31.92-0.24-59.438,18.911
				c-22.225-25.11-44.08-39.026-53.309-32.401c-9.586,6.883-2.527,33.763,15.645,64.273c-24.857,25.361-38.059,49.818-30.367,58.768
				c7.4,8.613,31.92,0.24,59.438-18.91c22.225,25.111,44.08,39.025,53.309,32.4c9.584-6.881,2.525-33.763-15.645-64.272
				C664.143-546.369,677.342-570.825,669.653-579.775z"/>
			<path clip-path="url(#SVGID_2_)" fill="#0DB57B" d="M519.653-579.775c-7.402-8.613-31.92-0.24-59.438,18.911
				c-22.225-25.11-44.081-39.026-53.308-32.401c-9.585,6.883-2.527,33.763,15.646,64.273
				c-24.857,25.361-38.059,49.818-30.368,58.768c7.402,8.613,31.921,0.24,59.438-18.91c22.225,25.111,44.081,39.025,53.309,32.4
				c9.584-6.881,2.525-33.763-15.646-64.272C514.143-546.369,527.342-570.825,519.653-579.775z"/>
			<path clip-path="url(#SVGID_2_)" fill="#0DB57B" d="M369.653-579.775c-7.402-8.613-31.92-0.24-59.438,18.911
				c-22.225-25.11-44.081-39.026-53.308-32.401c-9.585,6.883-2.527,33.763,15.646,64.273
				c-24.858,25.361-38.059,49.818-30.368,58.768c7.402,8.613,31.92,0.24,59.438-18.91c22.225,25.111,44.081,39.025,53.309,32.4
				c9.584-6.881,2.525-33.763-15.646-64.272C364.143-546.369,377.342-570.825,369.653-579.775z"/>
			<path clip-path="url(#SVGID_2_)" fill="#0DB57B" d="M219.653-579.775c-7.402-8.613-31.92-0.24-59.438,18.911
				c-22.225-25.11-44.081-39.026-53.308-32.401c-9.585,6.883-2.527,33.763,15.646,64.273
				c-24.858,25.361-38.059,49.818-30.368,58.768c7.402,8.613,31.92,0.24,59.438-18.91c22.225,25.111,44.081,39.025,53.309,32.4
				c9.584-6.881,2.525-33.763-15.646-64.272C214.143-546.369,227.342-570.825,219.653-579.775z"/>
			<path clip-path="url(#SVGID_2_)" fill="#0DB57B" d="M849.653-429.775c-7.402-8.613-31.92-0.24-59.438,18.911
				c-22.225-25.11-44.08-39.026-53.309-32.401c-9.586,6.883-2.527,33.763,15.645,64.273c-24.857,25.361-38.059,49.818-30.367,58.768
				c7.4,8.613,31.92,0.24,59.438-18.91c22.225,25.111,44.08,39.025,53.309,32.4c9.584-6.881,2.525-33.763-15.645-64.272
				C844.143-396.369,857.342-420.825,849.653-429.775z"/>
			<path clip-path="url(#SVGID_2_)" fill="#0DB57B" d="M699.653-429.775c-7.402-8.613-31.92-0.24-59.438,18.911
				c-22.225-25.11-44.08-39.026-53.309-32.401c-9.586,6.883-2.527,33.763,15.645,64.273c-24.857,25.361-38.059,49.818-30.367,58.768
				c7.4,8.613,31.92,0.24,59.438-18.91c22.225,25.111,44.08,39.025,53.309,32.4c9.584-6.881,2.525-33.763-15.645-64.272
				C694.143-396.369,707.342-420.825,699.653-429.775z"/>
			<path clip-path="url(#SVGID_2_)" fill="#0DB57B" d="M549.653-429.775c-7.402-8.613-31.92-0.24-59.438,18.911
				c-22.225-25.11-44.082-39.026-53.308-32.401c-9.585,6.883-2.527,33.763,15.646,64.273
				c-24.857,25.361-38.059,49.818-30.368,58.768c7.402,8.613,31.921,0.24,59.438-18.91c22.225,25.111,44.081,39.025,53.309,32.4
				c9.584-6.881,2.525-33.763-15.646-64.272C544.143-396.369,557.342-420.825,549.653-429.775z"/>
			<path clip-path="url(#SVGID_2_)" fill="#0DB57B" d="M399.653-429.775c-7.402-8.613-31.92-0.24-59.438,18.911
				c-22.225-25.11-44.081-39.026-53.308-32.401c-9.585,6.883-2.527,33.763,15.646,64.273
				c-24.858,25.361-38.059,49.818-30.368,58.768c7.402,8.613,31.92,0.24,59.438-18.91c22.225,25.111,44.081,39.025,53.309,32.4
				c9.584-6.881,2.525-33.763-15.646-64.272C394.143-396.369,407.342-420.825,399.653-429.775z"/>
			<path clip-path="url(#SVGID_2_)" fill="#58BB6C" d="M249.653-429.775c-7.402-8.613-31.92-0.24-59.438,18.911
				c-22.225-25.11-44.081-39.026-53.308-32.401c-9.585,6.883-2.527,33.763,15.646,64.273
				c-24.858,25.361-38.059,49.818-30.368,58.768c7.402,8.613,31.92,0.24,59.438-18.91c22.225,25.111,44.081,39.025,53.309,32.4
				c9.584-6.881,2.525-33.763-15.646-64.272C244.143-396.369,257.342-420.825,249.653-429.775z"/>
			<path clip-path="url(#SVGID_2_)" fill="#0DB57B" d="M879.653-279.775c-7.402-8.613-31.92-0.24-59.438,18.911
				c-22.225-25.11-44.08-39.026-53.309-32.401c-9.586,6.883-2.527,33.763,15.645,64.273c-24.857,25.361-38.059,49.818-30.367,58.768
				c7.4,8.612,31.92,0.24,59.438-18.91c22.225,25.111,44.08,39.025,53.309,32.4c9.584-6.881,2.525-33.763-15.645-64.272
				C874.143-246.369,887.342-270.825,879.653-279.775z"/>
			<path clip-path="url(#SVGID_2_)" fill="#0DB57B" d="M729.653-279.775c-7.402-8.613-31.92-0.24-59.438,18.911
				c-22.225-25.11-44.08-39.026-53.309-32.401c-9.586,6.883-2.527,33.763,15.645,64.273c-24.857,25.361-38.059,49.818-30.367,58.768
				c7.4,8.612,31.92,0.24,59.438-18.91c22.225,25.111,44.08,39.025,53.309,32.4c9.584-6.881,2.525-33.763-15.645-64.272
				C724.143-246.369,737.342-270.825,729.653-279.775z"/>
			<path clip-path="url(#SVGID_2_)" fill="#0DB57B" d="M579.653-279.775c-7.402-8.613-31.92-0.24-59.438,18.911
				c-22.225-25.11-44.082-39.026-53.308-32.401c-9.585,6.883-2.527,33.763,15.646,64.273
				c-24.857,25.361-38.059,49.818-30.368,58.768c7.402,8.612,31.921,0.24,59.439-18.91c22.225,25.111,44.08,39.025,53.309,32.4
				c9.584-6.881,2.525-33.763-15.646-64.272C574.143-246.369,587.342-270.825,579.653-279.775z"/>
			<path clip-path="url(#SVGID_2_)" fill="#0DB57B" d="M429.653-279.775c-7.402-8.613-31.92-0.24-59.438,18.911
				c-22.225-25.11-44.081-39.026-53.308-32.401c-9.585,6.883-2.527,33.763,15.646,64.273
				c-24.857,25.361-38.059,49.818-30.368,58.768c7.402,8.612,31.921,0.24,59.438-18.91c22.225,25.111,44.081,39.025,53.309,32.4
				c9.584-6.881,2.525-33.763-15.646-64.272C424.143-246.369,437.342-270.825,429.653-279.775z"/>
			<path clip-path="url(#SVGID_2_)" fill="#0DB57B" d="M279.653-279.775c-7.402-8.613-31.92-0.24-59.438,18.911
				c-22.225-25.11-44.081-39.026-53.308-32.401c-9.585,6.883-2.527,33.763,15.646,64.273
				c-24.858,25.361-38.059,49.818-30.368,58.768c7.402,8.612,31.92,0.24,59.438-18.91c22.225,25.111,44.081,39.025,53.309,32.4
				c9.584-6.881,2.525-33.763-15.646-64.272C274.143-246.369,287.342-270.825,279.653-279.775z"/>
			<path clip-path="url(#SVGID_2_)" fill="#0DB57B" d="M129.653-279.775c-7.402-8.613-31.92-0.24-59.438,18.911
				c-22.225-25.11-44.081-39.026-53.308-32.401c-9.585,6.883-2.527,33.763,15.646,64.273C7.695-203.631-5.506-179.174,2.185-170.227
				c7.402,8.613,31.92,0.242,59.438-18.909c22.225,25.11,44.081,39.026,53.309,32.401c9.584-6.882,2.525-33.764-15.646-64.273
				C124.143-246.369,137.342-270.825,129.653-279.775z"/>
			<path clip-path="url(#SVGID_2_)" fill="#0DB57B" d="M909.653-129.775c-7.402-8.612-31.92-0.24-59.438,18.911
				c-22.225-25.11-44.08-39.026-53.309-32.401c-9.586,6.883-2.527,33.763,15.645,64.273c-24.857,25.361-38.059,49.818-30.367,58.768
				c7.4,8.612,31.92,0.24,59.438-18.91c22.225,25.111,44.08,39.025,53.309,32.4c9.584-6.881,2.525-33.763-15.645-64.272
				C904.143-96.369,917.342-120.825,909.653-129.775z"/>
			<path clip-path="url(#SVGID_2_)" fill="#0DB57B" d="M759.653-129.775c-7.402-8.612-31.92-0.24-59.438,18.911
				c-22.225-25.11-44.08-39.026-53.309-32.401c-9.586,6.883-2.527,33.763,15.645,64.273c-24.857,25.361-38.059,49.818-30.367,58.768
				c7.4,8.612,31.92,0.24,59.438-18.91c22.225,25.111,44.08,39.025,53.309,32.4c9.584-6.881,2.525-33.763-15.645-64.272
				C754.143-96.369,767.342-120.825,759.653-129.775z"/>
			<path clip-path="url(#SVGID_2_)" fill="#58BB6C" d="M609.653-129.775c-7.402-8.612-31.92-0.24-59.438,18.911
				c-22.225-25.11-44.08-39.026-53.309-32.401c-9.586,6.883-2.527,33.763,15.645,64.273c-24.857,25.361-38.058,49.818-30.368,58.768
				c7.401,8.612,31.92,0.24,59.438-18.91c22.225,25.111,44.08,39.025,53.309,32.4c9.584-6.881,2.525-33.763-15.645-64.272
				C604.143-96.369,617.342-120.825,609.653-129.775z"/>
			<path clip-path="url(#SVGID_2_)" fill="#0DB57B" d="M459.653-129.775c-7.402-8.612-31.92-0.24-59.438,18.911
				c-22.225-25.11-44.081-39.026-53.308-32.401c-9.585,6.883-2.527,33.763,15.646,64.273
				c-24.857,25.361-38.059,49.818-30.368,58.768c7.402,8.612,31.921,0.24,59.438-18.91c22.225,25.111,44.081,39.025,53.309,32.4
				c9.584-6.881,2.525-33.763-15.646-64.272C454.143-96.369,467.342-120.825,459.653-129.775z"/>
			<path clip-path="url(#SVGID_2_)" fill="#0DB57B" d="M309.653-129.775c-7.402-8.612-31.92-0.24-59.438,18.911
				c-22.225-25.11-44.081-39.026-53.308-32.401c-9.585,6.883-2.527,33.763,15.646,64.273
				c-24.858,25.361-38.059,49.818-30.368,58.768c7.402,8.612,31.92,0.24,59.438-18.91c22.225,25.111,44.081,39.025,53.309,32.4
				c9.583-6.881,2.525-33.763-15.646-64.272C304.143-96.369,317.342-120.825,309.653-129.775z"/>
			<path clip-path="url(#SVGID_2_)" fill="#0DB57B" d="M159.653-129.775c-7.402-8.612-31.92-0.24-59.438,18.911
				c-22.225-25.11-44.081-39.026-53.308-32.401c-9.585,6.883-2.527,33.763,15.646,64.273C37.695-53.631,24.494-29.174,32.185-20.225
				c7.402,8.612,31.92,0.24,59.438-18.91c22.225,25.111,44.081,39.025,53.309,32.4c9.584-6.881,2.525-33.763-15.646-64.272
				C154.143-96.369,167.342-120.825,159.653-129.775z"/>
		</g>
	</g>
</pattern>
<path fill="#00613C" d="M165.083,151.107c6.108-8.838,9.696-19.551,9.696-31.107c0-30.254-24.525-54.78-54.779-54.78
	S65.22,89.746,65.22,120c0,11.557,3.587,22.271,9.697,31.107c-26.111,17.92-43.86,50.924-44.648,88.893h179.463
	C208.943,202.031,191.193,169.027,165.083,151.107z"/>
<pattern  id="SVGID_3_" xlink:href="#MotifCroix2" patternTransform="matrix(0.2 0 0 0.2 -6338.0654 -7048.7124)">
</pattern>
<path opacity="0.5" fill="url(#SVGID_3_)" d="M165.083,151.107c6.108-8.838,9.696-19.551,9.696-31.107
	c0-30.254-24.525-54.78-54.779-54.78S65.22,89.746,65.22,120c0,11.557,3.587,22.271,9.697,31.107
	c-26.111,17.92-43.86,50.924-44.648,88.893h179.463C208.943,202.031,191.193,169.027,165.083,151.107z"/>
<path fill="#070707" d="M120,174.779c-18.731,0-35.258-9.406-45.137-23.748c8.423,17.66,25.467,29.748,45.137,29.748
	c19.669,0,36.712-12.086,45.135-29.746C155.257,165.373,138.73,174.779,120,174.779z"/>
</svg>
