<?xml version="1.0" encoding="utf-8"?>
<!-- Generator: Adobe Illustrator 16.0.3, SVG Export Plug-In . SVG Version: 6.00 Build 0)  -->
<!DOCTYPE svg PUBLIC "-//W3C//DTD SVG 1.1//EN" "http://www.w3.org/Graphics/SVG/1.1/DTD/svg11.dtd">
<svg version="1.1" xmlns="http://www.w3.org/2000/svg" xmlns:xlink="http://www.w3.org/1999/xlink" x="0px" y="0px" width="240px"
	 height="240px" viewBox="0 0 240 240" enable-background="new 0 0 240 240" xml:space="preserve">
<pattern  x="-379.5" y="620.5" width="83.5" height="77.505" patternUnits="userSpaceOnUse" id="oui" viewBox="10.171 -77.505 83.5 77.505" overflow="visible">
	<g>
		<polygon fill="none" points="10.171,-77.505 93.671,-77.505 93.671,0 10.171,0 		"/>
		<g>
			<path d="M78.399-7.751c0,3.216,2.606,5.822,5.822,5.822c3.215,0,5.822-2.606,5.822-5.822c0-3.215-2.607-5.821-5.822-5.821
				C81.006-13.572,78.399-10.966,78.399-7.751z"/>
			<path d="M92.2-7.751c0,3.216,2.606,5.822,5.822,5.822c3.215,0,5.821-2.606,5.821-5.822c0-3.215-2.606-5.821-5.821-5.821
				C94.806-13.572,92.2-10.966,92.2-7.751z"/>
		</g>
		<g>
			<path d="M8.699-7.751c0,3.216,2.607,5.822,5.822,5.822s5.822-2.606,5.822-5.822c0-3.215-2.606-5.821-5.822-5.821
				S8.699-10.966,8.699-7.751z"/>
			<path d="M22.5-7.751c0,3.216,2.606,5.822,5.822,5.822s5.822-2.606,5.822-5.822c0-3.215-2.606-5.821-5.822-5.821
				S22.5-10.966,22.5-7.751z"/>
			<path d="M36.299-7.751c0,3.216,2.607,5.822,5.822,5.822c3.215,0,5.822-2.606,5.822-5.822c0-3.215-2.607-5.821-5.822-5.821
				C38.906-13.572,36.299-10.966,36.299-7.751z"/>
			<path d="M50.1-7.751c0,3.216,2.606,5.822,5.821,5.822c3.216,0,5.822-2.606,5.822-5.822c0-3.215-2.606-5.821-5.822-5.821
				C52.706-13.572,50.1-10.966,50.1-7.751z"/>
			<path d="M63.899-7.751c0,3.216,2.606,5.822,5.821,5.822s5.822-2.606,5.822-5.822c0-3.215-2.607-5.821-5.822-5.821
				S63.899-10.966,63.899-7.751z"/>
			<path fill="#FFFFFF" d="M51.5-8.657c0,0.486,0.396,0.881,0.882,0.881c0.486,0,0.881-0.395,0.881-0.881
				c0-0.487-0.395-0.883-0.881-0.883C51.895-9.54,51.5-9.145,51.5-8.657z"/>
			<path fill="#FFFFFF" d="M59.528-7.173l0.191,0.486l-0.247,0.094c-1.149,0.442-2.457,0.663-3.77,0.663
				c-1.214,0-2.433-0.186-3.534-0.569L51.92-6.584l0.168-0.493l0.249,0.084c2.182,0.756,4.844,0.722,6.947-0.084L59.528-7.173z"/>
			<path fill="#FFFFFF" d="M58.582-8.599c0,0.485,0.394,0.88,0.881,0.88c0.486,0,0.88-0.395,0.88-0.88
				c0-0.487-0.394-0.881-0.88-0.881C58.976-9.479,58.582-9.086,58.582-8.599z"/>
		</g>
		<g>
			<path d="M45-23.252c0,3.216,2.606,5.822,5.822,5.822s5.822-2.606,5.822-5.822c0-3.215-2.606-5.821-5.822-5.821
				S45-26.467,45-23.252z"/>
			<path d="M58.799-23.252c0,3.216,2.607,5.822,5.822,5.822s5.822-2.606,5.822-5.822c0-3.215-2.606-5.821-5.822-5.821
				S58.799-26.467,58.799-23.252z"/>
			<path d="M72.6-23.252c0,3.216,2.606,5.822,5.822,5.822s5.822-2.606,5.822-5.822c0-3.215-2.606-5.821-5.822-5.821
				S72.6-26.467,72.6-23.252z"/>
			<path d="M86.399-23.252c0,3.216,2.607,5.822,5.822,5.822c3.215,0,5.822-2.606,5.822-5.822c0-3.215-2.607-5.821-5.822-5.821
				C89.006-29.073,86.399-26.467,86.399-23.252z"/>
		</g>
		<g>
			<path d="M2.899-23.252c0,3.216,2.607,5.822,5.822,5.822c3.215,0,5.822-2.606,5.822-5.822c0-3.215-2.607-5.821-5.822-5.821
				C5.506-29.073,2.899-26.467,2.899-23.252z"/>
			<path d="M16.7-23.252c0,3.216,2.606,5.822,5.821,5.822c3.216,0,5.822-2.606,5.822-5.822c0-3.215-2.606-5.821-5.822-5.821
				C19.306-29.073,16.7-26.467,16.7-23.252z"/>
			<path d="M30.5-23.252c0,3.216,2.606,5.822,5.821,5.822s5.822-2.606,5.822-5.822c0-3.215-2.607-5.821-5.822-5.821
				S30.5-26.467,30.5-23.252z"/>
			<path fill="#FFFFFF" d="M18.1-24.158c0,0.486,0.396,0.881,0.882,0.881c0.486,0,0.881-0.395,0.881-0.881
				c0-0.487-0.395-0.883-0.881-0.883C18.495-25.041,18.1-24.646,18.1-24.158z"/>
			<path fill="#FFFFFF" d="M26.128-22.674l0.191,0.486l-0.247,0.094c-1.149,0.442-2.457,0.663-3.77,0.663
				c-1.214,0-2.433-0.186-3.534-0.569l-0.248-0.085l0.168-0.493l0.249,0.084c2.182,0.756,4.844,0.722,6.947-0.084L26.128-22.674z"/>
			<path fill="#FFFFFF" d="M25.182-24.1c0,0.485,0.394,0.88,0.881,0.88c0.486,0,0.88-0.395,0.88-0.88
				c0-0.487-0.394-0.881-0.88-0.881C25.576-24.98,25.182-24.587,25.182-24.1z"/>
		</g>
		<g>
			<path d="M11.6-38.753c0,3.216,2.606,5.822,5.822,5.822s5.822-2.606,5.822-5.822c0-3.215-2.606-5.821-5.822-5.821
				S11.6-41.968,11.6-38.753z"/>
			<path d="M25.399-38.753c0,3.216,2.607,5.822,5.822,5.822s5.822-2.606,5.822-5.822c0-3.215-2.606-5.821-5.822-5.821
				S25.399-41.968,25.399-38.753z"/>
			<path d="M39.2-38.753c0,3.216,2.606,5.822,5.822,5.822s5.822-2.606,5.822-5.822c0-3.215-2.606-5.821-5.822-5.821
				S39.2-41.968,39.2-38.753z"/>
			<path d="M53-38.753c0,3.216,2.607,5.822,5.822,5.822c3.215,0,5.822-2.606,5.822-5.822c0-3.215-2.607-5.821-5.822-5.821
				C55.606-44.574,53-41.968,53-38.753z"/>
			<path d="M66.8-38.753c0,3.216,2.606,5.822,5.821,5.822c3.216,0,5.822-2.606,5.822-5.822c0-3.215-2.606-5.821-5.822-5.821
				C69.406-44.574,66.8-41.968,66.8-38.753z"/>
			<path d="M80.6-38.753c0,3.216,2.606,5.822,5.821,5.822s5.822-2.606,5.822-5.822c0-3.215-2.607-5.821-5.822-5.821
				S80.6-41.968,80.6-38.753z"/>
			<path fill="#FFFFFF" d="M68.2-39.659c0,0.486,0.396,0.881,0.882,0.881c0.486,0,0.881-0.395,0.881-0.881
				c0-0.487-0.395-0.883-0.881-0.883C68.595-40.542,68.2-40.146,68.2-39.659z"/>
			<path fill="#FFFFFF" d="M76.229-38.175l0.191,0.486l-0.247,0.094c-1.149,0.442-2.457,0.663-3.77,0.663
				c-1.214,0-2.433-0.186-3.534-0.569l-0.248-0.085l0.168-0.493l0.249,0.084c2.182,0.756,4.844,0.722,6.947-0.084L76.229-38.175z"/>
			<path fill="#FFFFFF" d="M75.282-39.601c0,0.485,0.394,0.88,0.881,0.88c0.486,0,0.88-0.395,0.88-0.88
				c0-0.487-0.394-0.881-0.88-0.881C75.676-40.481,75.282-40.088,75.282-39.601z"/>
		</g>
		<g>
			<path d="M61.7-54.254c0,3.216,2.606,5.822,5.822,5.822c3.215,0,5.822-2.606,5.822-5.822c0-3.215-2.607-5.821-5.822-5.821
				C64.306-60.075,61.7-57.469,61.7-54.254z"/>
			<path d="M75.5-54.254c0,3.216,2.606,5.822,5.822,5.822c3.215,0,5.821-2.606,5.821-5.822c0-3.215-2.606-5.821-5.821-5.821
				C78.106-60.075,75.5-57.469,75.5-54.254z"/>
			<path d="M89.3-54.254c0,3.216,2.606,5.822,5.821,5.822c3.216,0,5.822-2.606,5.822-5.822c0-3.215-2.606-5.821-5.822-5.821
				C91.906-60.075,89.3-57.469,89.3-54.254z"/>
		</g>
		<g>
			<path d="M5.8-54.254c0,3.216,2.606,5.822,5.822,5.822s5.822-2.606,5.822-5.822c0-3.215-2.606-5.821-5.822-5.821
				S5.8-57.469,5.8-54.254z"/>
			<path d="M19.6-54.254c0,3.216,2.607,5.822,5.822,5.822c3.215,0,5.822-2.606,5.822-5.822c0-3.215-2.607-5.821-5.822-5.821
				C22.207-60.075,19.6-57.469,19.6-54.254z"/>
			<path d="M33.4-54.254c0,3.216,2.606,5.822,5.821,5.822c3.216,0,5.822-2.606,5.822-5.822c0-3.215-2.606-5.821-5.822-5.821
				C36.006-60.075,33.4-57.469,33.4-54.254z"/>
			<path d="M47.2-54.254c0,3.216,2.606,5.822,5.821,5.822s5.822-2.606,5.822-5.822c0-3.215-2.607-5.821-5.822-5.821
				S47.2-57.469,47.2-54.254z"/>
			<path fill="#FFFFFF" d="M34.8-55.16c0,0.486,0.396,0.881,0.882,0.881c0.486,0,0.881-0.395,0.881-0.881
				c0-0.487-0.395-0.883-0.881-0.883C35.195-56.043,34.8-55.647,34.8-55.16z"/>
			<path fill="#FFFFFF" d="M42.829-53.676l0.191,0.486l-0.247,0.094c-1.149,0.442-2.457,0.663-3.77,0.663
				c-1.214,0-2.433-0.186-3.534-0.569l-0.248-0.085l0.168-0.493l0.249,0.084c2.182,0.756,4.844,0.722,6.947-0.084L42.829-53.676z"/>
			<path fill="#FFFFFF" d="M41.882-55.102c0,0.485,0.394,0.88,0.881,0.88c0.486,0,0.88-0.395,0.88-0.88
				c0-0.487-0.394-0.881-0.88-0.881C42.276-55.982,41.882-55.589,41.882-55.102z"/>
		</g>
		<g>
			<path d="M28.3-69.755c0,3.216,2.606,5.822,5.822,5.822s5.822-2.606,5.822-5.822c0-3.215-2.606-5.821-5.822-5.821
				S28.3-72.97,28.3-69.755z"/>
			<path d="M42.1-69.755c0,3.216,2.607,5.822,5.822,5.822s5.822-2.606,5.822-5.822c0-3.215-2.606-5.821-5.822-5.821
				S42.1-72.97,42.1-69.755z"/>
			<path d="M55.9-69.755c0,3.216,2.606,5.822,5.822,5.822s5.822-2.606,5.822-5.822c0-3.215-2.606-5.821-5.822-5.821
				S55.9-72.97,55.9-69.755z"/>
			<path d="M69.7-69.755c0,3.216,2.607,5.822,5.822,5.822c3.215,0,5.822-2.606,5.822-5.822c0-3.215-2.607-5.821-5.822-5.821
				C72.307-75.576,69.7-72.97,69.7-69.755z"/>
			<path d="M83.5-69.755c0,3.216,2.606,5.822,5.821,5.822c3.216,0,5.822-2.606,5.822-5.822c0-3.215-2.606-5.821-5.822-5.821
				C86.106-75.576,83.5-72.97,83.5-69.755z"/>
			<path fill="#FFFFFF" d="M84.9-70.661c0,0.486,0.396,0.881,0.882,0.881c0.486,0,0.881-0.395,0.881-0.881
				c0-0.487-0.395-0.883-0.881-0.883C85.295-71.544,84.9-71.148,84.9-70.661z"/>
			<path fill="#FFFFFF" d="M92.929-69.177l0.191,0.486l-0.247,0.094c-1.149,0.442-2.457,0.663-3.77,0.663
				c-1.214,0-2.433-0.186-3.534-0.569l-0.248-0.085l0.168-0.493l0.249,0.084c2.182,0.756,4.844,0.722,6.947-0.084L92.929-69.177z"/>
			<path fill="#FFFFFF" d="M91.982-70.603c0,0.485,0.394,0.88,0.881,0.88c0.486,0,0.88-0.395,0.88-0.88
				c0-0.487-0.394-0.881-0.88-0.881C92.376-71.483,91.982-71.09,91.982-70.603z"/>
		</g>
		<g>
			<path d="M0-69.755c0,3.216,2.606,5.822,5.821,5.822c3.216,0,5.822-2.606,5.822-5.822c0-3.215-2.606-5.821-5.822-5.821
				C2.606-75.576,0-72.97,0-69.755z"/>
			<path d="M13.8-69.755c0,3.216,2.606,5.822,5.821,5.822s5.822-2.606,5.822-5.822c0-3.215-2.607-5.821-5.822-5.821
				S13.8-72.97,13.8-69.755z"/>
			<path fill="#FFFFFF" d="M8.482-70.603c0,0.485,0.394,0.88,0.881,0.88c0.486,0,0.88-0.395,0.88-0.88
				c0-0.487-0.394-0.881-0.88-0.881C8.876-71.483,8.482-71.09,8.482-70.603z"/>
		</g>
	</g>
</pattern>
<g id="Calque_1" xmlns:krita="http://krita.org/namespaces/svg/krita" xmlns:sodipodi="http://sodipodi.sourceforge.net/DTD/sodipodi-0.dtd">
	<path fill="#724E9F" d="M165.083,151.107c6.108-8.838,9.696-19.551,9.696-31.107c0-30.254-24.525-54.78-54.779-54.78
		S65.22,89.746,65.22,120c0,11.557,3.587,22.271,9.697,31.107c-26.111,17.92-43.86,50.924-44.648,88.893h179.463
		C208.943,202.031,191.193,169.027,165.083,151.107z"/>
	<g opacity="0.4">
		<path fill="url(#oui)" d="M165.083,151.107c6.108-8.838,9.696-19.551,9.696-31.107c0-30.254-24.525-54.78-54.779-54.78
			S65.22,89.746,65.22,120c0,11.557,3.587,22.271,9.697,31.107c-26.111,17.92-43.86,50.924-44.648,88.893h179.463
			C208.943,202.031,191.193,169.027,165.083,151.107z"/>
	</g>
	<path fill="#070707" d="M120,174.779c-18.731,0-35.258-9.406-45.137-23.748c8.423,17.66,25.467,29.748,45.137,29.748
		c19.669,0,36.712-12.086,45.135-29.746C155.257,165.373,138.73,174.779,120,174.779z"/>
</g>
<g id="Calque_2" display="none">
	<path display="inline" d="M6.931-5.778c4.047-6.793,5.617-12.779,3.484-14.311c-2.055-1.475-6.922,1.623-11.87,7.214
		c-6.127-4.264-11.586-6.128-13.234-4.21c-1.712,1.993,1.227,7.438,6.762,13.084c-4.046,6.794-5.618,12.779-3.483,14.311
		c2.054,1.476,6.92-1.623,11.869-7.214c6.127,4.265,11.586,6.128,13.234,4.21C15.405,5.313,12.466-0.132,6.931-5.778z"/>
	<path display="inline" d="M41.431,4.722c4.047-6.793,5.617-12.779,3.484-14.311c-2.055-1.475-6.922,1.623-11.869,7.214
		c-6.127-4.264-11.586-6.128-13.234-4.21c-1.713,1.993,1.227,7.438,6.762,13.084c-4.047,6.794-5.618,12.779-3.484,14.311
		c2.055,1.476,6.921-1.623,11.869-7.214c6.127,4.265,11.586,6.128,13.234,4.21C49.905,15.813,46.966,10.368,41.431,4.722z"/>
	<path display="inline" d="M75.931,15.222c4.047-6.793,5.617-12.779,3.484-14.311c-2.055-1.475-6.922,1.623-11.869,7.214
		c-6.127-4.264-11.586-6.128-13.234-4.21c-1.713,1.993,1.227,7.438,6.762,13.084c-4.047,6.794-5.618,12.779-3.484,14.311
		c2.055,1.476,6.921-1.623,11.869-7.214c6.127,4.265,11.586,6.128,13.234,4.21C84.405,26.313,81.466,20.868,75.931,15.222z"/>
	<path display="inline" d="M110.431,25.722c4.047-6.793,5.617-12.779,3.484-14.311c-2.055-1.475-6.922,1.623-11.869,7.214
		c-6.127-4.264-11.586-6.128-13.234-4.21c-1.713,1.993,1.227,7.438,6.762,13.084c-4.047,6.794-5.618,12.779-3.484,14.31
		c2.055,1.477,6.921-1.623,11.869-7.213c6.127,4.264,11.586,6.127,13.234,4.209C118.905,36.813,115.966,31.368,110.431,25.722z"/>
	<path display="inline" d="M144.932,36.221c4.046-6.793,5.616-12.778,3.483-14.31c-2.054-1.475-6.921,1.623-11.868,7.214
		c-6.127-4.264-11.586-6.128-13.234-4.21c-1.713,1.993,1.227,7.438,6.762,13.084c-4.047,6.795-5.619,12.779-3.484,14.311
		c2.055,1.477,6.92-1.623,11.869-7.213c6.127,4.264,11.585,6.127,13.233,4.209C153.405,47.313,150.466,41.868,144.932,36.221z"/>
	<path display="inline" d="M179.431,46.721c4.047-6.793,5.617-12.778,3.484-14.31c-2.055-1.475-6.922,1.623-11.869,7.214
		c-6.127-4.265-11.586-6.128-13.234-4.211c-1.713,1.992,1.227,7.438,6.762,13.084c-4.047,6.795-5.617,12.78-3.484,14.311
		c2.055,1.477,6.922-1.623,11.869-7.213c6.127,4.264,11.586,6.127,13.234,4.209C187.905,57.813,184.966,52.368,179.431,46.721z"/>
	<path display="inline" d="M213.931,57.221c4.047-6.793,5.617-12.778,3.484-14.311c-2.055-1.475-6.922,1.623-11.869,7.215
		c-6.127-4.265-11.586-6.129-13.234-4.211c-1.713,1.992,1.227,7.438,6.762,13.084c-4.047,6.795-5.617,12.78-3.484,14.311
		c2.055,1.477,6.922-1.623,11.869-7.213c6.127,4.264,11.586,6.127,13.234,4.209C222.405,68.313,219.466,62.868,213.931,57.221z"/>
	<path display="inline" d="M12.055,25.722c4.047-6.793,5.617-12.779,3.484-14.311c-2.055-1.475-6.922,1.623-11.87,7.214
		c-6.127-4.264-11.586-6.128-13.234-4.21c-1.712,1.993,1.227,7.438,6.762,13.084C-6.849,34.293-8.42,40.278-6.286,41.81
		c2.054,1.476,6.92-1.623,11.869-7.214c6.127,4.265,11.586,6.128,13.234,4.21C20.529,36.813,17.59,31.368,12.055,25.722z"/>
	<path display="inline" d="M46.555,36.222c4.047-6.793,5.617-12.779,3.484-14.311c-2.055-1.475-6.922,1.623-11.869,7.214
		c-6.127-4.264-11.586-6.128-13.234-4.21c-1.713,1.993,1.227,7.438,6.762,13.084c-4.047,6.794-5.618,12.779-3.484,14.311
		c2.055,1.476,6.921-1.623,11.869-7.214c6.127,4.265,11.586,6.128,13.234,4.21C55.029,47.313,52.09,41.868,46.555,36.222z"/>
	<path display="inline" d="M81.055,46.722c4.047-6.793,5.617-12.779,3.484-14.311c-2.055-1.475-6.922,1.623-11.869,7.214
		c-6.127-4.264-11.586-6.128-13.234-4.21c-1.713,1.993,1.227,7.438,6.762,13.084c-4.047,6.794-5.618,12.779-3.484,14.311
		c2.055,1.476,6.921-1.623,11.869-7.214c6.127,4.265,11.586,6.128,13.234,4.21C89.529,57.813,86.59,52.368,81.055,46.722z"/>
	<path display="inline" d="M115.555,57.222c4.047-6.793,5.617-12.779,3.484-14.311c-2.055-1.475-6.922,1.623-11.869,7.214
		c-6.127-4.264-11.586-6.128-13.234-4.21c-1.713,1.993,1.227,7.438,6.762,13.084c-4.047,6.794-5.618,12.779-3.484,14.311
		c2.055,1.477,6.921-1.623,11.869-7.214c6.127,4.264,11.585,6.128,13.234,4.209C124.029,68.313,121.09,62.868,115.555,57.222z"/>
	<path display="inline" d="M150.056,67.721c4.047-6.793,5.617-12.778,3.484-14.31c-2.055-1.475-6.923,1.623-11.87,7.214
		c-6.127-4.264-11.586-6.128-13.234-4.21c-1.713,1.993,1.227,7.438,6.762,13.084c-4.047,6.795-5.617,12.78-3.484,14.311
		c2.055,1.477,6.922-1.623,11.869-7.213c6.128,4.264,11.587,6.127,13.235,4.209C158.528,78.813,155.591,73.368,150.056,67.721z"/>
	<path display="inline" d="M184.556,78.222c4.047-6.793,5.617-12.779,3.484-14.311c-2.055-1.475-6.922,1.623-11.869,7.214
		c-6.127-4.265-11.586-6.128-13.234-4.211c-1.713,1.992,1.227,7.438,6.762,13.084c-4.047,6.795-5.619,12.779-3.484,14.311
		c2.055,1.477,6.92-1.623,11.869-7.213c6.127,4.264,11.586,6.127,13.234,4.209C193.028,89.313,190.091,83.868,184.556,78.222z"/>
	<path display="inline" d="M219.056,88.722c4.047-6.793,5.617-12.779,3.484-14.311c-2.055-1.475-6.922,1.623-11.869,7.215
		c-6.127-4.266-11.586-6.129-13.234-4.211c-1.713,1.992,1.227,7.438,6.762,13.084c-4.047,6.795-5.619,12.779-3.484,14.311
		c2.055,1.477,6.92-1.623,11.869-7.213c6.127,4.264,11.586,6.127,13.234,4.209C227.528,99.813,224.591,94.368,219.056,88.722z"/>
	<path display="inline" d="M17.179,57.222c4.047-6.793,5.617-12.779,3.484-14.311c-2.055-1.475-6.922,1.623-11.87,7.214
		c-6.127-4.264-11.586-6.128-13.234-4.21c-1.712,1.993,1.227,7.438,6.762,13.084c-4.046,6.794-5.618,12.779-3.483,14.311
		c2.054,1.476,6.92-1.623,11.869-7.214c6.127,4.265,11.586,6.128,13.234,4.21C25.653,68.313,22.714,62.868,17.179,57.222z"/>
	<path display="inline" d="M51.679,67.722c4.047-6.793,5.617-12.779,3.484-14.311c-2.055-1.475-6.922,1.623-11.869,7.214
		c-6.127-4.264-11.586-6.128-13.234-4.21c-1.713,1.993,1.227,7.438,6.762,13.084c-4.047,6.794-5.618,12.779-3.484,14.311
		c2.055,1.476,6.921-1.623,11.869-7.214c6.127,4.265,11.586,6.128,13.234,4.21C60.153,78.813,57.214,73.368,51.679,67.722z"/>
	<path display="inline" d="M86.179,78.222c4.047-6.793,5.617-12.779,3.484-14.311c-2.055-1.475-6.922,1.623-11.869,7.214
		c-6.127-4.264-11.586-6.128-13.234-4.21c-1.713,1.993,1.227,7.438,6.762,13.084c-4.047,6.794-5.618,12.779-3.484,14.311
		c2.055,1.476,6.921-1.623,11.869-7.214c6.127,4.265,11.586,6.128,13.234,4.21C94.653,89.313,91.714,83.868,86.179,78.222z"/>
	<path display="inline" d="M120.68,88.722c4.047-6.793,5.617-12.779,3.484-14.311c-2.055-1.475-6.922,1.623-11.87,7.214
		c-6.127-4.265-11.586-6.128-13.234-4.21c-1.713,1.992,1.227,7.438,6.762,13.084c-4.047,6.794-5.618,12.779-3.484,14.311
		c2.055,1.477,6.921-1.623,11.869-7.214c6.127,4.265,11.586,6.128,13.235,4.21C129.152,99.813,126.215,94.368,120.68,88.722z"/>
	<path display="inline" d="M155.179,99.222c4.047-6.793,5.617-12.779,3.484-14.311c-2.055-1.475-6.922,1.623-11.868,7.214
		c-6.127-4.265-11.586-6.128-13.234-4.21c-1.713,1.992,1.227,7.438,6.762,13.084c-4.047,6.795-5.619,12.779-3.484,14.311
		c2.055,1.477,6.92-1.623,11.868-7.213c6.127,4.264,11.586,6.127,13.234,4.209C163.653,110.313,160.714,104.868,155.179,99.222z"/>
	<path display="inline" d="M189.679,109.722c4.047-6.793,5.617-12.779,3.484-14.311c-2.055-1.475-6.922,1.623-11.869,7.215
		c-6.127-4.266-11.586-6.129-13.234-4.211c-1.713,1.992,1.227,7.438,6.762,13.084c-4.047,6.795-5.617,12.779-3.484,14.311
		c2.055,1.477,6.922-1.623,11.869-7.213c6.127,4.264,11.586,6.127,13.234,4.209C198.153,120.813,195.214,115.368,189.679,109.722z"
		/>
	<path display="inline" d="M224.179,120.222c4.047-6.793,5.617-12.779,3.484-14.311c-2.055-1.475-6.922,1.623-11.869,7.215
		c-6.127-4.266-11.586-6.129-13.234-4.211c-1.713,1.992,1.227,7.438,6.762,13.084c-4.047,6.795-5.617,12.779-3.484,14.311
		c2.055,1.477,6.922-1.623,11.869-7.213c6.127,4.264,11.586,6.127,13.234,4.209C232.653,131.313,229.714,125.868,224.179,120.222z"
		/>
	<path display="inline" d="M22.303,88.722c4.047-6.793,5.617-12.779,3.484-14.311c-2.055-1.475-6.922,1.623-11.87,7.214
		c-6.127-4.265-11.586-6.128-13.234-4.21c-1.712,1.992,1.227,7.438,6.762,13.084c-4.046,6.794-5.618,12.779-3.483,14.311
		c2.054,1.476,6.92-1.623,11.869-7.214c6.127,4.265,11.586,6.128,13.234,4.21C30.777,99.813,27.838,94.368,22.303,88.722z"/>
	<path display="inline" d="M56.803,99.222c4.047-6.793,5.617-12.779,3.484-14.311c-2.055-1.475-6.922,1.623-11.869,7.214
		c-6.127-4.265-11.586-6.128-13.234-4.21c-1.713,1.992,1.227,7.438,6.762,13.084c-4.047,6.794-5.618,12.779-3.484,14.311
		c2.055,1.476,6.921-1.623,11.869-7.214c6.127,4.265,11.586,6.128,13.234,4.21C65.277,110.313,62.338,104.868,56.803,99.222z"/>
	<path display="inline" d="M91.303,109.722c4.047-6.793,5.617-12.779,3.484-14.311c-2.055-1.475-6.922,1.623-11.869,7.214
		c-6.127-4.265-11.586-6.128-13.234-4.21c-1.713,1.992,1.227,7.438,6.762,13.084c-4.047,6.794-5.618,12.779-3.484,14.311
		c2.055,1.476,6.921-1.623,11.869-7.214c6.127,4.265,11.586,6.128,13.234,4.21C99.777,120.813,96.838,115.368,91.303,109.722z"/>
	<path display="inline" d="M125.803,120.222c4.047-6.793,5.617-12.779,3.484-14.311c-2.055-1.475-6.922,1.623-11.869,7.214
		c-6.127-4.265-11.586-6.128-13.234-4.21c-1.713,1.992,1.227,7.438,6.762,13.084c-4.047,6.794-5.618,12.779-3.484,14.311
		c2.055,1.477,6.921-1.623,11.869-7.214c6.126,4.265,11.585,6.128,13.234,4.21C134.277,131.313,131.338,125.868,125.803,120.222z"/>
	<path display="inline" d="M160.304,130.722c4.047-6.793,5.617-12.779,3.484-14.311c-2.055-1.475-6.922,1.623-11.869,7.214
		c-6.128-4.265-11.587-6.128-13.235-4.21c-1.713,1.992,1.227,7.438,6.762,13.084c-4.047,6.795-5.617,12.779-3.484,14.311
		c2.055,1.477,6.921-1.623,11.87-7.213c6.127,4.264,11.586,6.127,13.234,4.209C168.776,141.813,165.839,136.368,160.304,130.722z"/>
	<path display="inline" d="M194.804,141.222c4.047-6.793,5.617-12.779,3.484-14.311c-2.055-1.475-6.922,1.623-11.869,7.215
		c-6.127-4.266-11.586-6.129-13.234-4.211c-1.713,1.992,1.227,7.438,6.762,13.084c-4.047,6.795-5.619,12.779-3.484,14.311
		c2.055,1.477,6.92-1.623,11.869-7.213c6.127,4.264,11.586,6.127,13.234,4.209C203.276,152.313,200.339,146.868,194.804,141.222z"/>
	<path display="inline" d="M229.304,151.722c4.047-6.793,5.617-12.779,3.484-14.311c-2.055-1.475-6.922,1.623-11.869,7.215
		c-6.127-4.266-11.586-6.129-13.234-4.211c-1.713,1.992,1.227,7.438,6.762,13.084c-4.047,6.795-5.619,12.779-3.484,14.311
		c2.055,1.477,6.92-1.623,11.869-7.213c6.127,4.264,11.586,6.127,13.234,4.209C237.776,162.813,234.839,157.368,229.304,151.722z"/>
	<path display="inline" d="M27.427,120.222c4.047-6.793,5.617-12.779,3.484-14.311c-2.055-1.475-6.922,1.623-11.87,7.214
		c-6.127-4.265-11.586-6.128-13.234-4.21c-1.712,1.992,1.227,7.438,6.762,13.084c-4.046,6.794-5.618,12.779-3.483,14.311
		c2.054,1.476,6.92-1.623,11.869-7.214c6.127,4.265,11.586,6.128,13.234,4.21C35.901,131.313,32.962,125.868,27.427,120.222z"/>
	<path display="inline" d="M61.927,130.722c4.047-6.793,5.617-12.779,3.484-14.311c-2.055-1.475-6.922,1.623-11.869,7.214
		c-6.127-4.265-11.586-6.128-13.234-4.21c-1.713,1.992,1.227,7.438,6.762,13.084c-4.047,6.794-5.618,12.779-3.484,14.311
		c2.055,1.476,6.921-1.623,11.869-7.214c6.127,4.265,11.586,6.128,13.234,4.21C70.401,141.813,67.462,136.368,61.927,130.722z"/>
	<path display="inline" d="M96.427,141.222c4.047-6.793,5.617-12.779,3.484-14.311c-2.055-1.475-6.922,1.623-11.869,7.214
		c-6.127-4.265-11.586-6.128-13.234-4.21c-1.713,1.992,1.227,7.438,6.762,13.084c-4.047,6.794-5.618,12.779-3.484,14.311
		c2.055,1.476,6.921-1.623,11.869-7.214c6.127,4.265,11.586,6.128,13.234,4.21C104.901,152.313,101.962,146.868,96.427,141.222z"/>
	<path display="inline" d="M130.928,151.722c4.047-6.793,5.617-12.779,3.484-14.311c-2.055-1.475-6.922,1.623-11.869,7.214
		c-6.127-4.265-11.586-6.128-13.235-4.21c-1.713,1.992,1.227,7.438,6.762,13.084c-4.047,6.794-5.618,12.779-3.484,14.311
		c2.055,1.477,6.921-1.623,11.87-7.214c6.127,4.265,11.586,6.128,13.234,4.21C139.4,162.813,136.463,157.368,130.928,151.722z"/>
	<path display="inline" d="M165.427,162.222c4.047-6.793,5.617-12.779,3.484-14.311c-2.055-1.475-6.922,1.623-11.869,7.214
		c-6.127-4.265-11.585-6.128-13.233-4.21c-1.713,1.992,1.227,7.438,6.761,13.084c-4.046,6.795-5.618,12.779-3.483,14.311
		c2.054,1.477,6.921-1.623,11.868-7.213c6.127,4.264,11.586,6.127,13.234,4.209C173.901,173.313,170.962,167.868,165.427,162.222z"
		/>
	<path display="inline" d="M199.927,172.722c4.047-6.793,5.617-12.779,3.484-14.311c-2.055-1.475-6.922,1.623-11.869,7.215
		c-6.127-4.266-11.586-6.129-13.234-4.211c-1.713,1.992,1.227,7.438,6.762,13.084c-4.047,6.795-5.617,12.779-3.484,14.311
		c2.055,1.477,6.922-1.623,11.869-7.213c6.127,4.264,11.586,6.127,13.234,4.209C208.401,183.813,205.462,178.368,199.927,172.722z"
		/>
	<path display="inline" d="M234.427,183.222c4.047-6.793,5.617-12.779,3.484-14.311c-2.055-1.475-6.922,1.623-11.869,7.215
		c-6.127-4.266-11.586-6.129-13.234-4.211c-1.713,1.992,1.227,7.438,6.762,13.084c-4.047,6.795-5.617,12.779-3.484,14.311
		c2.055,1.477,6.922-1.623,11.869-7.213c6.127,4.264,11.586,6.127,13.234,4.209C242.901,194.313,239.962,188.868,234.427,183.222z"
		/>
	<path display="inline" d="M32.551,151.722c4.047-6.793,5.617-12.779,3.484-14.311c-2.055-1.475-6.922,1.623-11.87,7.214
		c-6.127-4.265-11.586-6.128-13.234-4.21c-1.712,1.992,1.227,7.438,6.762,13.084c-4.046,6.794-5.618,12.779-3.483,14.311
		c2.054,1.476,6.92-1.623,11.869-7.214c6.127,4.265,11.586,6.128,13.234,4.21C41.025,162.813,38.086,157.368,32.551,151.722z"/>
	<path display="inline" d="M67.051,162.222c4.047-6.793,5.617-12.779,3.484-14.311c-2.055-1.475-6.922,1.623-11.869,7.214
		c-6.127-4.265-11.586-6.128-13.234-4.21c-1.713,1.992,1.227,7.438,6.762,13.084c-4.047,6.794-5.618,12.779-3.484,14.311
		c2.055,1.476,6.921-1.623,11.869-7.214c6.127,4.265,11.586,6.128,13.234,4.21C75.525,173.313,72.586,167.868,67.051,162.222z"/>
	<path display="inline" d="M101.551,172.722c4.047-6.793,5.617-12.779,3.484-14.311c-2.055-1.475-6.922,1.623-11.869,7.214
		c-6.127-4.265-11.586-6.128-13.234-4.21c-1.713,1.992,1.227,7.438,6.762,13.084c-4.047,6.794-5.618,12.779-3.484,14.311
		c2.055,1.476,6.921-1.623,11.869-7.214c6.127,4.265,11.586,6.128,13.234,4.21C110.025,183.813,107.086,178.368,101.551,172.722z"/>
	<path display="inline" d="M136.051,183.222c4.047-6.793,5.617-12.779,3.484-14.311c-2.055-1.475-6.922,1.623-11.869,7.214
		c-6.127-4.265-11.585-6.128-13.234-4.21c-1.713,1.992,1.227,7.438,6.761,13.084c-4.046,6.794-5.618,12.779-3.484,14.311
		c2.055,1.477,6.921-1.623,11.869-7.214c6.127,4.265,11.586,6.128,13.234,4.21C144.525,194.313,141.586,188.868,136.051,183.222z"/>
	<path display="inline" d="M170.552,193.722c4.047-6.793,5.617-12.779,3.484-14.311c-2.055-1.475-6.922,1.623-11.869,7.214
		c-6.127-4.265-11.586-6.128-13.234-4.21c-1.714,1.992,1.227,7.438,6.762,13.084c-4.047,6.795-5.619,12.779-3.484,14.311
		c2.055,1.477,6.92-1.623,11.869-7.213c6.127,4.264,11.586,6.127,13.234,4.209C179.024,204.813,176.087,199.368,170.552,193.722z"/>
	<path display="inline" d="M205.052,204.222c4.047-6.793,5.617-12.779,3.484-14.311c-2.055-1.475-6.922,1.623-11.869,7.215
		c-6.127-4.266-11.586-6.129-13.234-4.211c-1.713,1.992,1.227,7.438,6.762,13.084c-4.047,6.795-5.619,12.779-3.484,14.311
		c2.055,1.477,6.92-1.623,11.869-7.213c6.127,4.264,11.586,6.127,13.234,4.209C213.524,215.313,210.587,209.868,205.052,204.222z"/>
	<path display="inline" d="M239.552,214.722c4.047-6.793,5.617-12.779,3.484-14.311c-2.055-1.475-6.922,1.623-11.869,7.215
		c-6.127-4.266-11.586-6.129-13.234-4.211c-1.713,1.992,1.227,7.438,6.762,13.084c-4.047,6.795-5.619,12.779-3.484,14.311
		c2.055,1.477,6.92-1.623,11.869-7.213c6.127,4.264,11.586,6.127,13.234,4.209C248.024,225.813,245.087,220.368,239.552,214.722z"/>
	<path display="inline" d="M37.675,183.222c4.047-6.793,5.617-12.779,3.484-14.311c-2.055-1.475-6.922,1.623-11.87,7.214
		c-6.127-4.265-11.586-6.128-13.234-4.21c-1.712,1.992,1.227,7.438,6.762,13.084c-4.046,6.794-5.618,12.779-3.483,14.311
		c2.054,1.476,6.92-1.623,11.869-7.214c6.127,4.265,11.586,6.128,13.234,4.21C46.149,194.313,43.21,188.868,37.675,183.222z"/>
	<path display="inline" d="M72.175,193.722c4.047-6.793,5.617-12.779,3.484-14.311c-2.055-1.475-6.922,1.623-11.869,7.214
		c-6.127-4.265-11.586-6.128-13.234-4.21c-1.713,1.992,1.227,7.438,6.762,13.084c-4.047,6.794-5.618,12.779-3.484,14.311
		c2.055,1.476,6.921-1.623,11.869-7.214c6.127,4.265,11.586,6.128,13.234,4.21C80.649,204.813,77.71,199.368,72.175,193.722z"/>
	<path display="inline" d="M106.675,204.222c4.047-6.793,5.617-12.779,3.484-14.311c-2.055-1.475-6.922,1.623-11.869,7.214
		c-6.127-4.265-11.586-6.128-13.234-4.21c-1.713,1.992,1.227,7.438,6.762,13.084c-4.047,6.794-5.618,12.779-3.484,14.311
		c2.055,1.476,6.921-1.623,11.869-7.214c6.127,4.265,11.586,6.128,13.234,4.21C115.149,215.313,112.21,209.868,106.675,204.222z"/>
	<path display="inline" d="M141.176,214.722c4.047-6.793,5.617-12.779,3.484-14.311c-2.055-1.475-6.922,1.623-11.869,7.214
		c-6.127-4.265-11.586-6.128-13.235-4.21c-1.713,1.992,1.227,7.438,6.762,13.084c-4.047,6.794-5.619,12.779-3.484,14.311
		c2.055,1.477,6.92-1.623,11.869-7.214c6.127,4.265,11.586,6.128,13.233,4.21C149.649,225.813,146.711,220.368,141.176,214.722z"/>
	<path display="inline" d="M175.675,225.222c4.047-6.793,5.617-12.779,3.484-14.311c-2.055-1.475-6.922,1.623-11.869,7.214
		c-6.127-4.265-11.586-6.128-13.234-4.21c-1.713,1.992,1.227,7.438,6.762,13.084c-4.047,6.795-5.617,12.779-3.484,14.311
		c2.055,1.477,6.922-1.623,11.869-7.213c6.127,4.264,11.586,6.127,13.234,4.209C184.149,236.313,181.21,230.868,175.675,225.222z"/>
	<path display="inline" d="M210.175,235.722c4.047-6.793,5.617-12.779,3.484-14.311c-2.055-1.475-6.922,1.623-11.869,7.215
		c-6.127-4.266-11.586-6.129-13.234-4.211c-1.713,1.992,1.227,7.438,6.762,13.084c-4.047,6.795-5.617,12.779-3.484,14.311
		c2.055,1.477,6.922-1.623,11.869-7.213c6.127,4.264,11.586,6.127,13.234,4.209C218.649,246.813,215.71,241.368,210.175,235.722z"/>
	<path display="inline" d="M244.675,246.222c4.047-6.793,5.617-12.779,3.484-14.311c-2.055-1.475-6.922,1.623-11.869,7.215
		c-6.127-4.266-11.586-6.129-13.234-4.211c-1.713,1.992,1.227,7.438,6.762,13.084c-4.047,6.795-5.617,12.779-3.484,14.311
		c2.055,1.477,6.922-1.623,11.869-7.213c6.127,4.264,11.586,6.127,13.234,4.209C253.149,257.313,250.21,251.868,244.675,246.222z"/>
	<path display="inline" d="M42.799,214.722c4.047-6.793,5.617-12.779,3.484-14.311c-2.055-1.475-6.922,1.623-11.87,7.214
		c-6.127-4.265-11.586-6.128-13.234-4.21c-1.712,1.992,1.227,7.438,6.762,13.084c-4.046,6.794-5.618,12.779-3.483,14.311
		c2.054,1.476,6.92-1.623,11.869-7.214c6.127,4.265,11.586,6.128,13.234,4.21C51.273,225.813,48.334,220.368,42.799,214.722z"/>
	<path display="inline" d="M77.299,225.222c4.047-6.793,5.617-12.779,3.484-14.311c-2.055-1.475-6.922,1.623-11.869,7.214
		c-6.127-4.265-11.586-6.128-13.234-4.21c-1.713,1.992,1.227,7.438,6.762,13.084c-4.047,6.794-5.618,12.779-3.484,14.311
		c2.055,1.476,6.921-1.623,11.869-7.214c6.127,4.265,11.586,6.128,13.234,4.21C85.773,236.313,82.834,230.868,77.299,225.222z"/>
	<path display="inline" d="M111.799,235.722c4.047-6.793,5.617-12.779,3.484-14.311c-2.055-1.475-6.922,1.623-11.869,7.214
		c-6.127-4.265-11.586-6.128-13.234-4.21c-1.713,1.992,1.227,7.438,6.762,13.084c-4.047,6.794-5.618,12.779-3.484,14.311
		c2.055,1.476,6.921-1.623,11.869-7.214c6.127,4.265,11.586,6.128,13.234,4.21C120.273,246.813,117.334,241.368,111.799,235.722z"/>
	<path display="inline" d="M146.299,246.222c4.048-6.793,5.618-12.779,3.485-14.311c-2.055-1.475-6.923,1.623-11.87,7.214
		c-6.127-4.265-11.586-6.128-13.234-4.21c-1.713,1.992,1.227,7.438,6.762,13.084c-4.047,6.794-5.617,12.779-3.484,14.311
		c2.055,1.477,6.922-1.623,11.869-7.214c6.127,4.265,11.587,6.128,13.235,4.21C154.772,257.313,151.835,251.868,146.299,246.222z"/>
	<path display="inline" d="M180.8,256.722c4.047-6.793,5.617-12.779,3.484-14.311c-2.055-1.475-6.922,1.623-11.869,7.214
		c-6.127-4.265-11.586-6.128-13.234-4.21c-1.713,1.992,1.227,7.438,6.762,13.084c-4.047,6.795-5.619,12.779-3.484,14.311
		c2.055,1.477,6.92-1.623,11.869-7.213c6.127,4.264,11.586,6.127,13.234,4.209C189.272,267.813,186.335,262.368,180.8,256.722z"/>
	<path display="inline" d="M215.3,267.222c4.047-6.793,5.617-12.779,3.484-14.311c-2.055-1.475-6.922,1.623-11.869,7.215
		c-6.127-4.266-11.586-6.129-13.234-4.211c-1.713,1.992,1.227,7.438,6.762,13.084c-4.047,6.795-5.619,12.779-3.484,14.311
		c2.055,1.477,6.92-1.623,11.869-7.213c6.127,4.264,11.586,6.127,13.234,4.209C223.772,278.313,220.835,272.868,215.3,267.222z"/>
	<path display="inline" d="M249.8,277.722c4.047-6.793,5.617-12.779,3.484-14.311c-2.055-1.475-6.922,1.623-11.869,7.215
		c-6.127-4.266-11.586-6.129-13.234-4.211c-1.713,1.992,1.227,7.438,6.762,13.084c-4.047,6.795-5.619,12.779-3.484,14.311
		c2.055,1.477,6.92-1.623,11.869-7.213c6.127,4.264,11.586,6.127,13.234,4.209C258.272,288.813,255.335,283.368,249.8,277.722z"/>
</g>
<g id="Calque_3" display="none">
	<circle display="inline" cx="54.364" cy="92.268" r="5.822"/>
	<circle display="inline" cx="68.164" cy="92.268" r="5.822"/>
	<circle display="inline" cx="81.964" cy="92.268" r="5.822"/>
	<circle display="inline" cx="95.764" cy="92.268" r="5.822"/>
	<circle display="inline" cx="109.563" cy="92.268" r="5.822"/>
	<circle display="inline" cx="123.363" cy="92.268" r="5.822"/>
	<path display="inline" fill="#FFFFFF" d="M106.024,90.479c0.486,0,0.881,0.396,0.881,0.883c0,0.486-0.395,0.881-0.881,0.881
		c-0.487,0-0.882-0.395-0.882-0.881C105.142,90.874,105.538,90.479,106.024,90.479z"/>
	<path display="inline" fill="#FFFFFF" d="M112.928,92.942c-2.103,0.805-4.765,0.839-6.947,0.083l-0.249-0.083l-0.168,0.493
		l0.248,0.085c1.101,0.384,2.32,0.569,3.534,0.569c1.313,0,2.621-0.221,3.77-0.663l0.247-0.094l-0.191-0.487L112.928,92.942z"/>
	<path display="inline" fill="#FFFFFF" d="M113.105,90.539c0.486,0,0.88,0.394,0.88,0.88c0,0.486-0.394,0.88-0.88,0.88
		c-0.487,0-0.881-0.395-0.881-0.88C112.224,90.933,112.618,90.539,113.105,90.539z"/>
</g>
</svg>
