<?xml version="1.0" encoding="utf-8"?>
<!-- Generator: Adobe Illustrator 16.0.3, SVG Export Plug-In . SVG Version: 6.00 Build 0)  -->
<!DOCTYPE svg PUBLIC "-//W3C//DTD SVG 1.1//EN" "http://www.w3.org/Graphics/SVG/1.1/DTD/svg11.dtd">
<svg version="1.1"
	 id="Calque_1" xmlns:krita="http://krita.org/namespaces/svg/krita" xmlns:sodipodi="http://sodipodi.sourceforge.net/DTD/sodipodi-0.dtd"
	 xmlns="http://www.w3.org/2000/svg" xmlns:xlink="http://www.w3.org/1999/xlink" x="0px" y="0px" width="240px" height="240px"
	 viewBox="0 0 240 240" enable-background="new 0 0 240 240" xml:space="preserve">
<pattern  x="-379.5" y="620.5" width="87.826" height="107.451" patternUnits="userSpaceOnUse" id="motif1" viewBox="23.42 -110.451 87.826 107.451" overflow="visible">
	<g>
		<polygon fill="none" points="23.42,-110.451 111.247,-110.451 111.247,-3 23.42,-3 		"/>
		<g>
			<path d="M128.812-6.676c-5.015-0.48-8.403-1.447-10.265-2.954c-1.635-1.325-1.991-2.944-2.336-4.511
				c-0.354-1.609-0.722-3.273-2.444-4.608c-1.93-1.494-5.197-2.365-10.383-2.741l-0.068,0.306c5.053,0.366,8.409,1.242,10.264,2.678
				c1.635,1.267,1.974,2.805,2.332,4.433c0.716,3.252,1.41,6.615,12.777,7.704L128.812-6.676z"/>
			<path d="M127.642-5.094c-5.015-0.48-8.342-1.444-10.173-2.946c-1.608-1.318-1.93-2.931-2.241-4.489
				c-0.319-1.604-0.65-3.261-2.348-4.591c-1.9-1.489-5.2-2.357-10.386-2.733l-0.022,0.307c5.052,0.366,8.395,1.239,10.219,2.668
				c1.608,1.26,1.913,2.79,2.236,4.409c0.646,3.241,1.315,6.592,12.686,7.682L127.642-5.094z"/>
			<path d="M126.799-3.457c-5.015-0.48-8.347-1.446-10.186-2.952c-1.616-1.323-1.947-2.941-2.268-4.506
				c-0.329-1.608-0.67-3.271-2.375-4.605c-1.908-1.493-5.213-2.364-10.398-2.74l-0.022,0.306c5.053,0.367,8.398,1.242,10.231,2.676
				c1.616,1.265,1.931,2.8,2.264,4.426c0.666,3.251,1.354,6.613,12.725,7.702L126.799-3.457z"/>
			<path d="M125.799-1.908c-5.015-0.48-8.342-1.444-10.174-2.946c-1.607-1.318-1.929-2.931-2.24-4.49
				c-0.319-1.603-0.65-3.261-2.349-4.591c-1.899-1.488-5.199-2.356-10.385-2.732l-0.022,0.306c5.052,0.366,8.394,1.239,10.219,2.669
				c1.608,1.26,1.913,2.789,2.236,4.409c0.646,3.24,1.315,6.592,12.686,7.681L125.799-1.908z"/>
			<path d="M125.171-0.306c-5.014-0.479-8.449-1.446-10.31-2.954c-1.635-1.324-1.991-2.944-2.337-4.511
				c-0.354-1.609-0.721-3.273-2.443-4.608c-1.93-1.494-5.197-2.365-10.383-2.741l-0.162,0.307c5.053,0.366,8.503,1.242,10.356,2.678
				c1.636,1.267,1.974,2.804,2.333,4.432c0.716,3.252,1.41,6.615,12.777,7.704L125.171-0.306z"/>
			<polygon points="103.902,-21.176 103.371,-21.483 99.685,-15.112 100.216,-14.805 			"/>
			<polygon points="105.526,-21.183 105.258,-21.286 101.625,-14.858 101.892,-14.708 			"/>
			<path d="M102.498-12.438c0,0.595,0.482,1.077,1.077,1.077s1.077-0.482,1.077-1.077s-0.482-1.077-1.077-1.077
				S102.498-13.032,102.498-12.438z"/>
		</g>
		<g>
			<path d="M99.537-6.676c-5.015-0.48-8.403-1.447-10.265-2.954c-1.635-1.325-1.991-2.944-2.336-4.511
				c-0.354-1.609-0.722-3.273-2.444-4.608c-1.93-1.494-5.197-2.365-10.383-2.741l-0.068,0.306c5.053,0.366,8.409,1.242,10.264,2.678
				c1.635,1.267,1.974,2.805,2.332,4.433c0.716,3.252,1.41,6.615,12.777,7.704L99.537-6.676z"/>
			<path d="M98.367-5.094c-5.015-0.48-8.342-1.444-10.173-2.946c-1.608-1.318-1.93-2.931-2.241-4.489
				c-0.319-1.604-0.65-3.261-2.348-4.591c-1.9-1.489-5.2-2.357-10.386-2.733l-0.022,0.307c5.052,0.366,8.395,1.239,10.219,2.668
				c1.608,1.26,1.913,2.79,2.236,4.409c0.646,3.241,1.315,6.592,12.686,7.682L98.367-5.094z"/>
			<path d="M97.524-3.457c-5.015-0.48-8.347-1.446-10.186-2.952c-1.616-1.323-1.947-2.941-2.268-4.506
				c-0.329-1.608-0.67-3.271-2.375-4.605c-1.908-1.493-5.213-2.364-10.398-2.74l-0.022,0.306c5.053,0.367,8.398,1.242,10.231,2.676
				c1.616,1.265,1.931,2.8,2.264,4.426c0.666,3.251,1.354,6.613,12.725,7.702L97.524-3.457z"/>
			<path d="M96.524-1.908c-5.015-0.48-8.342-1.444-10.174-2.946c-1.607-1.318-1.929-2.931-2.24-4.49
				c-0.319-1.603-0.65-3.261-2.349-4.591c-1.899-1.488-5.199-2.356-10.385-2.732l-0.022,0.306c5.052,0.366,8.394,1.239,10.219,2.669
				c1.608,1.26,1.913,2.789,2.236,4.409c0.646,3.24,1.315,6.592,12.686,7.681L96.524-1.908z"/>
			<path d="M95.896-0.306c-5.014-0.479-8.449-1.446-10.31-2.954c-1.635-1.324-1.991-2.944-2.337-4.511
				c-0.354-1.609-0.721-3.273-2.443-4.608c-1.93-1.494-5.197-2.365-10.383-2.741l-0.162,0.307c5.053,0.366,8.503,1.242,10.356,2.678
				c1.636,1.267,1.974,2.804,2.333,4.432C83.667-4.452,84.361-1.089,95.728,0L95.896-0.306z"/>
			<polygon points="74.626,-21.176 74.095,-21.483 70.41,-15.112 70.941,-14.805 			"/>
			<polygon points="99.453,-6.43 98.92,-6.737 95.235,-0.367 95.765,-0.06 			"/>
			<polygon points="76.25,-21.183 75.983,-21.286 72.349,-14.858 72.617,-14.708 			"/>
			<path d="M83.628-15.591c0,0.595,0.482,1.077,1.076,1.077c0.596,0,1.077-0.482,1.077-1.077s-0.481-1.077-1.077-1.077
				C84.111-16.668,83.628-16.186,83.628-15.591z"/>
			<path d="M73.222-12.438c0,0.595,0.482,1.077,1.077,1.077s1.077-0.482,1.077-1.077s-0.482-1.077-1.077-1.077
				S73.222-13.032,73.222-12.438z"/>
			<path d="M86.137-6.51c0,0.595,0.481,1.077,1.076,1.077c0.596,0,1.077-0.482,1.077-1.077s-0.481-1.077-1.077-1.077
				C86.619-7.587,86.137-7.104,86.137-6.51z"/>
			<path d="M94.37-8.898c0,0.595,0.482,1.076,1.077,1.076s1.077-0.481,1.077-1.076s-0.482-1.077-1.077-1.077
				S94.37-9.493,94.37-8.898z"/>
		</g>
		<g>
			<path d="M70.261-6.676c-5.015-0.48-8.403-1.447-10.265-2.954c-1.635-1.325-1.991-2.944-2.336-4.511
				c-0.354-1.609-0.722-3.273-2.444-4.608c-1.93-1.494-5.197-2.365-10.383-2.741l-0.068,0.306c5.053,0.366,8.409,1.242,10.264,2.678
				c1.635,1.267,1.974,2.805,2.332,4.433c0.716,3.252,1.41,6.615,12.777,7.704L70.261-6.676z"/>
			<path d="M69.091-5.094c-5.015-0.48-8.342-1.444-10.173-2.946c-1.608-1.318-1.93-2.931-2.241-4.489
				c-0.319-1.604-0.65-3.261-2.348-4.591c-1.9-1.489-5.2-2.357-10.386-2.733l-0.022,0.307c5.052,0.366,8.395,1.239,10.219,2.668
				c1.608,1.26,1.913,2.79,2.236,4.409c0.646,3.241,1.315,6.592,12.686,7.682L69.091-5.094z"/>
			<path d="M68.249-3.457c-5.015-0.48-8.347-1.446-10.186-2.952c-1.616-1.323-1.947-2.941-2.268-4.506
				c-0.329-1.608-0.67-3.271-2.375-4.605c-1.908-1.493-5.213-2.364-10.398-2.74L43-17.955c5.053,0.367,8.398,1.242,10.231,2.676
				c1.616,1.265,1.931,2.8,2.264,4.426c0.666,3.251,1.354,6.613,12.725,7.702L68.249-3.457z"/>
			<path d="M67.249-1.908c-5.015-0.48-8.342-1.444-10.174-2.946c-1.607-1.318-1.929-2.931-2.24-4.49
				c-0.319-1.603-0.65-3.261-2.349-4.591c-1.899-1.488-5.199-2.356-10.385-2.732l-0.022,0.306c5.052,0.366,8.394,1.239,10.219,2.669
				c1.608,1.26,1.913,2.789,2.236,4.409c0.646,3.24,1.315,6.592,12.686,7.681L67.249-1.908z"/>
			<path d="M66.621-0.306c-5.014-0.479-8.449-1.446-10.31-2.954c-1.635-1.324-1.991-2.944-2.337-4.511
				c-0.354-1.609-0.721-3.273-2.443-4.608c-1.93-1.494-5.197-2.365-10.383-2.741l-0.162,0.307c5.053,0.366,8.503,1.242,10.356,2.678
				c1.636,1.267,1.974,2.804,2.333,4.432C54.391-4.452,55.085-1.089,66.453,0L66.621-0.306z"/>
			<polygon points="45.351,-21.176 44.82,-21.483 41.134,-15.112 41.666,-14.805 			"/>
			<polygon points="70.177,-6.43 69.645,-6.737 65.959,-0.367 66.49,-0.06 			"/>
			<polygon points="46.975,-21.183 46.708,-21.286 43.074,-14.858 43.341,-14.708 			"/>
			<path d="M54.353-15.591c0,0.595,0.482,1.077,1.076,1.077c0.596,0,1.077-0.482,1.077-1.077s-0.481-1.077-1.077-1.077
				C54.835-16.668,54.353-16.186,54.353-15.591z"/>
			<path d="M43.947-12.438c0,0.595,0.482,1.077,1.077,1.077s1.077-0.482,1.077-1.077s-0.482-1.077-1.077-1.077
				S43.947-13.032,43.947-12.438z"/>
			<path d="M56.862-6.51c0,0.595,0.481,1.077,1.076,1.077c0.596,0,1.077-0.482,1.077-1.077s-0.481-1.077-1.077-1.077
				C57.343-7.587,56.862-7.104,56.862-6.51z"/>
			<path d="M65.094-8.898c0,0.595,0.482,1.076,1.077,1.076s1.077-0.481,1.077-1.076s-0.482-1.077-1.077-1.077
				S65.094-9.493,65.094-8.898z"/>
		</g>
		<g>
			<path d="M40.986-6.676c-5.015-0.48-8.403-1.447-10.265-2.954c-1.635-1.325-1.991-2.944-2.336-4.511
				c-0.354-1.609-0.722-3.273-2.444-4.608c-1.93-1.494-5.197-2.365-10.383-2.741l-0.068,0.306c5.053,0.366,8.409,1.242,10.264,2.678
				c1.635,1.267,1.974,2.805,2.332,4.433c0.716,3.252,1.41,6.615,12.777,7.704L40.986-6.676z"/>
			<path d="M39.816-5.094c-5.015-0.48-8.342-1.444-10.173-2.946c-1.608-1.318-1.93-2.931-2.241-4.489
				c-0.319-1.604-0.65-3.261-2.348-4.591c-1.9-1.489-5.2-2.357-10.386-2.733l-0.022,0.307c5.052,0.366,8.395,1.239,10.219,2.668
				c1.608,1.26,1.913,2.79,2.236,4.409c0.646,3.241,1.315,6.592,12.686,7.682L39.816-5.094z"/>
			<path d="M38.973-3.457c-5.015-0.48-8.347-1.446-10.186-2.952c-1.616-1.323-1.947-2.941-2.268-4.506
				c-0.329-1.608-0.67-3.271-2.375-4.605c-1.908-1.493-5.213-2.364-10.398-2.74l-0.022,0.306c5.053,0.367,8.398,1.242,10.231,2.676
				c1.616,1.265,1.931,2.8,2.264,4.426c0.666,3.251,1.354,6.613,12.725,7.702L38.973-3.457z"/>
			<path d="M37.973-1.908c-5.015-0.48-8.342-1.444-10.174-2.946c-1.607-1.318-1.929-2.931-2.24-4.49
				c-0.319-1.603-0.65-3.261-2.349-4.591c-1.899-1.488-5.199-2.356-10.385-2.732l-0.022,0.306c5.052,0.366,8.394,1.239,10.219,2.669
				c1.608,1.26,1.913,2.789,2.236,4.409c0.646,3.24,1.315,6.592,12.686,7.681L37.973-1.908z"/>
			<path d="M37.345-0.306c-5.014-0.479-8.449-1.446-10.31-2.954c-1.635-1.324-1.991-2.944-2.337-4.511
				c-0.354-1.609-0.721-3.273-2.443-4.608c-1.93-1.494-5.197-2.365-10.383-2.741l-0.162,0.307c5.053,0.366,8.503,1.242,10.356,2.678
				c1.636,1.267,1.974,2.804,2.333,4.432C25.116-4.452,25.81-1.089,37.177,0L37.345-0.306z"/>
			<polygon points="40.902,-6.43 40.37,-6.737 36.684,-0.367 37.214,-0.06 			"/>
			<path d="M25.078-15.591c0,0.595,0.482,1.077,1.076,1.077c0.596,0,1.077-0.482,1.077-1.077s-0.481-1.077-1.077-1.077
				C25.56-16.668,25.078-16.186,25.078-15.591z"/>
			<path d="M27.586-6.51c0,0.595,0.481,1.077,1.076,1.077c0.596,0,1.077-0.482,1.077-1.077s-0.481-1.077-1.077-1.077
				C28.068-7.587,27.586-7.104,27.586-6.51z"/>
			<path d="M35.819-8.898c0,0.595,0.482,1.076,1.077,1.076s1.077-0.481,1.077-1.076s-0.482-1.077-1.077-1.077
				S35.819-9.493,35.819-8.898z"/>
		</g>
		<g>
			<path d="M134.667-28.166c-5.015-0.48-8.403-1.447-10.265-2.954c-1.635-1.325-1.991-2.944-2.336-4.511
				c-0.354-1.609-0.722-3.273-2.444-4.608c-1.93-1.494-5.197-2.365-10.383-2.741l-0.068,0.306c5.053,0.366,8.409,1.242,10.264,2.678
				c1.635,1.267,1.974,2.805,2.332,4.433c0.716,3.252,1.41,6.615,12.777,7.704L134.667-28.166z"/>
			<path d="M133.497-26.584c-5.015-0.48-8.342-1.444-10.173-2.946c-1.608-1.318-1.93-2.931-2.241-4.489
				c-0.319-1.604-0.65-3.261-2.348-4.591c-1.9-1.489-5.2-2.357-10.386-2.733l-0.022,0.307c5.052,0.366,8.395,1.239,10.219,2.668
				c1.608,1.26,1.913,2.79,2.236,4.409c0.646,3.241,1.315,6.592,12.686,7.682L133.497-26.584z"/>
			<path d="M132.654-24.947c-5.015-0.48-8.347-1.446-10.186-2.952c-1.616-1.323-1.947-2.941-2.268-4.506
				c-0.329-1.608-0.67-3.271-2.375-4.605c-1.908-1.493-5.213-2.364-10.398-2.74l-0.022,0.306c5.053,0.367,8.398,1.242,10.231,2.676
				c1.616,1.265,1.931,2.8,2.264,4.426c0.666,3.251,1.354,6.613,12.725,7.702L132.654-24.947z"/>
			<path d="M131.654-23.398c-5.015-0.48-8.342-1.444-10.174-2.946c-1.607-1.318-1.929-2.931-2.24-4.49
				c-0.319-1.603-0.65-3.261-2.349-4.591c-1.899-1.488-5.199-2.356-10.385-2.732l-0.022,0.306c5.052,0.366,8.394,1.239,10.219,2.669
				c1.608,1.26,1.913,2.789,2.236,4.409c0.646,3.24,1.315,6.592,12.686,7.681L131.654-23.398z"/>
			<path d="M131.026-21.796c-5.014-0.479-8.449-1.446-10.31-2.954c-1.635-1.324-1.991-2.944-2.337-4.511
				c-0.354-1.609-0.721-3.273-2.443-4.608c-1.93-1.494-5.197-2.365-10.383-2.741l-0.162,0.307c5.053,0.366,8.503,1.242,10.356,2.678
				c1.636,1.267,1.974,2.804,2.333,4.432c0.716,3.252,1.41,6.615,12.777,7.704L131.026-21.796z"/>
			<polygon points="109.756,-42.666 109.225,-42.974 105.54,-36.603 106.071,-36.295 			"/>
			<polygon points="111.38,-42.673 111.113,-42.776 107.479,-36.349 107.747,-36.198 			"/>
			<path d="M108.352-33.928c0,0.595,0.482,1.077,1.077,1.077s1.077-0.482,1.077-1.077s-0.482-1.077-1.077-1.077
				S108.352-34.522,108.352-33.928z"/>
		</g>
		<g>
			<path d="M105.391-28.166c-5.015-0.48-8.403-1.447-10.264-2.954c-1.635-1.325-1.991-2.944-2.336-4.511
				c-0.354-1.609-0.722-3.273-2.444-4.608c-1.93-1.494-5.197-2.365-10.383-2.741l-0.068,0.306c5.053,0.366,8.409,1.242,10.264,2.678
				c1.635,1.267,1.974,2.805,2.332,4.433c0.716,3.252,1.41,6.615,12.777,7.704L105.391-28.166z"/>
			<path d="M104.221-26.584c-5.015-0.48-8.341-1.444-10.172-2.946c-1.608-1.318-1.93-2.931-2.241-4.489
				c-0.319-1.604-0.65-3.261-2.348-4.591c-1.9-1.489-5.2-2.357-10.386-2.733l-0.022,0.307c5.052,0.366,8.395,1.239,10.219,2.668
				c1.608,1.26,1.913,2.79,2.236,4.409c0.646,3.241,1.315,6.592,12.685,7.682L104.221-26.584z"/>
			<path d="M103.378-24.947c-5.015-0.48-8.346-1.446-10.185-2.952c-1.616-1.323-1.947-2.941-2.268-4.506
				c-0.329-1.608-0.67-3.271-2.375-4.605c-1.908-1.493-5.213-2.364-10.398-2.74l-0.022,0.306c5.053,0.367,8.398,1.242,10.231,2.676
				c1.616,1.265,1.931,2.8,2.264,4.426c0.666,3.251,1.354,6.613,12.724,7.702L103.378-24.947z"/>
			<path d="M102.378-23.398c-5.015-0.48-8.341-1.444-10.173-2.946c-1.607-1.318-1.929-2.931-2.24-4.49
				c-0.319-1.603-0.65-3.261-2.349-4.591c-1.899-1.488-5.199-2.356-10.385-2.732l-0.022,0.306c5.052,0.366,8.394,1.239,10.219,2.669
				c1.608,1.26,1.913,2.789,2.236,4.409c0.646,3.24,1.315,6.592,12.685,7.681L102.378-23.398z"/>
			<path d="M101.75-21.796c-5.014-0.479-8.449-1.446-10.309-2.954c-1.635-1.324-1.991-2.944-2.337-4.511
				c-0.354-1.609-0.721-3.273-2.443-4.608c-1.93-1.494-5.197-2.365-10.383-2.741l-0.162,0.307c5.053,0.366,8.503,1.242,10.356,2.678
				c1.636,1.267,1.974,2.804,2.333,4.432c0.716,3.252,1.41,6.615,12.777,7.704L101.75-21.796z"/>
			<polygon points="80.481,-42.666 79.95,-42.974 76.265,-36.603 76.796,-36.295 			"/>
			<polygon points="105.307,-27.92 104.775,-28.228 101.089,-21.857 101.62,-21.55 			"/>
			<polygon points="82.105,-42.673 81.838,-42.776 78.204,-36.349 78.472,-36.198 			"/>
			<path d="M89.483-37.081c0,0.595,0.482,1.077,1.076,1.077c0.596,0,1.077-0.482,1.077-1.077s-0.481-1.077-1.077-1.077
				C89.966-38.158,89.483-37.676,89.483-37.081z"/>
			<path d="M79.077-33.928c0,0.595,0.482,1.077,1.077,1.077s1.077-0.482,1.077-1.077s-0.482-1.077-1.077-1.077
				S79.077-34.522,79.077-33.928z"/>
			<path d="M91.992-28c0,0.595,0.481,1.077,1.076,1.077c0.596,0,1.077-0.482,1.077-1.077s-0.481-1.077-1.077-1.077
				C92.474-29.077,91.992-28.595,91.992-28z"/>
			<path d="M100.224-30.389c0,0.595,0.482,1.076,1.077,1.076s1.077-0.481,1.077-1.076s-0.482-1.077-1.077-1.077
				S100.224-30.983,100.224-30.389z"/>
		</g>
		<g>
			<path d="M76.116-28.166c-5.015-0.48-8.403-1.447-10.265-2.954c-1.635-1.325-1.991-2.944-2.336-4.511
				c-0.354-1.609-0.722-3.273-2.444-4.608c-1.93-1.494-5.197-2.365-10.383-2.741l-0.068,0.306c5.053,0.366,8.409,1.242,10.264,2.678
				c1.635,1.267,1.974,2.805,2.332,4.433c0.716,3.252,1.41,6.615,12.777,7.704L76.116-28.166z"/>
			<path d="M74.946-26.584c-5.015-0.48-8.342-1.444-10.173-2.946c-1.608-1.318-1.93-2.931-2.241-4.489
				c-0.319-1.604-0.65-3.261-2.348-4.591c-1.9-1.489-5.2-2.357-10.386-2.733l-0.022,0.307c5.052,0.366,8.395,1.239,10.219,2.668
				c1.608,1.26,1.913,2.79,2.236,4.409c0.646,3.241,1.315,6.592,12.686,7.682L74.946-26.584z"/>
			<path d="M74.104-24.947c-5.015-0.48-8.347-1.446-10.186-2.952c-1.616-1.323-1.947-2.941-2.268-4.506
				c-0.329-1.608-0.67-3.271-2.375-4.605c-1.908-1.493-5.213-2.364-10.398-2.74l-0.022,0.306c5.053,0.367,8.398,1.242,10.231,2.676
				c1.616,1.265,1.931,2.8,2.264,4.426c0.666,3.251,1.354,6.613,12.725,7.702L74.104-24.947z"/>
			<path d="M73.104-23.398c-5.015-0.48-8.342-1.444-10.174-2.946c-1.607-1.318-1.929-2.931-2.24-4.49
				c-0.319-1.603-0.65-3.261-2.349-4.591c-1.899-1.488-5.199-2.356-10.385-2.732l-0.022,0.306c5.052,0.366,8.394,1.239,10.219,2.669
				c1.608,1.26,1.913,2.789,2.236,4.409c0.646,3.24,1.315,6.592,12.686,7.681L73.104-23.398z"/>
			<path d="M72.476-21.796c-5.014-0.479-8.449-1.446-10.31-2.954c-1.635-1.324-1.991-2.944-2.337-4.511
				c-0.354-1.609-0.721-3.273-2.443-4.608c-1.93-1.494-5.197-2.365-10.383-2.741l-0.162,0.307c5.053,0.366,8.503,1.242,10.356,2.678
				c1.636,1.267,1.974,2.804,2.333,4.432c0.716,3.252,1.41,6.615,12.777,7.704L72.476-21.796z"/>
			<polygon points="51.206,-42.666 50.675,-42.974 46.989,-36.603 47.521,-36.295 			"/>
			<polygon points="76.032,-27.92 75.5,-28.228 71.814,-21.857 72.345,-21.55 			"/>
			<polygon points="52.83,-42.673 52.563,-42.776 48.929,-36.349 49.196,-36.198 			"/>
			<path d="M60.208-37.081c0,0.595,0.482,1.077,1.076,1.077c0.596,0,1.077-0.482,1.077-1.077s-0.481-1.077-1.077-1.077
				C60.69-38.158,60.208-37.676,60.208-37.081z"/>
			<path d="M49.802-33.928c0,0.595,0.482,1.077,1.077,1.077s1.077-0.482,1.077-1.077s-0.482-1.077-1.077-1.077
				S49.802-34.522,49.802-33.928z"/>
			<path d="M62.717-28c0,0.595,0.481,1.077,1.076,1.077c0.596,0,1.077-0.482,1.077-1.077s-0.481-1.077-1.077-1.077
				C63.198-29.077,62.717-28.595,62.717-28z"/>
			<path d="M70.949-30.389c0,0.595,0.482,1.076,1.077,1.076s1.077-0.481,1.077-1.076s-0.482-1.077-1.077-1.077
				S70.949-30.983,70.949-30.389z"/>
		</g>
		<g>
			<path d="M46.841-28.166c-5.015-0.48-8.403-1.447-10.265-2.954c-1.635-1.325-1.991-2.944-2.336-4.511
				c-0.354-1.609-0.722-3.273-2.444-4.608c-1.93-1.494-5.197-2.365-10.383-2.741l-0.068,0.306c5.053,0.366,8.409,1.242,10.264,2.678
				c1.635,1.267,1.974,2.805,2.332,4.433c0.716,3.252,1.41,6.615,12.777,7.704L46.841-28.166z"/>
			<path d="M45.671-26.584c-5.015-0.48-8.342-1.444-10.173-2.946c-1.608-1.318-1.93-2.931-2.241-4.489
				c-0.319-1.604-0.65-3.261-2.348-4.591c-1.9-1.489-5.2-2.357-10.386-2.733l-0.022,0.307c5.052,0.366,8.395,1.239,10.219,2.668
				c1.608,1.26,1.913,2.79,2.236,4.409c0.646,3.241,1.315,6.592,12.686,7.682L45.671-26.584z"/>
			<path d="M44.828-24.947c-5.015-0.48-8.347-1.446-10.186-2.952c-1.616-1.323-1.947-2.941-2.268-4.506
				c-0.329-1.608-0.67-3.271-2.375-4.605c-1.908-1.493-5.213-2.364-10.398-2.74l-0.022,0.306c5.053,0.367,8.398,1.242,10.231,2.676
				c1.616,1.265,1.931,2.8,2.264,4.426c0.666,3.251,1.354,6.613,12.725,7.702L44.828-24.947z"/>
			<path d="M43.828-23.398c-5.015-0.48-8.342-1.444-10.174-2.946c-1.607-1.318-1.929-2.931-2.24-4.49
				c-0.319-1.603-0.65-3.261-2.349-4.591c-1.899-1.488-5.199-2.356-10.385-2.732l-0.022,0.306c5.052,0.366,8.394,1.239,10.219,2.669
				c1.608,1.26,1.913,2.789,2.236,4.409c0.646,3.24,1.315,6.592,12.686,7.681L43.828-23.398z"/>
			<path d="M43.2-21.796c-5.014-0.479-8.449-1.446-10.31-2.954c-1.635-1.324-1.991-2.944-2.337-4.511
				c-0.354-1.609-0.721-3.273-2.443-4.608c-1.93-1.494-5.197-2.365-10.383-2.741l-0.162,0.307c5.053,0.366,8.503,1.242,10.356,2.678
				c1.636,1.267,1.974,2.804,2.333,4.432c0.716,3.252,1.41,6.615,12.777,7.704L43.2-21.796z"/>
			<polygon points="46.757,-27.92 46.225,-28.228 42.539,-21.857 43.069,-21.55 			"/>
			<polygon points="23.555,-42.673 23.287,-42.776 19.653,-36.349 19.921,-36.198 			"/>
			<path d="M30.933-37.081c0,0.595,0.482,1.077,1.076,1.077c0.596,0,1.077-0.482,1.077-1.077s-0.481-1.077-1.077-1.077
				C31.415-38.158,30.933-37.676,30.933-37.081z"/>
			<path d="M33.441-28c0,0.595,0.481,1.077,1.076,1.077c0.596,0,1.077-0.482,1.077-1.077s-0.481-1.077-1.077-1.077
				C33.923-29.077,33.441-28.595,33.441-28z"/>
			<path d="M41.674-30.389c0,0.595,0.482,1.076,1.077,1.076s1.077-0.481,1.077-1.076s-0.482-1.077-1.077-1.077
				S41.674-30.983,41.674-30.389z"/>
		</g>
		<g>
			<path d="M111.247-49.656c-5.015-0.48-8.403-1.447-10.265-2.954c-1.635-1.325-1.991-2.944-2.336-4.511
				c-0.354-1.609-0.722-3.273-2.444-4.608c-1.93-1.494-5.197-2.365-10.383-2.741l-0.068,0.306c5.053,0.366,8.409,1.242,10.264,2.678
				c1.635,1.267,1.974,2.805,2.332,4.433c0.716,3.252,1.41,6.615,12.777,7.704L111.247-49.656z"/>
			<path d="M110.077-48.074c-5.015-0.48-8.342-1.444-10.173-2.946c-1.608-1.318-1.93-2.931-2.241-4.489
				c-0.319-1.604-0.65-3.261-2.348-4.591c-1.9-1.489-5.2-2.357-10.386-2.733l-0.022,0.307c5.052,0.366,8.395,1.239,10.219,2.668
				c1.608,1.26,1.913,2.79,2.236,4.409c0.646,3.241,1.315,6.592,12.686,7.682L110.077-48.074z"/>
			<path d="M109.234-46.438c-5.015-0.48-8.347-1.446-10.186-2.952c-1.616-1.323-1.947-2.941-2.268-4.506
				c-0.329-1.608-0.67-3.271-2.375-4.605c-1.908-1.493-5.213-2.364-10.398-2.74l-0.022,0.306c5.053,0.367,8.398,1.242,10.231,2.676
				c1.616,1.265,1.931,2.8,2.264,4.426c0.666,3.251,1.354,6.613,12.725,7.702L109.234-46.438z"/>
			<path d="M108.234-44.889c-5.015-0.48-8.342-1.444-10.174-2.946c-1.607-1.318-1.929-2.931-2.24-4.49
				c-0.319-1.603-0.65-3.261-2.349-4.591c-1.899-1.488-5.199-2.356-10.385-2.732l-0.022,0.306c5.052,0.366,8.394,1.239,10.219,2.669
				c1.608,1.26,1.913,2.789,2.236,4.409c0.646,3.24,1.315,6.592,12.686,7.681L108.234-44.889z"/>
			<path d="M107.606-43.286c-5.014-0.479-8.449-1.446-10.31-2.954c-1.635-1.324-1.991-2.944-2.337-4.511
				c-0.354-1.609-0.721-3.273-2.443-4.608c-1.93-1.494-5.197-2.365-10.383-2.741l-0.162,0.307c5.053,0.366,8.503,1.242,10.356,2.678
				c1.636,1.267,1.974,2.804,2.333,4.432c0.716,3.252,1.41,6.615,12.777,7.704L107.606-43.286z"/>
			<polygon points="86.336,-64.156 85.805,-64.464 82.12,-58.093 82.651,-57.785 			"/>
			<polygon points="111.163,-49.41 110.63,-49.718 106.945,-43.348 107.475,-43.04 			"/>
			<polygon points="87.96,-64.163 87.693,-64.267 84.059,-57.839 84.327,-57.688 			"/>
			<path d="M95.338-58.571c0,0.595,0.482,1.077,1.076,1.077c0.596,0,1.077-0.482,1.077-1.077s-0.481-1.077-1.077-1.077
				C95.821-59.648,95.338-59.166,95.338-58.571z"/>
			<path d="M84.932-55.418c0,0.595,0.482,1.077,1.077,1.077s1.077-0.482,1.077-1.077s-0.482-1.077-1.077-1.077
				S84.932-56.013,84.932-55.418z"/>
			<path d="M97.847-49.49c0,0.595,0.481,1.077,1.076,1.077c0.596,0,1.077-0.482,1.077-1.077s-0.481-1.077-1.077-1.077
				C98.329-50.567,97.847-50.085,97.847-49.49z"/>
			<path d="M106.08-51.879c0,0.595,0.482,1.076,1.077,1.076s1.077-0.481,1.077-1.076s-0.482-1.077-1.077-1.077
				S106.08-52.474,106.08-51.879z"/>
		</g>
		<g>
			<path d="M81.971-49.656c-5.015-0.48-8.403-1.447-10.265-2.954c-1.635-1.325-1.991-2.944-2.336-4.511
				c-0.354-1.609-0.722-3.273-2.444-4.608c-1.93-1.494-5.197-2.365-10.383-2.741l-0.068,0.306c5.053,0.366,8.409,1.242,10.264,2.678
				c1.635,1.267,1.974,2.805,2.332,4.433c0.716,3.252,1.41,6.615,12.777,7.704L81.971-49.656z"/>
			<path d="M80.801-48.074c-5.015-0.48-8.342-1.444-10.173-2.946c-1.608-1.318-1.93-2.931-2.241-4.489
				c-0.319-1.604-0.65-3.261-2.348-4.591c-1.9-1.489-5.2-2.357-10.386-2.733l-0.022,0.307c5.052,0.366,8.395,1.239,10.219,2.668
				c1.608,1.26,1.913,2.79,2.236,4.409c0.646,3.241,1.315,6.592,12.686,7.682L80.801-48.074z"/>
			<path d="M79.958-46.438c-5.015-0.48-8.347-1.446-10.186-2.952c-1.616-1.323-1.947-2.941-2.268-4.506
				c-0.329-1.608-0.67-3.271-2.375-4.605c-1.908-1.493-5.213-2.364-10.398-2.74l-0.022,0.306c5.053,0.367,8.398,1.242,10.231,2.676
				c1.616,1.265,1.931,2.8,2.264,4.426c0.666,3.251,1.354,6.613,12.725,7.702L79.958-46.438z"/>
			<path d="M78.958-44.889c-5.015-0.48-8.342-1.444-10.174-2.946c-1.607-1.318-1.929-2.931-2.24-4.49
				c-0.319-1.603-0.65-3.261-2.349-4.591c-1.899-1.488-5.199-2.356-10.385-2.732l-0.022,0.306c5.052,0.366,8.394,1.239,10.219,2.669
				c1.608,1.26,1.913,2.789,2.236,4.409c0.646,3.24,1.315,6.592,12.686,7.681L78.958-44.889z"/>
			<path d="M78.331-43.286c-5.014-0.479-8.449-1.446-10.31-2.954c-1.635-1.324-1.991-2.944-2.337-4.511
				c-0.354-1.609-0.721-3.273-2.443-4.608c-1.93-1.494-5.197-2.365-10.383-2.741l-0.162,0.307c5.053,0.366,8.503,1.242,10.356,2.678
				c1.636,1.267,1.974,2.804,2.333,4.432c0.716,3.252,1.41,6.615,12.777,7.704L78.331-43.286z"/>
			<polygon points="57.061,-64.156 56.53,-64.464 52.844,-58.093 53.375,-57.785 			"/>
			<polygon points="81.887,-49.41 81.355,-49.718 77.669,-43.348 78.2,-43.04 			"/>
			<polygon points="58.685,-64.163 58.417,-64.267 54.784,-57.839 55.051,-57.688 			"/>
			<path d="M66.063-58.571c0,0.595,0.482,1.077,1.076,1.077c0.596,0,1.077-0.482,1.077-1.077s-0.481-1.077-1.077-1.077
				C66.545-59.648,66.063-59.166,66.063-58.571z"/>
			<path d="M55.657-55.418c0,0.595,0.482,1.077,1.077,1.077s1.077-0.482,1.077-1.077s-0.482-1.077-1.077-1.077
				S55.657-56.013,55.657-55.418z"/>
			<path d="M68.572-49.49c0,0.595,0.481,1.077,1.076,1.077c0.596,0,1.077-0.482,1.077-1.077s-0.481-1.077-1.077-1.077
				C69.053-50.567,68.572-50.085,68.572-49.49z"/>
			<path d="M76.804-51.879c0,0.595,0.482,1.076,1.077,1.076s1.077-0.481,1.077-1.076s-0.482-1.077-1.077-1.077
				S76.804-52.474,76.804-51.879z"/>
		</g>
		<g>
			<path d="M52.696-49.656c-5.015-0.48-8.403-1.447-10.265-2.954c-1.635-1.325-1.991-2.944-2.336-4.511
				c-0.354-1.609-0.722-3.273-2.444-4.608c-1.93-1.494-5.197-2.365-10.383-2.741L27.2-64.165c5.053,0.366,8.409,1.242,10.264,2.678
				c1.635,1.267,1.974,2.805,2.332,4.433c0.716,3.252,1.41,6.615,12.777,7.704L52.696-49.656z"/>
			<path d="M51.526-48.074c-5.015-0.48-8.342-1.444-10.173-2.946c-1.608-1.318-1.93-2.931-2.241-4.489
				c-0.319-1.604-0.65-3.261-2.348-4.591c-1.9-1.489-5.2-2.357-10.386-2.733l-0.022,0.307c5.052,0.366,8.395,1.239,10.219,2.668
				c1.608,1.26,1.913,2.79,2.236,4.409c0.646,3.241,1.315,6.592,12.686,7.682L51.526-48.074z"/>
			<path d="M50.683-46.438c-5.015-0.48-8.347-1.446-10.186-2.952c-1.616-1.323-1.947-2.941-2.268-4.506
				c-0.329-1.608-0.67-3.271-2.375-4.605c-1.908-1.493-5.213-2.364-10.398-2.74l-0.022,0.306c5.053,0.367,8.398,1.242,10.231,2.676
				c1.616,1.265,1.931,2.8,2.264,4.426c0.666,3.251,1.354,6.613,12.725,7.702L50.683-46.438z"/>
			<path d="M49.683-44.889c-5.015-0.48-8.342-1.444-10.174-2.946c-1.607-1.318-1.929-2.931-2.24-4.49
				c-0.319-1.603-0.65-3.261-2.349-4.591c-1.899-1.488-5.199-2.356-10.385-2.732l-0.022,0.306c5.052,0.366,8.394,1.239,10.219,2.669
				c1.608,1.26,1.913,2.789,2.236,4.409c0.646,3.24,1.315,6.592,12.686,7.681L49.683-44.889z"/>
			<path d="M49.055-43.286c-5.014-0.479-8.449-1.446-10.31-2.954c-1.635-1.324-1.991-2.944-2.337-4.511
				c-0.354-1.609-0.721-3.273-2.443-4.608c-1.93-1.494-5.197-2.365-10.383-2.741l-0.162,0.307c5.053,0.366,8.503,1.242,10.356,2.678
				c1.636,1.267,1.974,2.804,2.333,4.432c0.716,3.252,1.41,6.615,12.777,7.704L49.055-43.286z"/>
			<polygon points="27.786,-64.156 27.254,-64.464 23.569,-58.093 24.1,-57.785 			"/>
			<polygon points="52.612,-49.41 52.08,-49.718 48.394,-43.348 48.924,-43.04 			"/>
			<polygon points="29.41,-64.163 29.142,-64.267 25.508,-57.839 25.776,-57.688 			"/>
			<path d="M36.788-58.571c0,0.595,0.482,1.077,1.076,1.077c0.596,0,1.077-0.482,1.077-1.077s-0.481-1.077-1.077-1.077
				C37.27-59.648,36.788-59.166,36.788-58.571z"/>
			<path d="M26.381-55.418c0,0.595,0.482,1.077,1.077,1.077s1.077-0.482,1.077-1.077s-0.482-1.077-1.077-1.077
				S26.381-56.013,26.381-55.418z"/>
			<path d="M39.296-49.49c0,0.595,0.481,1.077,1.076,1.077c0.596,0,1.077-0.482,1.077-1.077s-0.481-1.077-1.077-1.077
				C39.778-50.567,39.296-50.085,39.296-49.49z"/>
			<path d="M47.529-51.879c0,0.595,0.482,1.076,1.077,1.076s1.077-0.481,1.077-1.076s-0.482-1.077-1.077-1.077
				S47.529-52.474,47.529-51.879z"/>
		</g>
		<g>
			<path d="M117.102-71.146c-5.015-0.48-8.403-1.447-10.265-2.954c-1.635-1.325-1.991-2.944-2.336-4.511
				c-0.354-1.609-0.722-3.273-2.444-4.608c-1.93-1.494-5.197-2.365-10.383-2.741l-0.068,0.306c5.053,0.366,8.41,1.242,10.264,2.678
				c1.635,1.267,1.974,2.805,2.332,4.433c0.716,3.252,1.41,6.615,12.777,7.704L117.102-71.146z"/>
			<path d="M115.932-69.564c-5.015-0.48-8.342-1.444-10.173-2.946c-1.608-1.318-1.93-2.931-2.241-4.489
				c-0.319-1.604-0.65-3.261-2.348-4.591c-1.9-1.489-5.201-2.357-10.386-2.733l-0.022,0.307c5.052,0.366,8.395,1.239,10.219,2.668
				c1.608,1.26,1.913,2.79,2.236,4.409c0.646,3.241,1.315,6.592,12.686,7.682L115.932-69.564z"/>
			<path d="M115.089-67.928c-5.015-0.48-8.347-1.446-10.186-2.952c-1.616-1.323-1.947-2.941-2.268-4.506
				c-0.329-1.608-0.67-3.271-2.375-4.605c-1.908-1.493-5.213-2.364-10.399-2.74l-0.022,0.306c5.053,0.367,8.399,1.242,10.232,2.676
				c1.616,1.265,1.931,2.8,2.264,4.426c0.666,3.251,1.354,6.613,12.725,7.702L115.089-67.928z"/>
			<path d="M114.089-66.379c-5.015-0.48-8.342-1.444-10.174-2.946c-1.607-1.318-1.929-2.931-2.24-4.49
				c-0.319-1.603-0.65-3.261-2.349-4.591c-1.899-1.488-5.2-2.356-10.385-2.732l-0.022,0.306c5.052,0.366,8.394,1.239,10.219,2.669
				c1.608,1.26,1.913,2.789,2.236,4.409c0.646,3.24,1.315,6.592,12.686,7.681L114.089-66.379z"/>
			<path d="M113.461-64.776c-5.014-0.479-8.449-1.446-10.31-2.954c-1.635-1.324-1.991-2.944-2.337-4.511
				c-0.354-1.609-0.721-3.273-2.443-4.608c-1.93-1.494-5.198-2.365-10.383-2.741l-0.162,0.307c5.053,0.366,8.503,1.242,10.357,2.678
				c1.636,1.267,1.974,2.804,2.333,4.432c0.716,3.252,1.41,6.615,12.777,7.704L113.461-64.776z"/>
			<polygon points="92.191,-85.646 91.66,-85.954 87.975,-79.583 88.506,-79.275 			"/>
			<polygon points="93.815,-85.653 93.548,-85.757 89.914,-79.329 90.182,-79.179 			"/>
			<path d="M101.194-80.062c0,0.595,0.482,1.077,1.076,1.077c0.596,0,1.077-0.482,1.077-1.077s-0.481-1.077-1.077-1.077
				C101.676-81.139,101.194-80.656,101.194-80.062z"/>
			<path d="M90.787-76.908c0,0.595,0.482,1.077,1.077,1.077s1.077-0.482,1.077-1.077s-0.482-1.077-1.077-1.077
				S90.787-77.503,90.787-76.908z"/>
			<path d="M103.703-70.98c0,0.595,0.481,1.077,1.076,1.077c0.596,0,1.077-0.482,1.077-1.077s-0.481-1.077-1.077-1.077
				C104.184-72.058,103.703-71.575,103.703-70.98z"/>
		</g>
		<g>
			<path d="M87.826-71.146c-5.015-0.48-8.403-1.447-10.265-2.954c-1.635-1.325-1.991-2.944-2.336-4.511
				c-0.354-1.609-0.722-3.273-2.444-4.608c-1.93-1.494-5.197-2.365-10.383-2.741l-0.068,0.306c5.053,0.366,8.409,1.242,10.264,2.678
				c1.635,1.267,1.974,2.805,2.332,4.433c0.716,3.252,1.41,6.615,12.777,7.704L87.826-71.146z"/>
			<path d="M86.656-69.564c-5.015-0.48-8.342-1.444-10.173-2.946c-1.608-1.318-1.93-2.931-2.241-4.489
				c-0.319-1.604-0.65-3.261-2.348-4.591c-1.9-1.489-5.2-2.357-10.386-2.733l-0.022,0.307c5.052,0.366,8.395,1.239,10.219,2.668
				c1.608,1.26,1.913,2.79,2.236,4.409c0.646,3.241,1.315,6.592,12.686,7.682L86.656-69.564z"/>
			<path d="M85.813-67.928c-5.015-0.48-8.347-1.446-10.186-2.952c-1.616-1.323-1.947-2.941-2.268-4.506
				c-0.329-1.608-0.67-3.271-2.375-4.605c-1.908-1.493-5.213-2.364-10.398-2.74l-0.022,0.306c5.053,0.367,8.398,1.242,10.231,2.676
				c1.616,1.265,1.931,2.8,2.264,4.426c0.666,3.251,1.354,6.613,12.725,7.702L85.813-67.928z"/>
			<path d="M84.813-66.379c-5.015-0.48-8.342-1.444-10.174-2.946c-1.607-1.318-1.929-2.931-2.24-4.49
				c-0.319-1.603-0.65-3.261-2.349-4.591c-1.899-1.488-5.199-2.356-10.385-2.732l-0.022,0.306c5.052,0.366,8.394,1.239,10.219,2.669
				c1.608,1.26,1.913,2.789,2.236,4.409c0.646,3.24,1.315,6.592,12.686,7.681L84.813-66.379z"/>
			<path d="M84.186-64.776c-5.014-0.479-8.449-1.446-10.31-2.954c-1.635-1.324-1.991-2.944-2.337-4.511
				c-0.354-1.609-0.721-3.273-2.443-4.608c-1.93-1.494-5.197-2.365-10.383-2.741l-0.162,0.307c5.053,0.366,8.503,1.242,10.356,2.678
				c1.636,1.267,1.974,2.804,2.333,4.432c0.716,3.252,1.41,6.615,12.777,7.704L84.186-64.776z"/>
			<polygon points="62.916,-85.646 62.385,-85.954 58.699,-79.583 59.23,-79.275 			"/>
			<polygon points="87.742,-70.9 87.21,-71.208 83.524,-64.838 84.055,-64.53 			"/>
			<polygon points="64.54,-85.653 64.272,-85.757 60.639,-79.329 60.906,-79.179 			"/>
			<path d="M71.918-80.062c0,0.595,0.482,1.077,1.076,1.077c0.596,0,1.077-0.482,1.077-1.077s-0.481-1.077-1.077-1.077
				C72.4-81.139,71.918-80.656,71.918-80.062z"/>
			<path d="M61.512-76.908c0,0.595,0.482,1.077,1.077,1.077s1.077-0.482,1.077-1.077s-0.482-1.077-1.077-1.077
				S61.512-77.503,61.512-76.908z"/>
			<path d="M74.427-70.98c0,0.595,0.481,1.077,1.076,1.077c0.596,0,1.077-0.482,1.077-1.077s-0.481-1.077-1.077-1.077
				C74.908-72.058,74.427-71.575,74.427-70.98z"/>
			<path d="M82.659-73.369c0,0.595,0.482,1.076,1.077,1.076s1.077-0.481,1.077-1.076s-0.482-1.077-1.077-1.077
				S82.659-73.964,82.659-73.369z"/>
		</g>
		<g>
			<path d="M58.551-71.146c-5.015-0.48-8.403-1.447-10.265-2.954c-1.635-1.325-1.991-2.944-2.336-4.511
				c-0.354-1.609-0.722-3.273-2.444-4.608c-1.93-1.494-5.197-2.365-10.383-2.741l-0.068,0.306c5.053,0.366,8.409,1.242,10.264,2.678
				c1.635,1.267,1.974,2.805,2.332,4.433c0.716,3.252,1.41,6.615,12.777,7.704L58.551-71.146z"/>
			<path d="M57.381-69.564c-5.015-0.48-8.342-1.444-10.173-2.946c-1.608-1.318-1.93-2.931-2.241-4.489
				c-0.319-1.604-0.65-3.261-2.348-4.591c-1.9-1.489-5.2-2.357-10.386-2.733l-0.022,0.307c5.052,0.366,8.395,1.239,10.219,2.668
				c1.608,1.26,1.913,2.79,2.236,4.409c0.646,3.241,1.315,6.592,12.686,7.682L57.381-69.564z"/>
			<path d="M56.538-67.928c-5.015-0.48-8.347-1.446-10.186-2.952c-1.616-1.323-1.947-2.941-2.268-4.506
				c-0.329-1.608-0.67-3.271-2.375-4.605c-1.908-1.493-5.213-2.364-10.398-2.74l-0.022,0.306c5.053,0.367,8.398,1.242,10.231,2.676
				c1.616,1.265,1.931,2.8,2.264,4.426c0.666,3.251,1.354,6.613,12.725,7.702L56.538-67.928z"/>
			<path d="M55.538-66.379c-5.015-0.48-8.342-1.444-10.174-2.946c-1.607-1.318-1.929-2.931-2.24-4.49
				c-0.319-1.603-0.65-3.261-2.349-4.591c-1.899-1.488-5.199-2.356-10.385-2.732l-0.022,0.306c5.052,0.366,8.394,1.239,10.219,2.669
				c1.608,1.26,1.913,2.789,2.236,4.409c0.646,3.24,1.315,6.592,12.686,7.681L55.538-66.379z"/>
			<path d="M54.91-64.776c-5.014-0.479-8.449-1.446-10.31-2.954c-1.635-1.324-1.991-2.944-2.337-4.511
				c-0.354-1.609-0.721-3.273-2.443-4.608c-1.93-1.494-5.197-2.365-10.383-2.741l-0.162,0.307c5.053,0.366,8.503,1.242,10.356,2.678
				c1.636,1.267,1.974,2.804,2.333,4.432c0.716,3.252,1.41,6.615,12.777,7.704L54.91-64.776z"/>
			<polygon points="33.641,-85.646 33.109,-85.954 29.424,-79.583 29.955,-79.275 			"/>
			<polygon points="58.467,-70.9 57.935,-71.208 54.249,-64.838 54.779,-64.53 			"/>
			<polygon points="35.265,-85.653 34.997,-85.757 31.363,-79.329 31.631,-79.179 			"/>
			<path d="M42.643-80.062c0,0.595,0.482,1.077,1.076,1.077c0.596,0,1.077-0.482,1.077-1.077s-0.481-1.077-1.077-1.077
				C43.125-81.139,42.643-80.656,42.643-80.062z"/>
			<path d="M32.236-76.908c0,0.595,0.482,1.077,1.077,1.077s1.077-0.482,1.077-1.077s-0.482-1.077-1.077-1.077
				S32.236-77.503,32.236-76.908z"/>
			<path d="M45.151-70.98c0,0.595,0.481,1.077,1.076,1.077c0.596,0,1.077-0.482,1.077-1.077s-0.481-1.077-1.077-1.077
				C45.633-72.058,45.151-71.575,45.151-70.98z"/>
			<path d="M53.384-73.369c0,0.595,0.482,1.076,1.077,1.076s1.077-0.481,1.077-1.076s-0.482-1.077-1.077-1.077
				S53.384-73.964,53.384-73.369z"/>
		</g>
		<g>
			<path d="M29.275-71.146c-5.015-0.48-8.403-1.447-10.265-2.954c-1.635-1.325-1.991-2.944-2.336-4.511
				c-0.354-1.609-0.722-3.273-2.444-4.608c-1.93-1.494-5.197-2.365-10.383-2.741l-0.068,0.306c5.053,0.366,8.409,1.242,10.264,2.678
				c1.635,1.267,1.974,2.805,2.332,4.433c0.716,3.252,1.41,6.615,12.777,7.704L29.275-71.146z"/>
			<path d="M28.105-69.564c-5.015-0.48-8.342-1.444-10.173-2.946c-1.608-1.318-1.93-2.931-2.241-4.489
				c-0.319-1.604-0.65-3.261-2.348-4.591c-1.9-1.489-5.2-2.357-10.386-2.733l-0.022,0.307c5.052,0.366,8.395,1.239,10.219,2.668
				c1.608,1.26,1.913,2.79,2.236,4.409c0.646,3.241,1.315,6.592,12.686,7.682L28.105-69.564z"/>
			<path d="M27.263-67.928c-5.015-0.48-8.347-1.446-10.186-2.952c-1.616-1.323-1.947-2.941-2.268-4.506
				c-0.329-1.608-0.67-3.271-2.375-4.605c-1.908-1.493-5.213-2.364-10.398-2.74l-0.022,0.306c5.053,0.367,8.398,1.242,10.231,2.676
				c1.616,1.265,1.931,2.8,2.264,4.426c0.666,3.251,1.354,6.613,12.725,7.702L27.263-67.928z"/>
			<path d="M26.263-66.379c-5.015-0.48-8.342-1.444-10.174-2.946c-1.607-1.318-1.929-2.931-2.24-4.49
				c-0.319-1.603-0.65-3.261-2.349-4.591c-1.899-1.488-5.199-2.356-10.385-2.732l-0.022,0.306c5.052,0.366,8.394,1.239,10.219,2.669
				c1.608,1.26,1.913,2.789,2.236,4.409c0.646,3.24,1.315,6.592,12.686,7.681L26.263-66.379z"/>
			<path d="M25.635-64.776c-5.014-0.479-8.449-1.446-10.31-2.954c-1.635-1.324-1.991-2.944-2.337-4.511
				c-0.354-1.609-0.721-3.273-2.443-4.608c-1.93-1.494-5.197-2.365-10.383-2.741L0-79.284c5.053,0.366,8.503,1.242,10.356,2.678
				c1.636,1.267,1.974,2.804,2.333,4.432c0.716,3.252,1.41,6.615,12.777,7.704L25.635-64.776z"/>
			<polygon points="29.191,-70.9 28.659,-71.208 24.974,-64.838 25.504,-64.53 			"/>
			<path d="M24.108-73.369c0,0.595,0.482,1.076,1.077,1.076s1.077-0.481,1.077-1.076s-0.482-1.077-1.077-1.077
				S24.108-73.964,24.108-73.369z"/>
		</g>
		<g>
			<path d="M122.957-92.637c-5.015-0.48-8.403-1.447-10.265-2.954c-1.635-1.325-1.991-2.944-2.336-4.511
				c-0.354-1.609-0.722-3.273-2.444-4.608c-1.93-1.494-5.197-2.365-10.383-2.741l-0.068,0.306c5.053,0.366,8.409,1.242,10.264,2.678
				c1.635,1.267,1.974,2.805,2.332,4.433c0.716,3.252,1.41,6.615,12.777,7.704L122.957-92.637z"/>
			<path d="M121.787-91.055c-5.015-0.48-8.342-1.444-10.173-2.946c-1.608-1.318-1.93-2.931-2.241-4.489
				c-0.319-1.604-0.65-3.261-2.348-4.591c-1.9-1.489-5.2-2.357-10.386-2.733l-0.022,0.307c5.052,0.366,8.395,1.239,10.219,2.668
				c1.608,1.26,1.913,2.79,2.236,4.409c0.646,3.241,1.315,6.592,12.686,7.682L121.787-91.055z"/>
			<path d="M120.944-89.418c-5.015-0.48-8.347-1.446-10.186-2.952c-1.616-1.323-1.947-2.941-2.268-4.506
				c-0.329-1.608-0.67-3.271-2.375-4.605c-1.908-1.493-5.213-2.364-10.398-2.74l-0.022,0.306c5.053,0.367,8.398,1.242,10.231,2.676
				c1.616,1.265,1.931,2.8,2.264,4.426c0.666,3.251,1.354,6.613,12.725,7.702L120.944-89.418z"/>
			<path d="M119.944-87.869c-5.015-0.48-8.342-1.444-10.174-2.946c-1.607-1.318-1.929-2.931-2.24-4.49
				c-0.319-1.603-0.65-3.261-2.349-4.591c-1.899-1.488-5.199-2.356-10.385-2.732l-0.022,0.306c5.052,0.366,8.394,1.239,10.219,2.669
				c1.608,1.26,1.913,2.789,2.236,4.409c0.646,3.24,1.315,6.592,12.686,7.681L119.944-87.869z"/>
			<path d="M119.316-86.267c-5.014-0.479-8.449-1.446-10.31-2.954c-1.635-1.324-1.991-2.944-2.337-4.511
				c-0.354-1.609-0.721-3.273-2.443-4.608c-1.93-1.494-5.197-2.365-10.383-2.741l-0.162,0.307c5.053,0.366,8.503,1.242,10.356,2.678
				c1.636,1.267,1.974,2.804,2.333,4.432c0.716,3.252,1.41,6.615,12.777,7.704L119.316-86.267z"/>
			<polygon points="98.046,-107.137 97.515,-107.444 93.83,-101.073 94.361,-100.766 			"/>
			<polygon points="99.67,-107.144 99.403,-107.247 95.769,-100.819 96.037,-100.669 			"/>
			<path d="M107.048-101.552c0,0.595,0.482,1.077,1.076,1.077c0.596,0,1.077-0.482,1.077-1.077s-0.481-1.077-1.077-1.077
				C107.531-102.629,107.048-102.146,107.048-101.552z"/>
			<path d="M96.642-98.398c0,0.595,0.482,1.077,1.077,1.077s1.077-0.482,1.077-1.077s-0.482-1.077-1.077-1.077
				S96.642-98.993,96.642-98.398z"/>
			<path d="M109.557-92.471c0,0.595,0.481,1.077,1.076,1.077c0.596,0,1.077-0.482,1.077-1.077s-0.481-1.077-1.077-1.077
				C110.039-93.548,109.557-93.065,109.557-92.471z"/>
		</g>
		<g>
			<path d="M93.681-92.637c-5.015-0.48-8.403-1.447-10.265-2.954c-1.635-1.325-1.991-2.944-2.336-4.511
				c-0.354-1.609-0.722-3.273-2.444-4.608c-1.93-1.494-5.197-2.365-10.383-2.741l-0.068,0.306c5.053,0.366,8.409,1.242,10.264,2.678
				c1.635,1.267,1.974,2.805,2.332,4.433c0.716,3.252,1.41,6.615,12.777,7.704L93.681-92.637z"/>
			<path d="M92.511-91.055c-5.015-0.48-8.342-1.444-10.173-2.946c-1.608-1.318-1.93-2.931-2.241-4.489
				c-0.319-1.604-0.65-3.261-2.348-4.591c-1.9-1.489-5.2-2.357-10.386-2.733l-0.022,0.307c5.052,0.366,8.395,1.239,10.219,2.668
				c1.608,1.26,1.913,2.79,2.236,4.409c0.646,3.241,1.315,6.592,12.686,7.682L92.511-91.055z"/>
			<path d="M91.668-89.418c-5.015-0.48-8.347-1.446-10.186-2.952c-1.616-1.323-1.947-2.941-2.268-4.506
				c-0.329-1.608-0.67-3.271-2.375-4.605c-1.908-1.493-5.213-2.364-10.398-2.74l-0.022,0.306c5.053,0.367,8.398,1.242,10.231,2.676
				c1.616,1.265,1.931,2.8,2.264,4.426c0.666,3.251,1.354,6.613,12.725,7.702L91.668-89.418z"/>
			<path d="M90.668-87.869c-5.015-0.48-8.342-1.444-10.174-2.946c-1.607-1.318-1.929-2.931-2.24-4.49
				c-0.319-1.603-0.65-3.261-2.349-4.591c-1.899-1.488-5.199-2.356-10.385-2.732l-0.022,0.306c5.052,0.366,8.394,1.239,10.219,2.669
				c1.608,1.26,1.913,2.789,2.236,4.409c0.646,3.24,1.315,6.592,12.686,7.681L90.668-87.869z"/>
			<path d="M90.041-86.267c-5.014-0.479-8.449-1.446-10.31-2.954c-1.635-1.324-1.991-2.944-2.337-4.511
				c-0.354-1.609-0.721-3.273-2.443-4.608c-1.93-1.494-5.197-2.365-10.383-2.741l-0.162,0.307c5.053,0.366,8.503,1.242,10.356,2.678
				c1.636,1.267,1.974,2.804,2.333,4.432c0.716,3.252,1.41,6.615,12.777,7.704L90.041-86.267z"/>
			<polygon points="68.771,-107.137 68.24,-107.444 64.554,-101.073 65.085,-100.766 			"/>
			<polygon points="93.597,-92.391 93.065,-92.698 89.379,-86.328 89.91,-86.021 			"/>
			<polygon points="70.395,-107.144 70.127,-107.247 66.494,-100.819 66.761,-100.669 			"/>
			<path d="M77.773-101.552c0,0.595,0.482,1.077,1.076,1.077c0.596,0,1.077-0.482,1.077-1.077s-0.481-1.077-1.077-1.077
				C78.255-102.629,77.773-102.146,77.773-101.552z"/>
			<path d="M67.367-98.398c0,0.595,0.482,1.077,1.077,1.077s1.077-0.482,1.077-1.077s-0.482-1.077-1.077-1.077
				S67.367-98.993,67.367-98.398z"/>
			<path d="M80.282-92.471c0,0.595,0.481,1.077,1.076,1.077c0.596,0,1.077-0.482,1.077-1.077s-0.481-1.077-1.077-1.077
				C80.763-93.548,80.282-93.065,80.282-92.471z"/>
			<path d="M88.514-94.859c0,0.595,0.482,1.076,1.077,1.076s1.077-0.481,1.077-1.076s-0.482-1.077-1.077-1.077
				S88.514-95.454,88.514-94.859z"/>
		</g>
		<g>
			<path d="M64.406-92.637c-5.015-0.48-8.403-1.447-10.265-2.954c-1.635-1.325-1.991-2.944-2.336-4.511
				c-0.354-1.609-0.722-3.273-2.444-4.608c-1.93-1.494-5.197-2.365-10.383-2.741l-0.068,0.306c5.053,0.366,8.409,1.242,10.264,2.678
				c1.635,1.267,1.974,2.805,2.332,4.433c0.716,3.252,1.41,6.615,12.777,7.704L64.406-92.637z"/>
			<path d="M63.236-91.055c-5.015-0.48-8.342-1.444-10.173-2.946c-1.608-1.318-1.93-2.931-2.241-4.489
				c-0.319-1.604-0.65-3.261-2.348-4.591c-1.9-1.489-5.2-2.357-10.386-2.733l-0.022,0.307c5.052,0.366,8.395,1.239,10.219,2.668
				c1.608,1.26,1.913,2.79,2.236,4.409c0.646,3.241,1.315,6.592,12.686,7.682L63.236-91.055z"/>
			<path d="M62.393-89.418c-5.015-0.48-8.347-1.446-10.186-2.952c-1.616-1.323-1.947-2.941-2.268-4.506
				c-0.329-1.608-0.67-3.271-2.375-4.605c-1.908-1.493-5.213-2.364-10.398-2.74l-0.022,0.306c5.053,0.367,8.398,1.242,10.231,2.676
				c1.616,1.265,1.931,2.8,2.264,4.426c0.666,3.251,1.354,6.613,12.725,7.702L62.393-89.418z"/>
			<path d="M61.393-87.869c-5.015-0.48-8.342-1.444-10.174-2.946c-1.607-1.318-1.929-2.931-2.24-4.49
				c-0.319-1.603-0.65-3.261-2.349-4.591c-1.899-1.488-5.199-2.356-10.385-2.732l-0.022,0.306c5.052,0.366,8.394,1.239,10.219,2.669
				c1.608,1.26,1.913,2.789,2.236,4.409c0.646,3.24,1.315,6.592,12.686,7.681L61.393-87.869z"/>
			<path d="M60.765-86.267c-5.014-0.479-8.449-1.446-10.31-2.954c-1.635-1.324-1.991-2.944-2.337-4.511
				c-0.354-1.609-0.721-3.273-2.443-4.608c-1.93-1.494-5.197-2.365-10.383-2.741l-0.162,0.307c5.053,0.366,8.503,1.242,10.356,2.678
				c1.636,1.267,1.974,2.804,2.333,4.432c0.716,3.252,1.41,6.615,12.777,7.704L60.765-86.267z"/>
			<polygon points="39.496,-107.137 38.964,-107.444 35.279,-101.073 35.81,-100.766 			"/>
			<polygon points="64.322,-92.391 63.79,-92.698 60.104,-86.328 60.634,-86.021 			"/>
			<polygon points="41.12,-107.144 40.852,-107.247 37.218,-100.819 37.486,-100.669 			"/>
			<path d="M48.498-101.552c0,0.595,0.482,1.077,1.076,1.077c0.596,0,1.077-0.482,1.077-1.077s-0.481-1.077-1.077-1.077
				C48.98-102.629,48.498-102.146,48.498-101.552z"/>
			<path d="M38.091-98.398c0,0.595,0.482,1.077,1.077,1.077s1.077-0.482,1.077-1.077s-0.482-1.077-1.077-1.077
				S38.091-98.993,38.091-98.398z"/>
			<path d="M51.006-92.471c0,0.595,0.481,1.077,1.076,1.077c0.596,0,1.077-0.482,1.077-1.077s-0.481-1.077-1.077-1.077
				C51.488-93.548,51.006-93.065,51.006-92.471z"/>
			<path d="M59.239-94.859c0,0.595,0.482,1.076,1.077,1.076s1.077-0.481,1.077-1.076s-0.482-1.077-1.077-1.077
				S59.239-95.454,59.239-94.859z"/>
		</g>
		<g>
			<path d="M35.13-92.637c-5.015-0.48-8.403-1.447-10.265-2.954c-1.635-1.325-1.991-2.944-2.336-4.511
				c-0.354-1.609-0.722-3.273-2.444-4.608c-1.93-1.494-5.197-2.365-10.383-2.741l-0.068,0.306c5.053,0.366,8.409,1.242,10.264,2.678
				c1.635,1.267,1.974,2.805,2.332,4.433c0.716,3.252,1.41,6.615,12.777,7.704L35.13-92.637z"/>
			<path d="M33.96-91.055c-5.015-0.48-8.342-1.444-10.173-2.946c-1.608-1.318-1.93-2.931-2.241-4.489
				c-0.319-1.604-0.65-3.261-2.348-4.591c-1.9-1.489-5.2-2.357-10.386-2.733l-0.022,0.307c5.052,0.366,8.395,1.239,10.219,2.668
				c1.608,1.26,1.913,2.79,2.236,4.409c0.646,3.241,1.315,6.592,12.686,7.682L33.96-91.055z"/>
			<path d="M33.118-89.418c-5.015-0.48-8.347-1.446-10.186-2.952c-1.616-1.323-1.947-2.941-2.268-4.506
				c-0.329-1.608-0.67-3.271-2.375-4.605c-1.908-1.493-5.213-2.364-10.398-2.74l-0.022,0.306c5.053,0.367,8.398,1.242,10.231,2.676
				c1.616,1.265,1.931,2.8,2.264,4.426c0.666,3.251,1.354,6.613,12.725,7.702L33.118-89.418z"/>
			<path d="M32.118-87.869c-5.015-0.48-8.342-1.444-10.174-2.946c-1.607-1.318-1.929-2.931-2.24-4.49
				c-0.319-1.603-0.65-3.261-2.349-4.591c-1.899-1.488-5.199-2.356-10.385-2.732l-0.022,0.306c5.052,0.366,8.394,1.239,10.219,2.669
				c1.608,1.26,1.913,2.789,2.236,4.409c0.646,3.24,1.315,6.592,12.686,7.681L32.118-87.869z"/>
			<path d="M31.49-86.267c-5.014-0.479-8.449-1.446-10.31-2.954c-1.635-1.324-1.991-2.944-2.337-4.511
				c-0.354-1.609-0.721-3.273-2.443-4.608c-1.93-1.494-5.197-2.365-10.383-2.741l-0.162,0.307c5.053,0.366,8.503,1.242,10.356,2.678
				c1.636,1.267,1.974,2.804,2.333,4.432c0.716,3.252,1.41,6.615,12.777,7.704L31.49-86.267z"/>
			<polygon points="35.046,-92.391 34.514,-92.698 30.829,-86.328 31.359,-86.021 			"/>
			<path d="M21.731-92.471c0,0.595,0.481,1.077,1.076,1.077c0.596,0,1.077-0.482,1.077-1.077s-0.481-1.077-1.077-1.077
				C22.212-93.548,21.731-93.065,21.731-92.471z"/>
			<path d="M29.963-94.859c0,0.595,0.482,1.076,1.077,1.076s1.077-0.481,1.077-1.076s-0.482-1.077-1.077-1.077
				S29.963-95.454,29.963-94.859z"/>
		</g>
		<g>
			<path d="M125.799-109.359c-5.015-0.48-8.342-1.444-10.174-2.946c-1.607-1.318-1.929-2.931-2.24-4.49
				c-0.319-1.603-0.65-3.261-2.349-4.591c-1.899-1.488-5.199-2.356-10.385-2.732l-0.022,0.306c5.052,0.366,8.394,1.239,10.219,2.669
				c1.608,1.26,1.913,2.789,2.236,4.409c0.646,3.24,1.315,6.592,12.686,7.681L125.799-109.359z"/>
			<path d="M125.171-107.757c-5.014-0.479-8.449-1.446-10.31-2.954c-1.635-1.324-1.991-2.944-2.337-4.511
				c-0.354-1.609-0.721-3.273-2.443-4.608c-1.93-1.494-5.197-2.365-10.383-2.741l-0.162,0.307c5.053,0.366,8.503,1.242,10.356,2.678
				c1.636,1.267,1.974,2.804,2.333,4.432c0.716,3.252,1.41,6.615,12.777,7.704L125.171-107.757z"/>
		</g>
		<g>
			<path d="M96.524-109.359c-5.015-0.48-8.342-1.444-10.174-2.946c-1.607-1.318-1.929-2.931-2.24-4.49
				c-0.319-1.603-0.65-3.261-2.349-4.591c-1.899-1.488-5.199-2.356-10.385-2.732l-0.022,0.306c5.052,0.366,8.394,1.239,10.219,2.669
				c1.608,1.26,1.913,2.789,2.236,4.409c0.646,3.24,1.315,6.592,12.686,7.681L96.524-109.359z"/>
			<path d="M95.896-107.757c-5.014-0.479-8.449-1.446-10.31-2.954c-1.635-1.324-1.991-2.944-2.337-4.511
				c-0.354-1.609-0.721-3.273-2.443-4.608c-1.93-1.494-5.197-2.365-10.383-2.741l-0.162,0.307c5.053,0.366,8.503,1.242,10.356,2.678
				c1.636,1.267,1.974,2.804,2.333,4.432c0.716,3.252,1.41,6.615,12.777,7.704L95.896-107.757z"/>
			<polygon points="99.453,-113.881 98.92,-114.188 95.235,-107.818 95.765,-107.511 			"/>
		</g>
		<g>
			<path d="M67.249-109.359c-5.015-0.48-8.342-1.444-10.174-2.946c-1.607-1.318-1.929-2.931-2.24-4.49
				c-0.319-1.603-0.65-3.261-2.349-4.591c-1.899-1.488-5.199-2.356-10.385-2.732l-0.022,0.306c5.052,0.366,8.394,1.239,10.219,2.669
				c1.608,1.26,1.913,2.789,2.236,4.409c0.646,3.24,1.315,6.592,12.686,7.681L67.249-109.359z"/>
			<path d="M66.621-107.757c-5.014-0.479-8.449-1.446-10.31-2.954c-1.635-1.324-1.991-2.944-2.337-4.511
				c-0.354-1.609-0.721-3.273-2.443-4.608c-1.93-1.494-5.197-2.365-10.383-2.741l-0.162,0.307c5.053,0.366,8.503,1.242,10.356,2.678
				c1.636,1.267,1.974,2.804,2.333,4.432c0.716,3.252,1.41,6.615,12.777,7.704L66.621-107.757z"/>
			<polygon points="70.177,-113.881 69.645,-114.188 65.959,-107.818 66.49,-107.511 			"/>
		</g>
		<g>
			<path d="M37.973-109.359c-5.015-0.48-8.342-1.444-10.174-2.946c-1.607-1.318-1.929-2.931-2.24-4.49
				c-0.319-1.603-0.65-3.261-2.349-4.591c-1.899-1.488-5.199-2.356-10.385-2.732l-0.022,0.306c5.052,0.366,8.394,1.239,10.219,2.669
				c1.608,1.26,1.913,2.789,2.236,4.409c0.646,3.24,1.315,6.592,12.686,7.681L37.973-109.359z"/>
			<path d="M37.345-107.757c-5.014-0.479-8.449-1.446-10.31-2.954c-1.635-1.324-1.991-2.944-2.337-4.511
				c-0.354-1.609-0.721-3.273-2.443-4.608c-1.93-1.494-5.197-2.365-10.383-2.741l-0.162,0.307c5.053,0.366,8.503,1.242,10.356,2.678
				c1.636,1.267,1.974,2.804,2.333,4.432c0.716,3.252,1.41,6.615,12.777,7.704L37.345-107.757z"/>
			<polygon points="40.902,-113.881 40.37,-114.188 36.684,-107.818 37.214,-107.511 			"/>
		</g>
	</g>
</pattern>
<path fill="#ed9018" d="M165.083,151.107c6.108-8.838,9.696-19.551,9.696-31.107c0-30.254-24.525-54.78-54.779-54.78
	S65.22,89.746,65.22,120c0,11.557,3.587,22.271,9.697,31.107c-26.111,17.92-43.86,50.924-44.648,88.893h179.463
	C208.943,202.031,191.193,169.027,165.083,151.107z"/>
<g opacity="0.4">
	<path fill="url(#motif1)" d="M165.083,151.107c6.108-8.838,9.696-19.551,9.696-31.107c0-30.254-24.525-54.78-54.779-54.78
		S65.22,89.746,65.22,120c0,11.557,3.587,22.271,9.697,31.107c-26.111,17.92-43.86,50.924-44.648,88.893h179.463
		C208.943,202.031,191.193,169.027,165.083,151.107z"/>
</g>
<path fill="#070707" d="M120,174.779c-18.731,0-35.258-9.406-45.137-23.748c8.423,17.66,25.467,29.748,45.137,29.748
	c19.669,0,36.712-12.086,45.135-29.746C155.257,165.373,138.73,174.779,120,174.779z"/>
</svg>
