<?xml version="1.0" standalone="no"?>
<!DOCTYPE svg PUBLIC "-//W3C//DTD SVG 20010904//EN" "http://www.w3.org/TR/2001/REC-SVG-20010904/DTD/svg10.dtd">
<!-- Created using Krita: http://krita.org -->
<svg xmlns="http://www.w3.org/2000/svg" 
    xmlns:xlink="http://www.w3.org/1999/xlink"
    xmlns:krita="http://krita.org/namespaces/svg/krita"
    xmlns:sodipodi="http://sodipodi.sourceforge.net/DTD/sodipodi-0.dtd"
    width="240pt"
    height="240pt"
    viewBox="0 0 240 240">
<defs/>
<ellipse id="shape0" transform="translate(30.2399999125815, 136.799999883442)" rx="89.7600000874185" ry="105.84" cx="89.7600000874185" cy="105.84" fill="#141414" fill-rule="evenodd" stroke="#000000" stroke-opacity="0" stroke-width="0" stroke-linecap="square" stroke-linejoin="bevel"/><path id="shape1" fill="#000000" fill-rule="evenodd" stroke="#000000" stroke-opacity="0" stroke-width="0" stroke-linecap="square" stroke-linejoin="bevel" d="M75.5212 150.696L75.6911 151.003L76.4834 152.349L77.3077 153.669L78.1634 154.963L79.0499 156.228L79.9665 157.466L80.9128 158.675L81.888 159.854L82.8916 161.003L83.9229 162.121L84.9812 163.208L86.0661 164.262L87.1769 165.283L88.3129 166.271L89.4736 167.225L90.6584 168.143L91.8665 169.026L93.0974 169.872L94.3506 170.681L95.6253 171.453L96.921 172.186L98.237 172.88L99.5727 173.534L100.928 174.148L102.301 174.72L103.692 175.251L105.101 175.739L106.526 176.184L107.967 176.585L109.424 176.941L110.895 177.252L112.381 177.517L113.88 177.736L115.392 177.907L116.916 178.03L118.453 178.104L120 178.129L121.547 178.104L123.084 178.03L124.608 177.907L126.12 177.736L127.619 177.517L129.105 177.252L130.576 176.941L132.033 176.585L133.474 176.184L134.899 175.739L136.308 175.251L137.699 174.72L139.072 174.148L140.427 173.534L141.763 172.88L143.079 172.186L144.375 171.453L145.649 170.681L146.903 169.872L148.134 169.026L149.342 168.143L150.526 167.225L151.687 166.271L152.823 165.283L153.934 164.262L155.019 163.208L156.077 162.121L157.108 161.003L158.112 159.854L159.087 158.675L160.033 157.466L160.95 156.228L161.837 154.963L162.692 153.669L163.517 152.349L164.309 151.003L164.479 150.696L163.389 149.965L161.446 148.734L159.474 147.558L157.475 146.438L155.449 145.374L153.397 144.369L151.32 143.422L149.218 142.534L147.093 141.707L144.944 140.941L142.774 140.236L140.581 139.595L138.368 139.018L136.134 138.505L133.882 138.058L131.61 137.677L129.321 137.364L127.015 137.118L124.692 136.942L122.353 136.836L120 136.8L117.647 136.836L115.308 136.942L112.985 137.118L110.679 137.364L108.39 137.677L106.118 138.058L103.866 138.505L101.632 139.018L99.4189 139.595L97.2264 140.236L95.0555 140.941L92.907 141.707L90.7815 142.534L88.6798 143.422L86.6027 144.369L84.5508 145.374L82.5249 146.438L80.5258 147.558L78.5542 148.734L76.6108 149.965L75.5212 150.696"/><ellipse id="shape2" transform="translate(65.2199999849099, 65.2199999849099)" rx="54.7800000150901" ry="54.7800000150901" cx="54.7800000150901" cy="54.7800000150901" fill="#141414" fill-rule="evenodd" stroke="#000000" stroke-opacity="0" stroke-width="0" stroke-linecap="square" stroke-linejoin="bevel"/><circle id="shape3" transform="translate(72, 114.48)" r="5.76" cx="5.76" cy="5.76" fill="#f0f0f0" fill-rule="evenodd" stroke="#000000" stroke-opacity="0" stroke-width="0" stroke-linecap="square" stroke-linejoin="bevel"/><circle id="shape4" transform="matrix(-1 0 0 1 168 114.48)" r="5.76" cx="5.76" cy="5.76" fill="#f0f0f0" fill-rule="evenodd" stroke="#000000" stroke-opacity="0" stroke-width="0" stroke-linecap="square" stroke-linejoin="bevel"/><path id="shape5" transform="translate(111.660000248582, 127.103936175619)" fill="none" stroke="#f0f0f0" stroke-width="2.4" stroke-linecap="round" stroke-linejoin="miter" stroke-miterlimit="0.48" d="M0 0.616064C9.32911 8.67486 7.7687 -5.73553 18.6 2.82224"/>
</svg>
