<?xml version="1.0" standalone="no"?>
<!DOCTYPE svg PUBLIC "-//W3C//DTD SVG 20010904//EN" "http://www.w3.org/TR/2001/REC-SVG-20010904/DTD/svg10.dtd">
<!-- Created using Krita: http://krita.org -->
<svg xmlns="http://www.w3.org/2000/svg" 
    xmlns:xlink="http://www.w3.org/1999/xlink"
    xmlns:krita="http://krita.org/namespaces/svg/krita"
    xmlns:sodipodi="http://sodipodi.sourceforge.net/DTD/sodipodi-0.dtd"
    width="240pt"
    height="240pt"
    viewBox="0 0 240 240">
<defs/>
<ellipse id="shape0" transform="translate(30.2399999125815, 136.799999883442)" rx="89.7600000874185" ry="105.84" cx="89.7600000874185" cy="105.84" fill="#a85477" fill-rule="evenodd" stroke="#000000" stroke-opacity="0" stroke-width="0" stroke-linecap="square" stroke-linejoin="bevel"/><path id="shape1" fill="#630e32" fill-rule="evenodd" stroke="#000000" stroke-opacity="0" stroke-width="0" stroke-linecap="square" stroke-linejoin="bevel" d="M75.5212 150.696L75.6911 151.003L76.4834 152.349L77.3077 153.669L78.1634 154.963L79.0499 156.228L79.9665 157.466L80.9128 158.675L81.888 159.854L82.8916 161.003L83.9229 162.121L84.9812 163.208L86.0661 164.262L87.1769 165.283L88.3129 166.271L89.4736 167.225L90.6584 168.143L91.8665 169.026L93.0974 169.872L94.3506 170.681L95.6253 171.453L96.921 172.186L98.237 172.88L99.5727 173.534L100.928 174.148L102.301 174.72L103.692 175.251L105.101 175.739L106.526 176.184L107.967 176.585L109.424 176.941L110.895 177.252L112.381 177.517L113.88 177.736L115.392 177.907L116.916 178.03L118.453 178.104L120 178.129L121.547 178.104L123.084 178.03L124.608 177.907L126.12 177.736L127.619 177.517L129.105 177.252L130.576 176.941L132.033 176.585L133.474 176.184L134.899 175.739L136.308 175.251L137.699 174.72L139.072 174.148L140.427 173.534L141.763 172.88L143.079 172.186L144.375 171.453L145.649 170.681L146.903 169.872L148.134 169.026L149.342 168.143L150.526 167.225L151.687 166.271L152.823 165.283L153.934 164.262L155.019 163.208L156.077 162.121L157.108 161.003L158.112 159.854L159.087 158.675L160.033 157.466L160.95 156.228L161.837 154.963L162.692 153.669L163.517 152.349L164.309 151.003L164.479 150.696L163.389 149.965L161.446 148.734L159.474 147.558L157.475 146.438L155.449 145.374L153.397 144.369L151.32 143.422L149.218 142.534L147.093 141.707L144.944 140.941L142.774 140.236L140.581 139.595L138.368 139.018L136.134 138.505L133.882 138.058L131.61 137.677L129.321 137.364L127.015 137.118L124.692 136.942L122.353 136.836L120 136.8L117.647 136.836L115.308 136.942L112.985 137.118L110.679 137.364L108.39 137.677L106.118 138.058L103.866 138.505L101.632 139.018L99.4189 139.595L97.2264 140.236L95.0555 140.941L92.907 141.707L90.7815 142.534L88.6798 143.422L86.6027 144.369L84.5508 145.374L82.5249 146.438L80.5258 147.558L78.5542 148.734L76.6108 149.965L75.5212 150.696"/><ellipse id="shape2" transform="translate(65.2199999849099, 65.2199999849099)" rx="54.7800000150901" ry="54.7800000150901" cx="54.7800000150901" cy="54.7800000150901" fill="#a85477" fill-rule="evenodd" stroke="#000000" stroke-opacity="0" stroke-width="0" stroke-linecap="square" stroke-linejoin="bevel"/><circle id="shape3" transform="translate(72, 114.48)" r="5.76" cx="5.76" cy="5.76" fill="#f0f0f0" fill-rule="evenodd" stroke="#000000" stroke-opacity="0" stroke-width="0" stroke-linecap="square" stroke-linejoin="bevel"/><circle id="shape4" transform="matrix(-1 0 0 1 168 114.48)" r="5.76" cx="5.76" cy="5.76" fill="#f0f0f0" fill-rule="evenodd" stroke="#000000" stroke-opacity="0" stroke-width="0" stroke-linecap="square" stroke-linejoin="bevel"/><path id="shape5" fill="#f0f0f0" fill-rule="evenodd" stroke="#000000" stroke-opacity="0" stroke-width="0" stroke-linecap="square" stroke-linejoin="bevel" d="M168.48 127.68L167.785 127.91L167.054 128.135L166.287 128.355L165.487 128.569L164.654 128.778L163.791 128.981L162.898 129.179L161.978 129.372L161.031 129.56L160.06 129.743L159.066 129.92L158.05 130.092L157.014 130.259L155.959 130.422L154.887 130.579L153.799 130.731L152.697 130.878L151.583 131.021L150.457 131.158L149.322 131.291L148.178 131.419L147.028 131.543L145.873 131.661L144.713 131.775L143.552 131.885L142.39 131.989L141.229 132.09L140.071 132.185L138.916 132.277L137.766 132.364L136.624 132.446L135.489 132.524L134.365 132.598L133.252 132.668L132.152 132.733L131.066 132.794L129.996 132.851L128.944 132.904L127.91 132.953L126.897 132.997L125.905 133.038L124.937 133.075L123.994 133.107L123.077 133.136L122.188 133.161L121.329 133.183L120.5 133.2L120 133.209L119.5 133.2L118.671 133.183L117.812 133.161L116.923 133.136L116.006 133.107L115.063 133.075L114.095 133.038L113.103 132.997L112.09 132.953L111.056 132.904L110.004 132.851L108.934 132.794L107.848 132.733L106.748 132.668L105.635 132.598L104.511 132.524L103.376 132.446L102.234 132.364L101.084 132.277L99.9293 132.185L98.7707 132.09L97.6096 131.989L96.4478 131.885L95.2866 131.775L94.1275 131.661L92.9721 131.543L91.8219 131.419L90.6783 131.291L89.5429 131.158L88.4172 131.021L87.3026 130.878L86.2007 130.731L85.113 130.579L84.041 130.422L82.9861 130.259L81.95 130.092L80.934 129.92L79.9397 129.743L78.9686 129.56L78.0222 129.372L77.1019 129.179L76.2094 128.981L75.3461 128.778L74.5135 128.569L73.713 128.355L72.9463 128.135L72.2148 127.91L71.52 127.68L72.0503 127.985L72.6118 128.296L73.2038 128.612L73.8253 128.932L74.4756 129.257L75.1539 129.584L75.8594 129.915L76.5912 130.248L77.3484 130.583L78.1304 130.92L78.9362 131.257L79.765 131.594L80.6161 131.931L81.4886 132.267L82.3817 132.602L83.2945 132.935L84.2263 133.265L85.1762 133.592L86.1434 133.916L87.127 134.236L88.1264 134.551L89.1406 134.861L90.1688 135.165L91.2102 135.463L92.264 135.754L93.3293 136.038L94.4054 136.314L95.4914 136.581L96.5865 136.84L97.6899 137.089L98.8008 137.328L99.9183 137.557L101.042 137.774L102.17 137.98L103.302 138.173L104.438 138.354L105.577 138.522L106.717 138.676L107.858 138.815L108.999 138.94L110.139 139.049L111.278 139.143L112.415 139.22L113.548 139.279L114.677 139.322L115.801 139.346L116.92 139.351L118.032 139.337L119.137 139.304L120 139.262L120.863 139.304L121.968 139.337L123.08 139.351L124.199 139.346L125.323 139.322L126.452 139.279L127.585 139.22L128.722 139.143L129.861 139.049L131.001 138.94L132.142 138.815L133.283 138.676L134.423 138.522L135.562 138.354L136.698 138.173L137.83 137.98L138.958 137.774L140.082 137.557L141.199 137.328L142.31 137.089L143.413 136.84L144.509 136.581L145.595 136.314L146.671 136.038L147.736 135.754L148.79 135.463L149.831 135.165L150.859 134.861L151.874 134.551L152.873 134.236L153.857 133.916L154.824 133.592L155.774 133.265L156.705 132.935L157.618 132.602L158.511 132.267L159.384 131.931L160.235 131.594L161.064 131.257L161.87 130.92L162.652 130.583L163.409 130.248L164.141 129.915L164.846 129.584L165.524 129.257L166.175 128.932L166.796 128.612L167.388 128.296L167.95 127.985L168.48 127.68"/>
</svg>
