<?xml version="1.0" encoding="utf-8"?>
<!-- Generator: Adobe Illustrator 16.0.3, SVG Export Plug-In . SVG Version: 6.00 Build 0)  -->
<!DOCTYPE svg PUBLIC "-//W3C//DTD SVG 1.1//EN" "http://www.w3.org/Graphics/SVG/1.1/DTD/svg11.dtd">
<svg version="1.1"
	 id="Calque_1" xmlns:krita="http://krita.org/namespaces/svg/krita" xmlns:sodipodi="http://sodipodi.sourceforge.net/DTD/sodipodi-0.dtd"
	 xmlns="http://www.w3.org/2000/svg" xmlns:xlink="http://www.w3.org/1999/xlink" x="0px" y="0px" width="229.652px"
	 height="137.882px" viewBox="0 0 229.652 137.882" enable-background="new 0 0 229.652 137.882" xml:space="preserve">
<path d="M229.427,33.842c-2.533-3.104-69.252,21.873-71.641,20.879c-1.214-0.505-26.527-36.255-37.844-49.69
	c-2.285-3.42-3.991-5.103-5.116-5.028c-1.125-0.073-2.832,1.608-5.117,5.03C98.393,18.469,73.08,54.217,71.866,54.721
	C69.478,55.715,2.76,30.74,0.226,33.842c-3.135,3.839,27.24,84.991,35.28,104.039c21.614-5.197,48.065-7.946,79.319-8.261
	c31.254,0.313,57.705,3.063,79.32,8.261C202.186,118.833,232.561,37.681,229.427,33.842z"/>
<g>
	<circle fill="#FFFFFF" cx="44.866" cy="103.121" r="6.84"/>
	<circle fill="#FFFFFF" cx="184.786" cy="103.121" r="6.84"/>
	<path fill="#FFFFFF" d="M114.826,116.904c-40.615-0.383-69.836-4-82.319-5.383c-0.417,1.715,41.286,9.414,72.655,11.029
		c0.022,0.003,0.042,0.007,0.063,0.01c2.9,0.219,6.135,0.305,9.6,0.283c3.465,0.021,6.698-0.064,9.601-0.283
		c0.021-0.003,0.041-0.007,0.063-0.01c31.37-1.615,73.073-9.314,72.657-11.029C184.662,112.904,155.44,116.521,114.826,116.904z"/>
</g>
</svg>
