<?xml version="1.0" encoding="utf-8"?>
<!-- Generator: Adobe Illustrator 16.0.3, SVG Export Plug-In . SVG Version: 6.00 Build 0)  -->
<!DOCTYPE svg PUBLIC "-//W3C//DTD SVG 1.1//EN" "http://www.w3.org/Graphics/SVG/1.1/DTD/svg11.dtd">
<svg version="1.1"
	 id="Calque_1" xmlns:krita="http://krita.org/namespaces/svg/krita" xmlns:sodipodi="http://sodipodi.sourceforge.net/DTD/sodipodi-0.dtd"
	 xmlns="http://www.w3.org/2000/svg" xmlns:xlink="http://www.w3.org/1999/xlink" x="0px" y="0px" width="202.33px"
	 height="228.829px" viewBox="0 0 202.33 228.829" enable-background="new 0 0 202.33 228.829" xml:space="preserve">
<path d="M108.66,0.311l-0.021-0.042c-2.104-0.162-4.196-0.246-6.279-0.268c-0.396-0.006-0.796,0-1.194-0.001
	C100.769,0,100.369-0.004,99.973,0c-2.083,0.022-4.176,0.105-6.279,0.268l-0.021,0.042C38.974,4.757-5.348,55.83,0.524,104.7
	c1.121,4.814,1.146,8.512,0.029,11.36l6.543,23.521c-20.18,37.014,13.697,114.722,59.744,80.938
	c4.989,1.721,9.048,0.094,12.177-4.881c4.561-3.937-19.761-100.137-30.432-99.578c-5.228-2.789-9.614,0.672-13.712,5.538
	c-0.507,0.052-1.007,0.11-1.501,0.179l-4.455-12.93c-3.661-2.876-4.015-6.453-4.394-10.074
	c-4.792-33.37,35.111-76.553,76.762-76.853c41.393,0.462,81.303,43.555,76.521,76.853c-0.378,3.621-0.732,7.198-4.395,10.074
	l-4.463,12.953c-0.545-0.074-1.099-0.145-1.66-0.201c-4.099-4.867-8.483-8.328-13.711-5.539
	c-10.672-0.558-34.994,95.644-30.433,99.579c3.129,4.974,7.188,6.601,12.177,4.88c45.965,33.723,79.803-43.642,59.855-80.736
	l6.599-23.723c-1.116-2.848-1.091-6.544,0.029-11.358C207.681,55.83,163.358,4.757,108.66,0.311z"/>
<g>
	<ellipse fill="#FFFFFF" cx="9.146" cy="172.161" rx="4.645" ry="4.515"/>
	<ellipse fill="#FFFFFF" cx="42.042" cy="155.64" rx="4.645" ry="4.514"/>
	<path fill="#FFFFFF" d="M46.312,163.221c-7.087,5.73-29.45,15.916-37.178,17.337C17.943,183.027,44.623,171.808,46.312,163.221z"/>
	
		<ellipse transform="matrix(-0.8703 -0.4926 0.4926 -0.8703 216.731 480.6511)" fill="#FFFFFF" cx="171.663" cy="211.784" rx="4.644" ry="4.514"/>
	<path fill="#FFFFFF" d="M169.053,199.758c8.99-1.498,13.15-3.319,23.896-0.377C191.138,196.256,177.017,193.712,169.053,199.758z"
		/>
</g>
</svg>
