<?xml version="1.0" encoding="utf-8"?>
<!-- Generator: Adobe Illustrator 16.0.3, SVG Export Plug-In . SVG Version: 6.00 Build 0)  -->
<!DOCTYPE svg PUBLIC "-//W3C//DTD SVG 1.1//EN" "http://www.w3.org/Graphics/SVG/1.1/DTD/svg11.dtd">
<svg version="1.1"
	 id="Calque_1" xmlns:krita="http://krita.org/namespaces/svg/krita" xmlns:sodipodi="http://sodipodi.sourceforge.net/DTD/sodipodi-0.dtd"
	 xmlns="http://www.w3.org/2000/svg" xmlns:xlink="http://www.w3.org/1999/xlink" x="0px" y="0px" width="47.586px"
	 height="48.064px" viewBox="0 0 47.586 48.064" enable-background="new 0 0 47.586 48.064" xml:space="preserve">
<circle cx="42.547" cy="6.406" r="5.04"/>
<circle cx="45.838" cy="5.573" r="0.808"/>
<circle cx="39.334" cy="5.517" r="0.808"/>
<circle cx="42.547" cy="18.844" r="5.04"/>
<path d="M36.127,31.933c-0.363-0.812-0.863-1.45-1.504-1.92c-0.289-0.262-0.457,3.818-4.855,6.076
	c-0.178-0.702-0.439-1.512-0.809-2.457l-0.264-1.101c-0.068-0.313-0.113-0.579-0.133-0.799c-0.039-0.454,0.045-0.825,0.256-1.113
	c0.211-0.289,0.67-0.666,1.377-1.129l0.273-0.19l0.764-0.545c1.092-0.803,1.916-1.539,2.465-2.212c0.5-0.61,0.832-1.219,0.994-1.821
	c0.162-0.604,0.223-1.146,0.18-1.627c-0.117-0.677-0.25-1.813-1.006-2.313c-0.486-0.434-0.828-0.797-1.756-1.078
	c-1.83-0.407-5.496-0.448-7.979,0.855c-0.26,0.022-0.594,0.752-0.646,1.104l-0.074,0.567c-0.014,0.182-0.025,0.346-0.035,0.499H12.3
	c0.015-0.826,0.067-1.665,0.181-2.524c0.426-2.986,1.162-5.312,2.207-6.976s3.146-3.014,4.641-3.44
	c0.598-0.214,1.259-0.318,1.985-0.318c0.938,0,1.67,0.168,2.275,0.453c1.384,0.704,1.589,1.43,2.188,2.551
	c2.85,3.229,6.574,1.374,7.32,0.629c0.836-0.773,1.514-2.968,1.514-4.418c0-1.109-0.463-3.135-1.02-4.073
	c-0.682-1.152-1.943-2.192-3.16-2.854s-2.934-1.185-5.152-1.568c-0.725-0.127-1.438-0.191-2.144-0.191c-0.703,0-1.439,0-2.208,0
	c-4.139,0-7.605,0.854-10.4,2.562c-2.795,1.706-5.215,4.309-7.264,7.808C1.088,14.037,0,18.496,0,23.744
	c0,0.384,0.01,0.896,0.031,1.536c0.022,0.64,0.117,1.749,0.289,3.327c0.469,4.139,1.621,7.681,3.455,10.625l1.152,1.728
	c1.877,2.561,3.936,4.385,6.176,5.473s5.258,1.633,9.057,1.633c0.555-0.043,1.249-0.064,2.081-0.064s1.482-0.043,1.951-0.128
	c3.583-0.555,6.431-1.792,8.544-3.712c2.111-1.92,3.359-4.31,3.744-7.168c0.127-0.768,0.191-1.473,0.191-2.111
	C36.672,33.726,36.49,32.744,36.127,31.933z M23.296,25.158c-0.004,0.433-0.002,0.854,0.021,1.238
	c0.006,0.121,0.016,0.259,0.025,0.406H12.477c-0.074-0.525-0.121-1.076-0.15-1.646L23.296,25.158L23.296,25.158z M13.153,29.614
	c-0.02-0.052-0.033-0.109-0.051-0.163h10.461l0.146,1.688h-9.897C13.573,30.649,13.346,30.147,13.153,29.614z M12.956,28.971
	c-0.163-0.535-0.301-1.095-0.402-1.688h10.823c0.025,0.306,0.053,0.646,0.086,1.033l0.059,0.654L12.956,28.971L12.956,28.971z
	 M23.315,23.777c-0.006,0.203-0.012,0.52-0.02,0.9H12.31c-0.006-0.212-0.022-0.413-0.022-0.631c0-0.19,0-0.479,0-0.837h11.053
	C23.327,23.465,23.317,23.653,23.315,23.777z M22.337,37.118c-2.305-0.47-5.143-1.382-6.848-3.345
	c-0.541-0.657-1.015-1.38-1.432-2.154h9.7c0.055,0.55,0.111,1.049,0.176,1.467c0.053,0.332,0.18,1.156,0.378,2.474
	c0.131,0.73,0.299,1.352,0.5,1.873C24.104,37.426,23.282,37.324,22.337,37.118z M27.582,24.345c-0.727,0-1.316-0.589-1.316-1.315
	c0-0.728,0.59-1.315,1.316-1.315c0.729,0,1.316,0.589,1.316,1.315S28.309,24.345,27.582,24.345z"/>
<circle fill="#FFFFFF" cx="27.582" cy="23.03" r="1.316"/>
<g>
	<circle fill="#FFFFFF" cx="39.215" cy="5.531" r="0.808"/>
	<circle fill="#FFFFFF" cx="45.717" cy="5.585" r="0.808"/>
	<path fill="#FFFFFF" d="M45.584,7.081c-1.857,0.713-4.313,0.705-6.41-0.018l-0.227-0.079l-0.158,0.454l0.227,0.078
		c1.105,0.382,2.309,0.573,3.479,0.573c1.158,0,2.287-0.188,3.262-0.563l0.225-0.086l-0.174-0.448L45.584,7.081z"/>
</g>
</svg>
