<?xml version="1.0" encoding="utf-8"?>
<!-- Generator: Adobe Illustrator 16.0.3, SVG Export Plug-In . SVG Version: 6.00 Build 0)  -->
<!DOCTYPE svg PUBLIC "-//W3C//DTD SVG 1.1//EN" "http://www.w3.org/Graphics/SVG/1.1/DTD/svg11.dtd">
<svg version="1.1"
	 id="Calque_1" xmlns:krita="http://krita.org/namespaces/svg/krita" xmlns:sodipodi="http://sodipodi.sourceforge.net/DTD/sodipodi-0.dtd"
	 xmlns="http://www.w3.org/2000/svg" xmlns:xlink="http://www.w3.org/1999/xlink" x="0px" y="0px" width="193.23px"
	 height="101.816px" viewBox="0 0 193.23 101.816" enable-background="new 0 0 193.23 101.816" xml:space="preserve">
<g>
	<polygon points="193.165,13.455 192.975,12.223 192.669,11.359 192.27,11.071 182.223,11.071 181.702,11.175 181.294,11.487 
		181.031,11.975 180.943,12.607 181.391,17.407 181.421,17.807 181.518,18.367 181.518,19.391 181.483,20.583 181.373,21.919 
		181.195,23.399 180.943,25.023 180.559,27.263 180.43,27.711 179.727,30.143 178.895,32.063 178.111,32.671 177.038,32.575 
		176.231,31.999 175.598,31.039 175.094,29.535 174.669,27.327 174.223,24.063 174.031,22.655 173.789,20.671 173.709,19.583 
		173.709,18.111 173.775,16.447 173.775,14.655 173.695,12.887 173.454,11.807 173.022,11.255 172.366,11.071 162.253,11.071 
		161.903,11.199 161.615,11.583 161.341,12.383 161.038,13.76 160.99,14.239 160.975,15.167 160.99,16.455 161.038,17.76 
		161.151,19.223 161.359,20.991 161.662,22.871 162.063,24.671 162.574,26.423 163.214,28.159 163.83,29.709 164.397,31.082 
		164.914,32.279 165.385,33.3 165.807,34.143 166.541,35.419 167.428,36.731 168.462,38.079 169.637,39.628 170.551,41.049 
		171.204,42.341 171.596,43.505 171.727,44.542 171.385,46.052 170.362,47.415 168.655,48.64 167.005,49.263 165.005,49.472 
		162.574,49.472 161.071,49.583 160.399,49.919 160.253,50.782 160.206,52.736 160.214,53.439 160.262,54.847 160.27,55.552 
		160.391,57.552 160.996,58.816 161.74,59.488 163.012,59.71 163.697,59.673 164.309,59.562 165.341,59.374 166.548,59.115 
		167.932,58.779 169.487,58.366 171.014,57.808 173.038,56.767 174.548,55.865 176.053,54.861 177.551,53.759 179.071,52.529 
		180.494,51.206 181.823,49.792 183.055,48.286 183.731,47.366 184.403,46.374 185.073,45.316 185.74,44.187 186.405,42.987 
		187.068,41.72 187.727,40.383 189.262,36.863 189.667,35.733 190.046,34.611 190.395,33.497 190.714,32.391 191.005,31.292 
		191.268,30.202 191.501,29.119 191.567,28.543 192.719,20.991 192.863,19.855 193.038,18.367 193.182,16.655 193.231,14.847 	"/>
	<path d="M67.401,30.695l-0.128-2.56l-0.068-1.799l-0.205-1.674l-0.341-1.55l-0.478-1.426l-0.614-1.302l-0.751-1.179l-0.888-1.054
		l-1.024-0.93l-1.16-0.807l-1.297-0.682l-1.434-0.558l-1.57-0.435l-1.707-0.31l-1.843-0.187l-1.979-0.062l-1.344,0.032l-1.216,0.096
		l-1.12,0.176l-1.056,0.272l-1.617,0.537l-1.393,0.597L43,16.547l-0.943,0.708l-1.173,1.288l-0.704,1.387l-0.235,1.485l0.44,1.896
		l1.319,1.592l1.496,1.08l0.968,0.36l0.761-0.345l0.872-1.031l1.048-1.192l1.288-0.824l1.647-0.479l1.488-0.16l1.792,0.288
		l1.152,0.863l0.432,0.656l0.399,0.688l0.272,0.592l0.048,0.368l-0.512,1.151l-0.448,0.896l-0.271,0.112l-0.305,0.079l-0.399,0.064
		l-0.944,0.192l-0.912,0.191l-1.584,0.448l-1.508,0.565l-1.408,0.629l-1.309,0.692l-1.209,0.757l-1.109,0.821l-1.01,0.885
		l-1.185,1.309l-0.928,1.364l-0.672,1.42l-0.416,1.476l-0.192,1.28l-0.063,1.408l0.086,1.531l0.258,1.396l0.43,1.26l0.603,1.125
		l1.439,1.832l1.568,1.271l1.248,0.621l1.568,0.545l1.888,0.467l1.728,0.256l0.769,0.096l1.023,0.16h14.337l0.943-0.32l0.528-0.961
		l0.063-5.055v-4.928l-0.063-4.48L67.401,30.695L67.401,30.695z M55.945,40.359l-0.024,0.784l-0.071,0.688l-0.097,0.704
		l-0.096,0.832l-0.392,0.672l-0.984,0.225l-0.904-0.184l-0.792-0.553l-0.632-0.936l-0.424-1.336l-0.096-0.768l-0.032-0.512
		l0.152-1.368l0.455-1.16l0.593-0.864l0.56-0.479l0.521-0.216l0.472-0.072l0.944,0.176l0.527,0.528l0.24,0.912l0.08,1.328V40.359z"
		/>
	<path d="M62.148,74.267l-0.128-2.561l-0.068-1.797l-0.205-1.676l-0.341-1.549l-0.478-1.428l-0.614-1.303l-0.751-1.178l-0.887-1.055
		l-1.024-0.93l-1.16-0.807l-1.297-0.682l-1.434-0.559l-1.57-0.434l-1.707-0.311l-1.843-0.186l-1.98-0.063l-1.344,0.033l-1.216,0.096
		l-1.12,0.176l-1.057,0.271l-1.615,0.541l-1.393,0.596l-1.168,0.652l-0.943,0.707l-1.174,1.289l-0.703,1.387l-0.234,1.486
		l0.439,1.895l1.32,1.594l1.496,1.08l0.968,0.359l0.761-0.344l0.871-1.033l1.049-1.191l1.288-0.824l1.647-0.479l1.488-0.16
		l1.792,0.287l1.151,0.863l0.433,0.656l0.399,0.688l0.272,0.594l0.048,0.367l-0.512,1.152l-0.448,0.896l-0.271,0.111l-0.305,0.08
		l-0.399,0.064l-0.944,0.189l-0.912,0.191l-1.584,0.449l-1.508,0.564l-1.408,0.629l-1.309,0.693l-1.209,0.758l-1.109,0.82
		l-1.01,0.887l-1.185,1.307l-0.928,1.365l-0.672,1.42l-0.416,1.477l-0.192,1.279l-0.063,1.408l0.086,1.531l0.258,1.395l0.43,1.262
		l0.603,1.125l1.439,1.832l1.568,1.27l1.248,0.623l1.568,0.543l1.888,0.467l1.728,0.256l0.769,0.098l1.023,0.16h14.337l0.943-0.32
		l0.528-0.961l0.063-5.057v-4.928l-0.063-4.479L62.148,74.267L62.148,74.267z M50.693,83.931l-0.024,0.783l-0.071,0.689L50.5,86.107
		l-0.096,0.832l-0.392,0.672l-0.984,0.225l-0.904-0.184l-0.792-0.553L46.7,86.161l-0.424-1.336l-0.096-0.768l-0.032-0.514
		l0.152-1.367l0.455-1.16l0.593-0.863l0.56-0.48l0.521-0.215l0.472-0.072l0.944,0.178l0.527,0.525l0.24,0.912l0.08,1.328V83.931z"/>
	<polygon points="93.244,61.788 92.78,60.63 91.74,59.335 90.523,58.374 89.18,57.798 87.706,57.607 87.156,57.63 86.523,57.702 
		85.883,57.847 85.308,58.087 84.804,58.431 84.378,58.888 83.378,60.079 82.684,60.839 82.147,61.327 81.626,61.702 81.29,61.751 
		80.923,61.64 80.619,61.366 80.476,60.935 80.17,59.847 79.899,59.144 79.676,58.888 79.388,58.63 69.787,58.63 69.404,58.695 
		69.019,58.888 68.556,59.454 68.315,60.263 68.26,60.952 68.22,62.095 68.196,63.689 68.187,65.736 68.198,66.478 68.23,67.939 
		68.283,70.118 68.309,71.21 68.33,72.308 68.348,73.413 68.362,74.523 68.371,75.64 68.376,76.765 68.378,77.896 68.572,82.056 
		68.699,83.976 68.827,86.023 69.147,90.056 69.21,90.439 69.468,92.87 69.659,94.279 69.852,95.046 70.075,95.382 70.364,95.495 
		81.883,95.495 82.539,95.255 82.586,94.534 80.923,83.335 80.859,82.63 80.864,80.986 80.878,79.452 80.903,78.031 80.936,76.722 
		80.979,75.527 81.031,74.445 81.095,73.474 81.166,72.616 81.248,71.87 81.338,71.24 81.797,69.511 82.533,68.167 83.546,67.206 
		84.666,66.63 85.724,66.439 87.196,66.999 88.027,68.679 88.348,70.023 88.619,70.214 88.923,70.279 90.196,69.87 91.834,68.648 
		92.849,67.413 93.456,65.888 93.559,64.972 93.243,61.767 	"/>
	<polygon points="155.932,52.575 155.628,51.71 155.229,51.423 145.18,51.423 144.66,51.527 144.251,51.839 143.989,52.327 
		143.901,52.958 144.348,57.759 144.38,58.159 144.477,58.72 144.477,59.743 144.44,60.935 144.331,62.271 144.153,63.751 
		143.901,65.374 143.516,67.615 143.389,68.064 142.684,70.495 141.852,72.415 141.069,73.023 139.996,72.927 139.188,72.351 
		138.557,71.392 138.053,69.888 137.628,67.679 137.18,64.415 136.989,63.007 136.748,61.023 136.667,59.935 136.667,58.462 
		136.733,56.798 136.733,55.007 136.653,53.24 136.412,52.159 135.981,51.607 135.324,51.423 125.212,51.423 124.862,51.552 
		124.573,51.935 124.301,52.736 123.996,54.111 123.949,54.591 123.933,55.519 123.949,56.808 123.996,58.111 124.109,59.575 
		124.317,61.343 124.621,63.224 125.021,65.023 125.533,66.775 126.171,68.511 126.789,70.062 127.356,71.435 127.873,72.63 
		128.344,73.652 128.765,74.495 129.499,75.771 130.387,77.083 131.419,78.431 132.596,79.98 133.51,81.402 134.162,82.693 
		134.555,83.859 134.684,84.896 134.344,86.404 133.321,87.769 131.614,88.991 129.964,89.615 127.964,89.823 125.533,89.823 
		124.03,89.935 123.357,90.271 123.212,91.136 123.164,93.087 123.171,93.79 123.221,95.198 123.229,95.904 123.349,97.904 
		123.708,99.167 124.453,99.839 125.725,100.064 126.41,100.027 127.268,99.913 128.301,99.728 129.507,99.466 130.89,99.13 
		132.446,98.72 133.973,98.159 135.996,97.118 137.507,96.216 139.012,95.212 140.507,94.111 142.029,92.88 143.452,91.56 
		144.781,90.146 146.012,88.64 146.688,87.718 147.361,86.728 148.031,85.667 148.698,84.538 149.363,83.339 150.026,82.072 
		150.684,80.736 152.221,77.214 152.625,76.085 153.003,74.962 153.354,73.849 153.673,72.743 153.964,71.644 154.227,70.554 
		154.459,69.472 154.525,68.896 155.676,61.343 155.821,60.206 155.996,58.72 156.141,57.007 156.188,55.198 156.123,53.808 	"/>
	<polygon points="118.727,34.047 118.023,35.135 116.657,36.671 115.206,37.78 113.669,38.463 112.374,38.799 111.046,38.911 
		109.583,38.76 108.271,38.303 107.105,37.543 106.085,36.479 105.51,35.613 105.037,34.637 104.669,33.552 104.408,32.354 
		104.251,31.048 104.198,29.631 104.238,28.002 104.356,26.531 104.551,25.215 105.023,23.503 105.735,22.079 107.091,20.373 
		108.608,19.348 110.279,19.007 111.99,19.391 113.542,20.543 114.055,21.103 114.439,21.631 114.775,22.191 115.143,22.847 
		116.487,22.463 117.966,21.655 119.078,20.511 119.775,19.127 120.005,17.599 119.669,15.743 118.662,13.887 117.798,12.902 
		116.814,12.069 115.708,11.387 114.484,10.857 113.137,10.478 111.671,10.251 110.085,10.175 108.786,10.227 107.447,10.383 
		106.067,10.643 104.647,11.007 103.255,11.48 101.934,12.067 100.68,12.768 99.494,13.583 98.376,14.512 97.326,15.555 
		96.344,16.712 95.43,17.983 94.825,18.989 94.289,20.045 93.823,21.151 93.426,22.307 93.098,23.512 92.838,24.767 92.633,26.022 
		92.465,27.227 92.334,28.383 92.241,29.489 92.186,30.545 92.166,31.552 92.196,32.909 92.282,34.199 92.428,35.421 92.63,36.575 
		92.892,37.661 93.21,38.679 93.587,39.629 94.023,40.511 94.919,42.02 95.871,43.372 96.874,44.57 97.934,45.611 99.046,46.495 
		100.029,47.122 101.076,47.657 102.191,48.103 103.37,48.458 104.615,48.722 105.926,48.896 106.421,48.927 107.143,49.023 
		108.294,49.023 109.735,48.974 111.091,48.825 112.367,48.575 113.562,48.23 114.671,47.782 115.7,47.236 116.647,46.591 
		117.811,45.558 118.766,44.4 119.516,43.12 120.057,41.717 120.391,40.191 120.534,38.751 120.581,37.503 120.118,35.231 	"/>
	<polygon points="125.525,38.612 125.542,40.287 125.589,42.535 125.669,44.095 125.815,45.335 126.055,46.622 126.382,47.607 
		126.79,47.935 137.479,47.935 138.031,47.816 138.406,47.454 138.622,46.79 138.695,45.759 138.622,44.454 138.406,42.847 
		138.158,41.159 137.99,39.615 137.895,38.063 137.863,36.351 137.735,34.943 137.669,33.087 137.606,29.823 137.863,25.983 
		137.863,25.407 138.246,22.015 138.382,20.983 138.789,20.063 139.366,19.311 140.005,18.783 140.669,18.471 141.319,18.367 
		142.551,18.735 143.43,19.839 143.709,20.511 143.91,21.247 144.063,22.111 144.198,23.167 144.151,23.935 144.135,25.087 
		144.135,28.479 144.005,31.743 143.878,33.023 143.749,34.815 143.576,36.163 143.395,37.56 143.206,39.007 142.943,40.855 
		142.727,41.983 142.229,44.095 141.93,45.652 141.83,46.656 142.071,47.615 142.789,47.935 153.286,47.935 153.775,47.687 
		154.214,46.943 154.622,45.511 155.014,43.199 155.527,39.615 155.589,39.359 155.747,37.866 155.874,36.543 155.975,35.391 
		156.044,34.232 156.087,32.888 156.102,31.359 156.165,28.287 156.165,27.455 156.102,26.303 156.077,24.725 156.003,23.316 
		155.878,22.079 155.647,20.479 155.399,19.135 154.904,17.274 154.282,15.627 153.535,14.194 152.662,12.975 151.663,11.97 
		150.538,11.179 149.287,10.602 147.91,10.239 146.983,10.095 146.118,10.047 144.878,10.135 143.846,10.399 142.83,10.791 
		141.639,11.263 140.91,11.487 140.135,11.647 139.421,11.743 138.887,11.775 138.359,11.583 138.182,11.007 138.282,10.14 
		138.58,8.561 139.078,6.271 139.27,5.631 140.102,2.815 140.135,2.447 140.231,1.983 140.231,1.344 140.125,0.615 139.815,0.223 
		139.165,0.055 138.055,-0.001 128.391,-0.001 127.83,0.543 127.43,2.175 127.111,4.543 126.997,5.53 126.874,6.555 126.746,7.615 
		126.61,8.712 126.464,9.846 126.312,11.016 126.151,12.223 126.066,13.135 125.994,14.114 125.936,15.162 125.889,16.277 
		125.857,17.46 125.837,18.712 125.83,20.031 125.51,27.839 125.51,35.583 125.514,37.044 	"/>
	<path d="M69.36,22.71c0.95-0.766,1.767-1.163,2.449-1.19c0.469-0.021,0.849,0.146,1.142,0.497c0.292,0.351,0.463,0.609,0.513,0.778
		c0.095,0.21,0.15,0.528,0.168,0.954c-0.014,0.685-0.007,1.367,0.021,2.049c0.029,0.683,0.057,1.364,0.086,2.047l0.203,4.858
		c0.102,2.43,0.274,4.537,0.521,6.32s0.499,3.246,0.761,4.388c0.783,3.426,1.545,5.807,2.284,7.143
		c0.74,1.336,1.643,1.98,2.708,1.938c0.726-0.031,1.756-0.416,3.091-1.154l2.564-1.453l1.125-0.688
		c1.412-0.957,2.34-1.742,2.784-2.359c0.323-0.439,0.371-0.826,0.144-1.158l-1.973-4.273c-0.329-0.712-0.656-1.648-0.981-2.809
		c-0.326-1.161-0.66-2.76-1.001-4.794l-0.383-2.995c-0.091-1.149-0.156-2.214-0.197-3.194s-0.079-1.876-0.112-2.686
		c-0.073-1.748,0-2.809,0.219-3.181c0.219-0.373,1.04-0.651,2.463-0.84c1.422-0.188,2.154-0.304,2.195-0.348
		c0.082-0.089,0.279-0.974,0.594-2.651l0.3-1.998c-0.107-0.551-0.435-0.954-0.979-1.208c-0.544-0.255-1.394-0.357-2.543-0.31h-1.537
		c-0.158-0.721-0.252-1.441-0.283-2.166c-0.03-0.726,0.011-1.538,0.122-2.439c0.112-0.9,0.325-1.679,0.639-2.333l0.552-2.137
		c0.07-0.345-0.048-0.628-0.356-0.85c-0.308-0.223-0.739-0.322-1.293-0.299c-0.975,0.169-2.071,0.515-3.288,1.034l-3.021,1.28
		c-2.187,0.817-3.553,1.611-4.097,2.381c-0.544,0.771-0.915,2.376-1.11,4.819l-0.133,1.415l-0.515-0.042
		c-1.875,0.079-3.052,0.288-3.528,0.628c-0.478,0.34-0.791,1.261-0.941,2.762l0.112,1.148L69.36,22.71z"/>
	<path d="M36.671,35.746c0-1.151-0.182-2.133-0.544-2.943c-0.362-0.812-0.863-1.451-1.504-1.921
		c-0.372-0.335-0.511,6.511-9.728,7.425c-0.726,0-1.579-0.107-2.561-0.32c-2.304-0.469-5.142-1.381-6.848-3.344
		c-0.981-1.195-1.76-2.582-2.336-4.16c-0.576-1.579-0.864-3.436-0.864-5.568c0-0.213,0-0.533,0-0.96c0-0.938,0.064-1.898,0.192-2.88
		c0.426-2.986,1.163-5.312,2.208-6.976s3.146-3.015,4.64-3.44c0.597-0.213,1.259-0.32,1.984-0.32c0.938,0,1.67,0.168,2.275,0.454
		c1.387,0.705,1.591,1.431,2.19,2.551c2.85,3.229,6.574,1.375,7.32,0.63c0.836-0.775,1.513-2.97,1.513-4.419
		c0-1.109-0.463-3.135-1.018-4.073c-0.684-1.152-1.945-2.193-3.161-2.854c-1.217-0.662-2.934-1.184-5.152-1.567
		c-0.726-0.128-1.44-0.192-2.144-0.192c-0.704,0-1.44,0-2.208,0c-4.14,0-7.605,0.854-10.4,2.561s-5.216,4.31-7.264,7.808
		c-2.177,3.669-3.265,8.128-3.265,13.376c0,0.384,0.012,0.896,0.032,1.536c0.021,0.64,0.117,1.749,0.288,3.328
		c0.469,4.139,1.621,7.68,3.456,10.624l1.152,1.728c1.877,2.56,3.936,4.384,6.176,5.472s5.259,1.633,9.056,1.633
		c0.555-0.043,1.248-0.064,2.08-0.064s1.483-0.043,1.952-0.129c3.584-0.555,6.432-1.791,8.544-3.711
		c2.112-1.92,3.36-4.309,3.744-7.168C36.608,37.089,36.671,36.385,36.671,35.746z"/>
	<path d="M29.983,56.038c-1.182-1.051-2.01-1.936-4.268-2.619c-4.45-0.996-13.363-1.096-19.4,2.08
		c-0.635,0.057-1.447,1.826-1.574,2.682L4.559,59.56c-0.138,1.898-0.212,3.15-0.227,3.76c-0.014,0.607-0.033,1.543-0.057,2.809
		c-0.024,1.266-0.004,2.451,0.059,3.557c0.063,1.105,0.184,2.662,0.359,4.668l0.638,7.27c0.146,1.672,0.315,3.113,0.506,4.326
		c0.127,0.809,0.435,2.814,0.919,6.01c1.732,9.744,6.187,11.547,12.33,8.521c2.398-0.885,2.056-5.285-1.031-13.201l-0.64-2.672
		c-0.167-0.76-0.274-1.408-0.321-1.943c-0.098-1.102,0.109-2.004,0.621-2.707c0.513-0.701,1.626-1.615,3.348-2.744l0.667-0.463
		l1.854-1.322c2.658-1.951,4.656-3.744,5.995-5.377c1.217-1.488,2.022-2.965,2.416-4.432c0.395-1.465,0.539-2.783,0.438-3.953
		C32.145,60.019,31.823,57.257,29.983,56.038z"/>
	<circle cx="164.361" cy="68.615" r="5.04"/>
	<circle cx="164.361" cy="81.051" r="5.04"/>
</g>
<path id="shape2" d="M113.331,59.636l-0.496,0.143l-0.405-1.363c-0.668-2.355-1.347-3.859-2.029-4.508
	c-0.685-0.65-2.178-1.162-4.481-1.537l-3.213-0.666c-1.295-0.273-2.437-0.398-3.427-0.375c-0.547,0.086-0.951,0.268-1.21,0.545
	c-0.259,0.279-0.32,0.58-0.184,0.904l0.958,1.988c0.436,0.58,0.796,1.301,1.08,2.164c0.285,0.861,0.483,1.65,0.596,2.367
	c0.111,0.719,0.16,1.443,0.146,2.182l-1.508,0.299c-1.138,0.178-1.95,0.443-2.435,0.801c-0.484,0.355-0.727,0.814-0.726,1.375
	l0.687,1.902c0.635,1.584,1.001,2.412,1.099,2.482c0.049,0.035,0.789,0.008,2.222-0.086s2.291,0.021,2.578,0.344
	c0.289,0.32,0.566,1.348,0.836,3.074c0.125,0.803,0.263,1.689,0.413,2.656c0.151,0.971,0.294,2.027,0.43,3.172l0.21,3.014
	c0.062,2.063,0.046,3.693-0.049,4.896c-0.093,1.201-0.23,2.186-0.415,2.947l-1.101,4.574c-0.159,0.371-0.037,0.74,0.366,1.109
	c0.556,0.518,1.619,1.107,3.189,1.77l1.236,0.457l2.8,0.924c1.454,0.465,2.54,0.641,3.256,0.529
	c1.055-0.164,1.813-0.975,2.278-2.428s0.747-3.938,0.848-7.451c0.033-1.172-0.003-2.654-0.108-4.451
	c-0.107-1.797-0.349-3.896-0.724-6.301l-0.748-4.807c-0.104-0.674-0.209-1.348-0.313-2.023c-0.105-0.674-0.23-1.346-0.379-2.014
	c-0.064-0.422-0.072-0.744-0.021-0.969c0.017-0.174,0.134-0.463,0.352-0.863c0.219-0.4,0.561-0.639,1.022-0.711
	c0.676-0.104,1.554,0.127,2.635,0.691l-0.104-3.156l-0.114-1.148c-0.439-1.443-0.928-2.285-1.462-2.525
	S115.188,59.347,113.331,59.636"/>
<g>
	<circle fill="#FFFFFF" cx="14.708" cy="61.496" r="3.2"/>
	<circle fill="#FFFFFF" cx="161.149" cy="67.727" r="0.81"/>
	<path fill="#FFFFFF" d="M167.49,69.179c-1.932,0.74-4.377,0.771-6.381,0.078l-0.228-0.078l-0.156,0.453l0.228,0.078
		c1.012,0.352,2.131,0.523,3.246,0.523c1.206,0,2.407-0.203,3.463-0.609l0.226-0.086l-0.174-0.447L167.49,69.179z"/>
	<circle fill="#FFFFFF" cx="167.653" cy="67.781" r="0.809"/>
</g>
</svg>
