<?xml version="1.0" encoding="utf-8"?>
<!-- Generator: Adobe Illustrator 16.0.3, SVG Export Plug-In . SVG Version: 6.00 Build 0)  -->
<!DOCTYPE svg PUBLIC "-//W3C//DTD SVG 1.1//EN" "http://www.w3.org/Graphics/SVG/1.1/DTD/svg11.dtd">
<svg version="1.1"
	 id="Calque_1" xmlns:krita="http://krita.org/namespaces/svg/krita" xmlns:sodipodi="http://sodipodi.sourceforge.net/DTD/sodipodi-0.dtd"
	 xmlns="http://www.w3.org/2000/svg" xmlns:xlink="http://www.w3.org/1999/xlink" x="0px" y="0px" width="214.416px"
	 height="218.896px" viewBox="0 0 214.416 218.896" enable-background="new 0 0 214.416 218.896" xml:space="preserve">
<path d="M198.593,14.79c-9.809-9.538-22.734-14.791-36.398-14.791c-14.172,0-27.41,5.588-37.275,15.733
	c-9.691,9.968-14.913,23.122-14.699,37.04c0.021,1.415,0.113,2.817,0.246,4.21l-9.479,12.154l-7.005-2.888l-12.368,15.04
	l4.599,6.795l-75.977,97.433c0.567,0.584,1.189,1.318,1.842,2.137c-7.481,12.027-11.462,20.561-11.942,25.6
	c-0.271,1.299-0.155,2.541,0.523,3.639c0.051,0.09,0.108,0.176,0.167,0.26c0.135,0.188,0.284,0.373,0.456,0.553
	c0.005,0.006,0.013,0.008,0.018,0.014c0.176,0.16,0.357,0.299,0.542,0.424c0.088,0.059,0.177,0.113,0.272,0.164
	c1.115,0.646,2.358,0.727,3.648,0.42c5.021-0.623,13.439-4.84,25.254-12.654c0.836,0.629,1.587,1.23,2.187,1.781l125.68-103.789
	c1.179,0.079,2.36,0.134,3.552,0.134c14.172,0,27.41-5.589,37.276-15.734c9.692-9.967,14.913-23.122,14.698-37.041
	C214.196,37.51,208.579,24.501,198.593,14.79z"/>
<g>
	<circle fill="#FFFFFF" cx="149.094" cy="9.79" r="4.052"/>
	<circle fill="#FFFFFF" cx="192.606" cy="35.074" r="4.051"/>
	<path fill="#FFFFFF" d="M192.394,45.158c-5.555,0-21.33-7.169-28.976-11.208c-9.177-5.525-25.408-17.075-25.021-20.378
		l-0.992-0.122c-0.58,4.573,18.479,17.213,25.099,21.133l-0.006,0.011c0.127,0.071,0.266,0.147,0.401,0.222
		c0.153,0.09,0.305,0.179,0.44,0.256l0.007-0.013c6.566,3.548,22.846,11.123,28.967,11.123c0.946,0,1.631-0.176,2.088-0.538
		l-0.615-0.788C193.608,44.994,193.223,45.158,192.394,45.158z"/>
</g>
</svg>
