<?xml version="1.0" encoding="utf-8"?>
<!-- Generator: Adobe Illustrator 16.0.3, SVG Export Plug-In . SVG Version: 6.00 Build 0)  -->
<!DOCTYPE svg PUBLIC "-//W3C//DTD SVG 1.1//EN" "http://www.w3.org/Graphics/SVG/1.1/DTD/svg11.dtd">
<svg version="1.1"
	 id="Calque_1" xmlns:krita="http://krita.org/namespaces/svg/krita" xmlns:sodipodi="http://sodipodi.sourceforge.net/DTD/sodipodi-0.dtd"
	 xmlns="http://www.w3.org/2000/svg" xmlns:xlink="http://www.w3.org/1999/xlink" x="0px" y="0px" width="215.588px"
	 height="205.305px" viewBox="0 0 215.588 205.305" enable-background="new 0 0 215.588 205.305" xml:space="preserve">
<g>
	<path fill="#333333" d="M9.366,1.623c-8.083,4.745,5.271,74.864,13.963,75.503C45.501,78.753,69.6,26.646,67.802,23.859
		C42.583,4.154,18.737-3.879,9.366,1.623z"/>
	<path fill="#333333" d="M206.222,1.623c-9.371-5.502-33.22,2.531-58.437,22.236c-1.799,2.787,22.299,54.894,44.474,53.267
		C200.951,76.487,214.304,6.368,206.222,1.623z"/>
</g>
<path fill="#8A8A8A" d="M135.301,7.727c-2.008-0.913-4.992-1.613-9.338-2.109c-5.729-0.928-11.778-1.259-18.17-0.904
	c-6.392-0.354-12.441-0.023-18.17,0.904c-4.344,0.496-7.329,1.196-9.336,2.109C5.172,29.755-7.869,160.411,3.678,179.283
	c7.791,12.735,55.292,24.247,94.998,25.891c0.188,0.009,0.38,0.016,0.568,0.022c0.311,0.014,0.621,0.026,0.931,0.037
	c2.478,0.098,5.021,0.145,7.62,0.141c2.599,0.004,5.143-0.043,7.621-0.141c0.308-0.011,0.617-0.023,0.927-0.037
	c0.188-0.008,0.383-0.015,0.571-0.022c39.705-1.644,87.205-13.154,94.996-25.891C223.455,160.411,210.414,29.756,135.301,7.727z"/>
<g>
	<path fill="#424242" d="M36.065,120.724c3.079-8.453-3.273-16.94-12.537-17.413c27.97-14.44,58.255-14.541,61.588-14.957
		c-0.412-2.195-43.144,0.75-66.7,14.212c-8.087,4.621-9.962,13.279-6.597,20.093C17.495,134.146,32.466,130.609,36.065,120.724z"/>
	<path fill="#424242" d="M85.755,89.893c-1.356-1.774-38.183,20.102-53.151,42.73c-5.14,7.769-2.914,16.344,3.159,20.91
		c10.241,7.699,22.015-2.2,20.777-12.646c-1.058-8.934-10.553-13.652-19.036-9.9C55.973,105.496,82.968,91.765,85.755,89.893z"/>
	<path fill="#424242" d="M197.535,102.566c-23.557-13.461-66.289-16.407-66.699-14.212c3.332,0.416,33.617,0.517,61.588,14.957
		c-9.264,0.473-15.616,8.96-12.537,17.413c3.6,9.885,18.57,13.422,24.246,1.935C207.496,115.845,205.621,107.187,197.535,102.566z"
		/>
	<path fill="#424242" d="M130.197,89.893c2.786,1.872,29.782,15.603,48.25,41.093c-8.482-3.752-17.978,0.968-19.035,9.9
		c-1.238,10.446,10.537,20.347,20.776,12.646c6.072-4.566,8.3-13.143,3.158-20.91C168.377,109.995,131.552,88.118,130.197,89.893z"
		/>
</g>
<g>
	<path fill="#2E2E2E" d="M128.381,96.394c-6.361,3.633-12.604,4.479-16.282,2.206c-2.06-1.271-3.067-3.394-2.919-6.139l0.064-1.198
		l-0.136-0.007l-0.007-0.123l-1.126,0.061l-1.127-0.061l-0.007,0.123l-0.137,0.007l0.065,1.198c0.149,2.746-0.86,4.868-2.918,6.139
		c-3.681,2.272-9.92,1.428-16.282-2.206L86.529,95.8l-1.19,2.084l1.042,0.595c4.392,2.508,8.699,3.792,12.413,3.792
		c2.402,0,4.555-0.538,6.32-1.628c1.23-0.759,2.18-1.762,2.862-2.94c0.683,1.179,1.633,2.182,2.862,2.94
		c1.767,1.091,3.918,1.628,6.32,1.628c3.713,0,8.021-1.284,12.412-3.792l1.041-0.595l-1.189-2.084L128.381,96.394z"/>
	<circle fill="#2E2E2E" cx="41.436" cy="80.136" r="8.82"/>
	<circle fill="#2E2E2E" cx="174.516" cy="80.136" r="8.82"/>
</g>
<g>
	<ellipse fill="#666666" cx="107.976" cy="87.476" rx="11.76" ry="7.08"/>
	<path fill="#666666" d="M107.976,95.757c-7.267,0-12.96-3.637-12.96-8.28c0-4.643,5.693-8.28,12.96-8.28
		c7.269,0,12.96,3.638,12.96,8.28C120.936,92.12,115.244,95.757,107.976,95.757z M107.976,81.596c-5.724,0-10.56,2.692-10.56,5.88
		c0,3.188,4.834,5.88,10.56,5.88c5.724,0,10.56-2.691,10.56-5.88C118.535,84.289,113.699,81.596,107.976,81.596z"/>
</g>
</svg>
