<?xml version="1.0" encoding="utf-8"?>
<!-- Generator: Adobe Illustrator 16.0.3, SVG Export Plug-In . SVG Version: 6.00 Build 0)  -->
<!DOCTYPE svg PUBLIC "-//W3C//DTD SVG 1.1//EN" "http://www.w3.org/Graphics/SVG/1.1/DTD/svg11.dtd">
<svg version="1.1"
	 id="Calque_1" xmlns:krita="http://krita.org/namespaces/svg/krita" xmlns:sodipodi="http://sodipodi.sourceforge.net/DTD/sodipodi-0.dtd"
	 xmlns="http://www.w3.org/2000/svg" xmlns:xlink="http://www.w3.org/1999/xlink" x="0px" y="0px" width="83.818px"
	 height="223.016px" viewBox="0 0 83.818 223.016" enable-background="new 0 0 83.818 223.016" xml:space="preserve">
<path d="M72.232,199.001c-0.18-13.194-5.121-31.422-11.883-51.255c18.625-17.745,30.665-46.281,18.649-50.312
	c-28.814-9.667-34.977-9.896-38.673-3.323c-1.838-4.787-3.631-9.49-5.342-14.069c2.91-3.5,6.3-7.052,10.245-10.64
	C98.493,20.958-9.867-35.194,11.558,28.531c4.331,12.881,10.419,28.047,16.914,44.06C10.304,88.946-8.065,109.088,3.724,137.233
	c13.75,32.823,36.055,28.283,53.639,13.213c3.711,12.896,6.124,24.718,6.402,34.569c-3.458-2.505-7.696-3.999-12.293-3.999
	c-11.6,0-21,9.401-21,21s9.401,21,21,21c5.517,0,10.521-2.145,14.269-5.623c2.255-1.618,3.864-3.939,4.916-6.86
	c1.158-2.604,1.815-5.481,1.815-8.517C72.473,200.99,72.375,199.988,72.232,199.001z M61.641,116.457
	c-44.91-19.79,35.952-20.675-4.115,23.194c-2.895-8.125-6.02-16.435-9.182-24.704C57.613,118.843,68.237,119.364,61.641,116.457z
	 M45.118,25.35c23.242,14.284,5.774,27.398-13.796,44.7C17.43,31.268,12.575,5.349,45.118,25.35z M50.016,147.092
	c-11.875,10.771-49.202-22.332-17.345-64.15c1.992,4.918,3.994,9.884,5.973,14.861c-0.313,0.791-0.628,1.628-0.968,2.522
	c-2.107,5.549,1.668,9.819,6.94,12.805c3.799,9.986,7.333,19.846,10.313,29.266C53.432,143.911,51.8,145.476,50.016,147.092z"/>
<g>
	<ellipse fill="#FFFFFF" cx="34.401" cy="200.356" rx="2.003" ry="2.037"/>
	<ellipse fill="#FFFFFF" cx="55.438" cy="193.48" rx="2.003" ry="2.037"/>
	<path fill="#FFFFFF" d="M33.444,196.948c4.241-4.084,12.68-5.783,20.596-6.729C47.149,185.86,35.868,189.484,33.444,196.948z"/>
</g>
</svg>
