<svg width="51" height="51" viewBox="0 0 51 51" fill="none" xmlns="http://www.w3.org/2000/svg">
<path d="M25.5 0C11.424 0 0 11.424 0 25.5C0 39.576 11.424 51 25.5 51C39.576 51 51 39.576 51 25.5C51 11.424 39.576 0 25.5 0ZM12.9285 41.514C14.025 39.219 20.706 36.975 25.5 36.975C30.294 36.975 37.0005 39.219 38.0715 41.514C34.6035 44.268 30.243 45.9 25.5 45.9C20.757 45.9 16.3965 44.268 12.9285 41.514ZM41.718 37.8165C38.0715 33.3795 29.223 31.875 25.5 31.875C21.777 31.875 12.9285 33.3795 9.282 37.8165C6.681 34.3995 5.1 30.141 5.1 25.5C5.1 14.2545 14.2545 5.1 25.5 5.1C36.7455 5.1 45.9 14.2545 45.9 25.5C45.9 30.141 44.319 34.3995 41.718 37.8165ZM25.5 10.2C20.553 10.2 16.575 14.178 16.575 19.125C16.575 24.072 20.553 28.05 25.5 28.05C30.447 28.05 34.425 24.072 34.425 19.125C34.425 14.178 30.447 10.2 25.5 10.2ZM25.5 22.95C23.3835 22.95 21.675 21.2415 21.675 19.125C21.675 17.0085 23.3835 15.3 25.5 15.3C27.6165 15.3 29.325 17.0085 29.325 19.125C29.325 21.2415 27.6165 22.95 25.5 22.95Z" fill="#BBB8B2"/>
</svg>
