<?xml version="1.0" encoding="utf-8"?>
<!-- Generator: Adobe Illustrator 16.0.3, SVG Export Plug-In . SVG Version: 6.00 Build 0)  -->
<!DOCTYPE svg PUBLIC "-//W3C//DTD SVG 1.1//EN" "http://www.w3.org/Graphics/SVG/1.1/DTD/svg11.dtd">
<svg version="1.1"
	 id="Calque_1" xmlns:krita="http://krita.org/namespaces/svg/krita" xmlns:sodipodi="http://sodipodi.sourceforge.net/DTD/sodipodi-0.dtd"
	 xmlns="http://www.w3.org/2000/svg" xmlns:xlink="http://www.w3.org/1999/xlink" x="0px" y="0px" width="240px" height="240px"
	 viewBox="0 0 240 240" enable-background="new 0 0 240 240" xml:space="preserve">
<rect x="68.813" y="118.74" fill="#D3D1D1" width="102.377" height="3"/>
<path fill="#D3D1D1" d="M62.596,125.676c-0.261,0-0.525-0.067-0.765-0.211c-0.712-0.423-0.946-1.344-0.522-2.056l2.777-4.67
	l9.676,0.009c0.828,0,1.5,0.673,1.499,1.501c-0.001,0.828-0.672,1.499-1.5,1.499c0,0-0.001,0-0.001,0l-7.968-0.007l-1.904,3.201
	C63.606,125.414,63.107,125.676,62.596,125.676z"/>
<path fill="#D3D1D1" d="M177.582,125.676c-0.511,0-1.01-0.262-1.29-0.733l-1.904-3.201l-7.969,0.007h-0.001
	c-0.828,0-1.499-0.671-1.5-1.499c-0.001-0.829,0.67-1.501,1.499-1.501l9.676-0.009l2.777,4.67c0.424,0.712,0.189,1.632-0.522,2.056
	C178.107,125.608,177.844,125.676,177.582,125.676z"/>
<rect x="72" y="114.48" fill="#F0F0F0" width="11.52" height="11.52"/>
<rect x="156.48" y="114.48" fill="#F0F0F0" width="11.521" height="11.52"/>
</svg>
