<?xml version="1.0" encoding="utf-8"?>
<!-- Generator: Adobe Illustrator 16.0.3, SVG Export Plug-In . SVG Version: 6.00 Build 0)  -->
<!DOCTYPE svg PUBLIC "-//W3C//DTD SVG 1.1//EN" "http://www.w3.org/Graphics/SVG/1.1/DTD/svg11.dtd">
<svg version="1.1"
	 id="Calque_1" xmlns:krita="http://krita.org/namespaces/svg/krita" xmlns:sodipodi="http://sodipodi.sourceforge.net/DTD/sodipodi-0.dtd"
	 xmlns="http://www.w3.org/2000/svg" xmlns:xlink="http://www.w3.org/1999/xlink" x="0px" y="0px" width="240px" height="240px"
	 viewBox="0 0 240 240" enable-background="new 0 0 240 240" xml:space="preserve">
<path fill="#F0F0F0" d="M165.723,120.049l1.88-1.879c0.938-0.937,0.938-2.457,0.001-3.394s-2.458-0.937-3.394,0l-1.881,1.88
	l-1.88-1.88c-0.938-0.937-2.457-0.937-3.395,0c-0.938,0.938-0.938,2.457,0,3.395l1.88,1.88l-1.781,1.78
	c-0.938,0.938-0.938,2.457,0,3.395c0.469,0.469,1.083,0.703,1.697,0.703s1.229-0.234,1.697-0.703l1.78-1.781l1.781,1.781
	c0.469,0.469,1.083,0.703,1.697,0.703s1.229-0.234,1.697-0.703c0.938-0.938,0.938-2.457,0-3.395L165.723,120.049z"/>
<path fill="#F0F0F0" d="M81.154,120.289l1.88-1.879c0.938-0.937,0.938-2.457,0.001-3.394s-2.458-0.937-3.394,0l-1.881,1.88
	l-1.88-1.88c-0.938-0.937-2.457-0.937-3.395,0c-0.938,0.938-0.938,2.457,0,3.395l1.88,1.88l-1.781,1.781
	c-0.938,0.938-0.938,2.457,0,3.395c0.469,0.469,1.083,0.703,1.697,0.703s1.229-0.234,1.697-0.703l1.78-1.781l1.781,1.781
	c0.469,0.469,1.083,0.703,1.697,0.703s1.229-0.234,1.697-0.703c0.938-0.938,0.938-2.457,0-3.395L81.154,120.289z"/>
</svg>
