<?xml version="1.0" encoding="utf-8"?>
<!-- Generator: Adobe Illustrator 16.0.3, SVG Export Plug-In . SVG Version: 6.00 Build 0)  -->
<!DOCTYPE svg PUBLIC "-//W3C//DTD SVG 1.1//EN" "http://www.w3.org/Graphics/SVG/1.1/DTD/svg11.dtd">
<svg version="1.1"
	 id="Calque_1" xmlns:krita="http://krita.org/namespaces/svg/krita" xmlns:sodipodi="http://sodipodi.sourceforge.net/DTD/sodipodi-0.dtd"
	 xmlns="http://www.w3.org/2000/svg" xmlns:xlink="http://www.w3.org/1999/xlink" x="0px" y="0px" width="138.326px"
	 height="114.602px" viewBox="0 0 138.326 114.602" enable-background="new 0 0 138.326 114.602" xml:space="preserve">
<path stroke="white" stroke-width="3px" d="M116.938,114.6c4.845-15.831,23.141-83.281,21.252-86.474c-1.525-2.58-41.713,18.18-43.151,17.354
	c-0.731-0.42-15.978-30.134-22.794-41.3c-1.376-2.843-2.404-4.243-3.082-4.179c-0.677-0.061-1.706,1.336-3.082,4.181
	C59.266,15.349,44.018,45.061,43.287,45.48c-1.438,0.827-41.625-19.93-43.151-17.352c-1.889,3.191,16.407,70.642,21.25,86.473
	L116.938,114.6L116.938,114.6z"/>
<g>
	<!-- <path fill="#FFFFFF" d="M69.163,84.625c-24.463-0.383-42.064-4-49.583-5.383c-0.251,1.715,24.868,9.414,43.762,11.028
		c0.014,0.002,0.025,0.008,0.038,0.011c1.747,0.219,3.695,0.305,5.782,0.282c2.087,0.021,4.034-0.063,5.782-0.282
		c0.014-0.003,0.025-0.009,0.039-0.011c18.896-1.614,44.015-9.313,43.764-11.028C111.228,80.625,93.626,84.242,69.163,84.625z"/> -->
</g>
<circle fill="#FFFFFF" cx="27.024" cy="70.842" r="6.84"/>
<circle fill="#FFFFFF" cx="111.302" cy="70.842" r="6.84"/>
</svg>
