<?xml version="1.0" encoding="utf-8"?>
<!-- Generator: Adobe Illustrator 16.0.3, SVG Export Plug-In . SVG Version: 6.00 Build 0)  -->
<!DOCTYPE svg PUBLIC "-//W3C//DTD SVG 1.1//EN" "http://www.w3.org/Graphics/SVG/1.1/DTD/svg11.dtd">
<svg version="1.1"
	 id="Calque_1" xmlns:krita="http://krita.org/namespaces/svg/krita" xmlns:sodipodi="http://sodipodi.sourceforge.net/DTD/sodipodi-0.dtd"
	 xmlns="http://www.w3.org/2000/svg" xmlns:xlink="http://www.w3.org/1999/xlink" x="0px" y="0px" width="240px" height="240px"
	 viewBox="0 0 240 240" enable-background="new 0 0 240 240" xml:space="preserve">
<g>
	<path fill="#F0F0F0" d="M82.986,121.697c0.468-0.471,0.703-1.084,0.703-1.697c0-0.616-0.233-1.23-0.704-1.698
		c-0.938-0.938-2.456-0.938-3.395,0l-7.055,7.052c-0.938,0.938-0.938,2.458,0,3.396c0.938,0.938,2.457,0.938,3.395,0L82.986,121.697
		z"/>
</g>
<g>
	<path fill="#F0F0F0" d="M79.588,121.698c0.471,0.467,1.084,0.704,1.697,0.704c0.616-0.001,1.231-0.235,1.698-0.706
		c0.938-0.938,0.938-2.455,0-3.395l-7.051-7.055c-0.938-0.937-2.458-0.937-3.396,0c-0.938,0.938-0.938,2.457,0,3.395L79.588,121.698
		z"/>
</g>
<circle id="shape3" fill="#F0F0F0" cx="162.277" cy="120.24" r="5.76"/>
</svg>
