<?xml version="1.0" encoding="utf-8"?>
<!-- Generator: Adobe Illustrator 16.0.3, SVG Export Plug-In . SVG Version: 6.00 Build 0)  -->
<!DOCTYPE svg PUBLIC "-//W3C//DTD SVG 1.1//EN" "http://www.w3.org/Graphics/SVG/1.1/DTD/svg11.dtd">
<svg version="1.1"
	 id="Calque_1" xmlns:krita="http://krita.org/namespaces/svg/krita" xmlns:sodipodi="http://sodipodi.sourceforge.net/DTD/sodipodi-0.dtd"
	 xmlns="http://www.w3.org/2000/svg" xmlns:xlink="http://www.w3.org/1999/xlink" x="0px" y="0px" width="139.859px"
	 height="205.477px" viewBox="0 0 139.859 205.477" enable-background="new 0 0 139.859 205.477" xml:space="preserve">
<g>
	<circle cx="125.729" cy="163.809" r="14.131"/>
	<path d="M117.627,66.994c27.66-17.864,12.145-104.086-94.993-48.659c-1.811,1.745,2.605,5.325,13.248,10.74l11.3-5.192
		C68.319,52.366,79.074,84.23,79.457,119.47c-8.27-5.775-18.463-9.192-29.5-9.192C22.366,110.278,0,131.589,0,157.877
		c0,26.289,22.365,47.601,49.957,47.601c21.053,0,39.159-12.009,46.512-29.569c0.105,0.406-0.107-0.421,0,0
		c13.359-41.806,2.611-105.675-33.865-158.794C130.905,0.181,130.432,50.205,117.627,66.994z"/>
</g>
<g>
	<circle fill="#FFFFFF" cx="58.918" cy="147.642" r="4.486"/>
	<circle fill="#FFFFFF" cx="9.503" cy="147.642" r="4.486"/>
	<path fill="#FFFFFF" d="M11.865,154.272c14.396,8.407,28.558,8.109,42.488-0.893C31.732,161.081,23.072,157.409,11.865,154.272z"/>
	<circle fill="#FFFFFF" cx="133.508" cy="158.512" r="0.974"/>
	<circle fill="#FFFFFF" cx="119.781" cy="158.512" r="0.974"/>
	<path fill="#FFFFFF" d="M131.518,159.758c-4.258,0.17-4.75,0.166-9.223,0.192C125.52,162.044,128.592,161.981,131.518,159.758z"/>
</g>
</svg>
