<?xml version="1.0" encoding="utf-8"?>
<!-- Generator: Adobe Illustrator 16.0.3, SVG Export Plug-In . SVG Version: 6.00 Build 0)  -->
<!DOCTYPE svg PUBLIC "-//W3C//DTD SVG 1.1//EN" "http://www.w3.org/Graphics/SVG/1.1/DTD/svg11.dtd">
<svg version="1.1" id="Calque_1" xmlns="http://www.w3.org/2000/svg" xmlns:xlink="http://www.w3.org/1999/xlink" x="0px" y="0px"
	 width="629.182px" height="461.873px" viewBox="0 0 629.182 461.873" enable-background="new 0 0 629.182 461.873"
	 xml:space="preserve">
<path d="M626.553,324.961c-244.301-23.399-259.222-95.681-274.618-165.581c-7.706-34.984-14.984-68.03-50.129-95.248
	C261.964,33.279,189.81,14.453,81.221,6.578L82.698,0c111.453,8.081,181.676,26.803,223.146,58.918
	c37.034,28.681,44.913,64.451,52.532,99.044c7.414,33.66,15.08,68.465,50.216,96.937c39.989,32.403,112.818,53.175,220.589,63.497
	L626.553,324.961z"/>
<path d="M603.428,358.958c-244.381-23.405-258.749-95.427-272.644-165.076c-6.944-34.812-13.504-67.69-48.071-94.771
	c-39.21-30.716-111.048-49.474-219.617-57.348l0.477-6.578c111.447,8.081,182.373,26.744,223.208,58.734
	c36.49,28.586,43.598,64.215,50.472,98.672c6.684,33.504,13.595,68.148,48.152,96.491c39.354,32.278,110.876,52.987,218.652,63.311
	L603.428,358.958z"/>
<path d="M585.307,394.144c-244.363-23.407-259.166-95.66-273.48-165.533c-7.158-34.94-13.919-67.942-48.65-95.118
	C223.79,102.673,151.865,83.865,43.291,75.991l0.477-6.578c111.45,8.081,182.46,26.792,223.474,58.885
	c36.641,28.671,43.964,64.419,51.047,98.988c6.889,33.625,14.012,68.395,48.732,96.832c39.532,32.378,111.14,53.137,218.915,63.461
	L585.307,394.144z"/>
<path d="M563.816,427.417c-244.381-23.408-258.749-95.43-272.643-165.08c-6.944-34.811-13.503-67.69-48.07-94.77
	c-39.209-30.716-111.047-49.474-219.617-57.348l0.477-6.577c111.447,8.08,182.373,26.743,223.208,58.732
	c36.489,28.586,43.597,64.215,50.471,98.673c6.684,33.504,13.595,68.148,48.151,96.492c39.354,32.278,110.875,52.988,218.65,63.312
	L563.816,427.417z"/>
<path d="M547.332,461.873C303.03,438.474,288.11,366.196,272.715,296.297c-7.707-34.986-14.984-68.03-50.13-95.248
	C182.743,170.195,108.589,151.369,0,143.494l3.477-6.577c111.454,8.081,181.677,26.803,223.147,58.918
	c37.034,28.682,44.913,64.451,52.532,99.043c7.414,33.66,15.08,68.465,50.215,96.935c39.99,32.404,113.818,53.173,221.588,63.496
	L547.332,461.873z"/>
<rect x="41.922" y="-7.163" transform="matrix(0.8655 0.5008 -0.5008 0.8655 42.5472 -14.628)" width="13.191" height="158.183"/>
<rect x="575.496" y="309.729" transform="matrix(0.8655 0.5009 -0.5009 0.8655 273.0305 -239.2664)" width="13.19" height="158.181"/>
<polygon points="50.618,145.76 44.866,142.532 122.966,4.388 128.718,6.616 "/>
</svg>
