<?xml version="1.0" encoding="utf-8"?>
<!-- Generator: Adobe Illustrator 16.0.3, SVG Export Plug-In . SVG Version: 6.00 Build 0)  -->
<!DOCTYPE svg PUBLIC "-//W3C//DTD SVG 1.1//EN" "http://www.w3.org/Graphics/SVG/1.1/DTD/svg11.dtd">
<svg version="1.1"
	 id="Calque_1" xmlns:krita="http://krita.org/namespaces/svg/krita" xmlns:sodipodi="http://sodipodi.sourceforge.net/DTD/sodipodi-0.dtd"
	 xmlns="http://www.w3.org/2000/svg" xmlns:xlink="http://www.w3.org/1999/xlink" x="0px" y="0px" width="220.45px"
	 height="220.561px" viewBox="0 0 220.45 220.561" enable-background="new 0 0 220.45 220.561" xml:space="preserve">
<ellipse id="shape0" cx="110.224" cy="110.281" rx="110.28" ry="110.28"/>
<g>
	<path fill="#FFFFFF" d="M110.345,18.269v-4.8c-0.028,0-0.057,0-0.084,0c-25.804,0-50.08,10.046-68.354,28.288
		c-18.374,18.318-28.493,42.697-28.493,68.641l4.8,0.004c0.019-24.657,9.636-47.829,27.082-65.246
		C62.686,27.817,85.788,18.269,110.345,18.269z"/>
	<path fill="#FFFFFF" d="M202.476,110.398c-0.02,25.015-9.875,48.419-27.754,65.908c-0.002,0.002-0.004,0.004-0.006,0.007
		c-17.31,16.907-40.17,26.218-64.371,26.218l-0.002,4.802h0.084c25.422,0,49.438-9.79,67.623-27.566
		c0.008-0.007,0.014-0.013,0.021-0.019c18.834-18.397,29.206-43.024,29.206-69.346L202.476,110.398z"/>
	<path fill="#FFFFFF" d="M129.196,110.4c0-10.394-8.457-18.85-18.851-18.85c-10.395,0-18.851,8.456-18.851,18.85
		c0,10.395,8.456,18.852,18.851,18.852C120.739,129.252,129.196,120.795,129.196,110.4z M96.295,110.4
		c0-7.747,6.302-14.05,14.05-14.05c7.746,0,14.049,6.303,14.049,14.05s-6.303,14.05-14.049,14.05
		C102.597,124.45,96.295,118.147,96.295,110.4z"/>
	<circle fill="#FFFFFF" cx="47.985" cy="93.353" r="6.389"/>
	<circle fill="#FFFFFF" cx="172.705" cy="93.353" r="6.389"/>
</g>
</svg>
