<?xml version="1.0" standalone="no"?>
<!DOCTYPE svg PUBLIC "-//W3C//DTD SVG 20010904//EN" "http://www.w3.org/TR/2001/REC-SVG-20010904/DTD/svg10.dtd">
<!-- Created using Krita: http://krita.org -->
<svg xmlns="http://www.w3.org/2000/svg" 
    xmlns:xlink="http://www.w3.org/1999/xlink"
    xmlns:krita="http://krita.org/namespaces/svg/krita"
    xmlns:sodipodi="http://sodipodi.sourceforge.net/DTD/sodipodi-0.dtd"
    width="187.68pt"
    height="189.36pt"
    viewBox="0 0 187.68 189.36">
<defs/>
<path id="shape0" transform="matrix(3.93760697423512 0 0 3.93397755306239 61.5952153915308 123.09632440172)" fill="none" stroke="#000000" stroke-width="0.48" stroke-linecap="square" stroke-linejoin="miter" stroke-miterlimit="2" d="M0 0L15.601 0"/><path id="shape01" transform="matrix(3.93760692772145 0 0 3.93397750659159 66.2136759802413 131.45855543849)" fill="none" stroke="#000000" stroke-width="0.48" stroke-linecap="square" stroke-linejoin="miter" stroke-miterlimit="2" d="M0 0L15.601 0"/><path id="shape02" transform="matrix(3.93760696854117 0 0 3.93397754737369 69.6627256202435 139.987715619537)" fill="none" stroke="#000000" stroke-width="0.48" stroke-linecap="square" stroke-linejoin="miter" stroke-miterlimit="2" d="M0 0C5.20033 0 10.4007 0 15.601 0"/><path id="shape03" transform="matrix(3.93760698970971 0 0 3.93397756852271 70.4388390987168 148.516874993146)" fill="none" stroke="#000000" stroke-width="0.48" stroke-linecap="square" stroke-linejoin="miter" stroke-miterlimit="2" d="M0 0C5.20033 0 10.4007 0 15.601 0"/><path id="shape04" transform="matrix(3.93760692772145 0 0 3.93397750659159 66.8819103401789 115.435719673701)" fill="none" stroke="#000000" stroke-width="0.48" stroke-linecap="square" stroke-linejoin="miter" stroke-miterlimit="2" d="M0 0L15.601 0"/><circle id="shape01" transform="matrix(3.93760705845452 0 0 3.93397763720417 173.569111746922 30.4469310211873)" r="5.03999999999999" cx="5.03999999999999" cy="5.03999999999999" fill="#000000" fill-rule="evenodd" stroke="#000000" stroke-opacity="0" stroke-width="0" stroke-linecap="square" stroke-linejoin="bevel"/><circle id="shape1" transform="matrix(3.93760705845452 0 0 3.93397763720417 173.569111746922 79.3711503272657)" r="5.03999999999999" cx="5.03999999999999" cy="5.03999999999999" fill="#000000" fill-rule="evenodd" stroke="#000000" stroke-opacity="0" stroke-width="0" stroke-linecap="square" stroke-linejoin="bevel"/><ellipse id="shape2" transform="matrix(3.93760705845452 0 0 3.93397763720417 177.585474915205 43.6008808114707)" rx="0.808312289171923" ry="0.808312289171932" cx="0.808312289171923" cy="0.808312289171932" fill="#ffffff" fill-rule="evenodd" stroke="#000000" stroke-opacity="0" stroke-width="0" stroke-linecap="square" stroke-linejoin="bevel"/><path id="shape3" transform="matrix(3.93760705845452 0 0 3.93397763720417 180.302423801715 53.6967432583523)" fill="none" stroke="#ffffff" stroke-width="0.48" stroke-linecap="square" stroke-linejoin="miter" stroke-miterlimit="2" d="M0 0C2.19153 0.756796 4.7224 0.726387 6.57504 0.0146194"/><ellipse id="shape05" transform="matrix(3.93760687084137 0 0 3.93397744976394 203.19288970961 43.810536437945)" rx="0.808312289171923" ry="0.808312289171932" cx="0.808312289171923" cy="0.808312289171932" fill="#ffffff" fill-rule="evenodd" stroke="#000000" stroke-opacity="0" stroke-width="0" stroke-linecap="square" stroke-linejoin="bevel"/><path id="shape4" transform="matrix(3.93760705845452 0 0 3.93397763720417 25.8838894339209 25.0649431513192)" fill="#000000" fill-rule="evenodd" d="M34.624 30.016C35.264 30.4853 35.7653 31.1253 36.128 31.936C36.4907 32.7467 36.672 33.728 36.672 34.88C36.672 35.52 36.608 36.224 36.48 36.992C36.096 39.8507 34.848 42.24 32.736 44.16C30.624 46.08 27.776 47.3173 24.192 47.872C23.7227 47.9573 23.072 48 22.24 48C21.408 48 20.7147 48.0213 20.16 48.064C16.3627 48.064 13.344 47.52 11.104 46.432C8.864 45.344 6.80533 43.52 4.928 40.96L3.776 39.232C1.94133 36.288 0.789333 32.7467 0.32 28.608C0.149333 27.0293 0.0533333 25.92 0.032 25.28C0.0106667 24.64 0 24.128 0 23.744C0 18.496 1.088 14.0373 3.264 10.368C5.312 6.86933 7.73333 4.26667 10.528 2.56C13.3227 0.853333 16.7893 0 20.928 0C21.696 0 22.432 0 23.136 0C23.84 0 24.5547 0.064 25.28 0.192C27.4987 0.576 29.216 1.09867 30.432 1.76C31.648 2.42133 32.9102 3.46197 33.5929 4.61397C34.1476 5.55263 34.6111 7.57757 34.6111 8.6869C34.6111 10.1376 33.934 12.3313 33.098 13.106C32.352 13.8507 28.628 15.706 25.778 12.476C25.178 11.356 24.974 10.6313 23.588 9.92601C22.982 9.64067 22.2507 9.472 21.312 9.472C20.5867 9.472 19.9253 9.57867 19.328 9.792C17.8347 10.2187 15.7333 11.568 14.688 13.232C13.6427 14.896 12.9067 17.2213 12.48 20.208C12.352 21.1893 12.288 22.1493 12.288 23.088C12.288 23.5147 12.288 23.8347 12.288 24.048C12.288 26.1813 12.576 28.0373 13.152 29.616C13.728 31.1947 14.5067 32.5813 15.488 33.776C17.1947 35.7387 20.032 36.6507 22.336 37.12C23.3173 37.3333 24.1707 37.44 24.896 37.44C34.1128 36.5257 34.252 29.6807 34.624 30.016Z"/><path id="shape06" transform="matrix(3.40355210762808 -0.298264364593793 0.298539538253359 3.40041494229829 115.392587740608 103.68012001671)" fill="#000000" fill-rule="evenodd" d="M0.691947 2.00643C0.787388 1.60876 1.24417 0.80568 1.5464 0.80568C4.52893 -0.443337 8.73445 -0.026986 10.7951 0.62726C11.8325 1.0436 12.187 1.49536 12.7017 2.04077C13.5206 2.69295 13.558 4.01027 13.6242 4.79808C13.6242 5.35482 13.5009 5.97121 13.2544 6.64725C13.0078 7.32329 12.5664 7.9874 11.9301 8.63958C11.2302 9.35538 10.2122 10.1189 8.87601 10.9302L7.94546 11.4789L7.61141 11.6698C6.75245 12.1311 6.18775 12.5169 5.91734 12.827C5.64692 13.1372 5.51171 13.5548 5.51171 14.0797C5.51171 14.3342 5.53557 14.6444 5.58329 15.0103L5.77418 16.2987C6.90399 20.165 6.88415 22.2574 5.71467 22.5759C2.68808 23.7511 0.659178 22.7148 0.244903 18.0417C0.147913 16.5112 0.0861619 15.5524 0.0596506 15.1653C0.0198835 14.5848 0 13.8968 0 13.1014L0 9.64171C0 8.6873 0.00795341 7.94763 0.0238602 7.4227C0.0397671 6.89778 0.0795341 6.33706 0.143161 5.74056C0.206789 5.14405 0.254509 4.70264 0.286323 4.41631C0.318136 4.12999 0.405624 3.54144 0.548785 2.65066L0.691947 2.00643"/><circle id="shape11" transform="matrix(3.41662008500216 0 0 3.41347087449008 129.310744841124 110.488019136756)" r="1.51694864573959" cx="1.51694864573959" cy="1.51694864573959" fill="#ffffff" fill-rule="evenodd" stroke="#000000" stroke-opacity="0" stroke-width="0" stroke-linecap="square" stroke-linejoin="bevel"/>
</svg>
