<?xml version="1.0" encoding="utf-8"?>
<!-- Generator: Adobe Illustrator 16.0.3, SVG Export Plug-In . SVG Version: 6.00 Build 0)  -->
<!DOCTYPE svg PUBLIC "-//W3C//DTD SVG 1.1//EN" "http://www.w3.org/Graphics/SVG/1.1/DTD/svg11.dtd">
<svg version="1.1" id="Calque_1" xmlns="http://www.w3.org/2000/svg" xmlns:xlink="http://www.w3.org/1999/xlink" x="0px" y="0px"
	 width="675.903px" height="97.59px" viewBox="0 0 675.903 97.59" enable-background="new 0 0 675.903 97.59" xml:space="preserve">
<circle cx="48.795" cy="48.795" r="48.795"/>
<circle cx="164.458" cy="48.795" r="48.795"/>
<circle cx="280.12" cy="48.795" r="48.795"/>
<circle cx="395.783" cy="48.795" r="48.795"/>
<circle cx="511.445" cy="48.795" r="48.795"/>
<circle cx="627.107" cy="48.795" r="48.795"/>
<path fill="#FFFFFF" d="M481.78,33.797c4.08,0,7.387,3.315,7.387,7.396c0,4.081-3.307,7.387-7.387,7.387
	c-4.082,0-7.396-3.306-7.396-7.387C474.384,37.112,477.698,33.797,481.78,33.797z"/>
<path fill="#FFFFFF" d="M539.64,54.444c-17.626,6.746-39.939,7.031-58.225,0.704l-2.086-0.704l-1.417,4.126l2.077,0.713
	c9.231,3.217,19.443,4.776,29.62,4.776c11.005,0,21.966-1.854,31.599-5.561l2.067-0.784l-1.595-4.081L539.64,54.444z"/>
<path fill="#FFFFFF" d="M541.128,34.305c4.072,0,7.379,3.297,7.379,7.378c0,4.073-3.307,7.378-7.379,7.378
	c-4.082,0-7.387-3.306-7.387-7.378C533.741,37.603,537.046,34.305,541.128,34.305z"/>
</svg>
