<?xml version="1.0" encoding="utf-8"?>
<!-- Generator: Adobe Illustrator 16.0.3, SVG Export Plug-In . SVG Version: 6.00 Build 0)  -->
<!DOCTYPE svg PUBLIC "-//W3C//DTD SVG 1.1//EN" "http://www.w3.org/Graphics/SVG/1.1/DTD/svg11.dtd">
<svg version="1.1" id="Calque_1" xmlns="http://www.w3.org/2000/svg" xmlns:xlink="http://www.w3.org/1999/xlink" x="0px" y="0px"
	 width="47.733px" height="48.064px" viewBox="0 0 47.733 48.064" enable-background="new 0 0 47.733 48.064" xml:space="preserve">
<g>
	<path fill="#020304" d="M36.675,34.874c0-1.15-0.182-2.133-0.544-2.943c-0.361-0.813-0.862-1.449-1.504-1.922
		c-0.372-0.334-0.511,6.514-9.729,7.428c-0.727,0-1.579-0.107-2.562-0.32c-2.304-0.469-5.143-1.381-6.849-3.344
		c-0.98-1.195-1.76-2.582-2.336-4.16c-0.575-1.58-0.863-3.438-0.863-5.568c0-0.213,0-0.533,0-0.96c0-0.938,0.063-1.897,0.191-2.88
		c0.427-2.986,1.163-5.313,2.208-6.977s3.146-3.016,4.641-3.439c0.597-0.213,1.259-0.32,1.983-0.32c0.938,0,1.67,0.168,2.274,0.454
		c1.388,0.705,1.591,1.433,2.189,2.552c2.851,3.229,6.574,1.375,7.32,0.631c0.836-0.775,1.513-2.972,1.513-4.42
		c0-1.108-0.463-3.136-1.019-4.072c-0.684-1.152-1.944-2.193-3.16-2.854c-1.218-0.662-2.935-1.184-5.152-1.565
		C24.552,0.063,23.839,0,23.134,0c-0.703,0-1.439,0-2.208,0c-4.14,0-7.604,0.854-10.399,2.562C7.731,4.271,5.311,6.872,3.263,10.37
		C1.088,14.035,0,18.494,0,23.742c0,0.384,0.012,0.896,0.032,1.536c0.021,0.64,0.116,1.748,0.287,3.328
		c0.47,4.139,1.621,7.68,3.456,10.623l1.151,1.729c1.877,2.561,3.937,4.383,6.177,5.471c2.239,1.09,5.259,1.635,9.057,1.635
		c0.555-0.043,1.248-0.064,2.08-0.064c0.831,0,1.482-0.043,1.951-0.129c3.584-0.555,6.433-1.791,8.544-3.711
		c2.112-1.92,3.359-4.309,3.744-7.168C36.611,36.216,36.675,35.513,36.675,34.874z"/>
	<circle fill="#020304" cx="42.693" cy="6.404" r="5.04"/>
	<circle fill="#020304" cx="42.693" cy="18.84" r="5.04"/>
</g>
<path fill="#020304" d="M32.074,22.655c-0.478-0.425-0.812-0.782-1.724-1.058c-1.797-0.402-5.396-0.443-7.835,0.84
	c-0.257,0.024-0.584,0.737-0.636,1.083l-0.073,0.557c-0.056,0.766-0.086,1.272-0.092,1.52c-0.006,0.243-0.013,0.623-0.023,1.134
	c-0.009,0.512-0.002,0.99,0.024,1.437c0.025,0.445,0.074,1.074,0.145,1.886l0.258,2.936c0.059,0.675,0.127,1.259,0.204,1.748
	c0.052,0.325,0.176,1.136,0.372,2.426c0.7,3.937,2.499,4.663,4.98,3.443c0.968-0.359,0.831-2.136-0.416-5.333l-0.259-1.079
	c-0.067-0.308-0.11-0.567-0.129-0.785c-0.04-0.443,0.044-0.808,0.25-1.092c0.208-0.284,0.657-0.652,1.353-1.109l0.27-0.186
	l0.749-0.535c1.074-0.786,1.881-1.512,2.421-2.171c0.492-0.601,0.817-1.198,0.976-1.791c0.16-0.592,0.218-1.124,0.177-1.596
	C32.948,24.262,32.818,23.147,32.074,22.655z"/>
<g>
	<circle fill="#FFFFFF" cx="25.905" cy="24.86" r="1.292"/>
</g>
<line fill="none" stroke="#000000" stroke-miterlimit="10" x1="6.82" y1="16.444" x2="42.148" y2="16.444"/>
<line fill="none" stroke="#000000" stroke-miterlimit="10" x1="6.82" y1="19.84" x2="42.148" y2="19.84"/>
<line fill="none" stroke="#000000" stroke-miterlimit="10" x1="6.82" y1="23.235" x2="24.484" y2="23.235"/>
<line fill="none" stroke="#000000" stroke-miterlimit="10" x1="6.82" y1="26.631" x2="21.715" y2="26.631"/>
<line fill="none" stroke="#000000" stroke-miterlimit="10" x1="6.82" y1="30.026" x2="24.484" y2="30.026"/>
</svg>
