<?xml version="1.0" standalone="no"?>
<!DOCTYPE svg PUBLIC "-//W3C//DTD SVG 20010904//EN" "http://www.w3.org/TR/2001/REC-SVG-20010904/DTD/svg10.dtd">
<!-- Created using Krita: http://krita.org -->
<svg xmlns="http://www.w3.org/2000/svg" 
    xmlns:xlink="http://www.w3.org/1999/xlink"
    xmlns:krita="http://krita.org/namespaces/svg/krita"
    xmlns:sodipodi="http://sodipodi.sourceforge.net/DTD/sodipodi-0.dtd"
    width="229.92pt"
    height="138pt"
    viewBox="0 0 229.92 138">
<defs/>
<path id="shape0" transform="translate(5.04, 93.6)" fill="#000000" fill-rule="evenodd" stroke="#000000" stroke-opacity="0" stroke-width="0" stroke-linecap="square" stroke-linejoin="bevel" d="M114.96 129.731L115.738 129.739L117.39 129.76L119.033 129.786L120.667 129.816L122.292 129.851L123.907 129.891L125.514 129.935L127.112 129.983L128.7 130.037L130.279 130.095L131.85 130.157L133.411 130.224L134.963 130.296L136.506 130.372L138.041 130.453L139.566 130.539L141.081 130.629L142.588 130.723L144.086 130.822L145.575 130.926L147.054 131.035L148.525 131.148L149.987 131.265L151.439 131.388L152.882 131.515L154.317 131.646L155.742 131.782L157.158 131.923L158.565 132.068L159.963 132.218L161.352 132.372L162.732 132.531L164.103 132.695L165.464 132.863L166.817 133.036L168.161 133.213L169.495 133.395L170.82 133.582L172.137 133.773L173.444 133.969L174.742 134.169L176.031 134.374L177.312 134.583L178.583 134.798L179.844 135.016L181.097 135.24L182.341 135.468L183.576 135.7L184.801 135.937L186.018 136.179L187.226 136.425L188.424 136.676L189.613 136.932L190.794 137.192L191.965 137.457L193.127 137.726L194.28 138L194.68 137.046L195.111 136.002L195.575 134.871L196.067 133.656L196.588 132.361L197.137 130.988L197.711 129.541L198.309 128.025L198.93 126.44L199.574 124.793L200.237 123.084L200.919 121.319L201.62 119.5L202.336 117.63L203.068 115.714L203.813 113.754L204.57 111.753L205.339 109.715L206.117 107.644L206.903 105.543L207.697 103.414L208.496 101.262L209.299 99.0893L210.105 96.8998L210.913 94.6968L211.721 92.4835L212.528 90.2633L213.333 88.0396L214.134 85.8156L214.93 83.5948L215.719 81.3805L216.501 79.1759L217.273 76.9846L218.035 74.8098L218.785 72.6548L219.522 70.523L220.245 68.4178L220.952 66.3424L221.641 64.3003L222.312 62.2948L222.963 60.3292L223.594 58.4069L224.201 56.5313L224.785 54.7055L225.343 52.9331L225.875 51.2174L226.379 49.5617L226.854 47.9693L227.299 46.4436L227.711 44.9879L228.09 43.6056L228.435 42.3001L228.743 41.0746L229.015 39.9326L229.248 38.8773L229.441 37.9121L229.592 37.0404L229.701 36.2655L229.766 35.5907L229.786 35.0194L229.759 34.555L229.684 34.2007L229.56 33.96L229.391 33.8332L229.129 33.7476L228.775 33.7019L228.334 33.6947L227.808 33.7247L227.201 33.7908L226.514 33.8915L225.753 34.0255L224.919 34.1917L224.016 34.3886L223.047 34.615L222.014 34.8696L220.922 35.151L219.772 35.4581L218.569 35.7894L217.315 36.1438L216.013 36.5198L214.667 36.9162L213.279 37.3318L211.853 37.7651L210.391 38.215L208.897 38.68L207.374 39.159L205.825 39.6506L204.253 40.1535L202.661 40.6665L201.052 41.1881L199.429 41.7172L197.795 42.2525L196.154 42.7926L194.509 43.3362L192.862 43.882L191.216 44.4288L189.576 44.9753L187.943 45.5201L186.321 46.0619L184.713 46.5996L183.122 47.1316L181.552 47.6569L180.004 48.174L178.483 48.6817L176.991 49.1786L175.532 49.6636L174.109 50.1352L172.724 50.5922L171.38 51.0333L170.082 51.4571L168.831 51.8625L167.632 52.248L166.486 52.6125L165.398 52.9546L164.37 53.2729L163.405 53.5663L162.507 53.8334L161.678 54.0728L160.922 54.2834L160.242 54.4639L159.64 54.6128L159.12 54.729L158.685 54.8111L158.338 54.8578L158.082 54.8679L157.92 54.84L157.806 54.7564L157.624 54.5746L157.378 54.2982L157.069 53.9309L156.7 53.4763L156.273 52.9381L155.792 52.32L155.258 51.6255L154.673 50.8584L154.04 50.0223L153.362 49.1208L152.641 48.1576L151.879 47.1363L151.079 46.0607L150.244 44.9343L149.374 43.7608L148.474 42.5438L147.545 41.2871L146.59 39.9942L145.612 38.6688L144.612 37.3146L143.593 35.9352L142.557 34.5342L141.508 33.1154L140.447 31.6823L139.376 30.2387L138.299 28.7881L137.218 27.3342L136.134 25.8807L135.051 24.4313L133.971 22.9895L132.896 21.559L131.828 20.1435L130.771 18.7467L129.726 17.3721L128.697 16.0234L127.684 14.7044L126.692 13.4186L125.721 12.1696L124.775 10.9612L123.857 9.79703L122.967 8.68067L122.11 7.61581L121.286 6.60608L120.5 5.65516L120.084 5.1613L119.969 4.98604L119.422 4.19229L118.9 3.46914L118.4 2.81657L117.924 2.23459L117.472 1.7232L117.043 1.2824L116.637 0.912194L116.255 0.612576L115.896 0.383547L115.56 0.225108L115.248 0.137259L114.96 0.120014L114.96 0.12L114.96 0.120006L114.96 0.12L114.96 0.120014L114.672 0.137259L114.36 0.225108L114.024 0.383547L113.665 0.612576L113.283 0.912194L112.877 1.2824L112.448 1.7232L111.996 2.23459L111.52 2.81657L111.02 3.46914L110.498 4.19229L109.951 4.98604L109.836 5.1613L109.42 5.65516L108.634 6.60608L107.81 7.61581L106.953 8.68067L106.063 9.79703L105.145 10.9612L104.199 12.1696L103.228 13.4186L102.236 14.7044L101.223 16.0234L100.194 17.3721L99.1488 18.7467L98.0916 20.1435L97.0243 21.559L95.9493 22.9895L94.869 24.4313L93.7859 25.8807L92.7023 27.3342L91.6207 28.7881L90.5436 30.2387L89.4732 31.6823L88.4121 33.1154L87.3626 34.5342L86.3272 35.9352L85.3083 37.3146L84.3083 38.6688L83.3296 39.9942L82.3747 41.2871L81.4459 42.5438L80.5457 43.7608L79.6764 44.9343L78.8406 46.0607L78.0406 47.1363L77.2788 48.1576L76.5577 49.1208L75.8796 50.0223L75.2471 50.8584L74.6625 51.6255L74.1281 52.32L73.6466 52.9381L73.2201 53.4763L72.8513 53.9309L72.5424 54.2982L72.296 54.5746L72.1144 54.7564L72 54.84L71.8382 54.8679L71.5822 54.8578L71.2352 54.8111L70.8001 54.729L70.2801 54.6128L69.6783 54.4639L68.9978 54.2834L68.2416 54.0728L67.4128 53.8334L66.5145 53.5663L65.5498 53.2729L64.5218 52.9546L63.4335 52.6125L62.2881 52.248L61.0886 51.8625L59.8381 51.4571L58.5397 51.0333L57.1964 50.5922L55.8114 50.1352L54.3878 49.6636L52.9286 49.1786L51.4369 48.6817L49.9158 48.174L48.3683 47.6569L46.7977 47.1316L45.2068 46.5996L43.5989 46.0619L41.9771 45.5201L40.3443 44.9753L38.7037 44.4288L37.0583 43.882L35.4113 43.3362L33.7657 42.7926L32.1247 42.2525L30.4912 41.7172L28.8685 41.1881L27.2595 40.6665L25.6673 40.1535L24.0951 39.6506L22.5459 39.159L21.0228 38.68L19.5289 38.215L18.0672 37.7651L16.641 37.3318L15.2531 36.9162L13.9068 36.5198L12.605 36.1438L11.351 35.7894L10.1477 35.4581L8.99832 35.151L7.90585 34.8696L6.8734 34.615L5.90406 34.3886L5.00091 34.1917L4.16704 34.0255L3.40552 33.8915L2.71945 33.7908L2.1119 33.7247L1.58597 33.6947L1.14472 33.7019L0.79126 33.7476L0.528657 33.8332L0.36 33.96L0.235804 34.2007L0.160926 34.555L0.134027 35.0194L0.153766 35.5907L0.218803 36.2655L0.327798 37.0404L0.479411 37.9121L0.672303 38.8773L0.905132 39.9326L1.17656 41.0746L1.48524 42.3001L1.82985 43.6056L2.20903 44.9879L2.62145 46.4436L3.06576 47.9693L3.54064 49.5617L4.04473 51.2174L4.5767 52.9331L5.13521 54.7055L5.71891 56.5313L6.32647 58.4069L6.95655 60.3292L7.60781 62.2948L8.27891 64.3003L8.9685 66.3424L9.67525 68.4178L10.3978 70.523L11.1349 72.6548L11.885 74.8098L12.647 76.9846L13.4195 79.1759L14.201 81.3805L14.9903 83.5948L15.7861 85.8156L16.587 88.0396L17.3916 90.2633L18.1986 92.4835L19.0067 94.6968L19.8146 96.8998L20.6208 99.0893L21.4242 101.262L22.2232 103.414L23.0166 105.543L23.803 107.644L24.5811 109.715L25.3496 111.753L26.1071 113.754L26.8523 115.714L27.5838 117.63L28.3004 119.5L29.0005 121.319L29.683 123.084L30.3465 124.793L30.9896 126.44L31.611 128.025L32.2093 129.541L32.7833 130.988L33.3315 132.361L33.8527 133.656L34.3455 134.871L34.8085 136.002L35.2405 137.046L35.64 138L36.7931 137.726L37.9552 137.457L39.1264 137.192L40.3067 136.932L41.4961 136.676L42.6945 136.425L43.902 136.179L45.1186 135.937L46.3442 135.7L47.5789 135.468L48.8227 135.24L50.0756 135.016L51.3375 134.798L52.6085 134.583L53.8885 134.374L55.1777 134.169L56.4759 133.969L57.7832 133.773L59.0995 133.582L60.425 133.395L61.7595 133.213L63.103 133.036L64.4557 132.863L65.8174 132.695L67.1882 132.531L68.568 132.372L69.957 132.218L71.355 132.068L72.762 131.923L74.1782 131.782L75.6034 131.646L77.0377 131.515L78.481 131.388L79.9335 131.265L81.395 131.148L82.8655 131.035L84.3452 130.926L85.8339 130.822L87.3317 130.723L88.8385 130.629L90.3544 130.539L91.8794 130.453L93.4135 130.372L94.9567 130.296L96.5089 130.224L98.0702 130.157L99.6405 130.095L101.22 130.037L102.808 129.983L104.406 129.935L106.013 129.891L107.628 129.851L109.253 129.816L110.887 129.786L112.53 129.76L114.182 129.739L114.96 129.731"/><circle id="shape2" transform="translate(43.2, 190.000000024416)" r="6.84" cx="6.84" cy="6.84" fill="#ffffff" fill-rule="evenodd" stroke="#000000" stroke-opacity="0" stroke-width="0" stroke-linecap="square" stroke-linejoin="bevel"/><circle id="shape4" transform="matrix(-1 0 0 1 196.8 190.000000024416)" r="6.84" cx="6.84" cy="6.84" fill="#ffffff" fill-rule="evenodd" stroke="#000000" stroke-opacity="0" stroke-width="0" stroke-linecap="square" stroke-linejoin="bevel"/><path id="shape1" transform="translate(5.04, 93.6)" fill="#ffffff" fill-rule="evenodd" stroke="#000000" stroke-opacity="0" stroke-width="0" stroke-linecap="square" stroke-linejoin="bevel" d="M197.28 111.64L196.569 111.719L195.823 111.803L195.043 111.89L194.23 111.982L193.383 112.078L192.502 112.177L191.588 112.279L190.641 112.385L189.661 112.493L188.648 112.605L187.603 112.718L186.526 112.835L185.417 112.953L184.276 113.073L183.103 113.195L181.899 113.318L180.664 113.442L179.397 113.568L178.1 113.694L176.772 113.821L175.414 113.949L174.026 114.077L172.607 114.204L171.159 114.332L169.681 114.459L168.174 114.585L166.637 114.711L165.072 114.836L163.478 114.959L161.855 115.081L160.204 115.201L158.525 115.32L156.817 115.436L155.082 115.55L153.32 115.662L151.53 115.77L149.712 115.876L147.868 115.979L145.997 116.078L144.1 116.174L142.176 116.267L140.226 116.355L138.251 116.439L136.249 116.518L134.222 116.593L132.169 116.664L130.092 116.729L127.989 116.789L125.862 116.843L123.71 116.892L121.534 116.935L119.334 116.972L117.11 117.003L114.96 117.026L112.81 117.003L110.586 116.972L108.386 116.935L106.21 116.892L104.058 116.843L101.931 116.789L99.8281 116.729L97.7506 116.664L95.6982 116.593L93.6711 116.518L91.6695 116.439L89.6936 116.355L87.7437 116.267L85.82 116.174L83.9226 116.078L82.0517 115.979L80.2076 115.876L78.3904 115.77L76.6004 115.662L74.8378 115.55L73.1027 115.436L71.3954 115.32L69.7161 115.201L68.0649 115.081L66.4421 114.959L64.8479 114.836L63.2825 114.711L61.7461 114.585L60.2388 114.459L58.761 114.332L57.3128 114.204L55.8943 114.077L54.5059 113.949L53.1476 113.821L51.8198 113.694L50.5226 113.568L49.2562 113.442L48.0209 113.318L46.8167 113.195L45.644 113.073L44.5029 112.953L43.3937 112.835L42.3165 112.718L41.2715 112.605L40.259 112.493L39.2792 112.385L38.3322 112.279L37.4182 112.177L36.5375 112.078L35.6903 111.982L34.8767 111.89L34.097 111.803L33.3514 111.719L32.64 111.64L32.6633 111.747L32.7804 111.867L32.9889 112L33.2865 112.145L33.6709 112.301L34.1397 112.468L34.6906 112.646L35.3213 112.833L36.0294 113.03L36.8127 113.236L37.6686 113.45L38.595 113.672L39.5895 113.901L40.6498 114.137L41.7735 114.379L42.9583 114.626L44.2019 114.879L45.5018 115.136L46.8559 115.397L48.2618 115.661L49.717 115.929L51.2194 116.198L52.7665 116.47L54.356 116.743L55.9857 117.017L57.653 117.291L59.3558 117.564L61.0917 117.837L62.8584 118.108L64.6535 118.378L66.4746 118.645L68.3195 118.909L70.1859 119.169L72.0713 119.426L73.9735 119.678L75.89 119.924L77.8187 120.166L79.7571 120.4L81.703 120.628L83.6539 120.849L85.6076 121.062L87.5616 121.267L89.5138 121.462L91.4617 121.649L93.4031 121.825L95.3355 121.991L97.2566 122.145L99.1642 122.289L101.056 122.42L102.929 122.538L104.782 122.643L105.292 122.669L105.36 122.68L106.784 122.775L108.256 122.851L109.774 122.907L111.337 122.945L112.941 122.964L114.584 122.967L114.96 122.963L115.336 122.967L116.979 122.964L118.583 122.945L120.146 122.907L121.664 122.851L123.136 122.775L124.56 122.68L124.628 122.669L125.138 122.643L126.991 122.538L128.864 122.42L130.756 122.289L132.663 122.145L134.585 121.991L136.517 121.825L138.458 121.649L140.406 121.462L142.358 121.267L144.312 121.062L146.266 120.849L148.217 120.628L150.163 120.4L152.101 120.166L154.03 119.924L155.947 119.678L157.849 119.426L159.734 119.169L161.6 118.909L163.445 118.645L165.267 118.378L167.062 118.108L168.828 117.837L170.564 117.564L172.267 117.291L173.934 117.017L175.564 116.743L177.154 116.47L178.701 116.198L180.203 115.929L181.658 115.661L183.064 115.397L184.418 115.136L185.718 114.879L186.962 114.626L188.146 114.379L189.27 114.137L190.33 113.901L191.325 113.672L192.251 113.45L193.107 113.236L193.891 113.03L194.599 112.833L195.229 112.646L195.78 112.468L196.249 112.301L196.633 112.145L196.931 112L197.14 111.867L197.257 111.747L197.28 111.64"/>
</svg>
