<?xml version="1.0" standalone="no"?>
<!DOCTYPE svg PUBLIC "-//W3C//DTD SVG 20010904//EN" "http://www.w3.org/TR/2001/REC-SVG-20010904/DTD/svg10.dtd">
<!-- Created using Krita: http://krita.org -->
<svg xmlns="http://www.w3.org/2000/svg" 
    xmlns:xlink="http://www.w3.org/1999/xlink"
    xmlns:krita="http://krita.org/namespaces/svg/krita"
    xmlns:sodipodi="http://sodipodi.sourceforge.net/DTD/sodipodi-0.dtd"
    width="240pt"
    height="240pt"
    viewBox="0 0 240 240">
<defs/>
<path id="shape0" transform="matrix(1.0961089890512 0 0 1.09584721715608 19.8267228454332 119.705561427214)" fill="#000000" fill-rule="evenodd" stroke="#000000" stroke-opacity="0" stroke-width="0" stroke-linecap="square" stroke-linejoin="bevel" d="M59.9436 96.2305C6.91772 135.145 -28.423 11.961 30.7799 5.96341C34.5184 1.52154 38.5204 -1.63668 43.2894 0.908982C53.0247 0.399831 75.2141 88.1856 71.0529 91.7782C68.1985 96.317 64.4954 97.8011 59.9436 96.2305Z"/><path id="shape1" transform="matrix(-1.0961089890512 0 0 1.09584721715608 219.719434526856 119.705561427214)" fill="#000000" fill-rule="evenodd" stroke="#000000" stroke-opacity="0" stroke-width="0" stroke-linecap="square" stroke-linejoin="bevel" d="M59.9436 96.2305C6.91772 135.145 -28.423 11.961 30.7799 5.96341C34.5184 1.52154 38.5204 -1.63668 43.2894 0.908982C53.0247 0.399831 75.2141 88.1856 71.0529 91.7782C68.1985 96.317 64.4954 97.8011 59.9436 96.2305Z"/><path id="shape01" transform="matrix(1.0961089890512 0 0 1.09584721715608 18.6914309650416 4.63075963825516)" fill="#000000" fill-rule="evenodd" stroke="#000000" stroke-opacity="0" stroke-width="0" stroke-linecap="square" stroke-linejoin="bevel" d="M32.2502 116.373L26.382 99.3368C23.0424 96.7118 22.7188 93.4481 22.3735 90.1437C17.7652 58.0466 58.4604 15.9925 98.5726 20.3126L104.787 11.8032L99.1131 0.25477C43.1909 -4.04954 -5.36113 46.9483 0.477621 95.5526C1.49992 99.9454 1.52314 103.32 0.50441 105.919L7.06545 129.51C14.9969 126.127 23.3918 121.748 32.2502 116.373Z"/><path id="shape11" transform="matrix(-1.0961089890512 0 0 1.09584721715608 221.022192075162 4.63075963825515)" fill="#000000" fill-rule="evenodd" stroke="#000000" stroke-opacity="0" stroke-width="0" stroke-linecap="square" stroke-linejoin="bevel" d="M32.2502 116.373L26.382 99.3368C23.0424 96.7118 22.7188 93.4481 22.3735 90.1437C17.7652 58.0466 58.6532 15.9678 98.5726 20.3126L104.787 11.8032L99.1131 0.25477C43.1909 -4.04954 -5.36113 46.9483 0.477621 95.5526C1.49992 99.9454 1.52314 103.32 0.50441 105.919L7.06545 129.51C14.9969 126.127 23.3918 121.748 32.2502 116.373Z"/><ellipse id="shape02" transform="matrix(1.0961089890512 0 0 1.09584721715608 23.192862449005 172.287955985208)" rx="4.23720298837662" ry="4.11950290536615" cx="4.23720298837662" cy="4.11950290536615" fill="#ffffff" fill-rule="evenodd" stroke="#000000" stroke-opacity="0" stroke-width="0" stroke-linecap="square" stroke-linejoin="bevel"/><ellipse id="shape03" transform="matrix(1.09610896698077 0 0 1.09584719509092 56.0887673370958 155.766516812697)" rx="4.23720298837662" ry="4.11950290536615" cx="4.23720298837662" cy="4.11950290536615" fill="#ffffff" fill-rule="evenodd" stroke="#000000" stroke-opacity="0" stroke-width="0" stroke-linecap="square" stroke-linejoin="bevel"/><path id="shape12" transform="matrix(1.0961089890512 0 0 1.09584721715608 27.8241223631926 167.86268116636)" fill="#ffffff" fill-rule="evenodd" stroke="#000000" stroke-opacity="0" stroke-width="0" stroke-linecap="square" stroke-linejoin="bevel" d="M0 15.8198C7.05061 14.5247 27.4522 5.22943 33.9182 0C32.377 7.83574 8.03735 18.0725 0 15.8198Z"/><ellipse id="shape01" transform="matrix(-0.954000483403653 -0.539628365920595 0.539757270331537 -0.953772649751175 192.159336866921 222.640022457356)" rx="4.23720298837662" ry="4.11950290536615" cx="4.23720298837662" cy="4.11950290536615" fill="#ffffff" fill-rule="evenodd" stroke="#000000" stroke-opacity="0" stroke-width="0" stroke-linecap="square" stroke-linejoin="bevel"/><path id="shape02" transform="matrix(-0.95400050261271 -0.539628376786158 0.539757281199696 -0.953772668955644 205.683227809965 214.548665724826)" fill="#ffffff" fill-rule="evenodd" stroke="#000000" stroke-opacity="0" stroke-width="0" stroke-linecap="square" stroke-linejoin="bevel" d="M0 11.0351C9.85455 8.54497 12.3392 5.22943 18.8052 0C15.1997 8.38098 2.84291 12.7041 0 11.0351Z"/>
</svg>
