<?xml version="1.0" standalone="no"?>
<!DOCTYPE svg PUBLIC "-//W3C//DTD SVG 20010904//EN" "http://www.w3.org/TR/2001/REC-SVG-20010904/DTD/svg10.dtd">
<!-- Created using Krita: http://krita.org -->
<svg xmlns="http://www.w3.org/2000/svg" 
    xmlns:xlink="http://www.w3.org/1999/xlink"
    xmlns:krita="http://krita.org/namespaces/svg/krita"
    xmlns:sodipodi="http://sodipodi.sourceforge.net/DTD/sodipodi-0.dtd"
    width="222.24pt"
    height="115.2pt"
    viewBox="0 0 222.24 115.2">
<defs/>
<path id="shape0" transform="matrix(1.14840754799778 0 0 1.14840754497458 38.861572138442 0.149543236378801)" fill="#000000" fill-rule="evenodd" d="M32.1964 52.072L17.8604 52.072L16.8364 51.912L16.0684 51.816L14.3404 51.56L12.4524 51.0943L10.8844 50.5503L9.63635 49.928L8.06835 48.656L6.62835 46.824L6.02635 45.7L5.59635 44.44L5.33835 43.044L5.25235 41.512L5.31635 40.104L5.50835 38.824L5.92435 37.348L6.59635 35.928L7.52435 34.564L8.70835 33.256L9.71815 32.3707L10.8275 31.5494L12.0364 30.792L13.3448 30.0987L14.7528 29.4694L16.2604 28.904L17.8444 28.456L18.7564 28.264L19.7004 28.072L20.1004 28.008L20.4044 27.928L20.6764 27.816L21.1244 26.92L21.6364 25.768L21.5884 25.4L21.3164 24.808L20.9164 24.12L20.4844 23.464L19.3324 22.6L17.5404 22.312L16.0524 22.472L14.4044 22.952L13.1164 23.776L12.0684 24.968L11.1964 26L10.4364 26.344L9.46835 25.984L7.97235 24.904L6.65235 23.312L6.21235 21.416L6.44705 19.9298L7.15105 18.5432L8.32435 17.256L9.26835 16.548L10.4364 15.896L11.8284 15.3L13.4444 14.76L14.5004 14.488L15.6204 14.312L16.8364 14.216L18.1804 14.184L20.1601 14.246L22.0033 14.4321L23.71 14.7421L25.2801 15.1762L26.7137 15.7343L28.0108 16.4164L29.1713 17.2225L30.1953 18.1526L31.0828 19.2068L31.8337 20.3849L32.4481 21.6871L32.926 23.1133L33.2673 24.6635L33.4721 26.3378L33.5404 28.136L33.6684 30.696L33.6684 36.328L33.7324 40.808L33.7324 45.736L33.6684 50.792L33.1404 51.752L32.1964 52.072M17.7964 41.256L18.2204 42.592L18.8524 43.528L19.6444 44.08L20.5484 44.264L21.5324 44.04L21.9244 43.368L22.0204 42.536L22.1164 41.832L22.1884 41.144L22.2124 40.36L22.2124 38.76L22.1324 37.432L21.8924 36.52L21.3644 35.992L20.4204 35.816L19.9484 35.888L19.4284 36.104L18.8684 36.584L18.2764 37.448L17.8204 38.608L17.6684 39.976L17.7004 40.488L17.7964 41.256M82.7541 22.464L81.4101 22.848L81.0421 22.192L80.7061 21.632L80.3221 21.104L79.8101 20.544L78.2581 19.392L76.5461 19.008L74.8751 19.3493L73.3601 20.3733L72.0021 22.08L71.2901 23.504L70.8181 25.216L70.6231 26.5316L70.5051 28.0036L70.4661 29.632L70.5191 31.0489L70.6761 32.3556L70.9381 33.552L71.3051 34.6382L71.7771 35.6142L72.3541 36.48L73.3721 37.544L74.5381 38.304L75.8521 38.76L77.3141 38.912L78.6421 38.8L79.9381 38.464L81.4741 37.7813L82.9251 36.672L84.2901 35.136L84.9941 34.048L86.3861 35.232L86.8501 37.504L86.8021 38.752L86.6581 40.192L86.3241 41.7178L85.7831 43.1206L85.0341 44.4006L84.0781 45.5578L82.9141 46.592L81.9681 47.2372L80.9391 47.7832L79.8291 48.2299L78.6351 48.5773L77.3601 48.8255L76.0021 48.9744L74.5621 49.024L73.4101 49.024L72.6901 48.928L72.1941 48.896L70.8831 48.7227L69.6381 48.4587L68.4581 48.104L67.3441 47.6587L66.2961 47.1227L65.3141 46.496L64.2021 45.6115L63.1431 44.5709L62.1391 43.3741L61.1881 42.0211L60.2901 40.512L59.8554 39.63L59.4784 38.68L59.1594 37.662L58.8984 36.576L58.6954 35.422L58.5504 34.2L58.4634 32.91L58.4344 31.552L58.453 30.5458L58.509 29.4898L58.6024 28.384L58.733 27.2284L58.901 26.0231L59.1064 24.768L59.365 23.5129L59.693 22.3076L60.0904 21.152L60.5571 20.0462L61.0931 18.9902L61.6981 17.984L62.6121 16.713L63.5941 15.556L64.6441 14.513L65.7621 13.584L66.9481 12.769L68.2021 12.068L69.5241 11.481L70.9141 11.008L72.3341 10.644L73.7141 10.384L75.0541 10.228L76.3541 10.176L77.9401 10.2518L79.4051 10.479L80.7511 10.8578L81.9761 11.3881L83.0811 12.0699L84.0661 12.9032L84.9301 13.888L85.9381 15.744L86.2741 17.6L86.0421 19.128L85.3461 20.512L84.2341 21.656L82.7541 22.464M93.6981 2.176L94.0981 0.544L94.6581 0L104.322 0L105.434 0.056L106.082 0.224L106.394 0.616L106.498 1.344L106.498 1.984L106.402 2.448L106.37 2.816L105.538 5.632L105.346 6.272L104.848 8.56178L104.55 10.1404L104.45 11.008L104.626 11.584L105.154 11.776L105.69 11.744L106.402 11.648L107.178 11.488L107.906 11.264L109.098 10.792L110.114 10.4L111.146 10.136L112.386 10.048L113.25 10.096L114.178 10.24L115.555 10.603L116.806 11.18L117.931 11.971L118.93 12.976L119.803 14.195L120.55 15.628L121.171 17.275L121.666 19.136L121.914 20.48L122.146 22.08L122.271 23.3173L122.345 24.7253L122.37 26.304L122.434 27.456L122.434 28.288L122.37 31.36L122.356 32.8889L122.313 34.2329L122.242 35.392L122.143 36.544L122.015 37.8667L121.858 39.36L121.794 39.616L121.282 43.2L120.89 45.512L120.482 46.944L120.042 47.688L119.554 47.936L109.058 47.936L108.338 47.616L108.098 46.656L108.198 45.6533L108.496 44.096L108.994 41.984L109.21 40.856L109.474 39.008L109.663 37.5609L109.844 36.1636L110.018 34.816L110.146 33.024L110.274 31.744L110.402 28.48L110.402 25.088L110.418 23.936L110.466 23.168L110.33 22.112L110.178 21.248L109.978 20.512L109.698 19.84L108.818 18.736L107.586 18.368L106.938 18.472L106.274 18.784L105.634 19.312L105.058 20.064L104.65 20.984L104.514 22.016L104.13 25.408L104.13 25.984L103.874 29.824L103.938 33.088L104.002 34.944L104.13 36.352L104.162 38.064L104.258 39.616L104.426 41.16L104.674 42.848L104.89 44.456L104.962 45.76L104.89 46.792L104.674 47.456L104.298 47.816L103.746 47.936L93.0581 47.936L92.6501 47.608L92.3221 46.624L92.0821 45.336L91.9381 44.096L91.8581 42.536L91.8101 40.288L91.7921 38.6133L91.7821 37.0453L91.7781 35.584L91.7781 27.84L92.0981 20.032L92.1051 18.7128L92.1241 17.4616L92.1571 16.2782L92.2031 15.1628L92.2621 14.1153L92.3331 13.1357L92.4181 12.224L92.5791 11.0171L92.7321 9.84686L92.8771 8.71314L93.0141 7.616L93.1431 6.55543L93.2651 5.53143L93.3781 4.544L93.6981 2.176M127.306 13.76L127.61 12.384L127.882 11.584L128.17 11.2L128.522 11.072L138.634 11.072L139.29 11.256L139.722 11.808L139.962 12.888L140.042 14.656L140.042 16.448L139.978 18.112L139.978 19.584L140.058 20.672L140.298 22.656L140.49 24.064L140.938 27.328L141.362 29.536L141.866 31.04L142.498 32L143.306 32.576L144.378 32.672L145.162 32.064L145.994 30.144L146.698 27.712L146.826 27.264L147.21 25.024L147.462 23.4L147.642 21.92L147.75 20.584L147.786 19.392L147.786 18.368L147.69 17.808L147.658 17.408L147.21 12.608L147.298 11.976L147.562 11.488L147.97 11.176L148.49 11.072L158.538 11.072L158.938 11.36L159.242 12.224L159.434 13.456L159.498 14.848L159.45 16.656L159.306 18.368L159.13 19.856L158.986 20.992L157.834 28.544L157.77 29.12L157.536 30.2028L157.274 31.2934L156.983 32.3918L156.663 33.4981L156.314 34.6122L155.936 35.7342L155.53 36.864L153.994 40.384L153.335 41.7208L152.672 42.9884L152.008 44.1868L151.34 45.3159L150.67 46.3758L149.998 47.3665L149.322 48.288L148.09 49.794L146.762 51.208L145.338 52.53L143.818 53.76L142.321 54.8622L140.817 55.8649L139.306 56.768L137.282 57.808L135.754 58.368L134.199 58.7787L132.817 59.1147L131.61 59.376L130.577 59.5627L129.964 59.6747L129.28 59.712L128.008 59.488L127.264 58.816L126.658 57.552L126.538 55.552L126.53 54.848L126.482 53.44L126.474 52.736L126.522 50.784L126.666 49.92L127.338 49.584L128.842 49.472L131.274 49.472L133.274 49.264L134.922 48.64L136.629 47.4169L137.653 46.0516L137.994 44.544L137.864 43.5072L137.472 42.3424L136.819 41.0496L135.905 39.6288L134.73 38.08L133.696 36.7324L132.81 35.4204L132.074 34.144L131.653 33.3005L131.183 32.2803L130.665 31.0835L130.098 29.7101L129.482 28.16L128.842 26.424L128.33 24.672L127.93 22.872L127.626 20.992L127.418 19.224L127.306 17.76L127.258 16.456L127.242 15.168L127.258 14.24L127.306 13.76M26.944 95.6443L12.608 95.6443L11.584 95.4843L10.816 95.3883L9.088 95.1323L7.2 94.6665L5.632 94.1225L4.384 93.5003L2.816 92.2283L1.376 90.3963L0.774 89.2723L0.344 88.0123L0.086 86.6163L0 85.0843L0.064 83.6763L0.256 82.3963L0.672 80.9203L1.344 79.5003L2.272 78.1363L3.456 76.8283L4.4658 75.9429L5.5751 75.1216L6.784 74.3643L8.0924 73.6709L9.5004 73.0416L11.008 72.4763L12.592 72.0283L13.504 71.8363L14.448 71.6443L14.848 71.5803L15.152 71.5003L15.424 71.3883L15.872 70.4923L16.384 69.3403L16.336 68.9723L16.064 68.3803L15.664 67.6923L15.232 67.0363L14.08 66.1723L12.288 65.8843L10.8 66.0443L9.152 66.5243L7.864 67.3483L6.816 68.5403L5.944 69.5723L5.184 69.9163L4.216 69.5563L2.72 68.4763L1.4 66.8843L0.96 64.9883L1.1947 63.5021L1.8987 62.1154L3.072 60.8283L4.016 60.1203L5.184 59.4683L6.576 58.8723L8.192 58.3323L9.248 58.0603L10.368 57.8843L11.584 57.7883L12.928 57.7563L14.9077 57.8183L16.7509 58.0043L18.4576 58.3144L20.0277 58.7484L21.4613 59.3065L22.7584 59.9886L23.9189 60.7947L24.9429 61.7248L25.8304 62.779L26.5813 63.9572L27.1957 65.2594L27.6736 66.6856L28.0149 68.2358L28.2197 69.91L28.288 71.7083L28.416 74.2683L28.416 79.9003L28.48 84.3803L28.48 89.3083L28.416 94.3643L27.888 95.3243L26.944 95.6443M12.544 84.8283L12.968 86.1643L13.6 87.1003L14.392 87.6523L15.296 87.8363L16.28 87.6123L16.672 86.9403L16.768 86.1083L16.864 85.4043L16.936 84.7163L16.96 83.9323L16.96 82.3323L16.88 81.0043L16.64 80.0923L16.112 79.5643L15.168 79.3883L14.696 79.4603L14.176 79.6763L13.616 80.1563L13.024 81.0203L12.568 82.1803L12.416 83.5483L12.448 84.0603L12.544 84.8283M35.2869 58.888L35.6709 58.696L36.0549 58.632L45.6549 58.632L45.9429 58.888L46.1669 59.144L46.4389 59.848L46.7429 60.936L46.8869 61.368L47.1909 61.64L47.5589 61.752L47.8949 61.704L48.4149 61.328L48.9509 60.84L49.6469 60.08L50.6469 58.888L51.0709 58.432L51.5749 58.088L52.1509 57.848L52.7909 57.704L53.4229 57.632L53.9749 57.608L55.4469 57.8L56.7909 58.376L58.0069 59.336L59.0469 60.632L59.5121 61.7896L59.5109 61.768L59.8263 64.9735L59.7242 65.8889L59.1162 67.4142L58.1029 68.648L56.4629 69.872L55.1909 70.28L54.8869 70.216L54.6149 70.024L54.2949 68.68L53.4629 67L51.9909 66.44L50.9349 66.632L49.8149 67.208L48.8016 68.168L48.0656 69.512L47.6069 71.24L47.5157 71.8723L47.4341 72.6173L47.3621 73.4749L47.2997 74.4451L47.2469 75.528L47.2037 76.7235L47.1701 78.0317L47.1461 79.4525L47.1317 80.9859L47.1269 82.632L47.1909 83.336L48.8549 94.536L48.8069 95.256L48.1509 95.496L36.6309 95.496L36.3429 95.384L36.1189 95.048L35.9269 94.28L35.7349 92.872L35.4789 90.44L35.4149 90.056L35.0949 86.024L34.9669 83.976L34.8389 82.056L34.6469 77.896L34.6449 76.7656L34.6391 75.6416L34.6293 74.5242L34.6155 73.4134L34.5979 72.3091L34.5764 71.2113L34.5509 70.12L34.4976 67.9404L34.4656 66.4791L34.4549 65.736L34.4629 63.69L34.4869 62.096L34.5269 60.954L34.5829 60.264L34.8229 59.456L35.2869 58.888M90.2644 54.112L90.5684 52.736L90.8404 51.936L91.1284 51.552L91.4804 51.424L101.592 51.424L102.248 51.608L102.68 52.16L102.92 53.24L103 55.008L103 56.8L102.936 58.464L102.936 59.936L103.016 61.024L103.256 63.008L103.448 64.416L103.896 67.68L104.32 69.888L104.824 71.392L105.456 72.352L106.264 72.928L107.336 73.024L108.12 72.416L108.952 70.496L109.656 68.064L109.784 67.616L110.168 65.376L110.42 63.752L110.6 62.272L110.708 60.936L110.744 59.744L110.744 58.72L110.648 58.16L110.616 57.76L110.168 52.96L110.256 52.328L110.52 51.84L110.928 51.528L111.448 51.424L121.496 51.424L121.896 51.712L122.2 52.576L122.392 53.808L122.456 55.2L122.408 57.008L122.264 58.72L122.088 60.208L121.944 61.344L120.792 68.896L120.728 69.472L120.494 70.5548L120.232 71.6454L119.941 72.7438L119.621 73.8501L119.272 74.9642L118.894 76.0862L118.488 77.216L116.952 80.736L116.293 82.0728L115.63 83.3404L114.966 84.5388L114.298 85.6679L113.628 86.7278L112.956 87.7185L112.28 88.64L111.048 90.146L109.72 91.56L108.296 92.882L106.776 94.112L105.279 95.2142L103.775 96.2169L102.264 97.12L100.24 98.16L98.7124 98.72L97.1574 99.1307L95.7754 99.4667L94.5684 99.728L93.5354 99.9147L92.6774 100.027L91.9924 100.064L90.7204 99.84L89.9764 99.168L89.6164 97.904L89.4964 95.904L89.4884 95.2L89.4404 93.792L89.4324 93.088L89.4804 91.136L89.6244 90.272L90.2964 89.936L91.8004 89.824L94.2324 89.824L96.2324 89.616L97.8804 88.992L99.5874 87.7689L100.611 86.4036L100.952 84.896L100.822 83.8592L100.43 82.6944L99.7774 81.4016L98.8634 79.9808L97.6884 78.432L96.6544 77.0844L95.7684 75.7724L95.0324 74.496L94.6114 73.6525L94.1414 72.6323L93.6234 71.4355L93.0564 70.0621L92.4404 68.512L91.8004 66.776L91.2884 65.024L90.8884 63.224L90.5844 61.344L90.3764 59.576L90.2644 58.112L90.2164 56.808L90.2004 55.52L90.2164 54.592L90.2644 54.112"/><path id="shape1" transform="matrix(1.14740236721566 -0.0480385677764354 0.0480385679028973 1.14740236419512 78.4045530625796 5.76472120751333)" fill="#000000" fill-rule="evenodd" d="M4.608 10.368L5.12 10.432L5.312 9.024C5.61067 6.592 6.048 5.0027 6.624 4.256C7.2 3.5093 8.59733 2.7733 10.816 2.048L13.888 0.896C15.1253 0.4267 16.2347 0.128 17.216 0C17.7707 0 18.1973 0.1173 18.496 0.352C18.7947 0.5867 18.9013 0.8747 18.816 1.216L18.176 3.328C17.8347 3.968 17.5893 4.736 17.44 5.632C17.2907 6.528 17.216 7.3387 17.216 8.064C17.216 8.7893 17.28 9.5147 17.408 10.24L18.944 10.304C20.096 10.304 20.9387 10.4427 21.472 10.72C22.0053 10.9973 22.3147 11.4133 22.4 11.968L22.016 13.952C21.632 15.616 21.3973 16.4907 21.312 16.576C21.2693 16.6187 20.5333 16.704 19.104 16.832C17.6747 16.96 16.8427 17.2053 16.608 17.568C16.3733 17.9307 16.256 18.9867 16.256 20.736C16.256 21.5467 16.256 22.4427 16.256 23.424C16.256 24.4053 16.2773 25.472 16.32 26.624L16.576 29.632C16.832 31.68 17.0987 33.2907 17.376 34.464C17.6533 35.6373 17.9413 36.5867 18.24 37.312L20.032 41.664C20.2453 42.0053 20.1813 42.3893 19.84 42.816C19.3707 43.4133 18.4107 44.16 16.96 45.056L15.808 45.696L13.184 47.04C11.8187 47.7227 10.7733 48.064 10.048 48.064C8.98133 48.064 8.10667 47.3813 7.424 46.016C6.74133 44.6507 6.08 42.24 5.44 38.784C5.22667 37.632 5.03467 36.16 4.864 34.368C4.69333 32.576 4.608 30.464 4.608 28.032L4.608 23.168C4.608 22.4853 4.608 21.8027 4.608 21.12C4.608 20.4373 4.62933 19.7547 4.672 19.072C4.672 18.6453 4.62933 18.3253 4.544 18.112C4.50133 17.9413 4.34133 17.6747 4.064 17.312C3.78667 16.9493 3.41333 16.768 2.944 16.768C2.26133 16.768 1.42933 17.1307 0.448 17.856L0.064 14.72L0 13.568C0.213333 12.0747 0.565333 11.168 1.056 10.848C1.54667 10.528 2.73067 10.368 4.608 10.368"/><path id="shape2" transform="matrix(-1.1347429010561 0.176630814516557 0.176630814981539 1.13474289806888 133.672769810943 56.057847507227)" fill="#000000" fill-rule="evenodd" d="M4.608 10.368L5.12 10.432L5.312 9.024C5.61067 6.592 6.048 5.0027 6.624 4.256C7.2 3.5093 8.59733 2.7733 10.816 2.048L13.888 0.896C15.1253 0.4267 16.2347 0.128 17.216 0C17.7707 0 18.1973 0.1173 18.496 0.352C18.7947 0.5867 18.9013 0.8747 18.816 1.216L18.176 3.328C17.8347 3.968 17.5893 4.736 17.44 5.632C17.2907 6.528 17.216 7.3387 17.216 8.064C17.216 8.7893 17.28 9.5147 17.408 10.24L18.944 10.304C20.096 10.304 20.9387 10.4427 21.472 10.72C22.0053 10.9973 22.3147 11.4133 22.4 11.968L22.016 13.952C21.632 15.616 21.3973 16.4907 21.312 16.576C21.2693 16.6187 20.5333 16.704 19.104 16.832C17.6747 16.96 16.8427 17.2053 16.608 17.568C16.3733 17.9307 16.256 18.9867 16.256 20.736C16.256 21.5467 16.256 22.4427 16.256 23.424C16.256 24.4053 16.2773 25.472 16.32 26.624L16.576 29.632C16.832 31.68 17.0987 33.2907 17.376 34.464C17.6533 35.6373 17.9413 36.5867 18.24 37.312L20.032 41.664C20.2453 42.0053 20.1813 42.3893 19.84 42.816C19.3707 43.4133 18.4107 44.16 16.96 45.056L15.808 45.696L13.184 47.04C11.8187 47.7227 10.7733 48.064 10.048 48.064C8.98133 48.064 8.10667 47.3813 7.424 46.016C6.74133 44.6507 6.08 42.24 5.44 38.784C5.22667 37.632 5.03467 36.16 4.864 34.368C4.69333 32.576 4.608 30.464 4.608 28.032L4.608 23.168C4.608 22.4853 4.608 21.8027 4.608 21.12C4.608 20.4373 4.62933 19.7547 4.672 19.072C4.672 18.6453 4.62933 18.3253 4.544 18.112C4.50133 17.9413 4.34133 17.6747 4.064 17.312C3.78667 16.9493 3.41333 16.768 2.944 16.768C2.26133 16.768 1.42933 17.1307 0.448 17.856L0.064 14.72L0 13.568C0.213333 12.0747 0.565333 11.168 1.056 10.848C1.54667 10.528 2.73067 10.368 4.608 10.368"/><path id="shape01" transform="matrix(1.14840748689296 0 0 1.14840748386977 0.122968033057523 1.14451485161391)" fill="#000000" fill-rule="evenodd" d="M34.624 30.016C35.264 30.4853 35.7653 31.1253 36.128 31.936C36.4907 32.7467 36.672 33.728 36.672 34.88C36.672 35.52 36.608 36.224 36.48 36.992C36.096 39.8507 34.848 42.24 32.736 44.16C30.624 46.08 27.776 47.3173 24.192 47.872C23.7227 47.9573 23.072 48 22.24 48C21.408 48 20.7147 48.0213 20.16 48.064C16.3627 48.064 13.344 47.52 11.104 46.432C8.864 45.344 6.80533 43.52 4.928 40.96L3.776 39.232C1.94133 36.288 0.789333 32.7467 0.32 28.608C0.149333 27.0293 0.0533333 25.92 0.032 25.28C0.0106667 24.64 0 24.128 0 23.744C0 18.496 1.088 14.0373 3.264 10.368C5.312 6.86933 7.73333 4.26667 10.528 2.56C13.3227 0.853333 16.7893 0 20.928 0C21.696 0 22.432 0 23.136 0C23.84 0 24.5547 0.064 25.28 0.192C27.4987 0.576 29.216 1.09867 30.432 1.76C31.648 2.42133 32.9102 3.46197 33.5929 4.61397C34.1476 5.55263 34.6111 7.57757 34.6111 8.6869C34.6111 10.1376 33.934 12.3313 33.098 13.106C32.352 13.8507 28.628 15.706 25.778 12.476C25.178 11.356 24.974 10.6313 23.588 9.92601C22.982 9.64067 22.2507 9.472 21.312 9.472C20.5867 9.472 19.9253 9.57867 19.328 9.792C17.8347 10.2187 15.7333 11.568 14.688 13.232C13.6427 14.896 12.9067 17.2213 12.48 20.208C12.352 21.1893 12.288 22.1493 12.288 23.088C12.288 23.5147 12.288 23.8347 12.288 24.048C12.288 26.1813 12.576 28.0373 13.152 29.616C13.728 31.1947 14.5067 32.5813 15.488 33.776C17.1947 35.7387 20.032 36.6507 22.336 37.12C23.3173 37.3333 24.1707 37.44 24.896 37.44C34.1128 36.5257 34.252 29.6807 34.624 30.016Z"/><path id="shape02" transform="matrix(2.41317974448428 -0.211669908954684 0.211669909511907 2.41317973813157 3.47183536790114 59.6284146614475)" fill="#000000" fill-rule="evenodd" d="M0.691947 2.00643C0.787388 1.60876 1.24417 0.80568 1.5464 0.80568C4.52893 -0.443337 8.73445 -0.026986 10.7951 0.62726C11.8325 1.0436 12.187 1.49536 12.7017 2.04077C13.5206 2.69295 13.558 4.01027 13.6242 4.79808C13.6242 5.35482 13.5009 5.97121 13.2544 6.64725C13.0078 7.32329 12.5664 7.9874 11.9301 8.63958C11.2302 9.35538 10.2122 10.1189 8.87601 10.9302L7.94546 11.4789L7.61141 11.6698C6.75245 12.1311 6.18775 12.5169 5.91734 12.827C5.64692 13.1372 5.51171 13.5548 5.51171 14.0797C5.51171 14.3342 5.53557 14.6444 5.58329 15.0103L5.77418 16.2987C6.90399 20.165 6.88415 22.2574 5.71467 22.5759C2.68808 23.7511 0.659178 22.7148 0.244903 18.0417C0.147913 16.5112 0.0861619 15.5524 0.0596506 15.1653C0.0198835 14.5848 0 13.8968 0 13.1014L0 9.64171C0 8.6873 0.00795341 7.94763 0.0238602 7.4227C0.0397671 6.89778 0.0795341 6.33706 0.143161 5.74056C0.206789 5.14405 0.254509 4.70264 0.286323 4.41631C0.318136 4.12999 0.405624 3.54144 0.548785 2.65066L0.691947 2.00643"/><path id="shape11" transform="matrix(2.42244517580522 0 0 2.42244516942812 13.340059419093 64.4597908849073)" fill="#ffffff" fill-rule="evenodd" stroke="#000000" stroke-opacity="0" stroke-width="0" stroke-linecap="square" stroke-linejoin="bevel" d="M3.0339 1.51695C3.0339 0.679161 2.35474 5.1298e-17 1.51695 0C0.679161 -5.1298e-17 1.02596e-16 0.679161 0 1.51695C-1.02596e-16 2.35474 0.679161 3.0339 1.51695 3.0339C2.35474 3.0339 3.0339 2.35474 3.0339 1.51695Z"/><circle id="shape11" transform="matrix(1.14840754799778 0 0 1.14840754497458 183.088186235694 87.442668873158)" r="5.03999999999999" cx="5.03999999999999" cy="5.03999999999999" fill="#000000" fill-rule="evenodd" stroke="#000000" stroke-opacity="0" stroke-width="0" stroke-linecap="square" stroke-linejoin="bevel"/><g id="group0" transform="translate(183.088186235694, 73.160700909806)" fill="none">
  <circle id="shape01" transform="matrix(1.14840754799778 0 0 1.14840754497458 0 0)" r="5.03999999999999" cx="5.03999999999999" cy="5.03999999999999" fill="#000000" fill-rule="evenodd" stroke="#000000" stroke-opacity="0" stroke-width="0" stroke-linecap="square" stroke-linejoin="bevel"/>
  <ellipse id="shape21" transform="matrix(1.14840754799778 0 0 1.14840754497458 1.17137685642098 3.83990367472299)" rx="0.808312289171923" ry="0.808312289171932" cx="0.808312289171923" cy="0.808312289171932" fill="#ffffff" fill-rule="evenodd" stroke="#000000" stroke-opacity="0" stroke-width="0" stroke-linecap="square" stroke-linejoin="bevel"/>
 </g><path id="shape3" transform="matrix(1.14840754799778 0 0 1.14840754497458 185.051964304952 79.852650442365)" fill="none" stroke="#ffffff" stroke-width="0.48" stroke-linecap="square" stroke-linejoin="miter" stroke-miterlimit="2" d="M0 0.0828455C2.19153 0.839641 4.69332 0.711768 6.54595 0"/><ellipse id="shape03" transform="matrix(1.14840749328019 0 0 1.14840749025699 191.727994552655 77.061807297278)" rx="0.808312289171923" ry="0.808312289171932" cx="0.808312289171923" cy="0.808312289171932" fill="#ffffff" fill-rule="evenodd" stroke="#000000" stroke-opacity="0" stroke-width="0" stroke-linecap="square" stroke-linejoin="bevel"/>
</svg>
