<?xml version="1.0" encoding="utf-8"?>
<!-- Generator: Adobe Illustrator 16.0.3, SVG Export Plug-In . SVG Version: 6.00 Build 0)  -->
<!DOCTYPE svg PUBLIC "-//W3C//DTD SVG 1.1//EN" "http://www.w3.org/Graphics/SVG/1.1/DTD/svg11.dtd">
<svg version="1.1" id="Calque_1" xmlns="http://www.w3.org/2000/svg" xmlns:xlink="http://www.w3.org/1999/xlink" x="0px" y="0px"
	 width="368px" height="57px" viewBox="0 0 368 57"
	 xml:space="preserve">
<g>
	<polygon fill="#010202" points="193.169,9.289 192.979,8.058 192.673,7.193 192.274,6.905 182.228,6.905 181.706,7.009 
		181.298,7.321 181.035,7.81 180.947,8.441 181.396,13.241 181.425,13.642 181.522,14.201 181.522,15.226 181.487,16.417 
		181.377,17.753 181.199,19.233 180.947,20.857 180.563,23.098 180.435,23.545 179.731,25.978 178.899,27.897 178.115,28.504 
		177.042,28.409 176.235,27.833 175.603,26.873 175.098,25.369 174.673,23.161 174.228,19.897 174.035,18.489 173.793,16.505 
		173.713,15.417 173.713,13.945 173.779,12.281 173.779,10.489 173.699,8.722 173.458,7.642 173.026,7.089 172.37,6.905 
		162.257,6.905 161.907,7.033 161.619,7.417 161.345,8.217 161.042,9.594 160.994,10.073 160.979,11.001 160.994,12.289 
		161.042,13.594 161.155,15.058 161.363,16.825 161.666,18.705 162.067,20.505 162.578,22.257 163.218,23.993 163.834,25.543 
		164.401,26.916 164.918,28.113 165.389,29.133 165.812,29.978 166.545,31.252 167.433,32.565 168.466,33.913 169.642,35.461 
		170.555,36.883 171.208,38.174 171.601,39.338 171.731,40.375 171.389,41.885 170.366,43.249 168.659,44.475 167.009,45.098 
		165.009,45.307 162.578,45.307 161.075,45.417 160.403,45.752 160.257,46.616 160.21,48.57 160.218,49.273 160.267,50.682 
		160.274,51.385 160.396,53.385 161,54.65 161.744,55.323 163.017,55.543 163.701,55.506 164.313,55.396 165.345,55.208 
		166.552,54.95 167.937,54.613 169.491,54.2 171.019,53.643 173.042,52.602 174.552,51.7 176.058,50.695 177.555,49.592 
		179.075,48.363 180.498,47.04 181.827,45.625 183.06,44.12 183.735,43.2 184.407,42.208 185.077,41.15 185.744,40.021 
		186.409,38.821 187.072,37.554 187.731,36.217 189.267,32.698 189.671,31.567 190.05,30.445 190.399,29.331 190.718,28.226 
		191.009,27.126 191.272,26.036 191.505,24.953 191.571,24.377 192.723,16.825 192.867,15.689 193.042,14.201 193.187,12.489 
		193.235,10.682 	"/>
	<path fill="#010202" d="M67.405,26.529l-0.128-2.561l-0.067-1.799l-0.205-1.674l-0.341-1.55l-0.479-1.426l-0.614-1.303
		l-0.751-1.179l-0.888-1.054l-1.023-0.93l-1.16-0.808l-1.297-0.682l-1.435-0.559l-1.57-0.435l-1.706-0.31l-1.844-0.188l-1.979-0.062
		l-1.344,0.031l-1.217,0.097l-1.12,0.176l-1.056,0.271l-1.617,0.537l-1.394,0.598l-1.168,0.656l-0.942,0.708l-1.174,1.288
		l-0.703,1.388l-0.234,1.484l0.438,1.896l1.319,1.592l1.496,1.08l0.968,0.359l0.762-0.345l0.871-1.031l1.049-1.191l1.288-0.824
		l1.646-0.479l1.487-0.16l1.792,0.288l1.151,0.862l0.433,0.656l0.398,0.688l0.271,0.592l0.049,0.368l-0.513,1.15l-0.447,0.896
		l-0.271,0.111l-0.306,0.079l-0.398,0.064l-0.944,0.191l-0.911,0.191l-1.584,0.448l-1.509,0.564l-1.407,0.629l-1.31,0.692
		l-1.209,0.757l-1.108,0.821l-1.011,0.886l-1.186,1.309l-0.928,1.363l-0.673,1.42l-0.416,1.478l-0.191,1.28l-0.063,1.406
		l0.086,1.531l0.259,1.396l0.43,1.26l0.604,1.125l1.438,1.832l1.568,1.271l1.248,0.621l1.567,0.545l1.888,0.467l1.729,0.256
		l0.77,0.097l1.022,0.16H65.93l0.942-0.32l0.527-0.961l0.063-5.055v-4.929L67.4,32.146L67.405,26.529L67.405,26.529z M55.949,36.193
		l-0.024,0.784l-0.07,0.688l-0.098,0.705l-0.096,0.832l-0.393,0.672l-0.983,0.226l-0.904-0.185l-0.792-0.554l-0.632-0.937
		l-0.424-1.336l-0.097-0.769l-0.032-0.512l0.152-1.368l0.454-1.16l0.594-0.863l0.561-0.479l0.521-0.216l0.473-0.072l0.943,0.176
		l0.526,0.528l0.24,0.912l0.08,1.327L55.949,36.193L55.949,36.193z"/>
	<path fill="#010202" d="M259.152,26.651l-0.128-2.562l-0.067-1.797l-0.205-1.676l-0.341-1.549l-0.479-1.429l-0.614-1.303
		l-0.751-1.178l-0.888-1.056l-1.023-0.93l-1.159-0.807l-1.297-0.683l-1.435-0.559l-1.57-0.434l-1.707-0.312l-1.843-0.186
		l-1.979-0.063l-1.345,0.033l-1.216,0.096l-1.12,0.176l-1.058,0.271l-1.614,0.541l-1.394,0.596l-1.168,0.652l-0.942,0.707
		l-1.175,1.289l-0.702,1.387l-0.234,1.486l0.438,1.895l1.32,1.595l1.496,1.079l0.968,0.359l0.762-0.344l0.87-1.033l1.05-1.191
		l1.288-0.823l1.646-0.479l1.487-0.16l1.792,0.287l1.15,0.863l0.434,0.656l0.398,0.688l0.271,0.594l0.049,0.367l-0.513,1.152
		l-0.447,0.896l-0.271,0.111l-0.305,0.08l-0.398,0.064l-0.943,0.188l-0.912,0.191l-1.584,0.448l-1.509,0.564l-1.407,0.629
		l-1.31,0.693l-1.209,0.758l-1.108,0.82l-1.011,0.887l-1.186,1.308l-0.928,1.365l-0.672,1.42l-0.416,1.477l-0.192,1.279
		l-0.063,1.408l0.086,1.53l0.259,1.396l0.43,1.262l0.604,1.125l1.438,1.832l1.568,1.271l1.248,0.623l1.567,0.543l1.888,0.467
		l1.729,0.256l0.77,0.099l1.022,0.159h14.337l0.943-0.319l0.527-0.961l0.063-5.058v-4.928l-0.063-4.479v-5.618H259.152z
		 M247.697,36.315l-0.023,0.782l-0.07,0.688l-0.099,0.705l-0.096,0.832l-0.393,0.672l-0.983,0.225l-0.904-0.184l-0.792-0.554
		l-0.632-0.938l-0.425-1.336l-0.096-0.768l-0.032-0.516l0.151-1.366l0.455-1.159l0.594-0.863l0.561-0.479l0.521-0.216l0.472-0.071
		l0.944,0.179l0.526,0.524l0.24,0.911l0.079,1.328L247.697,36.315L247.697,36.315z"/>
	<polygon fill="#010202" points="290.248,14.172 289.784,13.014 288.744,11.719 287.527,10.758 286.185,10.182 284.71,9.991 
		284.16,10.014 283.527,10.086 282.887,10.231 282.313,10.471 281.809,10.815 281.382,11.272 280.382,12.463 279.688,13.223 
		279.151,13.711 278.63,14.086 278.294,14.135 277.927,14.024 277.623,13.75 277.48,13.319 277.174,12.231 276.903,11.528 
		276.68,11.272 276.393,11.014 266.791,11.014 266.408,11.079 266.023,11.272 265.561,11.838 265.319,12.647 265.264,13.336 
		265.225,14.479 265.2,16.073 265.191,18.12 265.202,18.862 265.234,20.323 265.287,22.502 265.313,23.594 265.334,24.692 
		265.353,25.797 265.366,26.907 265.375,28.024 265.38,29.149 265.382,30.28 265.576,34.44 265.703,36.36 265.831,38.407 
		266.151,42.44 266.214,42.823 266.472,45.254 266.663,46.663 266.856,47.43 267.079,47.766 267.368,47.879 278.887,47.879 
		279.543,47.639 279.59,46.918 277.927,35.719 277.863,35.014 277.868,33.37 277.882,31.836 277.907,30.415 277.94,29.106 
		277.983,27.911 278.035,26.829 278.1,25.858 278.17,25 278.252,24.254 278.342,23.624 278.801,21.895 279.537,20.551 280.55,19.59 
		281.67,19.014 282.729,18.823 284.2,19.383 285.031,21.063 285.353,22.407 285.623,22.598 285.927,22.663 287.2,22.254 
		288.838,21.032 289.854,19.797 290.46,18.272 290.563,17.356 290.247,14.151 	"/>
	<polygon fill="#010202" points="352.937,7.959 352.632,7.094 352.233,6.807 342.185,6.807 341.663,6.911 341.255,7.223 
		340.992,7.711 340.905,8.342 341.353,13.143 341.384,13.543 341.481,14.104 341.481,15.127 341.444,16.319 341.335,17.655 
		341.156,19.135 340.905,20.758 340.521,22.999 340.394,23.448 339.688,25.879 338.856,27.799 338.073,28.407 337,28.311 
		336.192,27.735 335.562,26.776 335.058,25.272 334.632,23.063 334.185,19.799 333.992,18.391 333.752,16.407 333.671,15.319 
		333.671,13.846 333.737,12.182 333.737,10.391 333.656,8.624 333.415,7.543 332.985,6.991 332.327,6.807 322.216,6.807 
		321.865,6.936 321.576,7.319 321.305,8.12 321,9.495 320.952,9.975 320.938,10.903 320.952,12.192 321,13.495 321.113,14.959 
		321.321,16.727 321.625,18.608 322.025,20.407 322.536,22.159 323.175,23.895 323.793,25.446 324.36,26.819 324.877,28.014 
		325.348,29.036 325.77,29.879 326.503,31.155 327.392,32.467 328.423,33.815 329.601,35.364 330.514,36.786 331.165,38.077 
		331.56,39.243 331.688,40.28 331.348,41.788 330.324,43.153 328.617,44.375 326.968,44.999 324.968,45.208 322.536,45.208 
		321.033,45.319 320.361,45.655 320.216,46.52 320.168,48.471 320.175,49.174 320.226,50.583 320.233,51.288 320.354,53.288 
		320.712,54.551 321.456,55.223 322.729,55.448 323.413,55.411 324.272,55.297 325.305,55.112 326.511,54.85 327.895,54.514 
		329.449,54.104 330.978,53.543 333,52.502 334.511,51.6 336.017,50.596 337.511,49.495 339.032,48.264 340.455,46.944 
		341.784,45.53 343.017,44.024 343.692,43.102 344.365,42.112 345.034,41.051 345.701,39.922 346.366,38.723 347.03,37.456 
		347.688,36.12 349.226,32.598 349.629,31.469 350.007,30.346 350.358,29.233 350.677,28.127 350.968,27.028 351.231,25.938 
		351.463,24.856 351.529,24.28 352.68,16.727 352.824,15.59 353,14.104 353.146,12.391 353.192,10.582 353.127,9.192 	"/>
	<polygon fill="#010202" points="118.731,32.881 118.027,33.969 116.661,35.504 115.21,36.614 113.673,37.297 112.378,37.633 
		111.05,37.745 109.587,37.594 108.275,37.137 107.109,36.377 106.089,35.313 105.514,34.448 105.041,33.472 104.673,32.385 
		104.412,31.188 104.255,29.881 104.202,28.465 104.242,26.836 104.36,25.365 104.555,24.049 105.027,22.337 105.739,20.913 
		107.095,19.207 108.612,18.183 110.283,17.841 111.994,18.226 113.546,19.377 114.06,19.938 114.443,20.465 114.779,21.025 
		115.147,21.682 116.491,21.297 117.97,20.489 119.082,19.345 119.779,17.961 120.009,16.434 119.673,14.577 118.666,12.722 
		117.802,11.736 116.818,10.903 115.712,10.222 114.488,9.691 113.142,9.313 111.675,9.085 110.089,9.009 108.79,9.062 
		107.451,9.217 106.071,9.478 104.651,9.841 103.259,10.314 101.938,10.901 100.685,11.603 99.498,12.417 98.38,13.347 97.33,14.39 
		96.349,15.546 95.435,16.817 94.829,17.823 94.293,18.879 93.827,19.985 93.43,21.142 93.103,22.347 92.842,23.602 92.637,24.856 
		92.469,26.062 92.338,27.217 92.245,28.323 92.19,29.379 92.17,30.385 92.2,31.743 92.286,33.034 92.433,34.254 92.634,35.409 
		92.896,36.495 93.214,37.514 93.591,38.463 94.027,39.344 94.923,40.854 95.875,42.206 96.878,43.404 97.938,44.445 99.05,45.329 
		100.033,45.956 101.08,46.491 102.195,46.938 103.374,47.292 104.619,47.557 105.93,47.73 106.425,47.76 107.147,47.857 
		108.298,47.857 109.739,47.809 111.095,47.659 112.371,47.409 113.566,47.064 114.675,46.616 115.704,46.07 116.651,45.424 
		117.815,44.393 118.771,43.234 119.521,41.954 120.062,40.551 120.396,39.025 120.538,37.584 120.585,36.336 120.122,34.065 	"/>
	<polygon fill="#010202" points="125.529,39.446 125.546,41.122 125.593,43.37 125.673,44.929 125.819,46.168 126.06,47.456 
		126.386,48.441 126.794,48.77 137.483,48.77 138.035,48.65 138.41,48.288 138.626,47.624 138.699,46.592 138.626,45.288 
		138.41,43.682 138.162,41.993 137.994,40.45 137.899,38.897 137.867,37.186 137.739,35.777 137.673,33.92 137.61,30.657 
		137.867,26.817 137.867,26.241 138.25,22.85 138.386,21.817 138.793,20.897 139.37,20.146 140.009,19.617 140.673,19.306 
		141.323,19.201 142.555,19.569 143.435,20.673 143.713,21.345 143.914,22.081 144.067,22.945 144.202,24.001 144.155,24.77 
		144.139,25.921 144.139,29.313 144.009,32.577 143.882,33.857 143.753,35.649 143.58,36.997 143.399,38.395 143.21,39.84 
		142.947,41.689 142.731,42.817 142.233,44.929 141.935,46.486 141.834,47.491 142.075,48.45 142.793,48.77 153.29,48.77 
		153.779,48.521 154.218,47.777 154.626,46.344 155.019,44.034 155.531,40.45 155.593,40.193 155.751,38.7 155.878,37.377 
		155.979,36.226 156.048,35.066 156.091,33.723 156.106,32.193 156.169,29.122 156.169,28.29 156.106,27.137 156.081,25.56 
		156.007,24.15 155.882,22.913 155.651,21.313 155.403,19.969 154.908,18.108 154.286,16.461 153.539,15.028 152.666,13.81 
		151.667,12.804 150.542,12.014 149.291,11.437 147.914,11.073 146.987,10.929 146.122,10.881 144.882,10.969 143.851,11.233 
		142.834,11.625 141.644,12.098 140.914,12.321 140.139,12.481 139.425,12.577 138.892,12.609 138.363,12.417 138.187,11.841 
		138.286,10.975 138.584,9.396 139.082,7.105 139.274,6.465 140.106,3.649 140.139,3.281 140.235,2.817 140.235,2.178 
		140.129,1.449 139.819,1.058 139.169,0.89 138.06,0.833 128.396,0.833 127.834,1.377 127.435,3.009 127.115,5.377 127.001,6.364 
		126.878,7.39 126.75,8.449 126.614,9.546 126.468,10.681 126.316,11.851 126.155,13.058 126.07,13.969 125.998,14.948 
		125.94,15.996 125.894,17.111 125.861,18.294 125.841,19.546 125.834,20.865 125.514,28.672 125.514,36.417 125.519,37.877 	"/>
	<path fill="#010202" d="M69.364,18.544c0.95-0.766,1.768-1.163,2.449-1.189c0.47-0.021,0.85,0.146,1.143,0.497
		c0.292,0.351,0.463,0.608,0.513,0.777c0.096,0.21,0.15,0.528,0.168,0.954c-0.014,0.686-0.007,1.367,0.021,2.049
		c0.028,0.684,0.057,1.364,0.086,2.047l0.202,4.858c0.103,2.43,0.273,4.537,0.521,6.319c0.248,1.783,0.499,3.246,0.762,4.388
		c0.782,3.426,1.545,5.807,2.283,7.145c0.74,1.336,1.644,1.979,2.708,1.938c0.727-0.031,1.757-0.416,3.092-1.154l2.563-1.452
		L87,45.032c1.412-0.957,2.34-1.742,2.784-2.359c0.322-0.438,0.37-0.825,0.144-1.157l-1.973-4.272
		c-0.329-0.713-0.656-1.648-0.98-2.81c-0.326-1.161-0.66-2.761-1.001-4.794l-0.384-2.995c-0.091-1.149-0.155-2.215-0.196-3.194
		c-0.041-0.98-0.079-1.876-0.111-2.686c-0.073-1.748,0-2.81,0.219-3.182c0.219-0.373,1.04-0.65,2.463-0.84
		c1.422-0.188,2.154-0.304,2.195-0.348c0.082-0.089,0.278-0.975,0.594-2.651l0.3-1.998c-0.106-0.551-0.435-0.954-0.979-1.208
		c-0.545-0.255-1.396-0.356-2.544-0.31h-1.536c-0.158-0.722-0.252-1.441-0.283-2.166c-0.03-0.727,0.011-1.538,0.122-2.439
		c0.111-0.899,0.325-1.679,0.639-2.333l0.553-2.137c0.069-0.345-0.048-0.628-0.355-0.851c-0.309-0.223-0.739-0.321-1.293-0.299
		c-0.976,0.169-2.071,0.516-3.288,1.034l-3.021,1.28c-2.188,0.816-3.554,1.61-4.098,2.381c-0.544,0.771-0.915,2.376-1.109,4.819
		l-0.133,1.415l-0.516-0.042c-1.875,0.078-3.052,0.287-3.527,0.628c-0.479,0.34-0.791,1.261-0.94,2.762l0.111,1.147L69.364,18.544z"
		/>
	<path fill="#010202" d="M36.675,38.581c0-1.151-0.182-2.133-0.544-2.943c-0.361-0.813-0.862-1.45-1.504-1.922
		c-0.372-0.334-0.511,6.513-9.729,7.427c-0.727,0-1.579-0.106-2.562-0.319c-2.304-0.47-5.143-1.382-6.849-3.345
		c-0.98-1.194-1.76-2.582-2.336-4.16c-0.575-1.579-0.863-3.437-0.863-5.567c0-0.213,0-0.534,0-0.96c0-0.938,0.063-1.897,0.191-2.88
		c0.427-2.986,1.163-5.312,2.208-6.976s3.146-3.016,4.641-3.44c0.597-0.213,1.259-0.32,1.983-0.32c0.938,0,1.67,0.168,2.274,0.454
		c1.388,0.705,1.591,1.432,2.189,2.551c2.851,3.229,6.574,1.375,7.32,0.631c0.836-0.775,1.513-2.971,1.513-4.419
		c0-1.109-0.463-3.136-1.019-4.073c-0.684-1.152-1.944-2.193-3.16-2.854c-1.218-0.662-2.935-1.184-5.152-1.566
		c-0.727-0.128-1.439-0.192-2.145-0.192c-0.703,0-1.439,0-2.208,0c-4.14,0-7.604,0.854-10.399,2.562s-5.216,4.31-7.264,7.808
		C1.088,17.741,0,22.2,0,27.448c0,0.385,0.012,0.896,0.032,1.536s0.116,1.749,0.287,3.328c0.47,4.14,1.621,7.681,3.456,10.624
		l1.151,1.729c1.877,2.561,3.937,4.383,6.177,5.471c2.239,1.09,5.259,1.635,9.057,1.635c0.555-0.043,1.248-0.064,2.08-0.064
		c0.831,0,1.482-0.043,1.951-0.129c3.584-0.555,6.433-1.791,8.544-3.711c2.112-1.92,3.359-4.309,3.744-7.168
		C36.612,39.922,36.675,39.219,36.675,38.581z"/>
	<circle fill="#010202" cx="361.365" cy="23.999" r="5.04"/>
	<circle fill="#010202" cx="361.365" cy="36.435" r="5.04"/>
</g>
<path id="shape2" fill="#010202" d="M310.335,10.02l-0.496,0.144L309.435,8.8c-0.668-2.354-1.348-3.858-2.029-4.508
	c-0.686-0.65-2.178-1.162-4.48-1.537l-3.213-0.666c-1.295-0.272-2.438-0.397-3.427-0.375c-0.548,0.086-0.951,0.269-1.21,0.545
	c-0.26,0.279-0.32,0.58-0.185,0.904l0.958,1.988c0.437,0.58,0.796,1.301,1.079,2.164c0.285,0.86,0.483,1.649,0.597,2.366
	c0.11,0.72,0.16,1.443,0.146,2.183l-1.508,0.299c-1.139,0.178-1.95,0.443-2.436,0.801c-0.483,0.355-0.728,0.814-0.727,1.375
	l0.688,1.902c0.636,1.584,1.001,2.412,1.1,2.481c0.049,0.035,0.789,0.009,2.222-0.086c1.434-0.094,2.291,0.021,2.578,0.345
	c0.289,0.319,0.565,1.348,0.836,3.073c0.125,0.804,0.264,1.689,0.413,2.656c0.15,0.971,0.294,2.027,0.431,3.172l0.21,3.015
	c0.063,2.063,0.046,3.691-0.05,4.896c-0.093,1.201-0.229,2.186-0.415,2.947l-1.101,4.573c-0.159,0.37-0.037,0.739,0.365,1.108
	c0.557,0.519,1.619,1.106,3.188,1.771l1.235,0.457l2.801,0.925c1.453,0.465,2.539,0.641,3.256,0.527
	c1.056-0.163,1.813-0.975,2.277-2.428c0.466-1.453,0.747-3.938,0.849-7.451c0.032-1.172-0.003-2.653-0.107-4.45
	c-0.106-1.798-0.35-3.896-0.725-6.302l-0.748-4.807c-0.104-0.674-0.209-1.348-0.313-2.023c-0.104-0.674-0.229-1.346-0.379-2.014
	c-0.063-0.422-0.072-0.744-0.021-0.969c0.018-0.174,0.135-0.463,0.353-0.863c0.219-0.4,0.562-0.639,1.021-0.711
	c0.677-0.104,1.555,0.127,2.636,0.691l-0.104-3.156l-0.113-1.148c-0.438-1.442-0.929-2.285-1.462-2.524
	C313.386,9.707,312.192,9.731,310.335,10.02"/>
<path fill="#010202" d="M225.214,7.797c-1.183-1.051-2.01-1.936-4.269-2.619c-4.449-0.996-13.362-1.096-19.399,2.08
	c-0.635,0.059-1.446,1.826-1.573,2.684l-0.183,1.379c-0.139,1.896-0.212,3.148-0.228,3.76c-0.015,0.605-0.033,1.543-0.058,2.809
	c-0.023,1.268-0.004,2.451,0.06,3.559c0.063,1.104,0.185,2.662,0.358,4.668l0.639,7.27c0.146,1.672,0.314,3.113,0.506,4.326
	c0.127,0.809,0.436,2.814,0.919,6.01c1.732,9.744,6.188,11.547,12.33,8.521c2.397-0.885,2.057-5.285-1.03-13.201l-0.641-2.672
	c-0.167-0.76-0.273-1.408-0.32-1.943c-0.099-1.102,0.108-2.004,0.62-2.707c0.514-0.701,1.626-1.615,3.349-2.744l0.667-0.463
	l1.854-1.32c2.658-1.951,4.656-3.744,5.995-5.379c1.217-1.486,2.021-2.965,2.416-4.432c0.396-1.465,0.539-2.783,0.438-3.953
	C227.376,11.778,227.055,9.016,225.214,7.797z"/>
<g>
	<circle fill="#FFFFFF" cx="209.94" cy="13.255" r="3.2"/>
</g>
</svg>
