<?xml version="1.0" encoding="utf-8"?>
<!-- Generator: Adobe Illustrator 25.3.0, SVG Export Plug-In . SVG Version: 6.00 Build 0)  -->
<svg version="1.1" id="Calque_1" xmlns="http://www.w3.org/2000/svg" xmlns:xlink="http://www.w3.org/1999/xlink" x="0px" y="0px"
	 viewBox="0 0 47.7 48.1" style="enable-background:new 0 0 47.7 48.1;" xml:space="preserve">
<style type="text/css">
	.st0{fill:#FFFFFF;}
	.st1{fill:#F4D35E;stroke:#F4D35E;stroke-miterlimit:10;}
	.st2{fill:none;stroke:#FFFFFF;stroke-miterlimit:10;}
</style>
<g>
	<path class="st0" d="M36.7,34.9c0-1.2-0.2-2.1-0.5-2.9c-0.4-0.8-0.9-1.4-1.5-1.9c-0.4-0.3-0.5,6.5-9.7,7.4c-0.7,0-1.6-0.1-2.6-0.3
		c-2.3-0.5-5.1-1.4-6.8-3.3c-1-1.2-1.8-2.6-2.3-4.2c-0.6-1.6-0.9-3.4-0.9-5.6c0-0.2,0-0.5,0-1c0-0.9,0.1-1.9,0.2-2.9
		c0.4-3,1.2-5.3,2.2-7s3.1-3,4.6-3.4c0.6-0.2,1.3-0.3,2-0.3c0.9,0,1.7,0.2,2.3,0.5c1.4,0.7,1.6,1.4,2.2,2.6c2.9,3.2,6.6,1.4,7.3,0.6
		c0.8-0.8,1.5-3,1.5-4.4c0-1.1-0.5-3.1-1-4.1c-0.7-1.2-1.9-2.2-3.2-2.9c-1.2-0.7-2.9-1.2-5.2-1.6C24.6,0.1,23.8,0,23.1,0
		c-0.7,0-1.4,0-2.2,0c-4.1,0-7.6,0.9-10.4,2.6c-2.8,1.7-5.2,4.3-7.3,7.8C1.1,14,0,18.5,0,23.7c0,0.4,0,0.9,0,1.5
		c0,0.6,0.1,1.7,0.3,3.3c0.5,4.1,1.6,7.7,3.5,10.6L4.9,41c1.9,2.6,3.9,4.4,6.2,5.5c2.2,1.1,5.3,1.6,9.1,1.6c0.6,0,1.2-0.1,2.1-0.1
		c0.8,0,1.5,0,2-0.1c3.6-0.6,6.4-1.8,8.5-3.7c2.1-1.9,3.4-4.3,3.7-7.2C36.6,36.2,36.7,35.5,36.7,34.9z"/>
	<circle class="st0" cx="42.7" cy="6.4" r="5"/>
	<circle class="st0" cx="42.7" cy="18.8" r="5"/>
</g>
<path class="st0" d="M32.1,22.7c-0.5-0.4-0.8-0.8-1.7-1.1c-1.8-0.4-5.4-0.4-7.8,0.8c-0.3,0-0.6,0.7-0.6,1.1l-0.1,0.6
	c-0.1,0.8-0.1,1.3-0.1,1.5c0,0.2,0,0.6,0,1.1c0,0.5,0,1,0,1.4c0,0.4,0.1,1.1,0.1,1.9l0.3,2.9c0.1,0.7,0.1,1.3,0.2,1.7
	c0.1,0.3,0.2,1.1,0.4,2.4c0.7,3.9,2.5,4.7,5,3.4c1-0.4,0.8-2.1-0.4-5.3L27,34.2c-0.1-0.3-0.1-0.6-0.1-0.8c0-0.4,0-0.8,0.2-1.1
	c0.2-0.3,0.7-0.7,1.4-1.1l0.3-0.2l0.7-0.5c1.1-0.8,1.9-1.5,2.4-2.2c0.5-0.6,0.8-1.2,1-1.8c0.2-0.6,0.2-1.1,0.2-1.6
	C32.9,24.3,32.8,23.1,32.1,22.7z"/>
<g>
	<circle class="st1" cx="25.9" cy="24.9" r="1.3"/>
</g>
<line class="st2" x1="6.8" y1="16.4" x2="42.1" y2="16.4"/>
<line class="st2" x1="6.8" y1="19.8" x2="42.1" y2="19.8"/>
<line class="st2" x1="6.8" y1="23.2" x2="24.5" y2="23.2"/>
<line class="st2" x1="6.8" y1="26.6" x2="21.7" y2="26.6"/>
<line class="st2" x1="6.8" y1="30" x2="24.5" y2="30"/>
</svg>
