<?xml version="1.0" encoding="utf-8"?>
<!-- Generator: Adobe Illustrator 16.0.3, SVG Export Plug-In . SVG Version: 6.00 Build 0)  -->
<!DOCTYPE svg PUBLIC "-//W3C//DTD SVG 1.1//EN" "http://www.w3.org/Graphics/SVG/1.1/DTD/svg11.dtd">
<svg version="1.1" id="Calque_1" xmlns="http://www.w3.org/2000/svg" xmlns:xlink="http://www.w3.org/1999/xlink" x="0px" y="0px"
	 width="193.234px" height="107.71px" viewBox="0 0 193.234 107.71" enable-background="new 0 0 193.234 107.71"
	 xml:space="preserve">
<g>
	<polygon fill="#020304" points="193.169,9.29 192.979,8.059 192.673,7.194 192.273,6.906 182.228,6.906 181.706,7.01 
		181.298,7.322 181.035,7.811 180.946,8.442 181.396,13.242 181.425,13.643 181.521,14.202 181.521,15.227 181.486,16.418 
		181.377,17.754 181.199,19.234 180.946,20.858 180.563,23.099 180.435,23.546 179.73,25.979 178.898,27.898 178.115,28.505 
		177.042,28.41 176.234,27.834 175.603,26.874 175.098,25.37 174.673,23.162 174.228,19.898 174.035,18.49 173.793,16.506 
		173.713,15.418 173.713,13.946 173.778,12.282 173.778,10.49 173.699,8.723 173.458,7.643 173.025,7.09 172.37,6.906 
		162.257,6.906 161.907,7.034 161.619,7.418 161.345,8.218 161.042,9.595 160.994,10.074 160.979,11.002 160.994,12.29 
		161.042,13.595 161.154,15.059 161.362,16.826 161.666,18.706 162.066,20.506 162.578,22.258 163.218,23.994 163.834,25.544 
		164.4,26.917 164.918,28.114 165.389,29.134 165.812,29.979 166.545,31.253 167.433,32.566 168.466,33.914 169.642,35.462 
		170.555,36.884 171.208,38.175 171.601,39.339 171.73,40.376 171.389,41.886 170.366,43.25 168.659,44.476 167.009,45.099 
		165.009,45.308 162.578,45.308 161.075,45.417 160.402,45.753 160.257,46.617 160.21,48.571 160.218,49.274 160.267,50.683 
		160.273,51.386 160.396,53.386 161,54.651 161.744,55.324 163.017,55.544 163.701,55.507 164.313,55.397 165.345,55.208 
		166.552,54.951 167.937,54.614 169.491,54.201 171.019,53.644 173.042,52.603 174.552,51.701 176.058,50.696 177.555,49.593 
		179.075,48.364 180.498,47.041 181.827,45.626 183.06,44.121 183.734,43.201 184.407,42.208 185.077,41.151 185.744,40.022 
		186.409,38.822 187.071,37.555 187.73,36.218 189.267,32.699 189.671,31.568 190.05,30.446 190.398,29.332 190.718,28.227 
		191.009,27.127 191.271,26.037 191.505,24.954 191.57,24.378 192.723,16.826 192.867,15.69 193.042,14.202 193.187,12.49 
		193.234,10.683 	"/>
	<path fill="#020304" d="M67.404,26.53l-0.128-2.561l-0.067-1.799l-0.205-1.674l-0.341-1.55l-0.479-1.426l-0.614-1.303l-0.751-1.179
		l-0.888-1.054l-1.023-0.93l-1.16-0.808l-1.297-0.682l-1.435-0.559l-1.57-0.435l-1.706-0.31l-1.844-0.188l-1.979-0.062l-1.344,0.031
		l-1.217,0.097l-1.12,0.176l-1.056,0.271l-1.617,0.537l-1.394,0.598l-1.168,0.656l-0.942,0.708l-1.174,1.288l-0.703,1.388
		l-0.234,1.484l0.438,1.896l1.319,1.592l1.496,1.08l0.968,0.359l0.762-0.345l0.871-1.031l1.049-1.191l1.288-0.824l1.646-0.479
		l1.487-0.16l1.792,0.288l1.151,0.862l0.433,0.656l0.398,0.688l0.271,0.592l0.049,0.368l-0.513,1.15l-0.447,0.896l-0.271,0.111
		l-0.306,0.079l-0.398,0.064l-0.944,0.191l-0.911,0.191l-1.584,0.448l-1.509,0.564l-1.407,0.629l-1.31,0.692l-1.209,0.757
		l-1.108,0.821l-1.011,0.886l-1.186,1.309l-0.928,1.363l-0.673,1.42l-0.416,1.478l-0.191,1.28l-0.063,1.406l0.086,1.531l0.259,1.396
		l0.43,1.26l0.604,1.125l1.438,1.832l1.568,1.271l1.248,0.621l1.567,0.545l1.888,0.467l1.729,0.256l0.77,0.097l1.022,0.16H65.93
		l0.942-0.32l0.527-0.961l0.063-5.055v-4.929l-0.063-4.479L67.404,26.53L67.404,26.53z M55.949,36.194l-0.024,0.784l-0.07,0.688
		l-0.098,0.705l-0.096,0.832l-0.393,0.672L54.285,40.1l-0.904-0.185l-0.792-0.554l-0.632-0.937l-0.424-1.336l-0.097-0.769
		l-0.032-0.512l0.152-1.368l0.454-1.16l0.594-0.863l0.561-0.479l0.521-0.216l0.473-0.072l0.943,0.176l0.526,0.528l0.24,0.912
		l0.08,1.327L55.949,36.194L55.949,36.194z"/>
	<path fill="#020304" d="M67.283,78.914l-0.128-2.562l-0.067-1.797l-0.205-1.676l-0.341-1.549l-0.479-1.429l-0.614-1.303
		l-0.751-1.178l-0.888-1.056l-1.023-0.93l-1.159-0.807l-1.297-0.683l-1.435-0.559l-1.57-0.434l-1.707-0.312l-1.843-0.186
		l-1.979-0.063l-1.345,0.033l-1.216,0.096l-1.12,0.176l-1.058,0.271l-1.614,0.541l-1.394,0.596l-1.168,0.652l-0.942,0.707
		l-1.175,1.289l-0.702,1.387l-0.234,1.486l0.438,1.895l1.32,1.595l1.496,1.079l0.968,0.359l0.762-0.344l0.87-1.033l1.05-1.191
		l1.288-0.823l1.646-0.479l1.487-0.16l1.792,0.287l1.15,0.863l0.434,0.656l0.398,0.688l0.271,0.594l0.049,0.367l-0.513,1.152
		l-0.447,0.896l-0.271,0.111l-0.305,0.08l-0.398,0.064l-0.943,0.188l-0.912,0.191l-1.584,0.448l-1.509,0.564L46.96,78.3l-1.31,0.693
		l-1.209,0.758l-1.108,0.82l-1.011,0.887l-1.186,1.308l-0.928,1.365l-0.672,1.42l-0.416,1.477l-0.192,1.279l-0.063,1.408l0.086,1.53
		l0.259,1.396l0.43,1.262l0.604,1.125l1.438,1.832l1.568,1.271l1.248,0.623l1.567,0.543l1.888,0.467l1.729,0.256l0.77,0.099
		l1.022,0.159h14.337l0.943-0.319l0.527-0.961l0.063-5.058v-4.928l-0.063-4.479v-5.618H67.283z M55.828,88.578l-0.023,0.782
		l-0.07,0.688l-0.099,0.705l-0.096,0.832l-0.393,0.672l-0.983,0.225l-0.904-0.184l-0.792-0.554l-0.632-0.938l-0.425-1.336
		l-0.096-0.768l-0.032-0.516l0.151-1.366l0.455-1.159l0.594-0.863l0.561-0.479l0.521-0.216l0.472-0.071l0.944,0.179l0.526,0.524
		l0.24,0.911l0.079,1.328L55.828,88.578L55.828,88.578z"/>
	<polygon fill="#020304" points="98.38,66.435 97.916,65.277 96.876,63.981 95.658,63.021 94.316,62.445 92.842,62.254 
		92.292,62.277 91.658,62.349 91.019,62.494 90.444,62.734 89.94,63.078 89.514,63.535 88.514,64.726 87.819,65.486 87.282,65.974 
		86.762,66.349 86.426,66.397 86.059,66.287 85.755,66.013 85.611,65.582 85.306,64.494 85.034,63.791 84.812,63.535 84.524,63.277 
		74.923,63.277 74.54,63.342 74.154,63.535 73.692,64.101 73.45,64.91 73.396,65.599 73.356,66.742 73.332,68.336 73.322,70.383 
		73.334,71.125 73.365,72.586 73.419,74.765 73.444,75.856 73.466,76.955 73.484,78.06 73.498,79.17 73.507,80.287 73.512,81.412 
		73.514,82.542 73.708,86.703 73.835,88.623 73.963,90.669 74.282,94.703 74.346,95.085 74.604,97.517 74.795,98.925 74.987,99.693 
		75.211,100.029 75.5,100.142 87.019,100.142 87.675,99.902 87.722,99.181 86.059,87.982 85.994,87.277 86,85.632 86.014,84.099 
		86.039,82.677 86.071,81.369 86.114,80.174 86.167,79.092 86.231,78.121 86.302,77.263 86.384,76.517 86.474,75.887 86.933,74.158 
		87.669,72.813 88.682,71.853 89.802,71.277 90.86,71.086 92.332,71.646 93.162,73.326 93.484,74.67 93.755,74.861 94.059,74.926 
		95.332,74.517 96.97,73.295 97.985,72.06 98.592,70.535 98.694,69.619 98.379,66.414 	"/>
	<polygon fill="#020304" points="161.068,60.222 160.764,59.356 160.364,59.07 150.316,59.07 149.795,59.174 149.387,59.486 
		149.124,59.974 149.036,60.604 149.484,65.406 149.516,65.806 149.612,66.367 149.612,67.39 149.575,68.582 149.467,69.918 
		149.288,71.397 149.036,73.021 148.652,75.262 148.525,75.711 147.819,78.142 146.987,80.062 146.204,80.669 145.132,80.574 
		144.323,79.998 143.693,79.039 143.189,77.535 142.764,75.326 142.316,72.062 142.124,70.654 141.884,68.67 141.803,67.582 
		141.803,66.109 141.868,64.445 141.868,62.654 141.788,60.887 141.547,59.806 141.116,59.254 140.459,59.07 130.348,59.07 
		129.997,59.199 129.708,59.582 129.437,60.383 129.132,61.758 129.084,62.238 129.069,63.166 129.084,64.455 129.132,65.758 
		129.244,67.222 129.452,68.99 129.757,70.871 130.156,72.67 130.668,74.422 131.307,76.158 131.925,77.708 132.491,79.082 
		133.009,80.277 133.479,81.298 133.901,82.142 134.635,83.417 135.523,84.73 136.555,86.078 137.732,87.626 138.646,89.048 
		139.297,90.339 139.691,91.505 139.819,92.542 139.479,94.05 138.456,95.416 136.749,96.638 135.1,97.261 133.1,97.47 
		130.668,97.47 129.165,97.582 128.492,97.917 128.348,98.783 128.3,100.734 128.307,101.437 128.357,102.845 128.364,103.55 
		128.485,105.55 128.844,106.814 129.588,107.486 130.86,107.71 131.545,107.673 132.403,107.56 133.437,107.375 134.643,107.113 
		136.026,106.777 137.581,106.367 139.109,105.806 141.132,104.765 142.643,103.863 144.148,102.859 145.643,101.757 
		147.164,100.527 148.587,99.207 149.916,97.792 151.148,96.287 151.823,95.365 152.496,94.375 153.166,93.314 153.833,92.185 
		154.498,90.986 155.161,89.718 155.819,88.382 157.357,84.861 157.761,83.732 158.139,82.609 158.489,81.496 158.809,80.39 
		159.1,79.291 159.362,78.201 159.595,77.119 159.66,76.543 160.812,68.99 160.956,67.853 161.132,66.367 161.277,64.654 
		161.323,62.845 161.259,61.455 	"/>
	<polygon fill="#020304" points="118.73,32.882 118.026,33.97 116.661,35.505 115.21,36.615 113.673,37.298 112.378,37.634 
		111.05,37.746 109.587,37.595 108.274,37.138 107.108,36.378 106.089,35.314 105.514,34.449 105.041,33.473 104.673,32.386 
		104.412,31.189 104.255,29.882 104.202,28.466 104.242,26.837 104.359,25.366 104.555,24.05 105.026,22.338 105.738,20.914 
		107.095,19.208 108.611,18.184 110.283,17.842 111.994,18.227 113.546,19.378 114.06,19.939 114.442,20.466 114.778,21.026 
		115.146,21.683 116.491,21.298 117.97,20.49 119.082,19.346 119.778,17.962 120.009,16.435 119.673,14.578 118.666,12.723 
		117.802,11.737 116.817,10.904 115.712,10.223 114.487,9.692 113.142,9.314 111.675,9.086 110.089,9.01 108.79,9.063 
		107.451,9.218 106.07,9.479 104.65,9.842 103.259,10.315 101.938,10.902 100.685,11.604 99.498,12.418 98.38,13.348 97.33,14.391 
		96.349,15.547 95.435,16.818 94.829,17.824 94.293,18.88 93.827,19.986 93.43,21.143 93.103,22.348 92.842,23.603 92.637,24.857 
		92.469,26.063 92.338,27.218 92.245,28.324 92.189,29.38 92.17,30.386 92.2,31.744 92.286,33.035 92.433,34.255 92.634,35.41 
		92.896,36.496 93.214,37.515 93.591,38.464 94.026,39.345 94.923,40.855 95.875,42.207 96.878,43.405 97.938,44.446 99.05,45.33 
		100.033,45.957 101.08,46.492 102.194,46.939 103.374,47.292 104.619,47.558 105.93,47.731 106.425,47.761 107.146,47.858 
		108.298,47.858 109.738,47.81 111.095,47.66 112.371,47.41 113.565,47.065 114.675,46.617 115.704,46.071 116.65,45.425 
		117.814,44.394 118.771,43.235 119.521,41.955 120.062,40.552 120.396,39.026 120.538,37.585 120.585,36.337 120.122,34.066 	"/>
	<polygon fill="#020304" points="125.528,39.447 125.546,41.123 125.593,43.371 125.673,44.93 125.818,46.169 126.06,47.457 
		126.386,48.442 126.794,48.771 137.482,48.771 138.035,48.651 138.41,48.289 138.626,47.625 138.699,46.593 138.626,45.289 
		138.41,43.683 138.162,41.994 137.994,40.451 137.898,38.898 137.867,37.187 137.738,35.778 137.673,33.921 137.609,30.658 
		137.867,26.818 137.867,26.242 138.25,22.851 138.386,21.818 138.793,20.898 139.37,20.147 140.009,19.618 140.673,19.307 
		141.322,19.202 142.555,19.57 143.435,20.674 143.713,21.346 143.914,22.082 144.066,22.946 144.202,24.002 144.154,24.771 
		144.139,25.922 144.139,29.314 144.009,32.578 143.882,33.858 143.753,35.65 143.58,36.998 143.398,38.396 143.21,39.841 
		142.946,41.69 142.73,42.818 142.232,44.93 141.935,46.487 141.834,47.492 142.075,48.451 142.793,48.771 153.29,48.771 
		153.778,48.522 154.218,47.778 154.626,46.345 155.019,44.035 155.53,40.451 155.593,40.194 155.751,38.701 155.878,37.378 
		155.979,36.227 156.048,35.067 156.091,33.724 156.105,32.194 156.169,29.123 156.169,28.291 156.105,27.138 156.081,25.561 
		156.007,24.151 155.882,22.914 155.65,21.314 155.402,19.97 154.908,18.109 154.286,16.462 153.539,15.029 152.666,13.811 
		151.667,12.805 150.542,12.015 149.291,11.438 147.914,11.074 146.986,10.93 146.122,10.882 144.882,10.97 143.851,11.234 
		142.834,11.626 141.644,12.099 140.914,12.322 140.139,12.482 139.425,12.578 138.892,12.61 138.362,12.418 138.187,11.842 
		138.286,10.976 138.584,9.397 139.082,7.106 139.273,6.466 140.105,3.65 140.139,3.282 140.234,2.818 140.234,2.179 140.129,1.45 
		139.818,1.059 139.169,0.891 138.06,0.834 128.396,0.834 127.834,1.378 127.435,3.01 127.115,5.378 127.001,6.365 126.878,7.391 
		126.75,8.45 126.613,9.547 126.468,10.682 126.315,11.852 126.154,13.059 126.069,13.97 125.998,14.949 125.939,15.997 
		125.894,17.112 125.86,18.295 125.841,19.547 125.834,20.866 125.514,28.673 125.514,36.417 125.519,37.878 	"/>
	<path fill="#020304" d="M69.363,18.545c0.95-0.766,1.768-1.163,2.449-1.189c0.47-0.021,0.85,0.146,1.143,0.497
		c0.292,0.351,0.463,0.608,0.513,0.777c0.096,0.21,0.15,0.528,0.168,0.954c-0.014,0.686-0.007,1.367,0.021,2.049
		c0.028,0.684,0.057,1.364,0.086,2.047l0.202,4.858c0.103,2.43,0.273,4.537,0.521,6.319c0.248,1.783,0.499,3.246,0.762,4.388
		c0.782,3.426,1.545,5.807,2.283,7.145c0.74,1.336,1.644,1.979,2.708,1.938c0.727-0.031,1.757-0.416,3.092-1.154l2.563-1.452
		L87,45.033c1.412-0.957,2.34-1.742,2.784-2.359c0.322-0.438,0.37-0.825,0.144-1.157l-1.973-4.272
		c-0.329-0.713-0.656-1.648-0.98-2.81c-0.326-1.161-0.66-2.761-1.001-4.794l-0.384-2.995c-0.091-1.149-0.155-2.215-0.196-3.194
		c-0.041-0.98-0.079-1.876-0.111-2.686c-0.073-1.748,0-2.81,0.219-3.182c0.219-0.373,1.04-0.65,2.463-0.84
		c1.422-0.188,2.154-0.304,2.195-0.348c0.082-0.089,0.278-0.975,0.594-2.651l0.3-1.998c-0.106-0.551-0.435-0.954-0.979-1.208
		c-0.545-0.255-1.396-0.356-2.544-0.31h-1.536c-0.158-0.722-0.252-1.441-0.283-2.166c-0.03-0.727,0.011-1.538,0.122-2.439
		c0.111-0.899,0.325-1.679,0.639-2.333l0.553-2.137c0.069-0.345-0.048-0.628-0.355-0.851c-0.309-0.223-0.739-0.321-1.293-0.299
		c-0.976,0.169-2.071,0.516-3.288,1.034l-3.021,1.28c-2.188,0.816-3.554,1.61-4.098,2.381c-0.544,0.771-0.915,2.376-1.109,4.819
		l-0.133,1.415l-0.516-0.042c-1.875,0.078-3.052,0.287-3.527,0.628c-0.479,0.34-0.791,1.261-0.94,2.762l0.111,1.147L69.363,18.545z"
		/>
	<path fill="#020304" d="M36.675,38.582c0-1.151-0.182-2.133-0.544-2.943c-0.361-0.813-0.862-1.45-1.504-1.922
		c-0.372-0.334-0.511,6.513-9.729,7.427c-0.727,0-1.579-0.106-2.562-0.319c-2.304-0.47-5.143-1.382-6.849-3.345
		c-0.98-1.194-1.76-2.582-2.336-4.16c-0.575-1.579-0.863-3.437-0.863-5.568c0-0.213,0-0.533,0-0.96c0-0.938,0.063-1.897,0.191-2.88
		c0.427-2.986,1.163-5.312,2.208-6.976s3.146-3.016,4.641-3.44c0.597-0.213,1.259-0.32,1.983-0.32c0.938,0,1.67,0.168,2.274,0.454
		c1.388,0.705,1.591,1.432,2.189,2.551c2.851,3.229,6.574,1.375,7.32,0.631c0.836-0.775,1.513-2.971,1.513-4.419
		c0-1.109-0.463-3.136-1.019-4.073c-0.684-1.152-1.944-2.193-3.16-2.854c-1.218-0.662-2.935-1.184-5.152-1.566
		c-0.727-0.128-1.439-0.192-2.145-0.192c-0.703,0-1.439,0-2.208,0c-4.14,0-7.604,0.854-10.399,2.562s-5.216,4.31-7.264,7.808
		C1.088,17.742,0,22.201,0,27.449c0,0.384,0.012,0.896,0.032,1.536s0.116,1.749,0.287,3.328c0.47,4.14,1.621,7.681,3.456,10.624
		l1.151,1.729c1.877,2.561,3.937,4.383,6.177,5.471c2.239,1.09,5.259,1.635,9.057,1.635c0.555-0.043,1.248-0.064,2.08-0.064
		c0.831,0,1.482-0.043,1.951-0.129c3.584-0.555,6.433-1.791,8.544-3.711c2.112-1.92,3.359-4.309,3.744-7.168
		C36.611,39.923,36.675,39.22,36.675,38.582z"/>
	<path fill="#020304" d="M33.118,59.926c-1.183-1.051-2.01-1.936-4.269-2.619c-4.449-0.996-13.362-1.096-19.399,2.08
		c-0.635,0.058-1.446,1.826-1.573,2.683l-0.183,1.379c-0.139,1.897-0.212,3.149-0.228,3.76c-0.015,0.606-0.033,1.543-0.058,2.809
		c-0.023,1.267-0.004,2.451,0.06,3.558c0.063,1.104,0.185,2.662,0.358,4.668l0.639,7.27c0.146,1.672,0.314,3.113,0.506,4.326
		c0.127,0.809,0.436,2.813,0.919,6.01c1.732,9.744,6.188,11.547,12.33,8.521c2.397-0.886,2.057-5.285-1.03-13.201l-0.641-2.672
		c-0.167-0.761-0.273-1.408-0.32-1.943c-0.099-1.102,0.108-2.004,0.62-2.708c0.514-0.701,1.626-1.615,3.349-2.744l0.667-0.463
		l1.854-1.321c2.658-1.951,4.656-3.744,5.995-5.378c1.217-1.487,2.021-2.965,2.416-4.432c0.396-1.465,0.539-2.783,0.438-3.953
		C35.28,63.907,34.959,61.146,33.118,59.926z"/>
	<circle fill="#020304" cx="169.496" cy="76.262" r="5.04"/>
	<circle fill="#020304" cx="169.496" cy="88.698" r="5.04"/>
</g>
<path id="shape2" fill="#020304" d="M118.467,62.283l-0.496,0.144l-0.404-1.364c-0.668-2.354-1.348-3.858-2.029-4.508
	c-0.686-0.65-2.178-1.162-4.48-1.537l-3.213-0.666c-1.295-0.272-2.438-0.397-3.427-0.375c-0.548,0.086-0.951,0.269-1.21,0.545
	c-0.26,0.279-0.32,0.58-0.185,0.904l0.958,1.988c0.437,0.58,0.796,1.301,1.079,2.164c0.285,0.86,0.483,1.649,0.597,2.366
	c0.11,0.72,0.16,1.443,0.146,2.183l-1.508,0.299c-1.139,0.178-1.95,0.443-2.436,0.801c-0.483,0.355-0.728,0.814-0.727,1.375
	l0.688,1.902c0.636,1.584,1.001,2.412,1.1,2.481c0.049,0.035,0.789,0.009,2.222-0.086c1.434-0.094,2.291,0.021,2.578,0.345
	c0.289,0.319,0.565,1.348,0.836,3.073c0.125,0.804,0.264,1.689,0.413,2.656c0.15,0.971,0.294,2.027,0.431,3.172l0.21,3.015
	c0.063,2.063,0.046,3.691-0.05,4.896c-0.093,1.201-0.229,2.186-0.415,2.947l-1.101,4.573c-0.159,0.37-0.037,0.739,0.365,1.108
	c0.557,0.519,1.619,1.106,3.188,1.771l1.235,0.457l2.801,0.925c1.453,0.465,2.539,0.641,3.256,0.527
	c1.056-0.163,1.813-0.975,2.277-2.428c0.466-1.453,0.747-3.938,0.849-7.451c0.032-1.172-0.003-2.653-0.107-4.45
	c-0.106-1.798-0.35-3.896-0.725-6.302l-0.748-4.807c-0.104-0.674-0.209-1.348-0.313-2.023c-0.104-0.674-0.229-1.346-0.379-2.014
	c-0.063-0.422-0.072-0.744-0.021-0.969c0.018-0.174,0.135-0.463,0.353-0.863c0.219-0.4,0.562-0.639,1.021-0.711
	c0.677-0.104,1.555,0.127,2.636,0.691l-0.104-3.156l-0.113-1.148c-0.438-1.442-0.929-2.285-1.462-2.524
	C121.518,61.97,120.323,61.994,118.467,62.283"/>
<g>
	<circle fill="#FFFFFF" cx="17.844" cy="65.385" r="3.2"/>
</g>
</svg>
