<?xml version="1.0" standalone="no"?>
<!DOCTYPE svg PUBLIC "-//W3C//DTD SVG 20010904//EN" "http://www.w3.org/TR/2001/REC-SVG-20010904/DTD/svg10.dtd">
<!-- Created using Krita: http://krita.org -->
<svg xmlns="http://www.w3.org/2000/svg" 
    xmlns:xlink="http://www.w3.org/1999/xlink"
    xmlns:krita="http://krita.org/namespaces/svg/krita"
    xmlns:sodipodi="http://sodipodi.sourceforge.net/DTD/sodipodi-0.dtd"
    width="240pt"
    height="240pt"
    viewBox="0 0 240 240">
<defs/>
<path id="shape0" transform="matrix(0.889290775674852 0.864737333492983 -0.86473381847418 0.889287160850238 32.0681706872097 190.509359812203)" fill="#000000" fill-rule="evenodd" stroke="#000000" stroke-opacity="0" stroke-width="0" stroke-linecap="square" stroke-linejoin="bevel" d="M11.0086 0L0 7.52843C3.54474 24.3763 7.21427 32.7406 11.0086 32.6214C16.7 32.4426 15.8381 21.093 15.7903 18.782C15.7425 16.4711 14.1711 12.4532 11.0086 0Z"/><path id="shape1" transform="matrix(-0.889290775674852 -0.864737333492983 -0.86473381847418 0.889287160850238 51.6478327081317 209.54842463756)" fill="#000000" fill-rule="evenodd" stroke="#000000" stroke-opacity="0" stroke-width="0" stroke-linecap="square" stroke-linejoin="bevel" d="M11.0086 0L0 7.52843C3.54474 24.3763 7.21427 32.7406 11.0086 32.6214C16.7 32.4426 15.8381 21.093 15.7903 18.782C15.7425 16.4711 14.1711 12.4532 11.0086 0Z"/><path id="shape2" transform="matrix(0.762544100030026 0.978332765856105 -0.97832977876722 0.762540038058317 111.040738971819 73.9291245923242)" fill="#000000" fill-rule="evenodd" stroke="#000000" stroke-opacity="0" stroke-width="0" stroke-linecap="square" stroke-linejoin="bevel" d="M8.4202 0L0 4.79585L3.43319 20.1137L13.0442 20.7596C12.2218 18.6265 10.6804 11.7067 8.4202 0Z"/><path id="shape3" transform="matrix(0.889290775674852 0.864737333492983 -0.86473381847418 0.889287160850238 139.482267768993 50.4480440790392)" fill="#000000" fill-rule="evenodd" stroke="#000000" stroke-opacity="0" stroke-width="0" stroke-linecap="square" stroke-linejoin="bevel" d="M32.9422 0L0 15.8443L14.7303 150.31C18.0692 150.407 24.3379 151.906 27.643 152.002C30.9481 152.099 31.3136 150.602 32.6312 150.661C32.6154 150.829 32.719 100.608 32.9422 0Z"/><path id="shape4" transform="matrix(-0.889290775674852 -0.864737333492983 -0.86473381847418 0.889287160850238 188.647624270618 98.2559382396241)" fill="#000000" fill-rule="evenodd" stroke="#000000" stroke-opacity="0" stroke-width="0" stroke-linecap="square" stroke-linejoin="bevel" d="M32.9422 0L0 15.8443L14.7303 150.31C18.0692 150.407 24.3379 151.906 27.643 152.002C30.9481 152.099 31.3136 150.602 32.6312 150.661C32.6154 150.829 32.719 100.608 32.9422 0Z"/><ellipse id="shape5" transform="matrix(0.889290775674852 0.864737333492983 -0.86473381847418 0.889287160850238 173.690509880799 -1.0888281406171)" rx="36.8362445276939" ry="36.7364173067516" cx="36.8362445276939" cy="36.7364173067516" fill="#000000" fill-rule="evenodd" stroke="#000000" stroke-width="12.9408" stroke-linecap="square" stroke-linejoin="bevel"/><ellipse id="shape6" transform="matrix(0.889290775674852 0.864737333492983 -0.86473381847418 0.889287160850238 161.381198135309 15.3968150347411)" rx="3.26629279026937" ry="3.26629279026937" cx="3.26629279026937" cy="3.26629279026937" fill="#ffffff" fill-rule="evenodd" stroke="#000000" stroke-opacity="0" stroke-width="0" stroke-linecap="square" stroke-linejoin="bevel"/><ellipse id="shape7" transform="matrix(0.889290775674852 0.864737333492983 -0.86473381847418 0.889287160850238 204.892663839657 40.6822908182585)" rx="3.26629279026937" ry="3.26629279026937" cx="3.26629279026937" cy="3.26629279026937" fill="#ffffff" fill-rule="evenodd" stroke="#000000" stroke-opacity="0" stroke-width="0" stroke-linecap="square" stroke-linejoin="bevel"/><path id="shape8" transform="matrix(1.08002718376949 0.610040336662641 -0.610036017651622 1.08002458214346 150.26975766988 24.8492074243082)" fill="none" stroke="#ffffff" stroke-width="1" stroke-linecap="square" stroke-linejoin="bevel" d="M26.4057 4.64315C19.4762 4.61628 1.25604 3.07185 0 0C1.26001 3.00489 19.3988 4.47965 26.4057 4.64315Z"/><path id="shape9" transform="matrix(-1.08002718376949 -0.610040336662641 -0.610036017651622 1.08002458214346 206.460087765445 56.5876380895858)" fill="none" stroke="#ffffff" stroke-width="1" stroke-linecap="square" stroke-linejoin="bevel" d="M26.4057 4.64315C19.4762 4.61628 1.25604 3.07185 0 0C1.26001 3.00489 19.3988 4.47965 26.4057 4.64315Z"/>
</svg>
