<?xml version="1.0" standalone="no"?>
<!DOCTYPE svg PUBLIC "-//W3C//DTD SVG 20010904//EN" "http://www.w3.org/TR/2001/REC-SVG-20010904/DTD/svg10.dtd">
<!-- Created using Krita: http://krita.org -->
<svg xmlns="http://www.w3.org/2000/svg" 
    xmlns:xlink="http://www.w3.org/1999/xlink"
    xmlns:krita="http://krita.org/namespaces/svg/krita"
    xmlns:sodipodi="http://sodipodi.sourceforge.net/DTD/sodipodi-0.dtd"
    width="480pt"
    height="480pt"
    viewBox="0 0 480 480">
<defs/>
<rect id="shape0" transform="matrix(0.43301270189222 0.25 -0.25 0.43301270189222 57.170468048334 78.1095709721386)" fill="#000000" fill-rule="evenodd" stroke="#000000" stroke-opacity="0" stroke-width="0" stroke-linecap="square" stroke-linejoin="bevel" width="112.513130395202" height="203.910008933254"/><rect id="shape1" transform="matrix(0.43301270189222 0.25 -0.25 0.43301270189222 46.561142275358 106.902027442584)" fill="#ffffff" fill-rule="evenodd" stroke="#000000" stroke-opacity="0" stroke-width="0" stroke-linecap="square" stroke-linejoin="bevel" width="91.68" height="70.6896204245158"/><circle id="shape2" transform="matrix(0.43301270189222 0.25 -0.25 0.43301270189222 47.953511987867 101.130372357599)" r="4.2" cx="4.2" cy="4.2" fill="#ffffff" fill-rule="evenodd" stroke="#000000" stroke-opacity="0" stroke-width="0" stroke-linecap="square" stroke-linejoin="bevel"/><circle id="shape3" transform="matrix(-0.43301270189222 -0.25 -0.25 0.43301270189222 90.561961854061 125.730372357599)" r="4.2" cx="4.2" cy="4.2" fill="#ffffff" fill-rule="evenodd" stroke="#000000" stroke-opacity="0" stroke-width="0" stroke-linecap="square" stroke-linejoin="bevel"/><path id="shape01" transform="matrix(0.433012682331581 0.24999998870666 -0.24999998870666 0.433012682331581 49.9327925861595 157.112859744632)" fill="none" stroke="#ffffff" stroke-width="2.96" stroke-linecap="square" stroke-linejoin="miter" stroke-miterlimit="2" d="M0 0L33.8429 0"/><path id="shape01" transform="matrix(-0.433012682331581 -0.24999998870666 -0.24999998870666 0.433012682331581 41.0900653107018 152.007508771777)" fill="none" stroke="#ffffff" stroke-width="2.96" stroke-linecap="square" stroke-linejoin="miter" stroke-miterlimit="2" d="M0 0L33.8429 0"/><path id="shape4" transform="matrix(0.43301270189222 0.25 -0.25 0.43301270189222 45.5661576718773 148.60146666724)" fill="#ffffff" fill-rule="evenodd" stroke="#000000" stroke-opacity="0" stroke-width="0" stroke-linecap="square" stroke-linejoin="bevel" d="M0 0L11.7278 10.5929L0 21.12Z"/><path id="shape02" transform="matrix(0.548054487248448 8.93115428007481e-05 -8.92902134876519e-05 0.547923601302626 181.227815742227 228.129083911019)" fill="#000000" fill-rule="evenodd" stroke="#000000" stroke-opacity="0" stroke-width="0" stroke-linecap="square" stroke-linejoin="bevel" d="M59.9436 96.2305C6.91773 135.145 -28.423 11.961 30.7799 5.96341C34.5184 1.52154 38.5204 -1.63668 43.2894 0.908982C53.0247 0.399831 75.2141 88.1856 71.0529 91.7782C68.1985 96.317 64.4954 97.8011 59.9436 96.2305Z"/><path id="shape11" transform="matrix(-0.548054487248448 -8.93115428007481e-05 -8.92902134876519e-05 0.547923601302626 281.174175855966 228.145371276285)" fill="#000000" fill-rule="evenodd" stroke="#000000" stroke-opacity="0" stroke-width="0" stroke-linecap="square" stroke-linejoin="bevel" d="M59.9436 96.2305C6.91773 135.145 -28.423 11.961 30.7799 5.96341C34.5184 1.52154 38.5204 -1.63668 43.2894 0.908982C53.0247 0.399831 75.2141 88.1856 71.0529 91.7782C68.1985 96.317 64.4954 97.8011 59.9436 96.2305Z"/><path id="shape011" transform="matrix(0.548054487248448 8.93115428007481e-05 -8.92902134876519e-05 0.547923601302626 180.669549135934 170.591590932343)" fill="#000000" fill-rule="evenodd" stroke="#000000" stroke-opacity="0" stroke-width="0" stroke-linecap="square" stroke-linejoin="bevel" d="M32.2502 116.373L26.382 99.3368C23.0424 96.7118 22.7188 93.4481 22.3735 90.1437C17.7652 58.0466 58.4604 15.9925 98.5726 20.3126L104.787 11.8032L99.1131 0.25477C43.1909 -4.04954 -5.36113 46.9483 0.477621 95.5526C1.49992 99.9454 1.52314 103.32 0.50441 105.919L7.06545 129.51C14.9969 126.127 23.3918 121.748 32.2502 116.373Z"/><path id="shape11" transform="matrix(-0.548054487248448 -8.93115428007481e-05 -8.92902134876519e-05 0.547923601302626 281.834928007196 170.608076950203)" fill="#000000" fill-rule="evenodd" stroke="#000000" stroke-opacity="0" stroke-width="0" stroke-linecap="square" stroke-linejoin="bevel" d="M32.2502 116.373L26.382 99.3368C23.0424 96.7118 22.7188 93.4481 22.3735 90.1437C17.7652 58.0466 58.6532 15.9678 98.5726 20.3126L104.787 11.8032L99.1131 0.25477C43.1909 -4.04954 -5.36113 46.9483 0.477621 95.5526C1.49992 99.9454 1.52314 103.32 0.50441 105.919L7.06545 129.51C14.9969 126.127 23.3918 121.748 32.2502 116.373Z"/><ellipse id="shape02" transform="matrix(0.548054487248448 8.93115428007481e-05 -8.92902134876519e-05 0.547923601302626 182.906603880327 254.420554850654)" rx="4.23720298837662" ry="4.11950290536615" cx="4.23720298837662" cy="4.11950290536615" fill="#ffffff" fill-rule="evenodd" stroke="#000000" stroke-opacity="0" stroke-width="0" stroke-linecap="square" stroke-linejoin="bevel"/><ellipse id="shape03" transform="matrix(0.548054476213233 8.93115410024377e-05 -8.92902116897709e-05 0.547923590270046 199.355902281616 246.162515749893)" rx="4.23720298837662" ry="4.11950290536615" cx="4.23720298837662" cy="4.11950290536615" fill="#ffffff" fill-rule="evenodd" stroke="#000000" stroke-opacity="0" stroke-width="0" stroke-linecap="square" stroke-linejoin="bevel"/><path id="shape12" transform="matrix(0.548054487248448 8.93115428007481e-05 -8.92902134876519e-05 0.547923601302626 185.222594380417 252.208294828128)" fill="#ffffff" fill-rule="evenodd" stroke="#000000" stroke-opacity="0" stroke-width="0" stroke-linecap="square" stroke-linejoin="bevel" d="M0 15.8198C7.05061 14.5247 27.4522 5.22943 33.9182 0C32.377 7.83574 8.03735 18.0725 0 15.8198Z"/><ellipse id="shape012" transform="matrix(-0.476956266162179 -0.26989191184392 0.269956345484528 -0.476842338834253 267.385737254375 279.610355230545)" rx="4.23720298837662" ry="4.11950290536615" cx="4.23720298837662" cy="4.11950290536615" fill="#ffffff" fill-rule="evenodd" stroke="#000000" stroke-opacity="0" stroke-width="0" stroke-linecap="square" stroke-linejoin="bevel"/><path id="shape021" transform="matrix(-0.476956275765822 -0.269891917278267 0.269956350920173 -0.476842348435602 274.148341924156 275.565778851819)" fill="#ffffff" fill-rule="evenodd" stroke="#000000" stroke-opacity="0" stroke-width="0" stroke-linecap="square" stroke-linejoin="bevel" d="M0 11.0351C9.85455 8.54497 12.3392 5.22943 18.8052 0C15.1997 8.38098 2.84291 12.7041 0 11.0351Z"/><path id="shape03" transform="matrix(0.444645387837426 0.432368666746491 -0.43236690923709 0.444643580425119 288.434085343605 104.854679906101)" fill="#000000" fill-rule="evenodd" stroke="#000000" stroke-opacity="0" stroke-width="0" stroke-linecap="square" stroke-linejoin="bevel" d="M11.0086 0L0 7.52843C3.54474 24.3763 7.21427 32.7406 11.0086 32.6214C16.7 32.4426 15.8381 21.093 15.7903 18.782C15.7425 16.4711 14.1711 12.4532 11.0086 0Z"/><path id="shape12" transform="matrix(-0.444645387837426 -0.432368666746491 -0.43236690923709 0.444643580425119 298.223916354066 114.37421231878)" fill="#000000" fill-rule="evenodd" stroke="#000000" stroke-opacity="0" stroke-width="0" stroke-linecap="square" stroke-linejoin="bevel" d="M11.0086 0L0 7.52843C3.54474 24.3763 7.21427 32.7406 11.0086 32.6214C16.7 32.4426 15.8381 21.093 15.7903 18.782C15.7425 16.4711 14.1711 12.4532 11.0086 0Z"/><path id="shape21" transform="matrix(0.381272050015013 0.489166382928052 -0.48916488938361 0.381270019029159 327.92036948591 46.5645622961621)" fill="#000000" fill-rule="evenodd" stroke="#000000" stroke-opacity="0" stroke-width="0" stroke-linecap="square" stroke-linejoin="bevel" d="M8.4202 0L0 4.79585L3.43319 20.1137L13.0442 20.7596C12.2218 18.6265 10.6804 11.7067 8.4202 0Z"/><path id="shape31" transform="matrix(0.444645387837426 0.432368666746491 -0.43236690923709 0.444643580425119 342.141133884497 34.8240220395196)" fill="#000000" fill-rule="evenodd" stroke="#000000" stroke-opacity="0" stroke-width="0" stroke-linecap="square" stroke-linejoin="bevel" d="M32.9422 0L0 15.8443L14.7303 150.31C18.0692 150.407 24.3379 151.906 27.643 152.002C30.9481 152.099 31.3136 150.602 32.6312 150.661C32.6154 150.829 32.719 100.608 32.9422 0Z"/><path id="shape41" transform="matrix(-0.444645387837426 -0.432368666746491 -0.43236690923709 0.444643580425119 366.723812135309 58.7279691198121)" fill="#000000" fill-rule="evenodd" stroke="#000000" stroke-opacity="0" stroke-width="0" stroke-linecap="square" stroke-linejoin="bevel" d="M32.9422 0L0 15.8443L14.7303 150.31C18.0692 150.407 24.3379 151.906 27.643 152.002C30.9481 152.099 31.3136 150.602 32.6312 150.661C32.6154 150.829 32.719 100.608 32.9422 0Z"/><ellipse id="shape5" transform="matrix(0.444645387837426 0.432368666746491 -0.43236690923709 0.444643580425119 359.2452549404 9.05558592969145)" rx="36.8362445276939" ry="36.7364173067516" cx="36.8362445276939" cy="36.7364173067516" fill="#000000" fill-rule="evenodd" stroke="#000000" stroke-width="12.9408" stroke-linecap="square" stroke-linejoin="bevel"/><circle id="shape6" transform="matrix(0.444645387837426 0.432368666746491 -0.43236690923709 0.444643580425119 353.090599067655 17.2984075173706)" r="3.26629279026937" cx="3.26629279026937" cy="3.26629279026937" fill="#ffffff" fill-rule="evenodd" stroke="#000000" stroke-opacity="0" stroke-width="0" stroke-linecap="square" stroke-linejoin="bevel"/><circle id="shape7" transform="matrix(0.444645387837426 0.432368666746491 -0.43236690923709 0.444643580425119 374.846331919829 29.9411454091293)" r="3.26629279026937" cx="3.26629279026937" cy="3.26629279026937" fill="#ffffff" fill-rule="evenodd" stroke="#000000" stroke-opacity="0" stroke-width="0" stroke-linecap="square" stroke-linejoin="bevel"/><path id="shape8" transform="matrix(0.540013591884745 0.305020168331321 -0.305018008825811 0.54001229107173 347.53487883494 22.0246037121541)" fill="none" stroke="#ffffff" stroke-width="1" stroke-linecap="square" stroke-linejoin="bevel" d="M26.4057 4.64315C19.4762 4.61628 1.25604 3.07185 0 0C1.26001 3.00489 19.3988 4.47965 26.4057 4.64315Z"/><path id="shape9" transform="matrix(-0.540013591884745 -0.305020168331321 -0.305018008825811 0.54001229107173 375.630043882723 37.8938190447929)" fill="none" stroke="#ffffff" stroke-width="1" stroke-linecap="square" stroke-linejoin="bevel" d="M26.4057 4.64315C19.4762 4.61628 1.25604 3.07185 0 0C1.26001 3.00489 19.3988 4.47965 26.4057 4.64315Z"/><circle id="shape04" transform="matrix(0.5 0 0 0.5 103.92 366.48)" r="110.28" cx="110.28" cy="110.28" fill="#000000" fill-rule="evenodd" stroke="#000000" stroke-opacity="0" stroke-width="0" stroke-linecap="square" stroke-linejoin="bevel"/><path id="shape13" transform="matrix(0.5 0 0 0.5 111.854486308832 374.41446789783)" fill="none" stroke="#ffffff" stroke-width="4.8" stroke-linecap="square" stroke-linejoin="bevel" d="M94.531 3.6822e-05C42.323 3.6822e-05 6.43929e-15 42.323 0 94.5311C0.0385566 42.3551 42.296 -0.0456103 94.531 3.6822e-05Z"/><path id="shape22" transform="matrix(-0.5 0 0 -0.5 206.385513691169 468.94553210217)" fill="none" stroke="#ffffff" stroke-width="4.8" stroke-linecap="square" stroke-linejoin="bevel" d="M94.531 3.6822e-05C42.323 3.6822e-05 6.43929e-15 42.323 0 94.5311C0.0385566 42.3551 42.296 -0.0456103 94.531 3.6822e-05Z"/><circle id="shape32" transform="matrix(0.5 0 0 0.5 150.89489647702 413.45489647702)" r="16.4502070459604" cx="16.4502070459604" cy="16.4502070459604" fill="none" stroke="#ffffff" stroke-width="4.8" stroke-linecap="square" stroke-linejoin="bevel"/><ellipse id="shape42" transform="matrix(0.5 0 0 0.5 124.745355827653 409.961905153534)" rx="6.38895411708147" ry="6.38895411708148" cx="6.38895411708147" cy="6.38895411708148" fill="#ffffff" fill-rule="evenodd" stroke="#000000" stroke-opacity="0" stroke-width="0" stroke-linecap="square" stroke-linejoin="bevel"/><ellipse id="shape51" transform="matrix(-0.5 0 0 0.5 193.494644172347 409.961905153534)" rx="6.38895411708147" ry="6.38895411708148" cx="6.38895411708147" cy="6.38895411708148" fill="#ffffff" fill-rule="evenodd" stroke="#000000" stroke-opacity="0" stroke-width="0" stroke-linecap="square" stroke-linejoin="bevel"/><ellipse id="shape05" transform="matrix(0.577251486765005 0 0 0.57726201241314 382.571829714666 339.339706787325)" rx="43.271172564866" ry="41.2291621741645" cx="43.271172564866" cy="41.2291621741645" fill="#000000" fill-rule="evenodd" stroke="#000000" stroke-width="1.2" stroke-linecap="square" stroke-linejoin="bevel"/><circle id="shape14" transform="matrix(0.577251486765005 0 0 0.57726201241314 438.370857882151 359.040019771597)" r="12.24" cx="12.24" cy="12.24" fill="#000000" fill-rule="evenodd" stroke="#000000" stroke-opacity="0" stroke-width="0" stroke-linecap="square" stroke-linejoin="bevel"/><path id="shape06" transform="matrix(0.57725148751591 0 0 0.57726201316406 393.691607638896 284.201137061054)" fill="#000000" stroke="#000000" stroke-opacity="0" stroke-width="0" stroke-linecap="square" stroke-linejoin="bevel" d="M64.4807 153.078C76.0514 116.868 66.5577 60.8324 34.963 14.8224C94.1234 0.157092 93.7131 43.4858 82.6223 58.0278C106.58 42.554 93.1421 -32.1268 0.341789 15.8813C-1.22588 17.3928 2.59922 20.4937 11.8171 25.184L21.6045 20.6862C41.7431 47.8251 51.0056 78.5038 49.3921 112.723C48.1275 139.541 55.6632 118.368 64.4807 153.078Z"/><ellipse id="shape23" transform="matrix(0.577251486765005 0 0 0.57726201241314 409.787201482765 355.779262981069)" rx="3.88574672479323" ry="3.88574672479322" cx="3.88574672479323" cy="3.88574672479322" fill="#ffffff" fill-rule="evenodd" stroke="#000000" stroke-opacity="0" stroke-width="0" stroke-linecap="square" stroke-linejoin="bevel"/><ellipse id="shape33" transform="matrix(0.577251486765005 0 0 0.57726201241314 385.079811166432 355.779262981069)" rx="3.88574672479323" ry="3.88574672479322" cx="3.88574672479323" cy="3.88574672479322" fill="#ffffff" fill-rule="evenodd" stroke="#000000" stroke-opacity="0" stroke-width="0" stroke-linecap="square" stroke-linejoin="bevel"/><path id="shape43" transform="matrix(0.577121830678025 0.0122342545971643 -0.01223403152089 0.577132353962 388.523535193026 360.441075221879)" fill="#ffffff" fill-rule="evenodd" stroke="#000000" stroke-opacity="0" stroke-width="0" stroke-linecap="square" stroke-linejoin="bevel" d="M0 1.55283C9.76265 4.0638 17.3299 7.08481 36.7778 0C24.8791 8.0509 12.6198 8.56851 0 1.55283Z"/><ellipse id="shape52" transform="matrix(0.125286492754897 0 0 0.125289213605031 448.83858674036 362.970511249618)" rx="3.88574672479323" ry="3.88574672479322" cx="3.88574672479323" cy="3.88574672479322" fill="#ffffff" fill-rule="evenodd" stroke="#000000" stroke-opacity="0" stroke-width="0" stroke-linecap="square" stroke-linejoin="bevel"/><ellipse id="shape61" transform="matrix(0.125286492754897 0 0 0.125289213605031 443.47610201952 362.970511249618)" rx="3.88574672479323" ry="3.88574672479322" cx="3.88574672479323" cy="3.88574672479322" fill="#ffffff" fill-rule="evenodd" stroke="#000000" stroke-opacity="0" stroke-width="0" stroke-linecap="square" stroke-linejoin="bevel"/><path id="shape71" transform="matrix(0.125258352235947 0.00265532826439554 -0.00265527059981247 0.125261072474953 444.22352686848 363.982313129987)" fill="#ffffff" fill-rule="evenodd" stroke="#000000" stroke-opacity="0" stroke-width="0" stroke-linecap="square" stroke-linejoin="bevel" d="M0 1.55283C17.8409 1.06574 19.811 1.03724 36.7778 0C25.2986 9.1136 13.0394 9.63121 0 1.55283Z"/>
</svg>
