<?xml version="1.0" standalone="no"?>
<!DOCTYPE svg PUBLIC "-//W3C//DTD SVG 20010904//EN" "http://www.w3.org/TR/2001/REC-SVG-20010904/DTD/svg10.dtd">
<!-- Created using Krita: http://krita.org -->
<svg xmlns="http://www.w3.org/2000/svg" 
    xmlns:xlink="http://www.w3.org/1999/xlink"
    xmlns:krita="http://krita.org/namespaces/svg/krita"
    xmlns:sodipodi="http://sodipodi.sourceforge.net/DTD/sodipodi-0.dtd"
    width="480pt"
    height="480pt"
    viewBox="0 0 480 480">
<defs/>
<rect id="shape0" transform="matrix(0.108253175473055 0.0625 -0.0625 0.108253175473055 56.0526170120835 121.767392743035)" fill="#000000" fill-rule="evenodd" stroke="#000000" stroke-opacity="0" stroke-width="0" stroke-linecap="square" stroke-linejoin="bevel" width="112.513130395202" height="203.910008933254"/><rect id="shape1" transform="matrix(0.108253175473055 0.0625 -0.0625 0.108253175473055 53.4002855688395 128.965506860646)" fill="#ffffff" fill-rule="evenodd" stroke="#000000" stroke-opacity="0" stroke-width="0" stroke-linecap="square" stroke-linejoin="bevel" width="91.68" height="70.6896204245158"/><circle id="shape2" transform="matrix(0.108253175473055 0.0625 -0.0625 0.108253175473055 53.7483779969668 127.5225930894)" r="4.2" cx="4.2" cy="4.2" fill="#ffffff" fill-rule="evenodd" stroke="#000000" stroke-opacity="0" stroke-width="0" stroke-linecap="square" stroke-linejoin="bevel"/><circle id="shape3" transform="matrix(-0.108253175473055 -0.0625 -0.0625 0.108253175473055 64.4004904635152 133.6725930894)" r="4.2" cx="4.2" cy="4.2" fill="#ffffff" fill-rule="evenodd" stroke="#000000" stroke-opacity="0" stroke-width="0" stroke-linecap="square" stroke-linejoin="bevel"/><path id="shape01" transform="matrix(0.108253170582895 0.062499997176665 -0.062499997176665 0.108253170582895 54.2431981465399 141.518214936158)" fill="none" stroke="#ffffff" stroke-width="2.96" stroke-linecap="square" stroke-linejoin="miter" stroke-miterlimit="2" d="M0 0L33.8429 0"/><path id="shape011" transform="matrix(-0.108253170582895 -0.062499997176665 -0.062499997176665 0.108253170582895 52.0325163276755 140.241877192944)" fill="none" stroke="#ffffff" stroke-width="2.96" stroke-linecap="square" stroke-linejoin="miter" stroke-miterlimit="2" d="M0 0L33.8429 0"/><path id="shape4" transform="matrix(0.108253175473055 0.0625 -0.0625 0.108253175473055 53.1515394179693 139.39036666681)" fill="#ffffff" fill-rule="evenodd" stroke="#000000" stroke-opacity="0" stroke-width="0" stroke-linecap="square" stroke-linejoin="bevel" d="M0 0L11.7278 10.5929L0 21.12Z"/><path id="shape011" transform="matrix(0.137013621812112 2.2327885700187e-05 -2.2322553371913e-05 0.136980900325656 218.466953239663 227.672271110423)" fill="#000000" fill-rule="evenodd" stroke="#000000" stroke-opacity="0" stroke-width="0" stroke-linecap="square" stroke-linejoin="bevel" d="M59.9436 96.2305C6.91773 135.145 -28.423 11.961 30.7799 5.96341C34.5184 1.52154 38.5204 -1.63668 43.2894 0.908982C53.0247 0.399831 75.2141 88.1856 71.0529 91.7782C68.1985 96.317 64.4954 97.8011 59.9436 96.2305Z"/><path id="shape11" transform="matrix(-0.137013621812112 -2.2327885700187e-05 -2.2322553371913e-05 0.136980900325656 243.453544659842 227.676342951967)" fill="#000000" fill-rule="evenodd" stroke="#000000" stroke-opacity="0" stroke-width="0" stroke-linecap="square" stroke-linejoin="bevel" d="M59.9436 96.2305C6.91773 135.145 -28.423 11.961 30.7799 5.96341C34.5184 1.52154 38.5204 -1.63668 43.2894 0.908982C53.0247 0.399831 75.2141 88.1856 71.0529 91.7782C68.1985 96.317 64.4954 97.8011 59.9436 96.2305Z"/><path id="shape012" transform="matrix(0.137013621812112 2.2327885700187e-05 -2.2322553371913e-05 0.136980900325656 218.327387369117 213.287897693638)" fill="#000000" fill-rule="evenodd" stroke="#000000" stroke-opacity="0" stroke-width="0" stroke-linecap="square" stroke-linejoin="bevel" d="M32.2502 116.373L26.382 99.3368C23.0424 96.7118 22.7188 93.4481 22.3735 90.1437C17.7652 58.0466 58.4604 15.9925 98.5726 20.3126L104.787 11.8032L99.1131 0.25477C43.1909 -4.04954 -5.36113 46.9483 0.477621 95.5526C1.49992 99.9454 1.52314 103.32 0.50441 105.919L7.06545 129.51C14.9969 126.127 23.3918 121.748 32.2502 116.373Z"/><path id="shape111" transform="matrix(-0.137013621812112 -2.2327885700187e-05 -2.2322553371913e-05 0.136980900325656 243.618731916679 213.292019198076)" fill="#000000" fill-rule="evenodd" stroke="#000000" stroke-opacity="0" stroke-width="0" stroke-linecap="square" stroke-linejoin="bevel" d="M32.2502 116.373L26.382 99.3368C23.0424 96.7118 22.7188 93.4481 22.3735 90.1437C17.7652 58.0466 58.6532 15.9678 98.5726 20.3126L104.787 11.8032L99.1131 0.25477C43.1909 -4.04954 -5.36113 46.9483 0.477621 95.5526C1.49992 99.9454 1.52314 103.32 0.50441 105.919L7.06545 129.51C14.9969 126.127 23.3918 121.748 32.2502 116.373Z"/><ellipse id="shape02" transform="matrix(0.137013621812112 2.2327885700187e-05 -2.2322553371913e-05 0.136980900325656 218.886650970082 234.245138712664)" rx="4.23720298837662" ry="4.11950290536615" cx="4.23720298837662" cy="4.11950290536615" fill="#ffffff" fill-rule="evenodd" stroke="#000000" stroke-opacity="0" stroke-width="0" stroke-linecap="square" stroke-linejoin="bevel"/><ellipse id="shape03" transform="matrix(0.137013619053308 2.23278852506094e-05 -2.23225529224427e-05 0.136980897567512 222.998975570404 232.180628937473)" rx="4.23720298837662" ry="4.11950290536615" cx="4.23720298837662" cy="4.11950290536615" fill="#ffffff" fill-rule="evenodd" stroke="#000000" stroke-opacity="0" stroke-width="0" stroke-linecap="square" stroke-linejoin="bevel"/><path id="shape12" transform="matrix(0.137013621812112 2.2327885700187e-05 -2.2322553371913e-05 0.136980900325656 219.465648595104 233.692073707032)" fill="#ffffff" fill-rule="evenodd" stroke="#000000" stroke-opacity="0" stroke-width="0" stroke-linecap="square" stroke-linejoin="bevel" d="M0 15.8198C7.05061 14.5247 27.4522 5.22943 33.9182 0C32.377 7.83574 8.03735 18.0725 0 15.8198Z"/><ellipse id="shape0111" transform="matrix(-0.119239066540545 -0.06747297796098 0.067489086371132 -0.119210584708563 240.006434313594 240.542588807636)" rx="4.23720298837662" ry="4.11950290536615" cx="4.23720298837662" cy="4.11950290536615" fill="#ffffff" fill-rule="evenodd" stroke="#000000" stroke-opacity="0" stroke-width="0" stroke-linecap="square" stroke-linejoin="bevel"/><path id="shape021" transform="matrix(-0.119239068941456 -0.0674729793195668 0.0674890877300433 -0.119210587108901 241.697085481039 239.531444712955)" fill="#ffffff" fill-rule="evenodd" stroke="#000000" stroke-opacity="0" stroke-width="0" stroke-linecap="square" stroke-linejoin="bevel" d="M0 11.0351C9.85455 8.54497 12.3392 5.22943 18.8052 0C15.1997 8.38098 2.84291 12.7041 0 11.0351Z"/><path id="shape021" transform="matrix(0.111161346959357 0.108092166686623 -0.108091727309272 0.11116089510628 321.228521335901 78.4136699765252)" fill="#000000" fill-rule="evenodd" stroke="#000000" stroke-opacity="0" stroke-width="0" stroke-linecap="square" stroke-linejoin="bevel" d="M11.0086 0L0 7.52843C3.54474 24.3763 7.21427 32.7406 11.0086 32.6214C16.7 32.4426 15.8381 21.093 15.7903 18.782C15.7425 16.4711 14.1711 12.4532 11.0086 0Z"/><path id="shape121" transform="matrix(-0.111161346959357 -0.108092166686623 -0.108091727309272 0.11116089510628 323.675979088516 80.793553079695)" fill="#000000" fill-rule="evenodd" stroke="#000000" stroke-opacity="0" stroke-width="0" stroke-linecap="square" stroke-linejoin="bevel" d="M11.0086 0L0 7.52843C3.54474 24.3763 7.21427 32.7406 11.0086 32.6214C16.7 32.4426 15.8381 21.093 15.7903 18.782C15.7425 16.4711 14.1711 12.4532 11.0086 0Z"/><path id="shape21" transform="matrix(0.0953180125037533 0.122291595732013 -0.122291222345903 0.0953175047572898 331.100092371477 63.8411405740405)" fill="#000000" fill-rule="evenodd" stroke="#000000" stroke-opacity="0" stroke-width="0" stroke-linecap="square" stroke-linejoin="bevel" d="M8.4202 0L0 4.79585L3.43319 20.1137L13.0442 20.7596C12.2218 18.6265 10.6804 11.7067 8.4202 0Z"/><path id="shape31" transform="matrix(0.111161346959357 0.108092166686623 -0.108091727309272 0.11116089510628 334.655283471124 60.9060055098799)" fill="#000000" fill-rule="evenodd" stroke="#000000" stroke-opacity="0" stroke-width="0" stroke-linecap="square" stroke-linejoin="bevel" d="M32.9422 0L0 15.8443L14.7303 150.31C18.0692 150.407 24.3379 151.906 27.643 152.002C30.9481 152.099 31.3136 150.602 32.6312 150.661C32.6154 150.829 32.719 100.608 32.9422 0Z"/><path id="shape41" transform="matrix(-0.111161346959357 -0.108092166686623 -0.108091727309272 0.11116089510628 340.800953033827 66.881992279953)" fill="#000000" fill-rule="evenodd" stroke="#000000" stroke-opacity="0" stroke-width="0" stroke-linecap="square" stroke-linejoin="bevel" d="M32.9422 0L0 15.8443L14.7303 150.31C18.0692 150.407 24.3379 151.906 27.643 152.002C30.9481 152.099 31.3136 150.602 32.6312 150.661C32.6154 150.829 32.719 100.608 32.9422 0Z"/><ellipse id="shape5" transform="matrix(0.111161346959357 0.108092166686623 -0.108091727309272 0.11116089510628 338.9313137351 54.4638964824229)" rx="36.8362445276939" ry="36.7364173067516" cx="36.8362445276939" cy="36.7364173067516" fill="#000000" fill-rule="evenodd" stroke="#000000" stroke-width="12.9408" stroke-linecap="square" stroke-linejoin="bevel"/><circle id="shape6" transform="matrix(0.111161346959357 0.108092166686623 -0.108091727309272 0.11116089510628 337.392649766914 56.5246018793426)" r="3.26629279026937" cx="3.26629279026937" cy="3.26629279026937" fill="#ffffff" fill-rule="evenodd" stroke="#000000" stroke-opacity="0" stroke-width="0" stroke-linecap="square" stroke-linejoin="bevel"/><circle id="shape7" transform="matrix(0.111161346959357 0.108092166686623 -0.108091727309272 0.11116089510628 342.831582979957 59.6852863522823)" r="3.26629279026937" cx="3.26629279026937" cy="3.26629279026937" fill="#ffffff" fill-rule="evenodd" stroke="#000000" stroke-opacity="0" stroke-width="0" stroke-linecap="square" stroke-linejoin="bevel"/><path id="shape8" transform="matrix(0.135003397971186 0.0762550420828303 -0.0762545022064527 0.135003072767932 336.003719708735 57.7061509280385)" fill="none" stroke="#ffffff" stroke-width="1" stroke-linecap="square" stroke-linejoin="bevel" d="M26.4057 4.64315C19.4762 4.61628 1.25604 3.07185 0 0C1.26001 3.00489 19.3988 4.47965 26.4057 4.64315Z"/><path id="shape9" transform="matrix(-0.135003397971186 -0.0762550420828303 -0.0762545022064527 0.135003072767932 343.027510970681 61.6734547611982)" fill="none" stroke="#ffffff" stroke-width="1" stroke-linecap="square" stroke-linejoin="bevel" d="M26.4057 4.64315C19.4762 4.61628 1.25604 3.07185 0 0C1.26001 3.00489 19.3988 4.47965 26.4057 4.64315Z"/><circle id="shape031" transform="matrix(0.125 0 0 0.125 145.14 407.7)" r="110.28" cx="110.28" cy="110.28" fill="#000000" fill-rule="evenodd" stroke="#000000" stroke-opacity="0" stroke-width="0" stroke-linecap="square" stroke-linejoin="bevel"/><path id="shape13" transform="matrix(0.125 0 0 0.125 147.123621577208 409.683616974453)" fill="none" stroke="#ffffff" stroke-width="4.8" stroke-linecap="square" stroke-linejoin="bevel" d="M94.531 3.6822e-05C42.323 3.6822e-05 6.43929e-15 42.323 0 94.5311C0.0385566 42.3551 42.296 -0.0456103 94.531 3.6822e-05Z"/><path id="shape22" transform="matrix(-0.125 0 0 -0.125 170.756378422792 433.316383025546)" fill="none" stroke="#ffffff" stroke-width="4.8" stroke-linecap="square" stroke-linejoin="bevel" d="M94.531 3.6822e-05C42.323 3.6822e-05 6.43929e-15 42.323 0 94.5311C0.0385566 42.3551 42.296 -0.0456103 94.531 3.6822e-05Z"/><circle id="shape32" transform="matrix(0.125 0 0 0.125 156.883724119255 419.443724119255)" r="16.4502070459604" cx="16.4502070459604" cy="16.4502070459604" fill="none" stroke="#ffffff" stroke-width="4.8" stroke-linecap="square" stroke-linejoin="bevel"/><ellipse id="shape42" transform="matrix(0.125 0 0 0.125 150.346338956913 418.570476288383)" rx="6.38895411708147" ry="6.38895411708148" cx="6.38895411708147" cy="6.38895411708148" fill="#ffffff" fill-rule="evenodd" stroke="#000000" stroke-opacity="0" stroke-width="0" stroke-linecap="square" stroke-linejoin="bevel"/><ellipse id="shape51" transform="matrix(-0.125 0 0 0.125 167.533661043087 418.570476288383)" rx="6.38895411708147" ry="6.38895411708148" cx="6.38895411708147" cy="6.38895411708148" fill="#ffffff" fill-rule="evenodd" stroke="#000000" stroke-opacity="0" stroke-width="0" stroke-linecap="square" stroke-linejoin="bevel"/><ellipse id="shape04" transform="matrix(0.144312871691251 0 0 0.144315503103285 408.482957428667 336.114926696831)" rx="43.271172564866" ry="41.2291621741645" cx="43.271172564866" cy="41.2291621741645" fill="#000000" fill-rule="evenodd" stroke="#000000" stroke-width="1.2" stroke-linecap="square" stroke-linejoin="bevel"/><circle id="shape14" transform="matrix(0.144312871691251 0 0 0.144315503103285 422.432714470538 341.040004942899)" r="12.24" cx="12.24" cy="12.24" fill="#000000" fill-rule="evenodd" stroke="#000000" stroke-opacity="0" stroke-width="0" stroke-linecap="square" stroke-linejoin="bevel"/><path id="shape013" transform="matrix(0.144312871878978 0 0 0.144315503291015 411.26290189558 322.330291391527)" fill="#000000" stroke="#000000" stroke-opacity="0" stroke-width="0" stroke-linecap="square" stroke-linejoin="bevel" d="M64.4807 153.078C76.0514 116.868 66.5577 60.8324 34.963 14.8224C94.1234 0.157042 93.7131 43.4858 82.6223 58.0278C106.58 42.554 93.1421 -32.1268 0.341789 15.8813C-1.22588 17.3928 2.59922 20.4937 11.8171 25.184L21.6045 20.6862C41.7431 47.8251 51.0056 78.5038 49.3921 112.723C48.1275 139.541 55.6632 118.368 64.4807 153.078Z"/><ellipse id="shape23" transform="matrix(0.144312871691251 0 0 0.144315503103285 415.286800370691 340.224815745267)" rx="3.88574672479323" ry="3.88574672479322" cx="3.88574672479323" cy="3.88574672479322" fill="#ffffff" fill-rule="evenodd" stroke="#000000" stroke-opacity="0" stroke-width="0" stroke-linecap="square" stroke-linejoin="bevel"/><ellipse id="shape33" transform="matrix(0.144312871691251 0 0 0.144315503103285 409.109952791608 340.224815745267)" rx="3.88574672479323" ry="3.88574672479322" cx="3.88574672479323" cy="3.88574672479322" fill="#ffffff" fill-rule="evenodd" stroke="#000000" stroke-opacity="0" stroke-width="0" stroke-linecap="square" stroke-linejoin="bevel"/><path id="shape43" transform="matrix(0.144280457669506 0.00305856364929108 -0.0030585078802225 0.1442830884905 409.970883798257 341.39026880547)" fill="#ffffff" fill-rule="evenodd" stroke="#000000" stroke-opacity="0" stroke-width="0" stroke-linecap="square" stroke-linejoin="bevel" d="M0 1.55283C9.76265 4.0638 17.3299 7.08481 36.7778 0C24.8791 8.0509 12.6198 8.56851 0 1.55283Z"/><ellipse id="shape52" transform="matrix(0.0313216231887243 0 0 0.0313223034012578 425.04964668509 342.022627812404)" rx="3.88574672479323" ry="3.88574672479322" cx="3.88574672479323" cy="3.88574672479322" fill="#ffffff" fill-rule="evenodd" stroke="#000000" stroke-opacity="0" stroke-width="0" stroke-linecap="square" stroke-linejoin="bevel"/><ellipse id="shape61" transform="matrix(0.0313216231887243 0 0 0.0313223034012578 423.70902550488 342.022627812404)" rx="3.88574672479323" ry="3.88574672479322" cx="3.88574672479323" cy="3.88574672479322" fill="#ffffff" fill-rule="evenodd" stroke="#000000" stroke-opacity="0" stroke-width="0" stroke-linecap="square" stroke-linejoin="bevel"/><path id="shape71" transform="matrix(0.0313145880589868 0.000663832066098885 -0.000663817649953118 0.0313152681187382 423.89588171712 342.275578282497)" fill="#ffffff" fill-rule="evenodd" stroke="#000000" stroke-opacity="0" stroke-width="0" stroke-linecap="square" stroke-linejoin="bevel" d="M0 1.55283C17.8409 1.06574 19.811 1.03724 36.7778 0C25.2986 9.1136 13.0394 9.63121 0 1.55283Z"/>
</svg>
