<?xml version="1.0" standalone="no"?>
<!DOCTYPE svg PUBLIC "-//W3C//DTD SVG 20010904//EN" "http://www.w3.org/TR/2001/REC-SVG-20010904/DTD/svg10.dtd">
<!-- Created using Krita: http://krita.org -->
<svg xmlns="http://www.w3.org/2000/svg" 
    xmlns:xlink="http://www.w3.org/1999/xlink"
    xmlns:krita="http://krita.org/namespaces/svg/krita"
    xmlns:sodipodi="http://sodipodi.sourceforge.net/DTD/sodipodi-0.dtd"
    width="240pt"
    height="240pt"
    viewBox="0 0 240 240">
<defs/>
<path id="shape0" transform="matrix(1.43648239512042 0 0 1.43651085026052 18.8899814731155 17.5324769368879)" fill="#333333" fill-rule="evenodd" stroke="#000000" stroke-opacity="0" stroke-width="0" stroke-linecap="square" stroke-linejoin="bevel" d="M42.4205 16.6588C24.8647 2.94146 8.26391 -2.65144 1.74046 1.1788C-3.88597 4.48234 5.40956 53.2948 11.4605 53.7388C26.8964 54.8714 43.6721 18.5986 42.4205 16.6588Z"/><path id="shape1" transform="matrix(1.43648239512042 0 0 1.43651085026052 12.0231967464179 22.1773754708901)" fill="#8a8a8a" fill-rule="evenodd" stroke="#000000" stroke-opacity="0" stroke-width="0" stroke-linecap="square" stroke-linejoin="bevel" d="M104.801 133.574C88.5267 147.488 11.1198 135.611 2.56073 121.62C-6.37362 107.017 5.83897 -3.73554 75.0407 0.0971576C105.541 0.461745 94.893 5.32731 95.4407 16.0346C98.5366 76.559 150.925 94.1364 104.801 133.574Z"/><path id="shape01" transform="matrix(-1.43648239512042 0 0 1.43651085026052 220.745793355786 17.5324769368879)" fill="#333333" fill-rule="evenodd" stroke="#000000" stroke-opacity="0" stroke-width="0" stroke-linecap="square" stroke-linejoin="bevel" d="M42.4205 16.6588C24.8647 2.94146 8.26391 -2.65144 1.74046 1.1788C-3.88597 4.48234 5.40956 53.2948 11.4605 53.7388C26.8964 54.8714 43.6721 18.5986 42.4205 16.6588Z"/><path id="shape11" transform="matrix(-1.43648239512042 0 0 1.43651085026052 227.612578082484 22.1773754708901)" fill="#8a8a8a" fill-rule="evenodd" stroke="#000000" stroke-opacity="0" stroke-width="0" stroke-linecap="square" stroke-linejoin="bevel" d="M104.801 133.574C88.5267 147.488 11.1198 135.611 2.56073 121.62C-6.37362 107.017 5.83897 -3.73554 75.0407 0.0971576C105.541 0.461745 94.893 5.32731 95.4407 16.0346C98.5366 76.559 150.925 94.1364 104.801 133.574Z"/><path id="shape02" transform="matrix(0.995119990256223 0.0986722098285758 -0.0986722098285758 0.995119990256223 25.6546504664428 98.495700139018)" fill="#424242" fill-rule="evenodd" stroke="#000000" stroke-opacity="0" stroke-width="0" stroke-linecap="square" stroke-linejoin="bevel" d="M71.874 0.372364C71.2478 -1.77241 29.0144 5.37591 6.9015 21.096C-0.690476 26.4931 -1.70196 35.294 2.31897 41.7409C9.09967 52.6126 23.6492 47.616 26.2565 37.4244C28.4861 28.7092 21.3272 20.888 12.0626 21.3334C38.4707 4.20292 68.5989 1.11476 71.874 0.372364Z"/><path id="shape12" transform="matrix(0.932916571241536 -0.360092586848075 0.360092586848075 0.932916571241536 30.5931629817391 133.030670281308)" fill="#424242" fill-rule="evenodd" stroke="#000000" stroke-opacity="0" stroke-width="0" stroke-linecap="square" stroke-linejoin="bevel" d="M71.874 0.372364C71.2478 -1.77241 29.0144 5.37591 6.9015 21.096C-0.690476 26.4931 -1.70196 35.294 2.31897 41.7409C9.09967 52.6126 23.6492 47.616 26.2565 37.4244C28.4861 28.7092 21.3272 20.888 12.0626 21.3334C38.4707 4.20292 68.5989 1.11476 71.874 0.372364Z"/><path id="shape03" transform="matrix(-0.995119990256223 0.0986722098285758 0.0986722098285758 0.995119990256223 214.345349533557 98.495700139018)" fill="#424242" fill-rule="evenodd" stroke="#000000" stroke-opacity="0" stroke-width="0" stroke-linecap="square" stroke-linejoin="bevel" d="M71.874 0.372364C71.2478 -1.77241 29.0144 5.37591 6.9015 21.096C-0.690476 26.4931 -1.70196 35.294 2.31897 41.7409C9.09967 52.6126 23.6492 47.616 26.2565 37.4244C28.4861 28.7092 21.3272 20.888 12.0626 21.3334C38.4707 4.20292 68.5989 1.11476 71.874 0.372364Z"/><path id="shape13" transform="matrix(-0.932916571241536 -0.360092586848075 -0.360092586848075 0.932916571241536 209.406837018261 133.030670281308)" fill="#424242" fill-rule="evenodd" stroke="#000000" stroke-opacity="0" stroke-width="0" stroke-linecap="square" stroke-linejoin="bevel" d="M71.874 0.372364C71.2478 -1.77241 29.0144 5.37591 6.9015 21.096C-0.690476 26.4931 -1.70196 35.294 2.31897 41.7409C9.09967 52.6126 23.6492 47.616 26.2565 37.4244C28.4861 28.7092 21.3272 20.888 12.0626 21.3334C38.4707 4.20292 68.5989 1.11476 71.874 0.372364Z"/><path id="shape04" transform="matrix(0.999999993153327 0 0 0.999999993153327 98.9999936902701 110.000001347755)" fill="none" stroke="#474747" stroke-width="2.4" stroke-linecap="square" stroke-linejoin="miter" stroke-miterlimit="2" d="M0 5.04C11.8034 11.7811 21.4577 8.53707 20.9937 0"/><path id="shape01" transform="matrix(-0.999999993153327 0 0 0.999999993153327 141.00000630973 110.000001347755)" fill="none" stroke="#474747" stroke-width="2.4" stroke-linecap="square" stroke-linejoin="miter" stroke-miterlimit="2" d="M0 5.04C11.8034 11.7811 21.4577 8.53707 20.9937 0"/><circle id="shape05" transform="translate(44.6399999875117, 88.919999986471)" r="8.81999991622403" cx="8.81999991622403" cy="8.81999991622403" fill="#2e2e2e" fill-rule="evenodd" stroke="#000000" stroke-opacity="0" stroke-width="0" stroke-linecap="square" stroke-linejoin="bevel"/><circle id="shape14" transform="matrix(-1 0 0 1 195.360000012488 88.919999986471)" r="8.81999991622403" cx="8.81999991622403" cy="8.81999991622403" fill="#2e2e2e" fill-rule="evenodd" stroke="#000000" stroke-opacity="0" stroke-width="0" stroke-linecap="square" stroke-linejoin="bevel"/><ellipse id="shape2" transform="translate(108.24, 97.9999998174217)" rx="11.76" ry="7.08" cx="11.76" cy="7.08" fill="#666666" fill-rule="evenodd" stroke="#666666" stroke-width="2.4" stroke-linecap="square" stroke-linejoin="bevel"/>
</svg>
