<?xml version="1.0" standalone="no"?>
<!DOCTYPE svg PUBLIC "-//W3C//DTD SVG 20010904//EN" "http://www.w3.org/TR/2001/REC-SVG-20010904/DTD/svg10.dtd">
<!-- Created using Krita: http://krita.org -->
<svg xmlns="http://www.w3.org/2000/svg" 
    xmlns:xlink="http://www.w3.org/1999/xlink"
    xmlns:krita="http://krita.org/namespaces/svg/krita"
    xmlns:sodipodi="http://sodipodi.sourceforge.net/DTD/sodipodi-0.dtd"
    width="240pt"
    height="240pt"
    viewBox="0 0 240 240">
<defs/>
<ellipse id="shape0" transform="matrix(1.15450297353001 0 0 1.15452402482628 50.6636594293332 126.67941357465)" rx="43.271172564866" ry="41.2291621741645" cx="43.271172564866" cy="41.2291621741645" fill="#000000" fill-rule="evenodd" stroke="#000000" stroke-width="1.2" stroke-linecap="square" stroke-linejoin="bevel"/><ellipse id="shape1" transform="matrix(1.15450297353001 0 0 1.15452402482628 162.261715764302 166.080039543194)" rx="12.24" ry="12.24" cx="12.24" cy="12.24" fill="#000000" fill-rule="evenodd" stroke="#000000" stroke-opacity="0" stroke-width="0" stroke-linecap="square" stroke-linejoin="bevel"/><path id="shape0" transform="matrix(1.15450297503182 0 0 1.15452402632812 72.9032146136579 16.4022456170542)" fill="#000000" stroke="#000000" stroke-opacity="0" stroke-width="0" stroke-linecap="square" stroke-linejoin="bevel" d="M64.4807 153.078C76.0514 116.868 66.5577 60.8324 34.963 14.8224C94.1234 0.157117 93.7131 43.4858 82.6223 58.0278C106.58 42.554 93.1421 -32.1268 0.34179 15.8813C-1.22588 17.3928 2.59922 20.4937 11.8171 25.184L21.6045 20.6862C41.7431 47.8251 51.0056 78.5038 49.3921 112.723C48.1275 139.541 55.6632 118.368 64.4807 153.078Z"/><ellipse id="shape2" transform="matrix(1.15450297353001 0 0 1.15452402482628 105.09440296553 159.558525962138)" rx="3.88574672479323" ry="3.88574672479322" cx="3.88574672479323" cy="3.88574672479322" fill="#ffffff" fill-rule="evenodd" stroke="#000000" stroke-opacity="0" stroke-width="0" stroke-linecap="square" stroke-linejoin="bevel"/><ellipse id="shape3" transform="matrix(1.15450297353001 0 0 1.15452402482628 55.6796223328644 159.558525962138)" rx="3.88574672479323" ry="3.88574672479322" cx="3.88574672479323" cy="3.88574672479322" fill="#ffffff" fill-rule="evenodd" stroke="#000000" stroke-opacity="0" stroke-width="0" stroke-linecap="square" stroke-linejoin="bevel"/><path id="shape4" transform="matrix(1.15424366135605 0.0244685091943287 -0.0244680630417799 1.154264707924 62.5670703860512 168.882150443757)" fill="#ffffff" fill-rule="evenodd" stroke="#000000" stroke-opacity="0" stroke-width="0" stroke-linecap="square" stroke-linejoin="bevel" d="M0 1.55283C9.76265 4.0638 17.3299 7.08481 36.7778 0C24.8791 8.0509 12.6198 8.56851 0 1.55283Z"/><ellipse id="shape5" transform="matrix(0.250572985509793 0 0 0.250578427210062 183.197173480721 173.941022499235)" rx="3.88574672479323" ry="3.88574672479322" cx="3.88574672479323" cy="3.88574672479322" fill="#ffffff" fill-rule="evenodd" stroke="#000000" stroke-opacity="0" stroke-width="0" stroke-linecap="square" stroke-linejoin="bevel"/><ellipse id="shape6" transform="matrix(0.250572985509793 0 0 0.250578427210062 172.47220403904 173.941022499235)" rx="3.88574672479323" ry="3.88574672479322" cx="3.88574672479323" cy="3.88574672479322" fill="#ffffff" fill-rule="evenodd" stroke="#000000" stroke-opacity="0" stroke-width="0" stroke-linecap="square" stroke-linejoin="bevel"/><path id="shape7" transform="matrix(0.250516704471894 0.00531065652879107 -0.00531054119962494 0.250522144949906 173.967053736961 175.964626259973)" fill="#ffffff" fill-rule="evenodd" stroke="#000000" stroke-opacity="0" stroke-width="0" stroke-linecap="square" stroke-linejoin="bevel" d="M0 1.55283C17.8409 1.06574 19.811 1.03724 36.7778 0C25.2986 9.1136 13.0394 9.63121 0 1.55283Z"/>
</svg>
