<?xml version="1.0" standalone="no"?>
<!DOCTYPE svg PUBLIC "-//W3C//DTD SVG 20010904//EN" "http://www.w3.org/TR/2001/REC-SVG-20010904/DTD/svg10.dtd">
<!-- Created using Krita: http://krita.org -->
<svg xmlns="http://www.w3.org/2000/svg" 
    xmlns:xlink="http://www.w3.org/1999/xlink"
    xmlns:krita="http://krita.org/namespaces/svg/krita"
    xmlns:sodipodi="http://sodipodi.sourceforge.net/DTD/sodipodi-0.dtd"
    width="240pt"
    height="240pt"
    viewBox="0 0 240 240">
<defs/>
<ellipse id="shape0" transform="translate(9.6, 9.6)" rx="110.28" ry="110.28" cx="110.28" cy="110.28" fill="#000000" fill-rule="evenodd" stroke="#000000" stroke-opacity="0" stroke-width="0" stroke-linecap="square" stroke-linejoin="bevel"/><path id="shape1" transform="translate(25.4689726176633, 25.468935795576)" fill="none" stroke="#ffffff" stroke-width="4.8" stroke-linecap="square" stroke-linejoin="bevel" d="M94.531 3.68221e-05C42.323 3.68221e-05 6.43929e-15 42.323 0 94.5311C0.0385566 42.3551 42.296 -0.0456103 94.531 3.68221e-05Z"/><path id="shape2" transform="matrix(-1 0 0 -1 214.531027382337 214.531064204424)" fill="none" stroke="#ffffff" stroke-width="4.8" stroke-linecap="square" stroke-linejoin="bevel" d="M94.531 3.68221e-05C42.323 3.68221e-05 6.43929e-15 42.323 0 94.5311C0.0385566 42.3551 42.296 -0.0456103 94.531 3.68221e-05Z"/><ellipse id="shape3" transform="translate(103.54979295404, 103.54979295404)" rx="16.4502070459604" ry="16.4502070459604" cx="16.4502070459604" cy="16.4502070459604" fill="none" stroke="#ffffff" stroke-width="4.8" stroke-linecap="square" stroke-linejoin="bevel"/><ellipse id="shape4" transform="translate(51.2507116553061, 96.5638103070677)" rx="6.38895411708147" ry="6.38895411708148" cx="6.38895411708147" cy="6.38895411708148" fill="#ffffff" fill-rule="evenodd" stroke="#000000" stroke-opacity="0" stroke-width="0" stroke-linecap="square" stroke-linejoin="bevel"/><ellipse id="shape5" transform="matrix(-1 0 0 1 188.749288344694 96.5638103070677)" rx="6.38895411708147" ry="6.38895411708148" cx="6.38895411708147" cy="6.38895411708148" fill="#ffffff" fill-rule="evenodd" stroke="#000000" stroke-opacity="0" stroke-width="0" stroke-linecap="square" stroke-linejoin="bevel"/>
</svg>
