<?xml version="1.0" encoding="utf-8"?>
<!-- Generator: Adobe Illustrator 16.0.3, SVG Export Plug-In . SVG Version: 6.00 Build 0)  -->
<!DOCTYPE svg PUBLIC "-//W3C//DTD SVG 1.1//EN" "http://www.w3.org/Graphics/SVG/1.1/DTD/svg11.dtd">
<svg version="1.1" id="Calque_1" xmlns="http://www.w3.org/2000/svg" xmlns:xlink="http://www.w3.org/1999/xlink" x="0px" y="0px"
	 width="300px" height="220px" viewBox="0 0 300 220" enable-background="new 0 0 300 220" xml:space="preserve">
<pattern  x="428" y="388" width="150" height="110" patternUnits="userSpaceOnUse" id="motif3" viewBox="0 -110 150 110" overflow="visible">
	<g>
		<polygon fill="none" points="0,-110 150,-110 150,0 0,0 		"/>
		<path fill="#010101" d="M146.508-35.119c-24.496-2.346-41.051-7.068-50.141-14.433c-7.986-6.473-9.729-14.384-11.416-22.035
			c-1.73-7.863-3.521-15.994-11.94-22.514c-9.426-7.299-25.389-11.555-50.722-13.392l-0.336,1.496
			c24.684,1.79,41.084,6.069,50.141,13.082c7.989,6.187,9.645,13.699,11.395,21.651c3.5,15.888,6.891,32.319,62.424,37.637
			L146.508-35.119z"/>
		<path fill="#010101" d="M140.797-27.391c-24.498-2.348-40.756-7.054-49.701-14.392c-7.855-6.442-9.424-14.317-10.945-21.933
			c-1.561-7.832-3.178-15.931-11.472-22.429c-9.282-7.272-25.404-11.514-50.737-13.351L17.833-98
			c24.679,1.79,41.008,6.054,49.921,13.036c7.857,6.156,9.348,13.629,10.926,21.542c3.158,15.832,6.426,32.203,61.975,37.523
			L140.797-27.391z"/>
		<path fill="#010101" d="M136.678-19.393c-24.496-2.347-40.775-7.065-49.76-14.426c-7.893-6.464-9.512-14.367-11.078-22.011
			c-1.61-7.857-3.274-15.983-11.603-22.5c-9.323-7.295-25.464-11.548-50.797-13.385l-0.109,1.495
			c24.68,1.79,41.029,6.065,49.982,13.071c7.895,6.177,9.432,13.679,11.059,21.62c3.253,15.884,6.619,32.308,62.164,37.628
			L136.678-19.393z"/>
		<path fill="#010101" d="M131.793-11.83c-24.498-2.347-40.756-7.055-49.701-14.391c-7.855-6.444-9.426-14.317-10.945-21.934
			c-1.563-7.833-3.178-15.932-11.473-22.43c-9.282-7.271-25.404-11.513-50.737-13.35l-0.109,1.495
			c24.679,1.79,41.009,6.054,49.921,13.035c7.857,6.156,9.348,13.629,10.926,21.542c3.158,15.832,6.425,32.203,61.974,37.524
			L131.793-11.83z"/>
		<path fill="#010101" d="M128.729-3.997C104.231-6.344,87.45-11.065,78.36-18.43c-7.986-6.473-9.729-14.384-11.415-22.035
			c-1.731-7.862-3.522-15.993-11.941-22.513c-9.426-7.3-25.388-11.556-50.723-13.392l-0.791,1.495
			c24.683,1.79,41.539,6.069,50.595,13.083c7.989,6.187,9.643,13.698,11.395,21.651c3.5,15.889,6.891,32.317,62.423,37.636
			L128.729-3.997z"/>
		<polygon fill="#010101" points="24.819,-105.955 22.224,-107.456 4.218,-76.334 6.813,-74.833 		"/>
		<polygon fill="#010101" points="146.098,-33.916 143.502,-35.417 125.493,-4.298 128.088,-2.796 		"/>
		<polygon fill="#010101" points="32.75,-105.989 31.442,-106.495 13.689,-75.094 14.997,-74.36 		"/>
		<path fill="#010101" d="M68.793-78.672c0,2.906,2.355,5.261,5.262,5.261c2.905,0,5.262-2.355,5.262-5.261
			c0-2.906-2.357-5.262-5.262-5.262C71.148-83.934,68.793-81.579,68.793-78.672z"/>
		<path fill="#010101" d="M17.958-63.266c0,2.906,2.355,5.262,5.261,5.262s5.261-2.355,5.261-5.262c0-2.905-2.355-5.261-5.261-5.261
			S17.958-66.171,17.958-63.266z"/>
		<path fill="#010101" d="M81.049-34.308c0,2.904,2.355,5.261,5.262,5.261s5.262-2.356,5.262-5.261c0-2.906-2.355-5.262-5.262-5.262
			S81.049-37.214,81.049-34.308z"/>
		<path fill="#010101" d="M121.27-45.979c0,2.905,2.357,5.261,5.264,5.261c2.904,0,5.26-2.355,5.26-5.261
			c0-2.906-2.355-5.262-5.26-5.262C123.627-51.24,121.27-48.885,121.27-45.979z"/>
	</g>
</pattern>
<rect fill="url(#motif3)" width="300" height="220"/>
</svg>
