<?xml version="1.0" encoding="utf-8"?>
<!-- Generator: Adobe Illustrator 16.0.3, SVG Export Plug-In . SVG Version: 6.00 Build 0)  -->
<!DOCTYPE svg PUBLIC "-//W3C//DTD SVG 1.1//EN" "http://www.w3.org/Graphics/SVG/1.1/DTD/svg11.dtd">
<svg version="1.1"
	 id="Calque_1" xmlns:krita="http://krita.org/namespaces/svg/krita" xmlns:sodipodi="http://sodipodi.sourceforge.net/DTD/sodipodi-0.dtd"
	 xmlns="http://www.w3.org/2000/svg" xmlns:xlink="http://www.w3.org/1999/xlink" x="0px" y="0px" width="313.221px"
	 height="340.1px" viewBox="83.845 80.331 313.221 340.1" enable-background="new 83.845 80.331 313.221 340.1"
	 xml:space="preserve">
<path d="M397.064,88.042c0.032,2.088-0.751,4.062-2.205,5.557c-1.479,1.522-3.465,2.36-5.591,2.36c-0.179,0-0.355-0.008-0.533-0.021
	l-18.852,15.568c-0.09-0.083-0.202-0.173-0.328-0.268c-1.772,1.172-3.035,1.804-3.788,1.898c-0.193,0.045-0.38,0.034-0.547-0.063
	c-0.015-0.007-0.027-0.016-0.041-0.025c-0.027-0.018-0.055-0.039-0.082-0.063c0-0.001-0.002-0.001-0.002-0.002
	c-0.025-0.027-0.048-0.055-0.068-0.083c-0.008-0.013-0.017-0.025-0.024-0.039c-0.102-0.165-0.119-0.351-0.078-0.546
	c0.072-0.756,0.669-2.035,1.791-3.84c-0.098-0.123-0.191-0.232-0.276-0.32l11.396-14.615l-0.689-1.019l1.854-2.256l1.051,0.434
	l1.422-1.823c-0.019-0.209-0.033-0.419-0.036-0.631c-0.032-2.088,0.751-4.061,2.204-5.556c1.481-1.522,3.466-2.36,5.592-2.36
	c2.05,0,3.988,0.787,5.46,2.218C396.19,84.006,397.033,85.957,397.064,88.042z"/>
<g>
	<circle fill="#FFFFFF" cx="387.27" cy="81.799" r="0.608"/>
	<circle fill="#FFFFFF" cx="393.795" cy="85.592" r="0.607"/>
	<path fill="#FFFFFF" d="M393.973,87.059l0.093,0.118c-0.067,0.055-0.171,0.081-0.313,0.081c-0.918,0-3.361-1.136-4.346-1.668
		l-0.001,0.001c-0.02-0.011-0.043-0.025-0.065-0.038c-0.021-0.012-0.041-0.023-0.062-0.034l0.001-0.001
		c-0.993-0.588-3.852-2.484-3.765-3.17l0.149,0.018c-0.06,0.496,2.376,2.228,3.753,3.057c1.146,0.607,3.513,1.682,4.346,1.682
		C393.889,87.104,393.945,87.08,393.973,87.059z"/>
</g>
<path d="M255.34,185.503c-0.168,0.723-0.173,1.277-0.006,1.704l-0.988,3.56c2.992,5.563-2.084,17.168-8.979,12.109
	c-0.749,0.258-1.357,0.014-1.827-0.732c-0.685-0.59,2.964-15.02,4.565-14.936c0.783-0.419,1.441,0.102,2.057,0.831
	c0.084,0.009,0.167,0.019,0.248,0.03l0.67-1.943c0.549-0.431,0.602-0.968,0.659-1.511c0.717-4.995-5.269-11.459-11.478-11.528
	c-6.248,0.045-12.234,6.523-11.516,11.528c0.057,0.543,0.11,1.079,0.659,1.511l0.668,1.939c0.075-0.01,0.149-0.02,0.226-0.027
	c0.615-0.73,1.273-1.249,2.058-0.831c1.6-0.084,5.249,14.347,4.563,14.937c-0.47,0.746-1.078,0.99-1.826,0.73
	c-6.906,5.068-11.988-6.588-8.962-12.14l-0.98-3.528c0.167-0.427,0.164-0.982-0.005-1.703c-0.881-7.331,5.768-14.992,13.973-15.659
	l0.004-0.007c0.314-0.024,0.628-0.037,0.941-0.04c0.06,0,0.119,0,0.179,0s0.12,0,0.179,0c0.313,0.004,0.627,0.017,0.942,0.041
	l0.003,0.006C249.572,170.511,256.221,178.171,255.34,185.503z"/>
<g>
	<ellipse fill="#FFFFFF" cx="226.44" cy="195.621" rx="0.696" ry="0.677"/>
	<ellipse fill="#FFFFFF" cx="231.375" cy="193.144" rx="0.696" ry="0.677"/>
	<path fill="#FFFFFF" d="M226.438,196.882c1.159-0.215,4.514-1.742,5.577-2.602C231.762,195.568,227.76,197.251,226.438,196.882z"/>
	
		<ellipse transform="matrix(0.493 -0.87 0.87 0.493 -48.1891 320.4011)" fill="#FFFFFF" cx="250.826" cy="201.549" rx="0.677" ry="0.696"/>
	<path fill="#FFFFFF" d="M254.01,199.704c-1.611-0.441-2.234-0.168-3.584,0.057C251.621,198.854,253.739,199.235,254.01,199.704z"/>
</g>
<ellipse id="shape0_6_" cx="145.068" cy="344.3" rx="16.542" ry="16.542"/>
<g>
	<path fill="#FFFFFF" d="M135.329,334.531c-2.618,2.612-4.06,6.088-4.063,9.787l-0.72-0.001c0-3.893,1.518-7.549,4.274-10.297
		c2.741-2.735,6.382-4.242,10.253-4.242c0.005,0,0.009,0,0.013,0v0.72C141.402,330.498,137.937,331.931,135.329,334.531z"/>
	<path fill="#FFFFFF" d="M159.626,344.32c0,3.947-1.556,7.641-4.381,10.4c-0.001,0.001-0.002,0.002-0.003,0.003
		c-2.728,2.667-6.331,4.136-10.144,4.136h-0.013v-0.721c3.63,0,7.059-1.396,9.656-3.933c0-0.001,0.001-0.001,0.001-0.001
		c2.682-2.624,4.16-6.135,4.163-9.887L159.626,344.32z"/>
	<path fill="#FFFFFF" d="M145.086,347.146c-1.559,0-2.828-1.269-2.828-2.828c0-1.559,1.269-2.827,2.828-2.827
		c1.559,0,2.828,1.268,2.828,2.827C147.914,345.877,146.645,347.146,145.086,347.146z M145.086,346.426
		c1.162,0,2.108-0.945,2.108-2.107c0-1.161-0.946-2.106-2.108-2.106c-1.162,0-2.107,0.945-2.107,2.106
		C142.979,345.48,143.924,346.426,145.086,346.426z"/>
	<circle fill="#FFFFFF" cx="135.732" cy="341.761" r="0.958"/>
	<circle fill="#FFFFFF" cx="154.44" cy="341.761" r="0.958"/>
</g>
<rect id="shape0_5_" x="90.361" y="188.489" transform="matrix(0.866 0.5 -0.5 0.866 115.1233 -22.0979)" width="16.875" height="30.584"/>
<g>
	
		<rect x="92.386" y="197.685" transform="matrix(0.866 0.5 -0.5 0.866 114.8021 -22.4349)" fill="#FFFFFF" width="13.751" height="10.601"/>
	<circle fill="#FFFFFF" cx="96.604" cy="194.081" r="0.63"/>
	<circle fill="#FFFFFF" cx="108.295" cy="200.831" r="0.63"/>
	
		<rect x="96.396" y="211.06" transform="matrix(0.8661 0.4999 -0.4999 0.8661 118.9106 -21.2728)" fill="#FFFFFF" width="5.52" height="0.444"/>
	
		<rect x="89.351" y="206.99" transform="matrix(-0.866 -0.5 0.5 -0.866 68.2804 432.7178)" fill="#FFFFFF" width="5.52" height="0.443"/>
	<polygon fill="#FFFFFF" points="95.657,207.462 96.386,209.718 94.072,210.206 	"/>
</g>
<g>
	<circle cx="351.423" cy="294.465" r="2.12"/>
	<path d="M341.955,272.461c5.472,7.968,7.084,17.548,5.08,23.819c-0.017-0.063,0.016,0.062,0,0
		c-1.104,2.634-3.819,4.436-6.977,4.436c-4.14,0-7.494-3.195-7.494-7.14s3.354-7.142,7.494-7.142c1.654,0,3.184,0.514,4.425,1.379
		c-0.059-5.285-1.671-10.065-4.841-14.338l-1.695,0.779c-1.596-0.813-2.258-1.35-1.987-1.611c16.07-8.313,18.397,4.619,14.249,7.299
		C352.13,277.424,352.2,269.92,341.955,272.461z"/>
</g>
<g>
	<circle fill="#FFFFFF" cx="341.402" cy="292.039" r="0.673"/>
	<circle fill="#FFFFFF" cx="333.99" cy="292.039" r="0.673"/>
	<path fill="#FFFFFF" d="M340.717,292.899c-2.09,1.351-4.214,1.396-6.373,0.135C336.025,293.505,337.324,294.056,340.717,292.899z"
		/>
	<circle fill="#FFFFFF" cx="352.59" cy="293.671" r="0.146"/>
	<circle fill="#FFFFFF" cx="350.532" cy="293.671" r="0.146"/>
	<path fill="#FFFFFF" d="M350.909,293.886c0.671-0.004,0.744-0.004,1.383-0.029C351.854,294.19,351.393,294.2,350.909,293.886z"/>
</g>
<path d="M270.248,416.23c0,0.607-0.131,1.183-0.363,1.703c-0.211,0.585-0.531,1.049-0.982,1.372c-0.75,0.696-1.75,1.125-2.854,1.125
	c-2.32,0-4.201-1.88-4.201-4.2c0-2.319,1.881-4.2,4.201-4.2c0.918,0,1.766,0.299,2.457,0.8c-0.055-1.97-0.537-4.334-1.279-6.914
	c-3.518,3.015-7.979,3.923-10.729-2.643c-2.357-5.629,1.316-9.657,4.95-12.928c-1.299-3.203-2.517-6.236-3.383-8.813
	c-4.285-12.745,17.388-1.515,6.733,8.175c-0.789,0.718-1.467,1.428-2.049,2.128c0.343,0.916,0.701,1.856,1.068,2.813
	c0.74-1.314,1.973-1.269,7.734,0.665c2.404,0.806-0.004,6.514-3.729,10.063c1.352,3.967,2.34,7.611,2.375,10.251
	C270.229,415.825,270.248,416.025,270.248,416.23z M265.422,398.816c0.633,1.654,1.258,3.316,1.838,4.941
	c8.012-8.773-8.16-8.597,0.822-4.639C269.4,399.7,267.275,399.596,265.422,398.816z M262.018,389.838
	c3.914-3.461,7.408-6.084,2.76-8.94C258.27,376.897,259.24,382.081,262.018,389.838z M266.74,404.307
	c-0.598-1.884-1.303-3.855-2.063-5.854c-1.055-0.597-1.811-1.451-1.389-2.561c0.068-0.179,0.131-0.347,0.193-0.505
	c-0.396-0.995-0.796-1.988-1.194-2.972c-6.372,8.363,1.095,14.984,3.47,12.83C266.113,404.923,266.439,404.609,266.74,404.307z"/>
<g>
	<ellipse fill="#FFFFFF" cx="262.634" cy="415.898" rx="0.401" ry="0.407"/>
	<ellipse fill="#FFFFFF" cx="266.842" cy="414.523" rx="0.4" ry="0.407"/>
	<path fill="#FFFFFF" d="M266.563,413.871c-1.584,0.189-3.271,0.529-4.119,1.346C262.928,413.725,265.184,412.999,266.563,413.871z"
		/>
</g>
</svg>
