<?xml version="1.0" encoding="utf-8"?>
<!-- Generator: Adobe Illustrator 16.0.3, SVG Export Plug-In . SVG Version: 6.00 Build 0)  -->
<!DOCTYPE svg PUBLIC "-//W3C//DTD SVG 1.1//EN" "http://www.w3.org/Graphics/SVG/1.1/DTD/svg11.dtd">
<svg version="1.1" id="Calque_1" xmlns="http://www.w3.org/2000/svg" xmlns:xlink="http://www.w3.org/1999/xlink" x="0px" y="0px"
	 width="600px" height="600px" viewBox="0 0 600 600" enable-background="new 0 0 600 600" xml:space="preserve">
<pattern  x="300" y="300" width="750" height="750" patternUnits="userSpaceOnUse" id="MotifCroix2" viewBox="110.918 -750 750 750" overflow="visible">
	<g>
		<polygon fill="none" points="110.918,-750 860.918,-750 860.918,0 110.918,0 		"/>
		<path fill="#010101" d="M939.653-20.225c-7.402,8.613-31.92,0.241-59.438-18.911c-22.225,25.111-44.08,39.026-53.309,32.401
			c-9.585-6.882-2.527-33.762,15.646-64.273c-24.858-25.361-38.059-49.818-30.368-58.767c7.401-8.613,31.92-0.241,59.438,18.91
			c22.225-25.111,44.08-39.026,53.309-32.401c9.584,6.881,2.525,33.763-15.646,64.273C934.143-53.631,947.342-29.175,939.653-20.225
			z"/>
		<path fill="#010101" d="M789.653-20.225c-7.402,8.613-31.92,0.241-59.438-18.911c-22.225,25.111-44.08,39.026-53.309,32.401
			c-9.585-6.882-2.527-33.762,15.646-64.273c-24.858-25.361-38.059-49.818-30.368-58.767c7.401-8.613,31.92-0.241,59.438,18.91
			c22.225-25.111,44.08-39.026,53.309-32.401c9.584,6.881,2.525,33.763-15.646,64.273C784.143-53.631,797.342-29.175,789.653-20.225
			z"/>
		<path fill="#010101" d="M639.653-20.225c-7.402,8.613-31.92,0.241-59.438-18.911c-22.225,25.111-44.08,39.026-53.309,32.401
			c-9.585-6.882-2.527-33.762,15.646-64.273c-24.858-25.361-38.059-49.818-30.368-58.767c7.401-8.613,31.92-0.241,59.438,18.91
			c22.225-25.111,44.08-39.026,53.309-32.401c9.584,6.881,2.525,33.763-15.646,64.273C634.143-53.631,647.342-29.175,639.653-20.225
			z"/>
		<path fill="#010101" d="M489.653-20.225c-7.402,8.613-31.92,0.241-59.438-18.911C407.99-14.024,386.135-0.109,376.907-6.734
			c-9.585-6.882-2.527-33.762,15.646-64.273c-24.858-25.361-38.059-49.818-30.368-58.767c7.402-8.613,31.92-0.241,59.438,18.91
			c22.225-25.111,44.081-39.026,53.309-32.401c9.584,6.881,2.525,33.763-15.646,64.273
			C484.143-53.631,497.342-29.175,489.653-20.225z"/>
		<path fill="#010101" d="M339.653-20.225c-7.402,8.613-31.92,0.241-59.438-18.911C257.99-14.024,236.135-0.109,226.907-6.734
			c-9.585-6.882-2.527-33.762,15.646-64.273c-24.858-25.361-38.059-49.818-30.368-58.767c7.402-8.613,31.92-0.241,59.438,18.91
			c22.225-25.111,44.081-39.026,53.309-32.401c9.584,6.881,2.525,33.763-15.646,64.273
			C334.143-53.631,347.342-29.175,339.653-20.225z"/>
		<path fill="#010101" d="M189.653-20.225c-7.402,8.613-31.92,0.241-59.438-18.911C107.99-14.024,86.135-0.109,76.907-6.734
			c-9.585-6.882-2.527-33.762,15.646-64.273c-24.858-25.361-38.059-49.818-30.368-58.767c7.402-8.613,31.92-0.241,59.438,18.91
			c22.225-25.111,44.081-39.026,53.309-32.401c9.584,6.881,2.525,33.763-15.646,64.273
			C184.143-53.631,197.342-29.175,189.653-20.225z"/>
		<path fill="#010101" d="M969.653-170.225c-7.402,8.613-31.92,0.241-59.438-18.911c-22.225,25.111-44.08,39.026-53.309,32.401
			c-9.585-6.882-2.527-33.762,15.646-64.273c-24.858-25.361-38.059-49.818-30.368-58.767c7.401-8.613,31.92-0.241,59.438,18.91
			c22.225-25.111,44.08-39.026,53.309-32.401c9.584,6.881,2.525,33.763-15.646,64.273
			C964.143-203.631,977.342-179.175,969.653-170.225z"/>
		<path fill="#010101" d="M819.653-170.225c-7.402,8.613-31.92,0.241-59.438-18.911c-22.225,25.111-44.08,39.026-53.309,32.401
			c-9.585-6.882-2.527-33.762,15.646-64.273c-24.858-25.361-38.059-49.818-30.368-58.767c7.401-8.613,31.92-0.241,59.438,18.91
			c22.225-25.111,44.08-39.026,53.309-32.401c9.584,6.881,2.525,33.763-15.646,64.273
			C814.143-203.631,827.342-179.175,819.653-170.225z"/>
		<path fill="#010101" d="M669.653-170.225c-7.402,8.613-31.92,0.241-59.438-18.911c-22.225,25.111-44.08,39.026-53.309,32.401
			c-9.585-6.882-2.527-33.762,15.646-64.273c-24.858-25.361-38.059-49.818-30.368-58.767c7.401-8.613,31.92-0.241,59.438,18.91
			c22.225-25.111,44.08-39.026,53.309-32.401c9.584,6.881,2.525,33.763-15.646,64.273
			C664.143-203.631,677.342-179.175,669.653-170.225z"/>
		<path fill="#010101" d="M519.653-170.225c-7.402,8.613-31.92,0.241-59.438-18.911c-22.225,25.111-44.081,39.026-53.308,32.401
			c-9.585-6.882-2.527-33.762,15.646-64.273c-24.858-25.361-38.059-49.818-30.368-58.767c7.402-8.613,31.92-0.241,59.438,18.91
			c22.225-25.111,44.081-39.026,53.309-32.401c9.584,6.881,2.525,33.763-15.646,64.273
			C514.143-203.631,527.342-179.175,519.653-170.225z"/>
		<path fill="#010101" d="M369.653-170.225c-7.402,8.613-31.92,0.241-59.438-18.911c-22.225,25.111-44.081,39.026-53.308,32.401
			c-9.585-6.882-2.527-33.762,15.646-64.273c-24.858-25.361-38.059-49.818-30.368-58.767c7.402-8.613,31.92-0.241,59.438,18.91
			c22.225-25.111,44.081-39.026,53.309-32.401c9.584,6.881,2.525,33.763-15.646,64.273
			C364.143-203.631,377.342-179.175,369.653-170.225z"/>
		<path fill="#010101" d="M219.653-170.225c-7.402,8.613-31.92,0.241-59.438-18.911c-22.225,25.111-44.081,39.026-53.308,32.401
			c-9.585-6.882-2.527-33.762,15.646-64.273c-24.858-25.361-38.059-49.818-30.368-58.767c7.402-8.613,31.92-0.241,59.438,18.91
			c22.225-25.111,44.081-39.026,53.309-32.401c9.584,6.881,2.525,33.763-15.646,64.273
			C214.143-203.631,227.342-179.175,219.653-170.225z"/>
		<path fill="#010101" d="M849.653-320.225c-7.402,8.613-31.92,0.241-59.438-18.911c-22.225,25.111-44.08,39.026-53.309,32.401
			c-9.585-6.882-2.527-33.762,15.646-64.273c-24.858-25.361-38.059-49.818-30.368-58.767c7.401-8.613,31.92-0.241,59.438,18.91
			c22.225-25.111,44.08-39.026,53.309-32.401c9.584,6.881,2.525,33.763-15.646,64.273
			C844.143-353.631,857.342-329.175,849.653-320.225z"/>
		<path fill="#010101" d="M699.653-320.225c-7.402,8.613-31.92,0.241-59.438-18.911c-22.225,25.111-44.08,39.026-53.309,32.401
			c-9.585-6.882-2.527-33.762,15.646-64.273c-24.858-25.361-38.059-49.818-30.368-58.767c7.401-8.613,31.92-0.241,59.438,18.91
			c22.225-25.111,44.08-39.026,53.309-32.401c9.584,6.881,2.525,33.763-15.646,64.273
			C694.143-353.631,707.342-329.175,699.653-320.225z"/>
		<path fill="#010101" d="M549.653-320.225c-7.402,8.613-31.92,0.241-59.438-18.911c-22.225,25.111-44.081,39.026-53.308,32.401
			c-9.585-6.882-2.527-33.762,15.646-64.273c-24.858-25.361-38.059-49.818-30.368-58.767c7.402-8.613,31.92-0.241,59.438,18.91
			c22.225-25.111,44.081-39.026,53.309-32.401c9.584,6.881,2.525,33.763-15.646,64.273
			C544.143-353.631,557.342-329.175,549.653-320.225z"/>
		<path fill="#010101" d="M399.653-320.225c-7.402,8.613-31.92,0.241-59.438-18.911c-22.225,25.111-44.081,39.026-53.308,32.401
			c-9.585-6.882-2.527-33.762,15.646-64.273c-24.858-25.361-38.059-49.818-30.368-58.767c7.402-8.613,31.92-0.241,59.438,18.91
			c22.225-25.111,44.081-39.026,53.309-32.401c9.584,6.881,2.525,33.763-15.646,64.273
			C394.143-353.631,407.342-329.175,399.653-320.225z"/>
		<path fill="#010101" d="M249.653-320.225c-7.402,8.613-31.92,0.241-59.438-18.911c-22.225,25.111-44.081,39.026-53.308,32.401
			c-9.585-6.882-2.527-33.762,15.646-64.273c-24.858-25.361-38.059-49.818-30.368-58.767c7.402-8.613,31.92-0.241,59.438,18.91
			c22.225-25.111,44.081-39.026,53.309-32.401c9.584,6.881,2.525,33.763-15.646,64.273
			C244.143-353.631,257.342-329.175,249.653-320.225z"/>
		<path fill="#010101" d="M879.653-470.225c-7.402,8.613-31.92,0.241-59.438-18.911c-22.225,25.111-44.08,39.026-53.309,32.401
			c-9.585-6.882-2.527-33.762,15.646-64.273c-24.858-25.361-38.059-49.818-30.368-58.767c7.401-8.613,31.92-0.241,59.438,18.91
			c22.225-25.111,44.08-39.026,53.309-32.401c9.584,6.881,2.525,33.763-15.646,64.273
			C874.143-503.631,887.342-479.175,879.653-470.225z"/>
		<path fill="#010101" d="M729.653-470.225c-7.402,8.613-31.92,0.241-59.438-18.911c-22.225,25.111-44.08,39.026-53.309,32.401
			c-9.585-6.882-2.527-33.762,15.646-64.273c-24.858-25.361-38.059-49.818-30.368-58.767c7.401-8.613,31.92-0.241,59.438,18.91
			c22.225-25.111,44.08-39.026,53.309-32.401c9.584,6.881,2.525,33.763-15.646,64.273
			C724.143-503.631,737.342-479.175,729.653-470.225z"/>
		<path fill="#010101" d="M579.653-470.225c-7.402,8.613-31.92,0.241-59.438-18.911c-22.225,25.111-44.081,39.026-53.308,32.401
			c-9.585-6.882-2.527-33.762,15.646-64.273c-24.858-25.361-38.059-49.818-30.368-58.767c7.402-8.613,31.92-0.241,59.438,18.91
			c22.225-25.111,44.08-39.026,53.309-32.401c9.584,6.881,2.525,33.763-15.646,64.273
			C574.143-503.631,587.342-479.175,579.653-470.225z"/>
		<path fill="#010101" d="M429.653-470.225c-7.402,8.613-31.92,0.241-59.438-18.911c-22.225,25.111-44.081,39.026-53.308,32.401
			c-9.585-6.882-2.527-33.762,15.646-64.273c-24.858-25.361-38.059-49.818-30.368-58.767c7.402-8.613,31.92-0.241,59.438,18.91
			c22.225-25.111,44.081-39.026,53.309-32.401c9.584,6.881,2.525,33.763-15.646,64.273
			C424.143-503.631,437.342-479.175,429.653-470.225z"/>
		<path fill="#010101" d="M279.653-470.225c-7.402,8.613-31.92,0.241-59.438-18.911c-22.225,25.111-44.081,39.026-53.308,32.401
			c-9.585-6.882-2.527-33.762,15.646-64.273c-24.858-25.361-38.059-49.818-30.368-58.767c7.402-8.613,31.92-0.241,59.438,18.91
			c22.225-25.111,44.081-39.026,53.309-32.401c9.584,6.881,2.525,33.763-15.646,64.273
			C274.143-503.631,287.342-479.175,279.653-470.225z"/>
		<path fill="#010101" d="M129.653-470.225c-7.402,8.613-31.92,0.241-59.438-18.911c-22.225,25.111-44.081,39.026-53.308,32.401
			c-9.585-6.882-2.527-33.762,15.646-64.273C7.695-546.369-5.506-570.826,2.185-579.774c7.402-8.613,31.92-0.241,59.438,18.91
			c22.225-25.111,44.081-39.026,53.309-32.401c9.584,6.881,2.525,33.763-15.646,64.273
			C124.143-503.631,137.342-479.175,129.653-470.225z"/>
		<path fill="#010101" d="M909.653-620.225c-7.402,8.613-31.92,0.241-59.438-18.911c-22.225,25.111-44.08,39.026-53.309,32.401
			c-9.585-6.882-2.527-33.762,15.646-64.273c-24.858-25.361-38.059-49.818-30.368-58.767c7.401-8.613,31.92-0.241,59.438,18.91
			c22.225-25.111,44.08-39.026,53.309-32.401c9.584,6.881,2.525,33.763-15.646,64.273
			C904.143-653.631,917.342-629.175,909.653-620.225z"/>
		<path fill="#010101" d="M759.653-620.225c-7.402,8.613-31.92,0.241-59.438-18.911c-22.225,25.111-44.08,39.026-53.309,32.401
			c-9.585-6.882-2.527-33.762,15.646-64.273c-24.858-25.361-38.059-49.818-30.368-58.767c7.401-8.613,31.92-0.241,59.438,18.91
			c22.225-25.111,44.08-39.026,53.309-32.401c9.584,6.881,2.525,33.763-15.646,64.273
			C754.143-653.631,767.342-629.175,759.653-620.225z"/>
		<path fill="#010101" d="M609.653-620.225c-7.402,8.613-31.92,0.241-59.438-18.911c-22.225,25.111-44.08,39.026-53.309,32.401
			c-9.585-6.882-2.527-33.762,15.646-64.273c-24.858-25.361-38.059-49.818-30.368-58.767c7.401-8.613,31.92-0.241,59.438,18.91
			c22.225-25.111,44.08-39.026,53.309-32.401c9.584,6.881,2.525,33.763-15.646,64.273
			C604.143-653.631,617.342-629.175,609.653-620.225z"/>
		<path fill="#010101" d="M459.653-620.225c-7.402,8.613-31.92,0.241-59.438-18.911c-22.225,25.111-44.081,39.026-53.308,32.401
			c-9.585-6.882-2.527-33.762,15.646-64.273c-24.858-25.361-38.059-49.818-30.368-58.767c7.402-8.613,31.92-0.241,59.438,18.91
			c22.225-25.111,44.081-39.026,53.309-32.401c9.584,6.881,2.525,33.763-15.646,64.273
			C454.143-653.631,467.342-629.175,459.653-620.225z"/>
		<path fill="#010101" d="M309.653-620.225c-7.402,8.613-31.92,0.241-59.438-18.911c-22.225,25.111-44.081,39.026-53.308,32.401
			c-9.585-6.882-2.527-33.762,15.646-64.273c-24.858-25.361-38.059-49.818-30.368-58.767c7.402-8.613,31.92-0.241,59.438,18.91
			c22.225-25.111,44.081-39.026,53.309-32.401c9.584,6.881,2.525,33.763-15.646,64.273
			C304.143-653.631,317.342-629.175,309.653-620.225z"/>
		<path fill="#010101" d="M159.653-620.225c-7.402,8.613-31.92,0.241-59.438-18.911c-22.225,25.111-44.081,39.026-53.308,32.401
			c-9.585-6.882-2.527-33.762,15.646-64.273c-24.858-25.361-38.059-49.818-30.368-58.767c7.402-8.613,31.92-0.241,59.438,18.91
			c22.225-25.111,44.081-39.026,53.309-32.401c9.584,6.881,2.525,33.763-15.646,64.273
			C154.143-653.631,167.342-629.175,159.653-620.225z"/>
	</g>
</pattern>
<rect fill="url(#MotifCroix2)" width="600" height="600"/>
</svg>
