<?xml version="1.0" encoding="utf-8"?>
<!-- Generator: Adobe Illustrator 16.0.3, SVG Export Plug-In . SVG Version: 6.00 Build 0)  -->
<!DOCTYPE svg PUBLIC "-//W3C//DTD SVG 1.1//EN" "http://www.w3.org/Graphics/SVG/1.1/DTD/svg11.dtd">
<svg version="1.1"
	 id="Calque_1" xmlns:krita="http://krita.org/namespaces/svg/krita" xmlns:sodipodi="http://sodipodi.sourceforge.net/DTD/sodipodi-0.dtd"
	 xmlns="http://www.w3.org/2000/svg" xmlns:xlink="http://www.w3.org/1999/xlink" x="0px" y="0px" width="480px" height="480px"
	 viewBox="0 0 480 480" enable-background="new 0 0 480 480" xml:space="preserve">
<path d="M355.638,60.537c-1.472-1.431-3.41-2.218-5.46-2.218c-2.126,0-4.111,0.838-5.592,2.36c-1.453,1.495-2.236,3.468-2.204,5.556
	c0.003,0.212,0.017,0.422,0.036,0.631l-1.422,1.823l-1.051-0.434l-1.854,2.256l0.689,1.019l-11.396,14.615
	c0.085,0.088,0.179,0.197,0.276,0.32c-1.122,1.805-1.719,3.084-1.791,3.84c-0.041,0.195-0.023,0.381,0.078,0.546
	c0.008,0.014,0.017,0.026,0.025,0.039c0.02,0.028,0.043,0.056,0.068,0.083c0,0.001,0.002,0.001,0.002,0.002
	c0.027,0.024,0.055,0.045,0.082,0.063c0.014,0.009,0.026,0.018,0.041,0.025c0.167,0.097,0.354,0.108,0.547,0.063
	c0.753-0.094,2.016-0.726,3.788-1.898c0.126,0.095,0.238,0.185,0.328,0.268l18.852-15.568c0.177,0.012,0.354,0.02,0.533,0.02
	c2.126,0,4.111-0.838,5.591-2.36c1.454-1.495,2.237-3.469,2.205-5.557C357.978,63.945,357.135,61.994,355.638,60.537z"/>
<g>
	<circle fill="#FFFFFF" cx="348.214" cy="59.787" r="0.608"/>
	<circle fill="#FFFFFF" cx="354.74" cy="63.58" r="0.607"/>
	<path fill="#FFFFFF" d="M354.708,65.093c-0.833,0-3.199-1.075-4.346-1.682c-1.377-0.829-3.812-2.561-3.753-3.057l-0.149-0.018
		c-0.087,0.686,2.771,2.582,3.765,3.17l-0.001,0.001c0.02,0.011,0.04,0.022,0.061,0.034c0.023,0.013,0.046,0.027,0.066,0.038
		l0.001-0.001c0.984,0.532,3.427,1.668,4.345,1.668c0.142,0,0.245-0.026,0.313-0.081l-0.093-0.118
		C354.89,65.068,354.833,65.093,354.708,65.093z"/>
</g>
<path d="M244.793,207.999l-0.003-0.006c-0.315-0.024-0.63-0.037-0.942-0.041c-0.059,0-0.119,0-0.179,0s-0.119,0-0.179,0
	c-0.313,0.003-0.627,0.016-0.941,0.04l-0.004,0.007c-8.205,0.667-14.854,8.328-13.973,15.658c0.169,0.722,0.172,1.277,0.005,1.704
	l0.981,3.528c-3.027,5.552,2.055,17.209,8.961,12.141c0.749,0.258,1.357,0.014,1.827-0.732c0.685-0.59-2.964-15.02-4.564-14.936
	c-0.784-0.418-1.442,0.101-2.058,0.831c-0.075,0.008-0.15,0.017-0.225,0.027l-0.668-1.939c-0.549-0.432-0.603-0.968-0.659-1.511
	c-0.719-5.005,5.267-11.483,11.515-11.528c6.209,0.069,12.195,6.533,11.478,11.528c-0.057,0.543-0.11,1.08-0.659,1.511l-0.67,1.943
	c-0.081-0.011-0.164-0.022-0.248-0.03c-0.615-0.73-1.273-1.25-2.057-0.831c-1.602-0.084-5.25,14.346-4.565,14.936
	c0.47,0.746,1.078,0.99,1.827,0.732c6.895,5.059,11.97-6.546,8.978-12.11l0.989-3.559c-0.167-0.427-0.163-0.981,0.005-1.704
	C259.646,216.326,252.998,208.666,244.793,207.999z"/>
<g>
	<ellipse fill="#FFFFFF" cx="229.866" cy="233.776" rx="0.696" ry="0.677"/>
	<ellipse fill="#FFFFFF" cx="234.801" cy="231.298" rx="0.696" ry="0.677"/>
	<path fill="#FFFFFF" d="M235.441,232.435c-1.063,0.859-4.418,2.387-5.577,2.601C231.185,235.406,235.187,233.723,235.441,232.435z"
		/>
	
		<ellipse transform="matrix(-0.4928 0.8701 -0.8701 -0.4928 588.1212 136.6216)" fill="#FFFFFF" cx="254.242" cy="239.718" rx="0.677" ry="0.696"/>
	<path fill="#FFFFFF" d="M253.852,237.916c1.349-0.225,1.972-0.498,3.584-0.057C257.165,237.39,255.047,237.009,253.852,237.916z"/>
</g>
<ellipse id="shape0_1_" cx="165.66" cy="427.426" rx="16.542" ry="16.542"/>
<g>
	<path fill="#FFFFFF" d="M165.678,413.624v-0.72c-0.004,0-0.008,0-0.013,0c-3.871,0-7.512,1.507-10.253,4.243
		c-2.756,2.748-4.274,6.404-4.274,10.296l0.72,0.001c0.003-3.699,1.445-7.175,4.063-9.787
		C158.529,415.056,161.994,413.624,165.678,413.624z"/>
	<path fill="#FFFFFF" d="M179.498,427.444c-0.003,3.752-1.481,7.263-4.163,9.887c0,0-0.001,0-0.001,0.001
		c-2.597,2.536-6.026,3.933-9.656,3.933l0,0.72h0.013c3.813,0,7.416-1.468,10.144-4.135c0.001-0.001,0.002-0.002,0.003-0.003
		c2.825-2.76,4.381-6.453,4.381-10.401L179.498,427.444z"/>
	<path fill="#FFFFFF" d="M168.506,427.444c0-1.559-1.269-2.827-2.828-2.827s-2.828,1.269-2.828,2.827
		c0,1.56,1.269,2.828,2.828,2.828S168.506,429.003,168.506,427.444z M163.571,427.444c0-1.161,0.945-2.106,2.107-2.106
		c1.162,0,2.108,0.945,2.108,2.106c0,1.162-0.946,2.108-2.108,2.108C164.516,429.552,163.571,428.606,163.571,427.444z"/>
	<circle fill="#FFFFFF" cx="156.324" cy="424.887" r="0.958"/>
	<circle fill="#FFFFFF" cx="175.032" cy="424.887" r="0.958"/>
</g>
<rect id="shape0_2_" x="60.804" y="120.905" transform="matrix(-0.866 -0.5 0.5 -0.866 61.1056 288.7688)" width="16.876" height="30.585"/>
<g>
	
		<rect x="62.826" y="130.1" transform="matrix(-0.866 -0.5 0.5 -0.866 62.3645 287.5128)" fill="#FFFFFF" width="13.751" height="10.602"/>
	<circle fill="#FFFFFF" cx="67.046" cy="126.501" r="0.63"/>
	<circle fill="#FFFFFF" cx="78.737" cy="133.251" r="0.63"/>
	
		<rect x="66.848" y="143.482" transform="matrix(-0.8661 -0.4999 0.4999 -0.8661 58.0482 302.9607)" fill="#FFFFFF" width="5.52" height="0.444"/>
	
		<rect x="59.798" y="139.412" transform="matrix(0.866 0.5 -0.5 0.866 78.1951 -12.5716)" fill="#FFFFFF" width="5.52" height="0.444"/>
	<polygon fill="#FFFFFF" points="64.514,142.625 66.828,142.137 66.099,139.881 	"/>
</g>
<g>
	<circle cx="416.761" cy="345.255" r="2.12"/>
	<path d="M415.547,330.733c4.148-2.68,1.821-15.613-14.249-7.299c-0.271,0.262,0.391,0.799,1.987,1.611l1.695-0.779
		c3.17,4.272,4.783,9.052,4.841,14.338c-1.241-0.866-2.77-1.379-4.425-1.379c-4.139,0-7.494,3.197-7.494,7.141
		s3.355,7.14,7.494,7.14c3.158,0,5.874-1.802,6.977-4.436c0.016,0.062-0.017-0.063,0,0c2.004-6.271,0.392-15.851-5.08-23.819
		C417.538,320.71,417.468,328.214,415.547,330.733z"/>
</g>
<g>
	<circle fill="#FFFFFF" cx="406.74" cy="342.829" r="0.673"/>
	<circle fill="#FFFFFF" cx="399.328" cy="342.829" r="0.673"/>
	<path fill="#FFFFFF" d="M399.682,343.824c2.159,1.261,4.283,1.216,6.373-0.134C402.662,344.846,401.363,344.295,399.682,343.824z"
		/>
	<circle fill="#FFFFFF" cx="417.928" cy="344.461" r="0.146"/>
	<circle fill="#FFFFFF" cx="415.87" cy="344.461" r="0.146"/>
	<path fill="#FFFFFF" d="M417.63,344.647c-0.639,0.025-0.712,0.025-1.383,0.029C416.73,344.99,417.191,344.981,417.63,344.647z"/>
</g>
</svg>
