<svg width="534" height="668" viewBox="0 0 534 668" fill="none" xmlns="http://www.w3.org/2000/svg">
<path d="M50.4268 88.2348L50.3334 159V509.14C50.3334 568.971 98.8359 617.474 158.667 617.474L445.876 617.482C435.578 646.607 407.799 667.474 375.147 667.474H158.667C71.2216 667.474 0.333374 596.585 0.333374 509.14V159C0.333374 126.31 21.2482 98.5042 50.4268 88.2348ZM458.667 0.666748C500.088 0.666748 533.667 34.2454 533.667 75.6667V509C533.667 550.421 500.088 584 458.667 584H158.667C117.245 584 83.6667 550.421 83.6667 509V75.6667C83.6667 34.2454 117.245 0.666748 158.667 0.666748H458.667ZM458.667 50.6667H158.667C144.86 50.6667 133.667 61.8596 133.667 75.6667V509C133.667 522.807 144.86 534 158.667 534H458.667C472.474 534 483.667 522.807 483.667 509V75.6667C483.667 61.8596 472.474 50.6667 458.667 50.6667Z" fill="white"/>
</svg>
