<svg width="244" height="38" viewBox="0 0 244 38" fill="none" xmlns="http://www.w3.org/2000/svg">
<path d="M8.68 26.08C11.48 26.08 14.16 25.6 16.72 24.64L18.08 28.96C15.92 29.6267 13.72 29.96 11.48 29.96C9.24 29.96 7.24 29.72 5.48 29.24C3.74667 28.76 2.41333 28.1333 1.48 27.36C1.02667 25.12 0.8 22.9067 0.8 20.72C0.8 16.2667 1.64 12.2267 3.32 8.6C5 4.97333 6.93333 2.44 9.12 0.999998L16.84 5.88C13.16 8.22667 10.24 11.2133 8.08 14.84C5.92 18.4667 4.84 22.12 4.84 25.8C5.98667 25.9867 7.26667 26.08 8.68 26.08ZM23.4781 29.92C23.0248 29.92 22.6915 29.9067 22.4781 29.88C21.5715 29.2667 20.8381 28.36 20.2781 27.16C19.7448 25.9333 19.4781 24.6667 19.4781 23.36C19.4781 21.6533 20.1181 20.4133 21.3981 19.64C22.7048 18.8667 25.0915 18.48 28.5581 18.48C29.8381 18.48 31.1715 18.5733 32.5581 18.76L32.4781 17.88C32.3715 16.8133 31.8648 15.9733 30.9581 15.36C30.0515 14.72 28.8915 14.4 27.4781 14.4C26.0648 14.4 24.6515 14.84 23.2381 15.72L21.4781 9.92C23.7715 8.98667 26.3848 8.52 29.3181 8.52C32.2515 8.52 34.5715 9.18667 36.2781 10.52C37.9848 11.8267 38.8381 13.88 38.8381 16.68C38.8381 17.32 38.8115 17.8267 38.7581 18.2L37.6381 29.24L33.6781 29.6L33.0781 23.8H32.7581C31.8515 25.72 30.5981 27.2267 28.9981 28.32C27.3981 29.3867 25.5581 29.92 23.4781 29.92ZM32.7181 20.44L30.5981 20.4C28.8381 20.4 27.3981 20.4933 26.2781 20.68C25.9048 21.4267 25.7181 22.0933 25.7181 22.68C25.7181 23.2667 25.7981 23.8267 25.9581 24.36C26.1181 24.8933 26.2915 25.2533 26.4781 25.44C29.6781 24.9333 31.7581 23.2667 32.7181 20.44ZM47.3213 29.6L45.6013 13.44L41.9213 13.96L41.6813 9.84L45.2013 9.68L44.6013 4.08L54.5613 2.76L53.7613 9.24L57.7213 9.04L57.6013 11.72L53.3613 12.32L51.2812 29.24L47.3213 29.6ZM66.6503 26.48C69.2103 26.48 71.6236 26.04 73.8903 25.16L75.0903 29.04C73.2236 29.6533 71.2636 29.96 69.2103 29.96C67.157 29.96 65.3436 29.7333 63.7703 29.28C62.197 28.8533 60.997 28.2933 60.1703 27.6C59.7703 25.68 59.5703 23.8933 59.5703 22.24C59.5703 18.9067 60.317 15.88 61.8103 13.16C63.3303 10.44 65.077 8.53333 67.0503 7.44L73.9703 11.96C70.6103 13.7733 67.9703 15.9333 66.0503 18.44C64.1303 20.92 63.1703 23.52 63.1703 26.24C64.2903 26.4 65.4503 26.48 66.6503 26.48ZM94.7288 8.08C95.2088 8.08 95.6888 8.16 96.1687 8.32C97.5288 9.97333 98.4621 12.84 98.9688 16.92C99.4754 20.9733 99.7288 25 99.7288 29L92.5288 29.6C92.5288 23.4667 92.3021 17.88 91.8488 12.84C88.3021 14.1467 85.9421 19.6133 84.7688 29.24L80.8088 29.6L78.7688 1.68L87.3288 0.359999L85.8488 16.84H86.2088C87.3021 14.1467 88.5821 12.0133 90.0488 10.44C91.5421 8.86667 93.1021 8.08 94.7288 8.08ZM115.33 31.32C114.397 33.64 113.424 35.24 112.41 36.12C111.424 37.0267 110.104 37.48 108.45 37.48C106.824 37.48 105.264 36.88 103.77 35.68L104.97 33.64C105.85 33.96 106.81 34.12 107.85 34.12C108.917 34.12 109.877 33.7733 110.73 33.08C111.584 32.3867 112.13 31.3333 112.37 29.92L104.09 9.8L112.65 8.48L115.29 23.84H115.61L120.77 8.6L124.01 9.48L115.33 31.32ZM141.139 3.8C144.872 2.6 148.645 2 152.459 2C156.272 2 159.205 2.64 161.259 3.92C161.739 5.36 161.979 6.73333 161.979 8.04C161.979 11.1067 160.712 13.68 158.179 15.76C155.645 17.8133 152.379 19.2933 148.379 20.2L147.419 29.16L143.419 29.56L141.139 3.8ZM154.259 9.2C154.259 7.14667 153.419 5.61333 151.739 4.6C151.259 4.6 150.672 4.69333 149.979 4.88L148.659 17.48C150.392 16.52 151.752 15.28 152.739 13.76C153.752 12.24 154.259 10.72 154.259 9.2ZM167.775 29.92C167.322 29.92 166.988 29.9067 166.775 29.88C165.868 29.2667 165.135 28.36 164.575 27.16C164.042 25.9333 163.775 24.6667 163.775 23.36C163.775 21.6533 164.415 20.4133 165.695 19.64C167.002 18.8667 169.388 18.48 172.855 18.48C174.135 18.48 175.468 18.5733 176.855 18.76L176.775 17.88C176.668 16.8133 176.162 15.9733 175.255 15.36C174.348 14.72 173.188 14.4 171.775 14.4C170.362 14.4 168.948 14.84 167.535 15.72L165.775 9.92C168.068 8.98667 170.682 8.52 173.615 8.52C176.548 8.52 178.868 9.18667 180.575 10.52C182.282 11.8267 183.135 13.88 183.135 16.68C183.135 17.32 183.108 17.8267 183.055 18.2L181.935 29.24L177.975 29.6L177.375 23.8H177.055C176.148 25.72 174.895 27.2267 173.295 28.32C171.695 29.3867 169.855 29.92 167.775 29.92ZM177.015 20.44L174.895 20.4C173.135 20.4 171.695 20.4933 170.575 20.68C170.202 21.4267 170.015 22.0933 170.015 22.68C170.015 23.2667 170.095 23.8267 170.255 24.36C170.415 24.8933 170.588 25.2533 170.775 25.44C173.975 24.9333 176.055 23.2667 177.015 20.44ZM200.898 15.84C199.085 15.84 197.711 16.48 196.778 17.76C195.845 19.0133 195.165 21.3333 194.738 24.72L194.178 29.24L190.218 29.6L188.178 9.76L196.738 8.44L195.938 14.84H196.218C198.351 10.2533 201.071 7.81333 204.378 7.52L203.258 16.04C202.271 15.9067 201.485 15.84 200.898 15.84ZM210.407 29.6L208.687 13.44L205.007 13.96L204.767 9.84L208.287 9.68L207.687 4.08L217.647 2.76L216.847 9.24L220.807 9.04L220.687 11.72L216.447 12.32L214.367 29.24L210.407 29.6ZM234.354 31.32C233.42 33.64 232.447 35.24 231.434 36.12C230.447 37.0267 229.127 37.48 227.474 37.48C225.847 37.48 224.287 36.88 222.794 35.68L223.994 33.64C224.874 33.96 225.834 34.12 226.874 34.12C227.94 34.12 228.9 33.7733 229.754 33.08C230.607 32.3867 231.154 31.3333 231.394 29.92L223.114 9.8L231.674 8.48L234.314 23.84H234.634L239.794 8.6L243.034 9.48L234.354 31.32Z" fill="#FF570A"/>
</svg>
