<svg width="49" height="50" viewBox="0 0 49 50" fill="none" xmlns="http://www.w3.org/2000/svg">
<path d="M24.5 0.699951C10.976 0.699951 0 11.676 0 25.2C0 38.724 10.976 49.7 24.5 49.7C38.024 49.7 49 38.724 49 25.2C49 11.676 38.024 0.699951 24.5 0.699951ZM12.4215 40.586C13.475 38.381 19.894 36.225 24.5 36.225C29.106 36.225 35.5495 38.381 36.5785 40.586C33.2465 43.232 29.057 44.8 24.5 44.8C19.943 44.8 15.7535 43.232 12.4215 40.586ZM40.082 37.0335C36.5785 32.7705 28.077 31.325 24.5 31.325C20.923 31.325 12.4215 32.7705 8.918 37.0335C6.419 33.7505 4.9 29.659 4.9 25.2C4.9 14.3955 13.6955 5.59995 24.5 5.59995C35.3045 5.59995 44.1 14.3955 44.1 25.2C44.1 29.659 42.581 33.7505 40.082 37.0335ZM24.5 10.5C19.747 10.5 15.925 14.322 15.925 19.075C15.925 23.828 19.747 27.65 24.5 27.65C29.253 27.65 33.075 23.828 33.075 19.075C33.075 14.322 29.253 10.5 24.5 10.5ZM24.5 22.75C22.4665 22.75 20.825 21.1085 20.825 19.075C20.825 17.0415 22.4665 15.4 24.5 15.4C26.5335 15.4 28.175 17.0415 28.175 19.075C28.175 21.1085 26.5335 22.75 24.5 22.75Z" fill="#BBB8B2"/>
</svg>
