<?xml version="1.0" encoding="utf-8"?>
<!-- Generator: Adobe Illustrator 16.0.3, SVG Export Plug-In . SVG Version: 6.00 Build 0)  -->
<!DOCTYPE svg PUBLIC "-//W3C//DTD SVG 1.1//EN" "http://www.w3.org/Graphics/SVG/1.1/DTD/svg11.dtd">
<svg version="1.1"
	 id="Calque_1" xmlns:krita="http://krita.org/namespaces/svg/krita" xmlns:sodipodi="http://sodipodi.sourceforge.net/DTD/sodipodi-0.dtd"
	 xmlns="http://www.w3.org/2000/svg" xmlns:xlink="http://www.w3.org/1999/xlink" x="0px" y="0px" width="240px" height="240px"
	 viewBox="0 0 240 240" enable-background="new 0 0 240 240" xml:space="preserve">
<path id="shape5" fill="#F0F0F0" d="M168.48,131.68l-0.695,0.23l-0.73,0.225l-0.768,0.221l-0.801,0.213l-0.832,0.209l-0.863,0.203
	l-0.893,0.199l-0.92,0.192l-0.947,0.188l-0.971,0.183l-0.994,0.177l-1.018,0.172l-1.035,0.167l-1.056,0.163l-1.072,0.157
	l-1.088,0.151l-1.103,0.146l-1.113,0.145l-1.126,0.137l-1.136,0.133l-1.145,0.128l-1.15,0.124l-1.153,0.118l-1.16,0.114
	l-1.161,0.108l-1.16,0.104l-1.162,0.101l-1.158,0.097l-1.154,0.092l-1.15,0.086l-1.142,0.082l-1.136,0.078l-1.123,0.074
	l-1.113,0.069l-1.1,0.063l-1.086,0.063l-1.07,0.059l-1.053,0.053l-1.033,0.049l-1.014,0.044l-0.992,0.041l-0.967,0.037l-0.943,0.032
	l-0.917,0.027l-0.89,0.025l-0.858,0.021L120.5,137.2l-0.5,0.009l-0.5-0.009l-0.829-0.017l-0.859-0.022l-0.889-0.025l-0.917-0.028
	l-0.943-0.031l-0.968-0.037l-0.992-0.041l-1.013-0.044l-1.034-0.05l-1.052-0.053l-1.07-0.058l-1.086-0.062l-1.1-0.064l-1.113-0.07
	l-1.124-0.074l-1.135-0.078l-1.142-0.08l-1.15-0.088l-1.155-0.092l-1.159-0.096l-1.161-0.101l-1.162-0.104l-1.161-0.109
	l-1.159-0.113l-1.155-0.118l-1.15-0.124l-1.144-0.128l-1.135-0.133l-1.126-0.138l-1.114-0.144l-1.102-0.147l-1.088-0.15
	l-1.072-0.157l-1.055-0.163l-1.036-0.167l-1.016-0.172l-0.995-0.177l-0.971-0.184l-0.946-0.188l-0.92-0.191l-0.893-0.199
	l-0.863-0.203l-0.833-0.209l-0.801-0.213l-0.767-0.221l-0.731-0.226l-0.695-0.229l0.53,0.305l0.562,0.312l0.592,0.315l0.622,0.32
	l0.65,0.324l0.678,0.327l0.706,0.331l0.732,0.333l0.757,0.335l0.782,0.337l0.806,0.337l0.829,0.338l0.851,0.338l0.873,0.336
	l0.893,0.334l0.913,0.334l0.932,0.33l0.95,0.326l0.967,0.323l0.983,0.32l1,0.313l1.014,0.312l1.028,0.304l1.041,0.298l1.054,0.291
	l1.065,0.284l1.076,0.275l1.086,0.268l1.095,0.259l1.104,0.249l1.111,0.239l1.118,0.229l1.124,0.217l1.128,0.207l1.132,0.191
	l1.136,0.182l1.139,0.168l1.14,0.154l1.141,0.139l1.141,0.125l1.14,0.108l1.139,0.095l1.137,0.076l1.133,0.061l1.129,0.043
	l1.124,0.023l1.119,0.006l1.112-0.016l1.105-0.031l0.863-0.043l0.863,0.043l1.104,0.031l1.112,0.016l1.119-0.006l1.124-0.023
	l1.129-0.043l1.133-0.061l1.138-0.076l1.139-0.095l1.141-0.108l1.143-0.125l1.141-0.139l1.14-0.154l1.14-0.168l1.137-0.182
	l1.132-0.191l1.128-0.207l1.124-0.217l1.117-0.229l1.11-0.239l1.104-0.249l1.096-0.259l1.088-0.268l1.074-0.275l1.065-0.284
	l1.054-0.291l1.041-0.298l1.027-0.304l1.016-0.312l0.999-0.313l0.983-0.32l0.968-0.323l0.948-0.326l0.933-0.33l0.913-0.334
	l0.893-0.334l0.873-0.336l0.852-0.338l0.83-0.338l0.806-0.337l0.782-0.337l0.757-0.335l0.731-0.333l0.705-0.331l0.678-0.327
	l0.65-0.324l0.621-0.32l0.594-0.315l0.562-0.312L168.48,131.68"/>
</svg>
